<svg width="16" height="16" viewBox="0 0 16 16" fill="none" xmlns="http://www.w3.org/2000/svg">
<path d="M12.0003 8.78537V6.66536C11.9994 5.72078 11.6642 4.80701 11.0541 4.08588C10.444 3.36475 9.59837 2.8828 8.66699 2.72536V1.9987C8.66699 1.82189 8.59675 1.65232 8.47173 1.52729C8.34671 1.40227 8.17714 1.33203 8.00033 1.33203C7.82351 1.33203 7.65394 1.40227 7.52892 1.52729C7.4039 1.65232 7.33366 1.82189 7.33366 1.9987V2.72536C6.40229 2.8828 5.55667 3.36475 4.94658 4.08588C4.33649 4.80701 4.00128 5.72078 4.00033 6.66536V8.78537C3.61129 8.92291 3.27432 9.17741 3.03562 9.51399C2.79691 9.85056 2.66815 10.2527 2.66699 10.6654V11.9987C2.66699 12.1755 2.73723 12.3451 2.86225 12.4701C2.98728 12.5951 3.15685 12.6654 3.33366 12.6654H5.42699C5.58051 13.2303 5.91566 13.729 6.38072 14.0845C6.84579 14.4401 7.41492 14.6327 8.00033 14.6327C8.58573 14.6327 9.15486 14.4401 9.61993 14.0845C10.085 13.729 10.4201 13.2303 10.5737 12.6654H12.667C12.8438 12.6654 13.0134 12.5951 13.1384 12.4701C13.2634 12.3451 13.3337 12.1755 13.3337 11.9987V10.6654C13.3325 10.2527 13.2037 9.85056 12.965 9.51399C12.7263 9.17741 12.3894 8.92291 12.0003 8.78537ZM5.33366 6.66536C5.33366 5.95812 5.61461 5.27984 6.11471 4.77975C6.6148 4.27965 7.29308 3.9987 8.00033 3.9987C8.70757 3.9987 9.38585 4.27965 9.88594 4.77975C10.386 5.27984 10.667 5.95812 10.667 6.66536V8.66536H5.33366V6.66536ZM8.00033 13.332C7.76764 13.3306 7.53937 13.2684 7.33821 13.1514C7.13705 13.0344 6.97 12.8669 6.85366 12.6654H9.14699C9.03065 12.8669 8.8636 13.0344 8.66244 13.1514C8.46128 13.2684 8.23301 13.3306 8.00033 13.332ZM12.0003 11.332H4.00033V10.6654C4.00033 10.4886 4.07056 10.319 4.19559 10.194C4.32061 10.0689 4.49018 9.9987 4.66699 9.9987H11.3337C11.5105 9.9987 11.68 10.0689 11.8051 10.194C11.9301 10.319 12.0003 10.4886 12.0003 10.6654V11.332Z" fill="#2AB459"/>
</svg>
