<svg id="acea8109-1502-48c8-94a4-0381c229c14e" data-name="Layer 1" xmlns="http://www.w3.org/2000/svg" xmlns:xlink="http://www.w3.org/1999/xlink" viewBox="0 0 32 32"><defs><clipPath id="b4160ea0-9d34-4db9-8c26-379fcf6618c8"><path d="M27.8157,32H3.4946c.0087-.1034.0247-.2068.0248-.31.0016-1.6678.0053-3.3357-.0022-5.0035a1.2234,1.2234,0,0,1,.337-.9324,8.0433,8.0433,0,0,1,.9883-.8508A14.8383,14.8383,0,0,1,7.737,23.4546c1.0316-.4222,2.0733-.8306,3.067-1.3314a3.2648,3.2648,0,0,0,1.9451-2.6453,1.8786,1.8786,0,0,0-.306-1.64,4.2616,4.2616,0,0,1-1.11-2.2676.7669.7669,0,0,0-.4755-.61,1.0489,1.0489,0,0,1-.6291-.7564,5.2385,5.2385,0,0,1-.1551-.9788,1.2933,1.2933,0,0,1,.3752-1.0272.3612.3612,0,0,0,.0664-.2722c-.0829-.6312-.1676-1.2625-.2726-1.89a4.1852,4.1852,0,0,1,2.1318-4.1193A6.8345,6.8345,0,0,1,16.0478,5.18a5.6888,5.6888,0,0,1,3.323,1.026,4.0275,4.0275,0,0,1,1.7209,3.5432,19.4371,19.4371,0,0,1-.2852,2.046.5538.5538,0,0,0,.1286.5129,1.0328,1.0328,0,0,1,.2664.63,5.84,5.84,0,0,1-.1881,1.409,1.1011,1.1011,0,0,1-.5.5629,1.0391,1.0391,0,0,0-.5638.7611,4.1288,4.1288,0,0,1-1.0272,2.1106,1.4278,1.4278,0,0,0-.3692.7565A3.304,3.304,0,0,0,19.93,21.7636a11.117,11.117,0,0,0,2.3969,1.2147c.8732.3515,1.7532.6883,2.6136,1.0689a8.7111,8.7111,0,0,1,2.0952,1.2751,1.8937,1.8937,0,0,1,.7671,1.6c-.0424,1.5881-.0138,3.1781-.0123,4.7674C27.791,31.7931,27.8071,31.8966,27.8157,32Z" fill="#95d1cc"/></clipPath></defs><circle cx="16" cy="16" r="16" fill="#eee"/><g clip-path="url(#b4160ea0-9d34-4db9-8c26-379fcf6618c8)"><circle cx="15.9709" cy="15.852" r="16" fill="#95d1cc"/></g></svg>