<svg width="16" height="16" viewBox="0 0 16 16" fill="none" xmlns="http://www.w3.org/2000/svg">
<path d="M14.5859 8.99961L3.41594 8.99961L8.29843 13.8821C8.65785 14.2415 8.68549 14.8071 8.38137 15.1982L8.29304 15.2975C7.90211 15.6857 7.27087 15.6845 6.88132 15.295L0.293044 8.70672C-0.0974798 8.31619 -0.0974798 7.68303 0.293044 7.2925L6.88094 0.70461C7.2703 0.315249 7.90158 0.315249 8.29094 0.70461C8.6804 1.09407 8.68068 1.72543 8.29157 2.11524L3.41594 6.99961L14.5859 6.99961C15.1382 6.99961 15.5859 7.44732 15.5859 7.99961C15.5859 8.55189 15.1382 8.99961 14.5859 8.99961Z" fill="black"/>
</svg>
