<svg width="24" height="24" viewBox="0 0 24 24" fill="none" xmlns="http://www.w3.org/2000/svg">
<path d="M20.4 2.4H19.2V1.2C19.2 0.48 18.72 0 18 0C17.28 0 16.8 0.48 16.8 1.2V2.4H7.2V1.2C7.2 0.48 6.72 0 6 0C5.28 0 4.8 0.48 4.8 1.2V2.4H3.6C1.56 2.4 0 3.96 0 6V7.2H24V6C24 3.96 22.44 2.4 20.4 2.4ZM0 20.4C0 22.44 1.56 24 3.6 24H20.4C22.44 24 24 22.44 24 20.4V9.6H0V20.4ZM18 12C18.72 12 19.2 12.48 19.2 13.2C19.2 13.92 18.72 14.4 18 14.4C17.28 14.4 16.8 13.92 16.8 13.2C16.8 12.48 17.28 12 18 12ZM18 16.8C18.72 16.8 19.2 17.28 19.2 18C19.2 18.72 18.72 19.2 18 19.2C17.28 19.2 16.8 18.72 16.8 18C16.8 17.28 17.28 16.8 18 16.8ZM12 12C12.72 12 13.2 12.48 13.2 13.2C13.2 13.92 12.72 14.4 12 14.4C11.28 14.4 10.8 13.92 10.8 13.2C10.8 12.48 11.28 12 12 12ZM12 16.8C12.72 16.8 13.2 17.28 13.2 18C13.2 18.72 12.72 19.2 12 19.2C11.28 19.2 10.8 18.72 10.8 18C10.8 17.28 11.28 16.8 12 16.8ZM6 12C6.72 12 7.2 12.48 7.2 13.2C7.2 13.92 6.72 14.4 6 14.4C5.28 14.4 4.8 13.92 4.8 13.2C4.8 12.48 5.28 12 6 12ZM6 16.8C6.72 16.8 7.2 17.28 7.2 18C7.2 18.72 6.72 19.2 6 19.2C5.28 19.2 4.8 18.72 4.8 18C4.8 17.28 5.28 16.8 6 16.8Z" fill="black"/>
</svg>
