<svg width="24" height="24" viewBox="0 0 24 24" fill="none" xmlns="http://www.w3.org/2000/svg">
    <g id="icon / 24 / Guest management / video-off">
        <path id="Vector" d="M7.71409 6.29409L3.71409 2.29409C3.62085 2.20085 3.51016 2.12689 3.38834 2.07643C3.26652 2.02597 3.13595 2 3.00409 2C2.87223 2 2.74166 2.02597 2.61984 2.07643C2.49802 2.12689 2.38733 2.20085 2.29409 2.29409C2.10579 2.4824 2 2.73779 2 3.00409C2 3.27039 2.10579 3.52579 2.29409 3.71409L4.62409 6.00409C3.89599 6.09704 3.22723 6.4537 2.7444 7.00656C2.26157 7.55942 1.99818 8.2701 2.00409 9.00409V15.0041C2.00409 15.7997 2.32016 16.5628 2.88277 17.1254C3.44538 17.688 4.20844 18.0041 5.00409 18.0041H14.0041C14.6982 18.0008 15.3696 17.757 15.9041 17.3141L20.2941 21.7141C20.3871 21.8078 20.4977 21.8822 20.6195 21.933C20.7414 21.9838 20.8721 22.0099 21.0041 22.0099C21.1361 22.0099 21.2668 21.9838 21.3887 21.933C21.5105 21.8822 21.6211 21.8078 21.7141 21.7141C21.8078 21.6211 21.8822 21.5105 21.933 21.3887C21.9838 21.2668 22.0099 21.1361 22.0099 21.0041C22.0099 20.8721 21.9838 20.7414 21.933 20.6195C21.8822 20.4977 21.8078 20.3871 21.7141 20.2941L7.71409 6.29409ZM14.0041 16.0041H5.00409C4.73888 16.0041 4.48452 15.8987 4.29699 15.7112C4.10945 15.5237 4.00409 15.2693 4.00409 15.0041V9.00409C4.00409 8.73888 4.10945 8.48452 4.29699 8.29699C4.48452 8.10945 4.73888 8.00409 5.00409 8.00409H6.59409L14.4641 15.8841C14.3226 15.9605 14.1648 16.0016 14.0041 16.0041ZM21.5341 7.15409C21.3821 7.06632 21.2096 7.02012 21.0341 7.02012C20.8586 7.02012 20.6861 7.06632 20.5341 7.15409L17.0041 8.89409C16.9756 8.11766 16.647 7.38256 16.0874 6.84353C15.5279 6.3045 14.781 6.00357 14.0041 6.00409H12.6641C12.3989 6.00409 12.1445 6.10945 11.957 6.29699C11.7694 6.48452 11.6641 6.73888 11.6641 7.00409C11.6641 7.26931 11.7694 7.52366 11.957 7.7112C12.1445 7.89873 12.3989 8.00409 12.6641 8.00409H14.0041C14.2693 8.00409 14.5237 8.10945 14.7112 8.29699C14.8987 8.48452 15.0041 8.73888 15.0041 9.00409V10.5041C15.0004 10.5674 15.0004 10.6308 15.0041 10.6941C15.01 10.763 15.0269 10.8305 15.0541 10.8941C15.0541 10.8941 15.1041 10.9541 15.1241 10.9941C15.1648 11.0703 15.2152 11.1409 15.2741 11.2041C15.2741 11.2041 15.3741 11.2641 15.4241 11.3041L15.5941 11.4141C15.6704 11.4245 15.7478 11.4245 15.8241 11.4141C15.8706 11.4188 15.9175 11.4188 15.9641 11.4141C16.0274 11.4178 16.0908 11.4178 16.1541 11.4141C16.223 11.4082 16.2905 11.3913 16.3541 11.3641L20.0041 9.62409V15.3441C20.0041 15.6093 20.1094 15.8637 20.297 16.0512C20.4845 16.2387 20.7389 16.3441 21.0041 16.3441C21.2693 16.3441 21.5237 16.2387 21.7112 16.0512C21.8987 15.8637 22.0041 15.6093 22.0041 15.3441V8.00409C22.0044 7.83415 21.9615 7.66692 21.8792 7.5182C21.797 7.36947 21.6782 7.24416 21.5341 7.15409Z" fill="#a2a1a1"/>
    </g>
</svg>
