<svg fill="#a2a1a1" id="f467d3e8-29bb-4c83-9138-94372ccf59ab" data-name="Layer 1" xmlns="http://www.w3.org/2000/svg" viewBox="0 0 24 24"><path d="M24,17.66a1.7746,1.7746,0,0,1-.719,1.0592,1.3235,1.3235,0,0,1-1.4129.09c-.7284-.4006-1.4384-.8375-2.1547-1.2617-.5928-.3509-1.1807-.7107-1.7769-1.0552a.3284.3284,0,0,1-.1818-.3317q.0072-2.8216-.001-5.6433a.3488.3488,0,0,1,.1969-.3464c1.2171-.7228,2.4443-1.4289,3.64-2.1881a1.5356,1.5356,0,0,1,2.3731.9538.1952.1952,0,0,0,.036.056Z"/><path d="M8.01,6.2984l.5444-.0038s3.5452.0023,5.3178-.001a2.6635,2.6635,0,0,1,2.2738,1.08,2.5718,2.5718,0,0,1,.5114,1.5743c.0038,2.763.0108,3.2949,0,6.0578Z"/><path d="M20.1618,20.7357,1.9192,2.4931a.5454.5454,0,0,0-.7713.7712L4.242,6.3584l-.0656-.06c-.9912.0016-.4172.0015-1.4083-.007A2.7047,2.7047,0,0,0,0,9.069C.04,11.9342.0116,14.8.0129,17.6663a2.6753,2.6753,0,0,0,.0228.4666A2.61,2.61,0,0,0,2.71,20.4005c3.6.0123,7.6448.014,11.2446-.0005a2.6172,2.6172,0,0,0,2.5493-1.78l2.8865,2.8866a.5454.5454,0,0,0,.7713-.7713Z"/></svg>