<svg width="36" height="36" viewBox="0 0 36 36" fill="none" xmlns="http://www.w3.org/2000/svg">
<rect width="36" height="36" rx="18" fill="#1B76FF"/>
<path d="M19 17H13C12.7348 17 12.4804 17.1054 12.2929 17.2929C12.1054 17.4804 12 17.7348 12 18C12 18.2652 12.1054 18.5196 12.2929 18.7071C12.4804 18.8946 12.7348 19 13 19H19C19.2652 19 19.5196 18.8946 19.7071 18.7071C19.8946 18.5196 20 18.2652 20 18C20 17.7348 19.8946 17.4804 19.7071 17.2929C19.5196 17.1054 19.2652 17 19 17ZM23 13H13C12.7348 13 12.4804 13.1054 12.2929 13.2929C12.1054 13.4804 12 13.7348 12 14C12 14.2652 12.1054 14.5196 12.2929 14.7071C12.4804 14.8946 12.7348 15 13 15H23C23.2652 15 23.5196 14.8946 23.7071 14.7071C23.8946 14.5196 24 14.2652 24 14C24 13.7348 23.8946 13.4804 23.7071 13.2929C23.5196 13.1054 23.2652 13 23 13ZM25 8H11C10.2044 8 9.44129 8.31607 8.87868 8.87868C8.31607 9.44129 8 10.2044 8 11V21C8 21.7956 8.31607 22.5587 8.87868 23.1213C9.44129 23.6839 10.2044 24 11 24H22.59L26.29 27.71C26.3834 27.8027 26.4943 27.876 26.6161 27.9258C26.7379 27.9755 26.8684 28.0008 27 28C27.1312 28.0034 27.2613 27.976 27.38 27.92C27.5626 27.845 27.7189 27.7176 27.8293 27.5539C27.9396 27.3901 27.999 27.1974 28 27V11C28 10.2044 27.6839 9.44129 27.1213 8.87868C26.5587 8.31607 25.7956 8 25 8ZM26 24.59L23.71 22.29C23.6166 22.1973 23.5057 22.124 23.3839 22.0742C23.2621 22.0245 23.1316 21.9992 23 22H11C10.7348 22 10.4804 21.8946 10.2929 21.7071C10.1054 21.5196 10 21.2652 10 21V11C10 10.7348 10.1054 10.4804 10.2929 10.2929C10.4804 10.1054 10.7348 10 11 10H25C25.2652 10 25.5196 10.1054 25.7071 10.2929C25.8946 10.4804 26 10.7348 26 11V24.59Z" fill="#F2F2F2"/>
</svg>
