<svg width="24" height="24" viewBox="0 0 16 16" fill="none" xmlns="http://www.w3.org/2000/svg">
<path d="M11.0191 3.56764L7.99812 6.58868L4.97715 3.56764C4.5874 3.17789 3.9555 3.17789 3.56575 3.56764L3.49724 3.64344C3.17752 4.03543 3.20036 4.61366 3.56575 4.97905L6.58678 8.00001L3.56575 11.021C3.176 11.4107 3.176 12.0426 3.56575 12.4324L3.64155 12.5009C4.03354 12.8206 4.61176 12.7978 4.97715 12.4324L7.99812 9.41134L11.0191 12.4324C11.4088 12.8221 12.0407 12.8221 12.4305 12.4324L12.499 12.3566C12.8187 11.9646 12.7959 11.3864 12.4305 11.021L9.40945 8.00001L12.4305 4.97905C12.8202 4.5893 12.8202 3.95739 12.4305 3.56764C12.0407 3.17789 11.4088 3.17789 11.0191 3.56764Z" fill="#292933"/>
</svg>
