<svg id="Layer_1" data-name="Layer 1" fill=" #669df6" xmlns="http://www.w3.org/2000/svg" viewBox="0 0 24 24"><path d="M23.82,3.4288A4.616,4.616,0,0,0,19.911.0417.8984.8984,0,0,1,19.7812,0H4.2188A9.2008,9.2008,0,0,0,3.1625.2651,4.61,4.61,0,0,0,.0416,4.0889.8751.8751,0,0,1,0,4.2188V19.7812c.0589.2638.0984.5337.18.79a4.622,4.622,0,0,0,3.9095,3.3864.8968.8968,0,0,1,.13.0421H19.7812c.2035-.0437.4079-.0834.61-.1317a4.6781,4.6781,0,0,0,3.5667-3.9578A.7324.7324,0,0,1,24,19.7812V4.2188C23.9409,3.9551,23.9011,3.6854,23.82,3.4288ZM11.4938,17.9642a.87.87,0,0,1-.6164.8478.84.84,0,0,1-.9813-.3554,1.337,1.337,0,0,1-.1512-.5981c-.0182-.6788-.007-1.3583-.007-2.0376v-.25l-.1006-.0724a.9386.9386,0,0,1-.1238.2235C8.5176,16.7246,7.516,17.7214,6.52,18.7237a.8828.8828,0,0,1-.9365.265.872.872,0,0,1-.3573-1.455c.3828-.4007.7816-.7861,1.1735-1.1781q.9357-.9358,1.8728-1.87a1.4777,1.4777,0,0,1,.2074-.1466l-.05-.0814H8.1822c-.6948,0-1.39.0015-2.0845-.0005a.8856.8856,0,0,1-.9711-.8814.8969.8969,0,0,1,.9828-.8726q2.2017-.0012,4.4033,0a.89.89,0,0,1,.9825.9877Q11.4961,15.7274,11.4938,17.9642Zm4.0888-8.2293q1.0063,0,2.0125.0006a4.7,4.7,0,0,1,.4912.0147.8735.8735,0,0,1-.0777,1.7425c-.8356.009-1.6713.0029-2.507.003-.6873,0-1.3746.0022-2.0618-.0006a.8781.8781,0,0,1-.9353-.9408q-.0033-2.2376,0-4.4751a.8784.8784,0,1,1,1.7545-.0057c.0076.7029.002,1.4058.0021,2.1088q0,.1247,0,.2493l.0916.0583a1.1293,1.1293,0,0,1,.1365-.2191q1.4955-1.5033,2.996-3.0015a.8835.8835,0,0,1,.9171-.2647.8724.8724,0,0,1,.3651,1.4662c-.706.7187-1.4231,1.4265-2.1357,2.1387q-.5356.5355-1.0722,1.07Z"/></svg>