<svg width="22" height="28" viewBox="0 0 22 28" fill="none" xmlns="http://www.w3.org/2000/svg">
<path d="M12.5997 18.1327C12.333 18.266 12.0663 18.266 11.7997 18.3993C11.6663 18.1327 11.533 17.866 11.3997 17.7327C10.333 16.7993 8.73301 16.666 7.39967 17.466C6.33301 18.1327 5.66634 19.466 5.66634 20.7994C5.66634 21.466 6.33301 22.1327 6.99967 21.9993C7.66634 21.9993 8.33301 21.3327 8.33301 20.666C8.33301 20.266 8.46634 19.9994 8.73301 19.7327C8.86634 19.7327 8.99967 19.5993 9.13301 19.5993C8.73301 20.3994 8.99967 21.3327 9.79967 21.866C10.0663 21.9993 10.1997 21.9993 10.4663 21.9993C10.9997 21.9993 11.533 21.7327 11.933 21.3327C12.0663 21.1994 12.333 21.066 12.5997 20.9327C12.733 21.466 13.2663 21.9993 13.933 21.9993H14.9997C15.7997 21.9993 16.333 21.466 16.333 20.666C16.333 19.9993 15.7997 19.466 15.133 19.3327C14.9997 19.066 14.9997 18.9327 14.733 18.666C14.333 18.266 13.3997 17.9993 12.5997 18.1327ZM21.6663 9.99935C21.6663 9.86602 21.6663 9.73268 21.533 9.59935V9.46602C21.533 9.33268 21.3997 9.19935 21.2663 9.06602L13.2663 1.06602C13.133 0.932682 12.9997 0.932682 12.8663 0.799349H12.733C12.5997 0.799349 12.4663 0.799349 12.333 0.666016H4.33301C2.06634 0.799349 0.333008 2.53268 0.333008 4.79935V23.466C0.333008 25.7327 2.06634 27.466 4.33301 27.466H17.6663C19.933 27.466 21.6663 25.7327 21.6663 23.466V9.99935C21.6663 10.1327 21.6663 10.1327 21.6663 9.99935ZM13.6663 5.33268L17.133 8.79935H14.9997C14.1997 8.79935 13.6663 8.26602 13.6663 7.46602V5.33268ZM18.9997 23.466C18.9997 24.266 18.4663 24.7994 17.6663 24.7994H4.33301C3.53301 24.7994 2.99967 24.266 2.99967 23.466V4.79935C2.99967 3.99935 3.53301 3.46602 4.33301 3.46602H10.9997V7.46602C10.9997 9.73268 12.733 11.466 14.9997 11.466H18.9997V23.466ZM6.99967 11.466H8.33301C9.13301 11.466 9.66634 10.9327 9.66634 10.1327C9.66634 9.33268 9.13301 8.79935 8.33301 8.79935H6.99967C6.19967 8.79935 5.66634 9.33268 5.66634 10.1327C5.66634 10.9327 6.19967 11.466 6.99967 11.466Z" fill="#9E9EB2"/>
</svg>
