<svg width="24" height="24" viewBox="0 0 24 24" fill="none" xmlns="http://www.w3.org/2000/svg">
<path fill-rule="evenodd" clip-rule="evenodd" d="M0 12C0 5.3832 5.3832 0 12 0C18.6168 0 24 5.3832 24 12C24 18.6168 18.6168 24 12 24C5.3832 24 0 18.6168 0 12ZM12 4.80001C14.6472 4.80001 16.8 6.95281 16.8 9.60001C16.8 12.2472 14.6472 14.4 12 14.4C9.35279 14.4 7.2 12.2472 7.2 9.60001C7.2 6.95281 9.35279 4.80001 12 4.80001ZM12 21.6C9.34802 21.6 6.94442 20.5188 5.20562 18.7752C5.80202 17.6088 7.00202 16.8 8.40002 16.8H15.6C16.998 16.8 18.198 17.6088 18.7944 18.7752C17.0556 20.5188 14.652 21.6 12 21.6Z" fill="#75758F"/>
</svg>
