<svg width="80" height="80" viewBox="0 0 80 80" fill="none" xmlns="http://www.w3.org/2000/svg">
<g id="icon / 24 / contact ">
<path id="Fill 1" fill-rule="evenodd" clip-rule="evenodd" d="M0 40C0 17.944 17.944 0 40 0C62.056 0 80 17.944 80 40C80 62.056 62.056 80 40 80C17.944 80 0 62.056 0 40ZM40 16C48.824 16 56 23.176 56 32C56 40.824 48.824 48 40 48C31.176 48 24 40.824 24 32C24 23.176 31.176 16 40 16ZM40.0001 72C31.1601 72 23.1481 68.396 17.3521 62.584C19.3401 58.696 23.3401 56 28.0001 56H52.0001C56.6601 56 60.6601 58.696 62.6481 62.584C56.8521 68.396 48.8401 72 40.0001 72Z" fill="#9E9EB2"/>
</g>
</svg>
