<svg width="16" height="16" viewBox="0 0 16 16" fill="none" xmlns="http://www.w3.org/2000/svg">
<path d="M10.6667 13.3333H5.33333C4.8029 13.3333 4.29419 13.1226 3.91912 12.7475C3.54405 12.3725 3.33333 11.8637 3.33333 11.3333V4.66665C3.33333 4.48984 3.2631 4.32027 3.13807 4.19524C3.01305 4.07022 2.84348 3.99998 2.66667 3.99998C2.48986 3.99998 2.32029 4.07022 2.19526 4.19524C2.07024 4.32027 2 4.48984 2 4.66665V11.3333C2 12.2174 2.35119 13.0652 2.97631 13.6903C3.60143 14.3155 4.44928 14.6666 5.33333 14.6666H10.6667C10.8435 14.6666 11.013 14.5964 11.1381 14.4714C11.2631 14.3464 11.3333 14.1768 11.3333 14C11.3333 13.8232 11.2631 13.6536 11.1381 13.5286C11.013 13.4036 10.8435 13.3333 10.6667 13.3333ZM14 5.95998C13.9931 5.89874 13.9796 5.8384 13.96 5.77998V5.71998C13.9279 5.65143 13.8852 5.58842 13.8333 5.53331L9.83333 1.53331C9.77822 1.48146 9.71521 1.4387 9.64667 1.40665H9.58667L9.37333 1.33331H6.66667C6.13623 1.33331 5.62753 1.54403 5.25245 1.9191C4.87738 2.29417 4.66667 2.80288 4.66667 3.33331V9.99998C4.66667 10.5304 4.87738 11.0391 5.25245 11.4142C5.62753 11.7893 6.13623 12 6.66667 12H12C12.5304 12 13.0391 11.7893 13.4142 11.4142C13.7893 11.0391 14 10.5304 14 9.99998V5.99998C14 5.99998 14 5.99998 14 5.95998ZM10 3.60665L11.7267 5.33331H10.6667C10.4899 5.33331 10.3203 5.26308 10.1953 5.13805C10.0702 5.01303 10 4.84346 10 4.66665V3.60665ZM12.6667 9.99998C12.6667 10.1768 12.5964 10.3464 12.4714 10.4714C12.3464 10.5964 12.1768 10.6666 12 10.6666H6.66667C6.48986 10.6666 6.32029 10.5964 6.19526 10.4714C6.07024 10.3464 6 10.1768 6 9.99998V3.33331C6 3.1565 6.07024 2.98693 6.19526 2.86191C6.32029 2.73688 6.48986 2.66665 6.66667 2.66665H8.66667V4.66665C8.66667 5.19708 8.87738 5.70579 9.25245 6.08086C9.62753 6.45593 10.1362 6.66665 10.6667 6.66665H12.6667V9.99998Z" fill="white"/>
</svg>
