<svg fill="white" id="b4b3465d-868a-4bf7-b960-54c389dcc25f" data-name="Layer 1" xmlns="http://www.w3.org/2000/svg" viewBox="0 0 24 24"><defs><style>.a0dfc120-424b-4a7c-86ae-83abd90916a6{fill-rule:evenodd;}</style></defs><path d="M3.289,18.2442H1.7175V2.1226A2.0356,2.0356,0,0,1,2.3252.591a2.4084,2.4084,0,0,1,1.6626-.59L17.6852,0V1.5717H3.9484a.8543.8543,0,0,0-.5433.1611c-.0286.0281-.1161.1136-.1161.39Z"/><path class="a0dfc120-424b-4a7c-86ae-83abd90916a6" d="M22.2825,10.1046,15.3348,3.157H7.1815A2.3094,2.3094,0,0,0,4.9338,5.2729L4.9157,21.7894a2.3155,2.3155,0,0,0,2.2517,2.21c.5309.0028,12.9288-.003,12.9288-.003a2.3069,2.3069,0,0,0,2.1863-2.2579Z"/></svg>