<svg width="16" height="16" viewBox="0 0 16 16" fill="none" xmlns="http://www.w3.org/2000/svg">
<path fill-rule="evenodd" clip-rule="evenodd" d="M4.66536 2.66659C4.66536 1.93021 5.26232 1.33325 5.9987 1.33325H9.9987C10.7351 1.33325 11.332 1.93021 11.332 2.66659V3.99992H13.9987C14.3669 3.99992 14.6654 4.2984 14.6654 4.66659C14.6654 5.03477 14.3669 5.33325 13.9987 5.33325H13.2861L12.7079 13.4283C12.658 14.126 12.0775 14.6666 11.378 14.6666H4.61944C3.91992 14.6666 3.33934 14.126 3.2895 13.4283L2.71128 5.33325H1.9987C1.63051 5.33325 1.33203 5.03477 1.33203 4.66659C1.33203 4.2984 1.63051 3.99992 1.9987 3.99992H4.66536V2.66659ZM5.9987 3.99992H9.9987V2.66659H5.9987V3.99992ZM4.61944 13.3333L4.04802 5.33325H11.9494L11.378 13.3333H4.61944ZM6.66536 6.66659C7.03356 6.66659 7.33203 6.96505 7.33203 7.33325V11.3333C7.33203 11.7015 7.03356 11.9999 6.66536 11.9999C6.29718 11.9999 5.9987 11.7015 5.9987 11.3333V7.33325C5.9987 6.96505 6.29718 6.66659 6.66536 6.66659ZM9.9987 7.33325C9.9987 6.96505 9.70023 6.66659 9.33203 6.66659C8.96383 6.66659 8.66536 6.96505 8.66536 7.33325V11.3333C8.66536 11.7015 8.96383 11.9999 9.33203 11.9999C9.70023 11.9999 9.9987 11.7015 9.9987 11.3333V7.33325Z" fill="#75758F"/>
</svg>
