<svg width="24" height="24" viewBox="0 0 24 24" fill="none" xmlns="http://www.w3.org/2000/svg">
<path d="M18.9333 6H5.06667C4.78377 6 4.51246 6.10536 4.31242 6.29289C4.11238 6.48043 4 6.73478 4 7C4 7.26522 4.11238 7.51957 4.31242 7.70711C4.51246 7.89464 4.78377 8 5.06667 8H18.9333C19.2162 8 19.4875 7.89464 19.6876 7.70711C19.8876 7.51957 20 7.26522 20 7C20 6.73478 19.8876 6.48043 19.6876 6.29289C19.4875 6.10536 19.2162 6 18.9333 6ZM18.9333 11H7.06668C6.78378 11 6.51247 11.1054 6.31243 11.2929C6.11239 11.4804 6.00001 11.7348 6.00001 12C6.00001 12.2652 6.11239 12.5196 6.31243 12.7071C6.51247 12.8946 6.78378 13 7.06668 13H18.9333C19.2162 13 19.4875 12.8946 19.6876 12.7071C19.8876 12.5196 20 12.2652 20 12C20 11.7348 19.8876 11.4804 19.6876 11.2929C19.4875 11.1054 19.2162 11 18.9333 11Z" fill="#C4C4C4"/>
<path d="M18.9333 16H5.06667C4.78377 16 4.51246 16.1054 4.31242 16.2929C4.11238 16.4804 4 16.7348 4 17C4 17.2652 4.11238 17.5196 4.31242 17.7071C4.51246 17.8946 4.78377 18 5.06667 18H18.9333C19.2162 18 19.4875 17.8946 19.6876 17.7071C19.8876 17.5196 20 17.2652 20 17C20 16.7348 19.8876 16.4804 19.6876 16.2929C19.4875 16.1054 19.2162 16 18.9333 16Z" fill="#C4C4C4"/>
</svg>
