<svg width="18" height="16" viewBox="0 0 18 16" fill="none" xmlns="http://www.w3.org/2000/svg">
<path d="M17.369 8.72709L10.5999 15.6362C10.1163 16.121 9.39108 16.121 8.90756 15.6362C8.42405 15.1513 8.42405 14.4241 8.90756 13.9392L14.8306 7.99982L8.90756 2.06042C8.66581 1.818 8.54493 1.57557 8.54493 1.21194C8.54493 0.484663 9.02844 -0.000185013 9.75371 -0.000185013C10.1163 -0.000185013 10.3581 0.121027 10.5999 0.363451L17.4899 7.27254C17.8526 7.51497 17.8526 8.24224 17.369 8.72709Z" fill="white"/>
<path d="M9.57253 8.72709L2.80334 15.6362C2.31983 16.121 1.59456 16.121 1.11104 15.6362C0.627531 15.1513 0.627531 14.4241 1.11104 13.9392L7.03408 7.99982L1.11104 2.06042C0.869287 1.818 0.748411 1.57557 0.748411 1.21194C0.748411 0.484663 1.23192 -0.000185013 1.95719 -0.000185013C2.31983 -0.000185013 2.56158 0.121027 2.80334 0.363451L9.6934 7.27254C10.056 7.51497 10.056 8.24224 9.57253 8.72709Z" fill="white"/>
</svg>
