<svg width="17" height="16" viewBox="0 0 17 16" fill="none" xmlns="http://www.w3.org/2000/svg">
    <path d="M14.0163 8C13.8395 8 13.6699 8.07024 13.5449 8.19526C13.4198 8.32029 13.3496 8.48986 13.3496 8.66667V12.6667C13.3496 12.8435 13.2794 13.013 13.1543 13.1381C13.0293 13.2631 12.8598 13.3333 12.6829 13.3333H3.34961C3.1728 13.3333 3.00323 13.2631 2.87821 13.1381C2.75318 13.013 2.68294 12.8435 2.68294 12.6667V3.33333C2.68294 3.15652 2.75318 2.98695 2.87821 2.86193C3.00323 2.7369 3.1728 2.66667 3.34961 2.66667H7.34961C7.52642 2.66667 7.69599 2.59643 7.82101 2.4714C7.94604 2.34638 8.01628 2.17681 8.01628 2C8.01628 1.82319 7.94604 1.65362 7.82101 1.5286C7.69599 1.40357 7.52642 1.33333 7.34961 1.33333H3.34961C2.81918 1.33333 2.31047 1.54405 1.9354 1.91912C1.56032 2.29419 1.34961 2.8029 1.34961 3.33333V12.6667C1.34961 13.1971 1.56032 13.7058 1.9354 14.0809C2.31047 14.456 2.81918 14.6667 3.34961 14.6667H12.6829C13.2134 14.6667 13.7221 14.456 14.0972 14.0809C14.4722 13.7058 14.6829 13.1971 14.6829 12.6667V8.66667C14.6829 8.48986 14.6127 8.32029 14.4877 8.19526C14.3627 8.07024 14.1931 8 14.0163 8ZM4.01628 8.50667V11.3333C4.01628 11.5101 4.08651 11.6797 4.21154 11.8047C4.33656 11.9298 4.50613 12 4.68294 12H7.50961C7.59735 12.0005 7.68432 11.9837 7.76555 11.9505C7.84677 11.9173 7.92065 11.8685 7.98294 11.8067L12.5963 7.18667L14.4896 5.33333C14.5521 5.27136 14.6017 5.19762 14.6355 5.11638C14.6694 5.03515 14.6868 4.94801 14.6868 4.86C14.6868 4.77199 14.6694 4.68485 14.6355 4.60362C14.6017 4.52238 14.5521 4.44864 14.4896 4.38667L11.6629 1.52667C11.601 1.46418 11.5272 1.41458 11.446 1.38074C11.3648 1.34689 11.2776 1.32947 11.1896 1.32947C11.1016 1.32947 11.0145 1.34689 10.9332 1.38074C10.852 1.41458 10.7783 1.46418 10.7163 1.52667L8.83628 3.41333L4.20961 8.03333C4.14782 8.09563 4.09894 8.1695 4.06576 8.25073C4.03259 8.33195 4.01577 8.41893 4.01628 8.50667ZM11.1896 2.94L13.0763 4.82667L12.1296 5.77333L10.2429 3.88667L11.1896 2.94ZM5.34961 8.78L9.30294 4.82667L11.1896 6.71333L7.23628 10.6667H5.34961V8.78Z" fill="#75758F"/>
</svg>
