<svg width="18" height="17" viewBox="0 0 18 17" fill="none" xmlns="http://www.w3.org/2000/svg">
<path d="M9.85417 0.621018C9.79515 0.571794 9.72622 0.53625 9.65222 0.516877C9.57821 0.497505 9.50092 0.494772 9.42576 0.508873L1.09321 2.09412C0.97396 2.11638 0.866153 2.18023 0.788483 2.2746C0.710813 2.36897 0.668178 2.4879 0.667969 2.61079V14.2258C0.667962 14.3489 0.710486 14.4682 0.788161 14.5628C0.865836 14.6575 0.973761 14.7216 1.09321 14.7441L9.42576 16.3237C9.45726 16.33 9.48929 16.3333 9.5214 16.3333C9.65955 16.3333 9.79204 16.2777 9.88972 16.1787C9.98741 16.0797 10.0423 15.9455 10.0423 15.8055V1.02714C10.0424 0.949583 10.0256 0.872957 9.99307 0.802748C9.96055 0.732539 9.91311 0.670481 9.85417 0.621018ZM9.00131 15.1694L1.70974 13.7844V3.05056L9.00131 1.66557V15.1694Z" fill="#1B76FF"/>
<path d="M16.8138 2.61071H9.52218C9.38403 2.61071 9.25155 2.66632 9.15386 2.76532C9.05618 2.86432 9.0013 2.99859 9.0013 3.13859C9.0013 3.2786 9.05618 3.41286 9.15386 3.51186C9.25155 3.61086 9.38403 3.66647 9.52218 3.66647H16.2929V13.1668H9.52218C9.38403 13.1668 9.25155 13.2224 9.15386 13.3214C9.05618 13.4204 9.0013 13.5546 9.0013 13.6946C9.0013 13.8346 9.05618 13.9689 9.15386 14.0679C9.25155 14.1669 9.38403 14.2225 9.52218 14.2225H16.8138C16.9519 14.2225 17.0844 14.1669 17.1821 14.0679C17.2798 13.9689 17.3346 13.8346 17.3346 13.6946V3.13859C17.3346 2.99859 17.2798 2.86432 17.1821 2.76532C17.0844 2.66632 16.9519 2.61071 16.8138 2.61071Z" fill="#1B76FF"/>
<path d="M14.7301 4.72158H13.6884C13.5502 4.72158 13.4178 4.77719 13.3201 4.87619C13.2224 4.97519 13.1675 5.10946 13.1675 5.24946C13.1675 5.38947 13.2224 5.52374 13.3201 5.62274C13.4178 5.72174 13.5502 5.77734 13.6884 5.77734H14.7301C14.8683 5.77734 15.0008 5.72174 15.0985 5.62274C15.1962 5.52374 15.251 5.38947 15.251 5.24946C15.251 5.10946 15.1962 4.97519 15.0985 4.87619C15.0008 4.77719 14.8683 4.72158 14.7301 4.72158Z" fill="#1B76FF"/>
<path d="M11.4899 4.72158H10.4481C10.31 4.72158 10.1775 4.77719 10.0798 4.87619C9.98211 4.97519 9.92722 5.10946 9.92722 5.24946C9.92722 5.38947 9.98211 5.52374 10.0798 5.62274C10.1775 5.72174 10.31 5.77734 10.4481 5.77734H11.4899C11.628 5.77734 11.7605 5.72174 11.8582 5.62274C11.9559 5.52374 12.0107 5.38947 12.0107 5.24946C12.0107 5.10946 11.9559 4.97519 11.8582 4.87619C11.7605 4.77719 11.628 4.72158 11.4899 4.72158Z" fill="#1B76FF"/>
<path d="M14.7301 6.83314H13.6884C13.5502 6.83314 13.4178 6.88875 13.3201 6.98775C13.2224 7.08674 13.1675 7.22102 13.1675 7.36102C13.1675 7.50102 13.2224 7.6353 13.3201 7.73429C13.4178 7.83329 13.5502 7.8889 13.6884 7.8889H14.7301C14.8683 7.8889 15.0008 7.83329 15.0985 7.73429C15.1962 7.6353 15.251 7.50102 15.251 7.36102C15.251 7.22102 15.1962 7.08674 15.0985 6.98775C15.0008 6.88875 14.8683 6.83314 14.7301 6.83314Z" fill="#1B76FF"/>
<path d="M11.4899 6.83314H10.4481C10.31 6.83314 10.1775 6.88875 10.0798 6.98775C9.98211 7.08674 9.92722 7.22102 9.92722 7.36102C9.92722 7.50102 9.98211 7.6353 10.0798 7.73429C10.1775 7.83329 10.31 7.8889 10.4481 7.8889H11.4899C11.628 7.8889 11.7605 7.83329 11.8582 7.73429C11.9559 7.6353 12.0107 7.50102 12.0107 7.36102C12.0107 7.22102 11.9559 7.08674 11.8582 6.98775C11.7605 6.88875 11.628 6.83314 11.4899 6.83314Z" fill="#1B76FF"/>
<path d="M14.7301 8.94468H13.6884C13.5502 8.94468 13.4178 9.0003 13.3201 9.0993C13.2224 9.1983 13.1675 9.33256 13.1675 9.47256C13.1675 9.61256 13.2224 9.74685 13.3201 9.84585C13.4178 9.94484 13.5502 10.0005 13.6884 10.0005H14.7301C14.8683 10.0005 15.0008 9.94484 15.0985 9.84585C15.1962 9.74685 15.251 9.61256 15.251 9.47256C15.251 9.33256 15.1962 9.1983 15.0985 9.0993C15.0008 9.0003 14.8683 8.94468 14.7301 8.94468Z" fill="#1B76FF"/>
<path d="M11.4899 8.94468H10.4481C10.31 8.94468 10.1775 9.0003 10.0798 9.0993C9.98211 9.1983 9.92722 9.33256 9.92722 9.47256C9.92722 9.61256 9.98211 9.74685 10.0798 9.84585C10.1775 9.94484 10.31 10.0005 10.4481 10.0005H11.4899C11.628 10.0005 11.7605 9.94484 11.8582 9.84585C11.9559 9.74685 12.0107 9.61256 12.0107 9.47256C12.0107 9.33256 11.9559 9.1983 11.8582 9.0993C11.7605 9.0003 11.628 8.94468 11.4899 8.94468Z" fill="#1B76FF"/>
<path d="M14.7301 11.0553H13.6884C13.5502 11.0553 13.4178 11.1109 13.3201 11.2099C13.2224 11.3089 13.1675 11.4432 13.1675 11.5832C13.1675 11.7232 13.2224 11.8575 13.3201 11.9565C13.4178 12.0555 13.5502 12.1111 13.6884 12.1111H14.7301C14.8683 12.1111 15.0008 12.0555 15.0985 11.9565C15.1962 11.8575 15.251 11.7232 15.251 11.5832C15.251 11.4432 15.1962 11.3089 15.0985 11.2099C15.0008 11.1109 14.8683 11.0553 14.7301 11.0553Z" fill="#1B76FF"/>
<path d="M11.4899 11.0553H10.4481C10.31 11.0553 10.1775 11.1109 10.0798 11.2099C9.98211 11.3089 9.92722 11.4432 9.92722 11.5832C9.92722 11.7232 9.98211 11.8575 10.0798 11.9565C10.1775 12.0555 10.31 12.1111 10.4481 12.1111H11.4899C11.628 12.1111 11.7605 12.0555 11.8582 11.9565C11.9559 11.8575 12.0107 11.7232 12.0107 11.5832C12.0107 11.4432 11.9559 11.3089 11.8582 11.2099C11.7605 11.1109 11.628 11.0553 11.4899 11.0553Z" fill="#1B76FF"/>
<path d="M8.30725 10.8429L4.03688 5.89673C3.92902 5.77853 3.77991 5.70762 3.62128 5.69908C3.46264 5.69053 3.30697 5.74503 3.18735 5.85098C3.06774 5.95693 2.99361 6.10597 2.98072 6.26644C2.96784 6.42691 3.01722 6.58614 3.11836 6.7103L7.38872 11.6564C7.49659 11.7746 7.64568 11.8455 7.80432 11.8541C7.96296 11.8626 8.11863 11.8081 8.23825 11.7022C8.35787 11.5962 8.432 11.4472 8.44488 11.2867C8.45776 11.1262 8.40839 10.967 8.30725 10.8429Z" fill="#1B76FF"/>
<path d="M7.0063 5.30338C6.95233 5.26077 6.8906 5.22934 6.82465 5.2109C6.75869 5.19247 6.6898 5.18739 6.6219 5.19594C6.55401 5.2045 6.48844 5.22652 6.42895 5.26076C6.36945 5.295 6.3172 5.34078 6.27517 5.39549L2.62977 10.1456C2.54487 10.2561 2.50675 10.3962 2.5238 10.5352C2.54085 10.6742 2.61166 10.8006 2.72067 10.8866C2.82968 10.9726 2.96795 11.0113 3.10506 10.994C3.24218 10.9767 3.3669 10.905 3.45181 10.7945L7.0972 6.04434C7.13925 5.98965 7.17025 5.92708 7.18844 5.86024C7.20663 5.7934 7.21165 5.72358 7.20321 5.65478C7.19476 5.58597 7.17303 5.51952 7.13925 5.45922C7.10546 5.39893 7.06029 5.34598 7.0063 5.30338Z" fill="#1B76FF"/>
<path d="M9.85417 0.621018C9.79515 0.571794 9.72622 0.53625 9.65222 0.516877C9.57821 0.497505 9.50092 0.494772 9.42576 0.508873L1.09321 2.09412C0.97396 2.11638 0.866153 2.18023 0.788483 2.2746C0.710813 2.36897 0.668178 2.4879 0.667969 2.61079V14.2258C0.667962 14.3489 0.710486 14.4682 0.788161 14.5628C0.865836 14.6575 0.973761 14.7216 1.09321 14.7441L9.42576 16.3237C9.45726 16.33 9.48929 16.3333 9.5214 16.3333C9.65955 16.3333 9.79204 16.2777 9.88972 16.1787C9.98741 16.0797 10.0423 15.9455 10.0423 15.8055V1.02714C10.0424 0.949583 10.0256 0.872957 9.99307 0.802748C9.96055 0.732539 9.91311 0.670481 9.85417 0.621018ZM9.00131 15.1694L1.70974 13.7844V3.05056L9.00131 1.66557V15.1694Z" stroke="#1B76FF" stroke-width="0.5"/>
<path d="M16.8138 2.61071H9.52218C9.38403 2.61071 9.25155 2.66632 9.15386 2.76532C9.05618 2.86432 9.0013 2.99859 9.0013 3.13859C9.0013 3.2786 9.05618 3.41286 9.15386 3.51186C9.25155 3.61086 9.38403 3.66647 9.52218 3.66647H16.2929V13.1668H9.52218C9.38403 13.1668 9.25155 13.2224 9.15386 13.3214C9.05618 13.4204 9.0013 13.5546 9.0013 13.6946C9.0013 13.8346 9.05618 13.9689 9.15386 14.0679C9.25155 14.1669 9.38403 14.2225 9.52218 14.2225H16.8138C16.9519 14.2225 17.0844 14.1669 17.1821 14.0679C17.2798 13.9689 17.3346 13.8346 17.3346 13.6946V3.13859C17.3346 2.99859 17.2798 2.86432 17.1821 2.76532C17.0844 2.66632 16.9519 2.61071 16.8138 2.61071Z" stroke="#1B76FF" stroke-width="0.5"/>
<path d="M14.7301 4.72158H13.6884C13.5502 4.72158 13.4178 4.77719 13.3201 4.87619C13.2224 4.97519 13.1675 5.10946 13.1675 5.24946C13.1675 5.38947 13.2224 5.52374 13.3201 5.62274C13.4178 5.72174 13.5502 5.77734 13.6884 5.77734H14.7301C14.8683 5.77734 15.0008 5.72174 15.0985 5.62274C15.1962 5.52374 15.251 5.38947 15.251 5.24946C15.251 5.10946 15.1962 4.97519 15.0985 4.87619C15.0008 4.77719 14.8683 4.72158 14.7301 4.72158Z" stroke="#1B76FF" stroke-width="0.5"/>
<path d="M11.4899 4.72158H10.4481C10.31 4.72158 10.1775 4.77719 10.0798 4.87619C9.98211 4.97519 9.92722 5.10946 9.92722 5.24946C9.92722 5.38947 9.98211 5.52374 10.0798 5.62274C10.1775 5.72174 10.31 5.77734 10.4481 5.77734H11.4899C11.628 5.77734 11.7605 5.72174 11.8582 5.62274C11.9559 5.52374 12.0107 5.38947 12.0107 5.24946C12.0107 5.10946 11.9559 4.97519 11.8582 4.87619C11.7605 4.77719 11.628 4.72158 11.4899 4.72158Z" stroke="#1B76FF" stroke-width="0.5"/>
<path d="M14.7301 6.83314H13.6884C13.5502 6.83314 13.4178 6.88875 13.3201 6.98775C13.2224 7.08674 13.1675 7.22102 13.1675 7.36102C13.1675 7.50102 13.2224 7.6353 13.3201 7.73429C13.4178 7.83329 13.5502 7.8889 13.6884 7.8889H14.7301C14.8683 7.8889 15.0008 7.83329 15.0985 7.73429C15.1962 7.6353 15.251 7.50102 15.251 7.36102C15.251 7.22102 15.1962 7.08674 15.0985 6.98775C15.0008 6.88875 14.8683 6.83314 14.7301 6.83314Z" stroke="#1B76FF" stroke-width="0.5"/>
<path d="M11.4899 6.83314H10.4481C10.31 6.83314 10.1775 6.88875 10.0798 6.98775C9.98211 7.08674 9.92722 7.22102 9.92722 7.36102C9.92722 7.50102 9.98211 7.6353 10.0798 7.73429C10.1775 7.83329 10.31 7.8889 10.4481 7.8889H11.4899C11.628 7.8889 11.7605 7.83329 11.8582 7.73429C11.9559 7.6353 12.0107 7.50102 12.0107 7.36102C12.0107 7.22102 11.9559 7.08674 11.8582 6.98775C11.7605 6.88875 11.628 6.83314 11.4899 6.83314Z" stroke="#1B76FF" stroke-width="0.5"/>
<path d="M14.7301 8.94468H13.6884C13.5502 8.94468 13.4178 9.0003 13.3201 9.0993C13.2224 9.1983 13.1675 9.33256 13.1675 9.47256C13.1675 9.61256 13.2224 9.74685 13.3201 9.84585C13.4178 9.94484 13.5502 10.0005 13.6884 10.0005H14.7301C14.8683 10.0005 15.0008 9.94484 15.0985 9.84585C15.1962 9.74685 15.251 9.61256 15.251 9.47256C15.251 9.33256 15.1962 9.1983 15.0985 9.0993C15.0008 9.0003 14.8683 8.94468 14.7301 8.94468Z" stroke="#1B76FF" stroke-width="0.5"/>
<path d="M11.4899 8.94468H10.4481C10.31 8.94468 10.1775 9.0003 10.0798 9.0993C9.98211 9.1983 9.92722 9.33256 9.92722 9.47256C9.92722 9.61256 9.98211 9.74685 10.0798 9.84585C10.1775 9.94484 10.31 10.0005 10.4481 10.0005H11.4899C11.628 10.0005 11.7605 9.94484 11.8582 9.84585C11.9559 9.74685 12.0107 9.61256 12.0107 9.47256C12.0107 9.33256 11.9559 9.1983 11.8582 9.0993C11.7605 9.0003 11.628 8.94468 11.4899 8.94468Z" stroke="#1B76FF" stroke-width="0.5"/>
<path d="M14.7301 11.0553H13.6884C13.5502 11.0553 13.4178 11.1109 13.3201 11.2099C13.2224 11.3089 13.1675 11.4432 13.1675 11.5832C13.1675 11.7232 13.2224 11.8575 13.3201 11.9565C13.4178 12.0555 13.5502 12.1111 13.6884 12.1111H14.7301C14.8683 12.1111 15.0008 12.0555 15.0985 11.9565C15.1962 11.8575 15.251 11.7232 15.251 11.5832C15.251 11.4432 15.1962 11.3089 15.0985 11.2099C15.0008 11.1109 14.8683 11.0553 14.7301 11.0553Z" stroke="#1B76FF" stroke-width="0.5"/>
<path d="M11.4899 11.0553H10.4481C10.31 11.0553 10.1775 11.1109 10.0798 11.2099C9.98211 11.3089 9.92722 11.4432 9.92722 11.5832C9.92722 11.7232 9.98211 11.8575 10.0798 11.9565C10.1775 12.0555 10.31 12.1111 10.4481 12.1111H11.4899C11.628 12.1111 11.7605 12.0555 11.8582 11.9565C11.9559 11.8575 12.0107 11.7232 12.0107 11.5832C12.0107 11.4432 11.9559 11.3089 11.8582 11.2099C11.7605 11.1109 11.628 11.0553 11.4899 11.0553Z" stroke="#1B76FF" stroke-width="0.5"/>
<path d="M8.30725 10.8429L4.03688 5.89673C3.92902 5.77853 3.77991 5.70762 3.62128 5.69908C3.46264 5.69053 3.30697 5.74503 3.18735 5.85098C3.06774 5.95693 2.99361 6.10597 2.98072 6.26644C2.96784 6.42691 3.01722 6.58614 3.11836 6.7103L7.38872 11.6564C7.49659 11.7746 7.64568 11.8455 7.80432 11.8541C7.96296 11.8626 8.11863 11.8081 8.23825 11.7022C8.35787 11.5962 8.432 11.4472 8.44488 11.2867C8.45776 11.1262 8.40839 10.967 8.30725 10.8429Z" stroke="#1B76FF" stroke-width="0.5"/>
<path d="M7.0063 5.30338C6.95233 5.26077 6.8906 5.22934 6.82465 5.2109C6.75869 5.19247 6.6898 5.18739 6.6219 5.19594C6.55401 5.2045 6.48844 5.22652 6.42895 5.26076C6.36945 5.295 6.3172 5.34078 6.27517 5.39549L2.62977 10.1456C2.54487 10.2561 2.50675 10.3962 2.5238 10.5352C2.54085 10.6742 2.61166 10.8006 2.72067 10.8866C2.82968 10.9726 2.96795 11.0113 3.10506 10.994C3.24218 10.9767 3.3669 10.905 3.45181 10.7945L7.0972 6.04434C7.13925 5.98965 7.17025 5.92708 7.18844 5.86024C7.20663 5.7934 7.21165 5.72358 7.20321 5.65478C7.19476 5.58597 7.17303 5.51952 7.13925 5.45922C7.10546 5.39893 7.06029 5.34598 7.0063 5.30338Z" stroke="#1B76FF" stroke-width="0.5"/>
</svg>
