<svg width="36" height="36" viewBox="0 0 36 36" fill="none" xmlns="http://www.w3.org/2000/svg">
<rect width="36" height="36" rx="18" fill="#F2F2F2"/>
<path d="M27.9993 21.946C27.9993 21.3134 27.5303 20.8018 26.9478 20.8018C26.3703 20.8033 25.8957 21.3134 25.8957 21.946V24.3145L21.6518 19.9265C21.2414 19.5017 20.5771 19.5017 20.1667 19.9265C19.7563 20.3507 19.7563 21.0394 20.1667 21.4635L24.3901 25.8268H22.1088C21.4875 25.8282 20.9868 26.3143 20.9868 26.9134C20.9868 27.5139 21.4875 27.9993 22.1088 27.9993H26.8766C27.4979 27.9993 27.9979 27.5146 28 26.9134C27.9979 26.8974 27.9958 26.885 27.9937 26.8689C27.9958 26.8485 28 26.8267 28 26.8055L27.9993 21.946Z" fill="#1B76FF"/>
<path d="M14.3467 19.9265L10.105 24.3145V21.946C10.105 21.3134 9.63111 20.8033 9.05215 20.8018C8.47107 20.8018 8.00141 21.3134 8.00141 21.946L8 26.8063C8 26.8274 8.00564 26.8493 8.00705 26.8697C8.00564 26.885 8.00282 26.8974 8.00141 26.9141C8.00282 27.5154 8.50351 28 9.12408 28H13.8926C14.5125 28 15.0139 27.5146 15.0139 26.9141C15.0139 26.3151 14.5125 25.829 13.8926 25.8275H11.6113L15.8347 21.4643C16.2437 21.0401 16.2437 20.3514 15.8347 19.9273C15.4236 19.5017 14.7586 19.5017 14.3467 19.9265Z" fill="#1B76FF"/>
<path d="M21.6518 16.072L25.8957 11.6869V14.0555C25.8957 14.6859 26.3703 15.196 26.9479 15.1982C27.5303 15.1982 27.9993 14.6859 27.9993 14.0555V9.19375C27.9993 9.17261 27.9951 9.15075 27.9929 9.1318C27.9951 9.1165 27.9972 9.10192 27.9993 9.08662C27.9972 8.48464 27.4972 8 26.8766 8H22.1088C21.4875 8 20.9868 8.48464 20.9868 9.08662C20.9868 9.68495 21.4875 10.1725 22.1088 10.174H24.3901L20.1667 14.5372C19.7563 14.9606 19.7563 15.6479 20.1667 16.0713C20.5771 16.4983 21.2414 16.4983 21.6518 16.072Z" fill="#1B76FF"/>
<path d="M11.6113 10.174H13.8919C14.5118 10.1725 15.0132 9.68495 15.0132 9.08662C15.0132 8.48464 14.5118 8 13.8919 8H9.12408C8.50351 8 8.00282 8.48464 8.00141 9.08662C8.00282 9.10192 8.00564 9.1165 8.00705 9.1318C8.00564 9.15075 8 9.17188 8 9.19375L8.00141 14.0562C8.00141 14.6866 8.47107 15.1989 9.05215 15.1989C9.63111 15.1967 10.105 14.6866 10.105 14.0562V11.6876L14.3467 16.072C14.7586 16.4983 15.4236 16.4983 15.8347 16.072C16.2437 15.6486 16.2437 14.9613 15.8347 14.5379L11.6113 10.174Z" fill="#1B76FF"/>
</svg>
