<svg width="20" height="20" viewBox="0 0 20 20" fill="none" xmlns="http://www.w3.org/2000/svg">
<path d="M19.9993 13.8182C19.9993 13.2061 19.5303 12.7111 18.9478 12.7111C18.3703 12.7125 17.8957 13.2061 17.8957 13.8182V16.1101L13.6518 11.8642C13.2414 11.453 12.5771 11.453 12.1667 11.8642C11.7563 12.2746 11.7563 12.941 12.1667 13.3514L16.3901 17.5734H14.1088C13.4875 17.5748 12.9868 18.0452 12.9868 18.6248C12.9868 19.2059 13.4875 19.6756 14.1088 19.6756H18.8766C19.4979 19.6756 19.9979 19.2066 20 18.6248C19.9979 18.6093 19.9958 18.5973 19.9937 18.5818C19.9958 18.5621 20 18.5409 20 18.5205L19.9993 13.8182Z" fill="#292933"/>
<path d="M6.34674 11.8642L2.105 16.1101V13.8182C2.105 13.2061 1.63111 12.7125 1.05215 12.7111C0.471069 12.7111 0.00141039 13.2061 0.00141039 13.8182L0 18.5212C0 18.5416 0.00564155 18.5628 0.00705194 18.5825C0.00564155 18.5973 0.00282077 18.6093 0.00141039 18.6256C0.00282077 19.2073 0.503508 19.6763 1.12408 19.6763H5.8926C6.51246 19.6763 7.01386 19.2066 7.01386 18.6256C7.01386 18.0459 6.51246 17.5755 5.8926 17.5741H3.6113L7.8347 13.3521C8.24371 12.9417 8.24371 12.2753 7.8347 11.8649C7.42357 11.453 6.75858 11.453 6.34674 11.8642Z" fill="#292933"/>
<path d="M13.6518 8.1344L17.8957 3.89124V6.18312C17.8957 6.79312 18.3703 7.28675 18.9479 7.28887C19.5303 7.28887 19.9993 6.79312 19.9993 6.18312V1.47878C19.9993 1.45833 19.9951 1.43717 19.9929 1.41884C19.9951 1.40403 19.9972 1.38992 19.9993 1.37511C19.9972 0.792623 19.4972 0.323669 18.8766 0.323669H14.1088C13.4875 0.323669 12.9868 0.792623 12.9868 1.37511C12.9868 1.95408 13.4875 2.42585 14.1088 2.42726H16.3901L12.1667 6.64926C11.7563 7.05898 11.7563 7.72397 12.1667 8.13369C12.5771 8.54693 13.2414 8.54693 13.6518 8.1344Z" fill="#292933"/>
<path d="M3.6113 2.42726H5.89189C6.51176 2.42585 7.01315 1.95408 7.01315 1.37511C7.01315 0.792623 6.51176 0.323669 5.89189 0.323669H1.12408C0.503508 0.323669 0.00282077 0.792623 0.00141039 1.37511C0.00282077 1.38992 0.00564155 1.40403 0.00705194 1.41884C0.00564155 1.43717 0 1.45762 0 1.47878L0.00141039 6.18383C0.00141039 6.79382 0.471069 7.28957 1.05215 7.28957C1.63111 7.28746 2.105 6.79382 2.105 6.18383V3.89195L6.34674 8.1344C6.75858 8.54693 7.42357 8.54693 7.8347 8.1344C8.24371 7.72468 8.24371 7.05968 7.8347 6.64996L3.6113 2.42726Z" fill="#292933"/>
</svg>
