<svg id="Layer_1" data-name="Layer 1" fill="white" xmlns="http://www.w3.org/2000/svg" viewBox="0 0 24 24"><path d="M24,4.2188V19.7813a.7288.7288,0,0,0-.0419.1292,4.6781,4.6781,0,0,1-3.5667,3.9578c-.2023.0483-.4067.088-.61.1317H4.2188a.8928.8928,0,0,0-.13-.0421A4.6221,4.6221,0,0,1,.18,20.5716c-.0813-.2567-.1209-.5266-.18-.79V4.2188a.8777.8777,0,0,0,.0416-.13A4.61,4.61,0,0,1,3.1625.2651,9.2216,9.2216,0,0,1,4.2188,0H19.7813a.8972.8972,0,0,0,.13.0417A4.6162,4.6162,0,0,1,23.82,3.4288C23.9011,3.6854,23.9409,3.9551,24,4.2188ZM15.9524,6.73l.023.0551q-.5361.5352-1.0722,1.07c-.7126.7123-1.43,1.42-2.1357,2.1388a.8723.8723,0,0,0,.3651,1.4661.8835.8835,0,0,0,.9171-.2647q1.4958-1.5028,2.996-3.0014a1.14,1.14,0,0,0,.1365-.2192l.0915.0583v.2494c0,.7029-.0053,1.4058.0022,2.1087a.8784.8784,0,1,0,1.7544-.0057q.0038-2.2376,0-4.4751a.8781.8781,0,0,0-.9353-.9408c-.6872-.0028-1.3745-.0007-2.0618-.0006-.8357,0-1.6714-.006-2.507.003a.8734.8734,0,0,0-.0777,1.7424,4.6741,4.6741,0,0,0,.4912.0148Q14.9461,6.7311,15.9524,6.73ZM6.8269,16.0354l-.1006-.0725v-.25c0-.6792.0111-1.3588-.007-2.0375a1.3376,1.3376,0,0,0-.1511-.5981.84.84,0,0,0-.9815-.3554A.87.87,0,0,0,4.97,13.57q-.0053,2.2368-.0014,4.4736a.89.89,0,0,0,.9825.9877q2.2016.0014,4.4033,0a.8969.8969,0,0,0,.9828-.8726.8855.8855,0,0,0-.971-.8814c-.6949-.0021-1.39-.0006-2.0846-.0006H8.0341l-.05-.0813a1.4919,1.4919,0,0,0,.2074-.1466q.939-.9324,1.8728-1.87c.3919-.392.7908-.7774,1.1736-1.1782a.872.872,0,0,0-.3573-1.455.8829.8829,0,0,0-.9366.265c-.9962,1.0023-1.9978,1.9992-2.9937,3.0017A.9313.9313,0,0,0,6.8269,16.0354Z"/></svg>