<svg xmlns="http://www.w3.org/2000/svg" xmlns:xlink="http://www.w3.org/1999/xlink" viewBox="0 0 949.2878 587.5295"><defs><clipPath id="e2c925eb-1f4a-4e65-88a5-ddedee238e0c"><rect x="335.5278" y="292.7161" width="200.6713" height="124.9764" fill="none"/></clipPath><clipPath id="b0c23803-94aa-4d10-ba22-9b4a967979ed"><rect x="536.5042" y="417.6926" width="200.6713" height="124.9764" fill="none"/></clipPath><clipPath id="b39cffa5-136c-4200-9874-b0fb7ae9fc91"><path d="M501.2208,403.7675H472.1049a28.514,28.514,0,0,1-25.4982,15.7719H339.5105V542.8173h161.71Z" fill="none"/></clipPath><clipPath id="f0ac2243-8d81-4e21-b4d2-f1e221357ffc"><rect x="536.5042" y="291.9338" width="200.7361" height="125.3793" fill="none"/></clipPath></defs><g style="isolation:isolate"><g id="a60d5d17-ec55-44c6-9765-2099d863c467" data-name="OBJECTS"><path d="M94.4238,454.3381C51.2653,412.53,17.5,359.6118,4.9565,300.82c-7.8918-36.9888-7.06-76.5981,7.6041-111.4567s44.268-64.2848,80.8367-73.8118c37.1618-9.6812,76.2735,1.3768,114.6726,1.1374C268.6873,116.311,325.2,87.9524,378.9105,59.8219S488.4471,2.465,549.02.1163,676.244,31.1087,691.0625,89.9437c6.0032,23.8352,3.3808,50.2416,15.37,71.6936,20.1832,36.1127,69.7173,40.387,111.0033,38.268s89.3373-3.5312,116.0018,28.09c22.7458,26.9741,19.1316,68.8912,1.0449,99.1932s-28.869,49.0962-68.9918,82.6535c-31.653,28.5433-61.3532,48.7687-117.58,88.2116-19.7888,14.1131-108.7725,84.7959-286.4638,89.3281C276.8629,591.8393,137.4975,494.0842,94.4238,454.3381Z" fill="#8ab4f8" opacity="0.5" style="mix-blend-mode:multiply"/><path d="M878.7933,501.7968h-29.419V458.7734h29.419a21.5117,21.5117,0,0,1,0,43.0234Zm-19.419-10h19.419a11.5117,11.5117,0,0,0,0-23.0234h-19.419Z" fill="#e3e3e3"/><polygon points="859.705 577.584 793.616 577.584 784.903 458.773 868.419 458.773 859.705 577.584" fill="#a2cbde" opacity="0.67" style="mix-blend-mode:multiply"/><polygon points="847.54 458.773 838.826 577.584 859.705 577.584 868.419 458.773 847.54 458.773" fill="#e3e3e3"/><path d="M201.287,488.1883c-10.593-24.3212-21.2426-48.8112-27.2258-74.6556s-7.0905-53.4049,1.3123-78.5669a288.0959,288.0959,0,0,1,46.363,150.8679C214.2208,488.2455,209.1709,487.8054,201.287,488.1883Z" fill="#596b36"/><path d="M214.2926,488.4493a40.13,40.13,0,0,1-7.9725.5072c-1.0474-.002-2.15-.0036-3.3412.0219l-.5889.0119-.2163-.5472c-8.1886-20.77-16.6559-42.2475-21.6908-64.6286-5.6916-25.3026-6.0553-48.0135-1.0811-67.5016l.517-2.0245,1.0367,1.8139c22.1529,38.7462,35.5054,85.0956,37.5983,130.51l.0292.631-.597.2069A26.2148,26.2148,0,0,1,214.2926,488.4493Zm-10.7606-1.173c.983-.0142,1.9062-.0128,2.7913-.0108,3.7168.007,6.6906.0117,10.5106-1.2138-2.1406-44.2255-15.005-89.3-36.2967-127.2559-4.3709,18.7632-3.8357,40.4989,1.5961,64.6474C187.0953,445.5011,195.4346,466.7358,203.532,487.2763Z" fill="#ffe35c"/><path d="M241.0132,464.0659c7.6909-25.3886,15.4185-50.9514,18.3538-77.3164s.828-53.8673-10.4455-77.88a288.0944,288.0944,0,0,0-28.4929,155.2378C228.1739,465.6277,233.1383,464.603,241.0132,464.0659Z" fill="#596b36"/><path d="M224.3416,465.2757l-.617-.1361-.0444-.63c-3.2057-45.3491,4.6628-92.9373,22.1567-133.9981l.8185-1.9222.7492,1.95c7.208,18.777,9.4894,41.3759,6.7807,67.1689-2.3964,22.815-8.3071,45.1315-14.0232,66.7136l-.1511.5687-.5863.0567c-1.1863.1132-2.281.2431-3.3211.3669a40.1256,40.1256,0,0,1-7.9773.424A26.2234,26.2234,0,0,1,224.3416,465.2757Zm28.1613-67.7438c2.585-24.6165.5873-46.2668-5.9371-64.394-16.7305,40.1756-24.2626,86.4409-21.2426,130.615,3.9367.7727,6.89.422,10.58-.0175.8788-.105,1.7956-.2138,2.7735-.3141C244.33,442.0781,250.1413,420.0173,252.5029,397.5319Z" fill="#ffe35c"/><path d="M210.7109,478.1347c-6.89-30.5986-13.8088-61.4059-15.0074-92.7478s3.6467-63.592,19.0016-90.9413A340.6238,340.6238,0,0,1,234.9809,479.95C225.7171,481.0784,219.9509,479.444,210.7109,478.1347Z" fill="#7b934a"/><path d="M225.7551,481.331a47.4393,47.4393,0,0,1-9.3706-1.1846c-1.2158-.2353-2.4956-.4824-3.8848-.7178l-.6865-.1172-.1294-.6835c-4.8882-25.94-9.9429-52.7637-10.81-79.8731-.9805-30.6479,3.6494-57.1011,13.7607-78.6245l1.0508-2.2358.8,2.3369c17.105,49.9209,22.2993,106.7129,14.6269,159.914l-.1064.7393-.7393.1074A30.9863,30.9863,0,0,1,225.7551,481.331Zm-12.2344-3.7559c1.1446.2022,2.2163.4092,3.2437.6084,4.3144.835,7.7666,1.502,12.4751.9287,7.3525-51.8315,2.4414-107.0346-13.8394-155.8462-9.25,20.816-13.4634,46.1748-12.5278,75.4248C203.7273,425.4086,208.6872,451.9218,213.5207,477.5751Z" fill="#ffe35c"/><path d="M252.9382,487.8447c8.646-23.3533,17.3362-46.8678,21.5815-71.4057s3.83-50.4272-5.3717-73.5671a270.4414,270.4414,0,0,0-35.5,143.844C240.8191,488.58,245.5289,487.9015,252.9382,487.8447Z" fill="#7b934a"/><path d="M237.2482,488.033l-.5705-.1624-.0058-.593c-.4326-42.6744,9.6385-86.8189,28.3586-124.3014l.876-1.7547.5914,1.87c5.6893,18.003,6.5457,39.3077,2.5451,63.3225-3.539,21.242-10.3427,41.8177-16.9224,61.7162l-.1739.5243-.5526.02c-1.118.0388-2.1511.0984-3.1327.1555a37.6578,37.6578,0,0,1-7.4989-.0551A24.6023,24.6023,0,0,1,237.2482,488.033Zm30.2285-61.88c3.8179-22.9193,3.1736-43.3192-1.9121-60.6745-17.9546,36.6963-27.6354,79.62-27.31,121.1832a29.0945,29.0945,0,0,0,9.915.5835c.8294-.0485,1.6947-.0985,2.6166-.137C257.2924,467.43,263.9889,447.0883,267.4767,426.1531Z" fill="#ffe35c"/><polygon points="267.41 586.393 187.198 586.393 177.394 443.714 277.214 443.714 267.41 586.393" fill="#fff"/><polygon points="267.41 586.393 187.198 586.393 177.394 443.714 277.214 443.714 267.41 586.393" fill="#fff"/><polygon points="251.975 443.714 242.171 586.393 267.41 586.393 277.214 443.714 251.975 443.714" fill="#e3e3e3"/><polygon points="274.909 477.25 275.222 472.696 179.385 472.696 179.698 477.25 274.909 477.25" fill="#e3e3e3" style="mix-blend-mode:multiply"/><path d="M343.5861,280.825h385.226a19.9492,19.9492,0,0,1,19.9492,19.9492v256.86a19.9493,19.9493,0,0,1-19.9493,19.9493H343.5861a19.9492,19.9492,0,0,1-19.9492-19.9492v-256.86A19.9492,19.9492,0,0,1,343.5861,280.825Z" fill="#37515c"/><rect x="335.5278" y="292.7161" width="401.3427" height="249.9531" fill="#c7eeff"/><rect x="680.9527" y="313.6873" width="50.1005" height="36.5918" fill="#a2cbde" opacity="0.67" style="mix-blend-mode:multiply"/><path d="M584.3931,427.2415a13.6446,13.6446,0,0,0,25.4206-3.6166c-2.6293,2.3242-6.5616,2.73-9.9352,1.7636a4.0629,4.0629,0,0,1-1.8033-.9415,1.8537,1.8537,0,0,1-.5151-1.8783,2.4354,2.4354,0,0,1,1.8115-1.2911c2.4422-.6126,5.0264.0314,7.5277-.2566a10.1368,10.1368,0,0,0,8.6277-12.7105c-3.077.8822-5.3964,3.2362-7.9942,5.1066a21.2736,21.2736,0,0,1-10.0433,3.8605c-1.0421.115-2.3668-.0155-2.7336-.9976-.3679-.9853.5549-1.9544,1.4266-2.543,3.2433-2.19,7.0622-3.3487,10.5184-5.1843s6.7483-4.681,7.4919-8.5231c.7879-4.07-1.4536-8.0632-3.7519-11.5136-1.8811,4.8656-4.1013,10.0643-7.3819,14.12s-7.8818,7.2748-13.0613,7.8959a1.7881,1.7881,0,0,1-1.3093-.1994,1.288,1.288,0,0,1-.2441-1.5564,3.8129,3.8129,0,0,1,1.1542-1.2358c3.9457-3.1345,7.8224-6.4933,10.5459-10.7332s4.1908-9.5174,2.9291-14.3961A62.1362,62.1362,0,0,0,591.6,377.4367,22.5168,22.5168,0,0,1,584.8282,404a2.6118,2.6118,0,0,1-1.6714.7312,1.9078,1.9078,0,0,1-1.5338-2.0962,5.83,5.83,0,0,1,1.1181-2.629c2.6182-4.1608,4.8556-8.69,5.4706-13.5678s-.5955-10.1714-4.0735-13.6457c-2.0915-.1275-4.459.1355-6.55.008,3.4967,5.0768,3.9829,12.2822,2.89,18.349a6.98,6.98,0,0,1-1.4309,3.4928,2.96,2.96,0,0,1-3.4436.848c-1.3971-.7485-1.5845-2.64-1.5971-4.2252l-.0807-10.1167a18.8548,18.8548,0,0,0-.7624-6.2845,6.39,6.39,0,0,0-4.3567-4.2567c-2.0594-.4357-4.1371.536-5.9625,1.5843s-3.7056,2.2376-5.81,2.2847c-1.5131,4.5981.3893,9.538,3.9366,12.8317,1.021.9481,2.3136,1.979,2.1993,3.3675a2.612,2.612,0,0,1-3.0815,2.02,5.7833,5.7833,0,0,1-3.329-2.3077,16.0077,16.0077,0,0,1-3.4057-7.932c-1.5569,2.8922-2.5736,6.89-1.5109,9.9985a12.1266,12.1266,0,0,0,6.4661,7.0661c2.3352,1.0375,5.0335,1.3469,7.0533,2.9121.602.4666,1.15,1.3374.6713,1.93a1.5546,1.5546,0,0,1-1.2515.3995,15.6238,15.6238,0,0,1-14.1588-9.6748c-3.2747,3.9467-2.9186,10.4439.3535,14.3929s8.7209,5.6719,13.8332,5.2665c.8456-.067,1.8661-.111,2.35.5854.509.7319.03,1.7435-.5631,2.4087-2.5121,2.8159-6.844,3.3736-10.477,2.3535s-6.74-3.3382-9.7531-5.6091c-.0267,4.2567,1.5383,8.2222,3.3985,12.0511a9.3623,9.3623,0,0,0,2.8956,3.9683,8.0944,8.0944,0,0,0,5.3974.815,28.9991,28.9991,0,0,0,9.9368-3.0111,7.3319,7.3319,0,0,1,2.1766-.8716,1.8786,1.8786,0,0,1,1.5351,3.3927,6.1811,6.1811,0,0,1-2.6871,1.1416l-8.0967,1.9982a12.4546,12.4546,0,0,0,13.8369,6.1068C580.2718,438.7792,584.13,432.8981,584.3931,427.2415Z" fill="#a2cbde" opacity="0.67" style="mix-blend-mode:multiply"/><rect x="630.8523" y="387.0784" width="100.2009" height="40.099" fill="#a2cbde" opacity="0.67" style="mix-blend-mode:multiply"/><rect x="536.5042" y="292.7161" width="200.6713" height="124.9764" fill="none"/><path d="M384.8169,528.13a13.6447,13.6447,0,0,0,25.6718.4994c-2.9675,1.8733-6.914,1.6443-10.0894.15a4.0627,4.0627,0,0,1-1.6294-1.218,1.8539,1.8539,0,0,1-.2078-1.9365,2.4357,2.4357,0,0,1,1.9949-.9845c2.5087-.2137,4.9565.8356,7.4717.9518A10.1371,10.1371,0,0,0,418.58,514.4273c-3.1786.3783-5.8449,2.3307-8.7086,3.7611a21.2748,21.2748,0,0,1-10.5318,2.203c-1.047-.0533-2.3338-.3942-2.5386-1.4223-.2054-1.0315.8606-1.84,1.8152-2.2819,3.5521-1.6424,7.5073-2.1751,11.2128-3.4337s7.4105-3.54,8.76-7.2139c1.4292-3.8916-.1441-8.1919-1.8605-11.9657-2.6357,4.5017-5.6594,9.278-9.547,12.7564s-8.9447,5.9192-14.1568,5.7032a1.7885,1.7885,0,0,1-1.26-.4064,1.288,1.288,0,0,1,.0082-1.5754,3.8133,3.8133,0,0,1,1.3371-1.0351c4.3966-2.4625,8.761-5.1574,12.1281-8.9066s5.66-8.7238,5.1958-13.7416a62.1452,62.1452,0,0,0-10.529-6.7469,22.5171,22.5171,0,0,1-10.937,25.1371,2.6114,2.6114,0,0,1-1.7669.4542,1.9078,1.9078,0,0,1-1.1785-2.3146,5.83,5.83,0,0,1,1.5245-2.4161c3.2506-3.688,6.1842-7.8011,7.572-12.5171s1.04-10.1356-1.8366-14.1219c-2.0441-.4606-4.4231-.58-6.4672-1.0406,2.639,5.571,1.9655,12.7613-.0847,18.5749a6.98,6.98,0,0,1-1.9716,3.2187,2.96,2.96,0,0,1-3.5349.2859c-1.2592-.9626-1.1414-2.86-.9-4.4265q.77-4.9995,1.54-9.9991a18.8547,18.8547,0,0,0,.2534-6.3255,6.39,6.39,0,0,0-3.6191-4.8992c-1.9631-.76-4.17-.1331-6.1391.6094s-4.0161,1.6156-6.1009,1.3252c-2.23,4.2966-1.1426,9.4773,1.8317,13.2964.856,1.0992,1.967,2.3238,1.6319,3.6761a2.6119,2.6119,0,0,1-3.3652,1.501,5.7827,5.7827,0,0,1-2.9167-2.8108,16.0078,16.0078,0,0,1-2.092-8.3749c-2,2.6057-3.6434,6.39-3.092,9.6278a12.1273,12.1273,0,0,0,5.2516,8.01c2.1391,1.3979,4.753,2.1353,6.4962,4.0037.52.5569.9213,1.5042.3538,2.0123a1.5546,1.5546,0,0,1-1.2993.194,15.6237,15.6237,0,0,1-12.4275-11.8166c-3.8643,3.3717-4.5528,9.8421-1.9551,14.2639s7.7005,6.9948,12.8118,7.413c.8454.0692,1.86.1891,2.2263.954.3852.804-.2491,1.7259-.9414,2.2876-2.93,2.3774-7.2958,2.2345-10.7187.646s-6.1182-4.374-8.7294-7.0981c-.7078,4.1976.2023,8.3625,1.4255,12.44a9.3613,9.3613,0,0,0,2.2231,4.3806,8.0942,8.0942,0,0,0,5.1973,1.6686,29,29,0,0,0,10.2906-1.3816,7.3319,7.3319,0,0,1,2.2881-.512,1.8786,1.8786,0,0,1,.9722,3.5947,6.1807,6.1807,0,0,1-2.8352.6967l-8.3121.6764a12.4546,12.4546,0,0,0,12.6809,8.243C378.9019,538.86,383.6518,533.6719,384.8169,528.13Z" fill="#a2cbde" opacity="0.67" style="mix-blend-mode:multiply"/><path d="M471.9417,520.2754a15.9534,15.9534,0,0,0,25.3508,16.0814c-4.1025.0708-7.9073-2.5535-10.1737-5.9738a4.75,4.75,0,0,1-.8889-2.2062,2.1675,2.1675,0,0,1,.9678-2.0613,2.8476,2.8476,0,0,1,2.591.2271c2.6368,1.3092,4.4459,3.8435,6.8888,5.4863a11.8521,11.8521,0,0,0,17.321-4.7534c-3.4059-1.5513-7.2555-1.2187-10.9854-1.5275a24.8747,24.8747,0,0,1-11.8616-4.1912c-1.0139-.6888-2.0929-1.8105-1.6735-2.9622.4208-1.1555,1.9771-1.3168,3.199-1.1785,4.5465.5148,8.8222,2.3832,13.2891,3.3746s9.5543.96,13.1323-1.8919c3.79-3.0214,4.8283-8.2736,5.4038-13.0867-5.3664,2.8988-11.2871,5.8364-17.2833,6.9527s-12.5314.4858-17.6087-2.8937a2.0915,2.0915,0,0,1-1.013-1.1713,1.5061,1.5061,0,0,1,.9645-1.5693,4.4607,4.4607,0,0,1,1.9645-.2228c5.8881.208,11.8853.164,17.5257-1.5388s10.9516-5.2821,13.5332-10.5782a72.6611,72.6611,0,0,0-6.4264-13.1331,26.3271,26.3271,0,0,1-26.1872,18.481,3.0537,3.0537,0,0,1-2.0413-.6186,2.2306,2.2306,0,0,1,.2272-3.0284,6.8167,6.8167,0,0,1,2.99-1.4891c5.4868-1.7124,10.9149-4.0419,15.1644-7.9122s7.1918-9.4971,6.7364-15.2268c-1.7631-1.7011-4.0679-3.2644-5.831-4.9655-.7444,7.169-5.7819,13.9455-11.3593,18.5106a8.1622,8.1622,0,0,1-3.924,2.02,3.4611,3.4611,0,0,1-3.7059-1.86c-.6742-1.7262.5953-3.5507,1.7872-4.97l7.608-9.0575a22.0447,22.0447,0,0,0,4.0927-6.1672,7.4706,7.4706,0,0,0-.6428-7.0926c-1.5-1.9508-4.0858-2.6638-6.5048-3.1174s-4.9938-.8232-6.901-2.3789c-4.836,2.94-6.8943,8.7772-6.24,14.399.1883,1.6181.5552,3.5161-.6006,4.6641-1.1456,1.1379-3.2353.6938-4.2738-.5426a6.7618,6.7618,0,0,1-1.2086-4.5793,18.7167,18.7167,0,0,1,2.9929-9.6388c-3.58,1.39-7.5193,4.1736-8.9337,7.7442a14.1789,14.1789,0,0,0,.3859,11.1921c1.2891,2.6952,3.4536,5.0187,4.0615,7.9439.1812.8719.0076,2.0623-.8679,2.2256a1.8172,1.8172,0,0,1-1.4162-.5948,18.2671,18.2671,0,0,1-5.2463-19.3515c-5.9081,1.0237-10.5236,7.0717-10.6117,13.0672s3.4494,11.6639,8.3033,15.1844c.8028.5822,1.7436,1.3178,1.6456,2.3047-.103,1.0372-1.2965,1.5735-2.3292,1.7145-4.3715.597-8.647-2.1954-11.1033-5.8605s-3.459-8.0845-4.4149-12.3917c-3.2552,3.765-4.8738,8.4794-6.1262,13.2963-.488,1.8768-.9759,3.864-.4375,5.7269.6032,2.0871,2.3791,3.6082,4.1809,4.8221a33.9055,33.9055,0,0,0,11.1221,4.8656,8.5684,8.5684,0,0,1,2.5972.8772,2.1964,2.1964,0,0,1-1.21,4.1823,7.2264,7.2264,0,0,1-3.2561-1.0247l-8.7169-4.3695a14.5623,14.5623,0,0,0,7.6687,15.9345C459.5184,527.4068,467.4137,525.1059,471.9417,520.2754Z" fill="#a2cbde" opacity="0.67" style="mix-blend-mode:multiply"/><rect x="355.8191" y="431.7419" width="80.9619" height="29.0635" fill="#a2cbde" opacity="0.67" style="mix-blend-mode:multiply"/><rect x="335.5278" y="417.6926" width="200.6713" height="124.9764" fill="none"/><rect x="335.5278" y="292.7161" width="200.6713" height="124.9764" fill="#a2cbde"/><g clip-path="url(#e2c925eb-1f4a-4e65-88a5-ddedee238e0c)"><path d="M481.7757,425.9846A303.9858,303.9858,0,0,1,517.4944,342.16c-.5073,30.3149-7.3549,61.6188-21.5906,88.3881C491.2143,429.6465,485.1175,429.3958,481.7757,425.9846Z" fill="#a2cbde" opacity="0.67" style="mix-blend-mode:multiply"/><path d="M475.1124,439.5487A251.8,251.8,0,0,1,490.5092,365.66c4.512,24.7057,4.0348,51.2446-3.18,75.3C483.3737,440.99,478.3808,441.7766,475.1124,439.5487Z" fill="#a2cbde" opacity="0.67" style="mix-blend-mode:multiply"/><path d="M491.01,434.9848a184.7411,184.7411,0,0,1,26.4846-48.6309c-2.0706,18.3092-8.0342,36.8478-18.2034,52.2134C496.5066,437.7491,492.8329,437.2427,491.01,434.9848Z" fill="#a2cbde" opacity="0.67" style="mix-blend-mode:multiply"/><rect x="356.4258" y="365.6601" width="100.201" height="59.1299" fill="#a2cbde" opacity="0.67" style="mix-blend-mode:multiply"/><path d="M383.5585,402.7964a17.4824,17.4824,0,0,1-1.2531-4.7593c-.182-1.5615,1.735-2.8215,2.9955-3.761a9.6915,9.6915,0,0,0,3.308-3.2881,30.9075,30.9075,0,0,1,6.3681-9.4429,3.1562,3.1562,0,0,0-3.1828-1.0855,6.1721,6.1721,0,0,0-3.0259,1.8708c-.8362.8655-1.53,1.8573-2.328,2.7582a3.3488,3.3488,0,0,1-1.2176.9689,1.3271,1.3271,0,0,1-1.4543-.25c-2.1387-2.3968-2.3518-5.6781-2.7952-8.7059q-.49-3.3493-.9809-6.6987c-.252-1.7213-.1271-4.4832-1.2175-5.9235-.34-.4492-.8668-.8854-1.4086-.7308a1.0873,1.0873,0,0,0-.6906.7839,3.2076,3.2076,0,0,0-.0433,1.0857q.4854,6.55.9707,13.1007a.7706.7706,0,0,1-.6987.7215,1.0565,1.0565,0,0,1-.9414-.45,3.1136,3.1136,0,0,1-.4443-.9933l-2.9922-9.5656a9.9393,9.9393,0,0,0-1.51-3.3212,1.2664,1.2664,0,0,0-.6992-.5118.9908.9908,0,0,0-1.0374.7866,2.8842,2.8842,0,0,0,.108,1.4136l3.29,13.2864c-.8868,1.3144-1.9437-1.7482-2.6108-2.9879q-2.0982-3.9-4.1965-7.7992a4.3472,4.3472,0,0,0-.98-1.3619,1.3167,1.3167,0,0,0-2.2235,1.2738,4.5817,4.5817,0,0,0,.7032,1.6262A63.842,63.842,0,0,1,368.66,382.209c.1518.4335-.3464.79-.8019.7313a1.7818,1.7818,0,0,1-1.0656-.813q-2.2176-2.877-4.2662-5.879a4.2091,4.2091,0,0,0-1.2653-1.3694,1.41,1.41,0,0,0-1.7283.1509c-.547.6309-.1537,1.6017.2706,2.3209a62.26,62.26,0,0,0,6.76,9.35c1.4762,1.687.96,4.3283,1.6646,6.4564a15.0965,15.0965,0,0,0,3.23,5.8338c.4518,2.5192,1.105,4.87,1.7436,7.348A14,14,0,0,0,383.5585,402.7964Z" fill="#ffbc99"/><path d="M372.5286,399.2637a7.1207,7.1207,0,0,0,3.8387-2.1586,7.9926,7.9926,0,0,0,5.9776,1.1908c.0211.16.0475.32.0731.4791a7.0462,7.0462,0,0,1-5.6043.0005,7.12,7.12,0,0,1-5.1664,1.2093c-.0411-.2037-.0795-.41-.1182-.6155A6.8842,6.8842,0,0,0,372.5286,399.2637Z" fill="#d9d9d9" style="mix-blend-mode:multiply"/><path d="M370.0274,388.2543a16.09,16.09,0,0,1,10.7991-3.6048,46.2842,46.2842,0,0,0-5.5221,1.4351A45.6531,45.6531,0,0,0,370.0274,388.2543Z" fill="#d9d9d9" style="mix-blend-mode:multiply"/><path d="M373.2216,390.2261a16.0674,16.0674,0,0,1,7.3736-3.7862c-1.1971.7387-2.42,1.353-3.6366,1.9908C375.73,389.0468,374.5186,389.6823,373.2216,390.2261Z" fill="#d9d9d9" style="mix-blend-mode:multiply"/><path d="M375.911,392.222a7.3011,7.3011,0,0,1,4.6863-3.69c-.7822.6729-1.5684,1.2422-2.3328,1.858C377.4856,390.9876,376.7474,391.6184,375.911,392.222Z" fill="#d9d9d9" style="mix-blend-mode:multiply"/><path d="M397.4728,457.6516l-.1914-3.48c-2.7982-11.5842-9.293-41.1541-12.0912-52.7382a39.6072,39.6072,0,0,1-14.4425,4.3231c.2758,11.4662,3.3755,40.4456,4.6852,51.84a28.6079,28.6079,0,0,0,1.63,7.5747,10.6919,10.6919,0,0,0,4.983,5.7361c3.3749,1.6266,7.6137.6393,10.4816-1.7712S396.6471,461.3058,397.4728,457.6516Z" fill="#fff"/><path d="M425.4725,360.69c-3.48.7145-7.1318-1.0529-9.4372-3.7559a21.2029,21.2029,0,0,1-4.1673-9.6838c-.7079-3.4814-1.0246-7.0422-1.9261-10.4786-.7868-2.999-2.0111-5.8713-2.76-8.88a14.9986,14.9986,0,0,1,.1582-9.147c1.1541-2.8777,3.9839-5.2349,7.0807-5.0832.9125-6.1467,6.8926-12.2985,13.1028-12.5172,5.4271-.1911,10.3551,2.8471,15.4218,4.801a40.2726,40.2726,0,0,0,19.8752,2.31c-.7831,3.57-2.1417,7.8079-4.7853,10.3314,2.3288,2.9289,1.6491,7.2437.6692,10.855q-2.8247,10.41-5.6495,20.82c-1.1007,4.0565-2.614,8.6151-6.4558,10.32-3.3521,1.4877-7.2761.1927-10.4869-1.58C433.2065,357.3977,428.7236,360.0224,425.4725,360.69Z" fill="#523c22"/><path d="M475.03,418.4214c-2.5413-12.1513-6.5777-24.1963-13.7588-33.73a41.3061,41.3061,0,0,0-17.3395-13.7079l-1.4009-15.5677H423.1651l-1.401,15.5677a41.3059,41.3059,0,0,0-17.3395,13.7079c-7.181,9.5341-11.2175,21.5791-13.7588,33.73-2.9532,14.1212-4.0556,28.6349-5.1327,43.0891,14.9791,5.691,31.8622,7.62,47.3147,3.8043,15.4524,3.8154,32.3356,1.8867,47.3146-3.8043C479.0853,447.0563,477.983,432.5426,475.03,418.4214Z" fill="#ffbc99"/><path d="M457.8959,412.6745c2.8763-7.8509,5.2617-16.1533,4.3917-24.4691a22.0767,22.0767,0,0,0-.4745-2.7626c-.1816-.25-.3564-.5052-.5422-.7518a41.3061,41.3061,0,0,0-17.3395-13.7079l-.0146-.1623a25.36,25.36,0,0,1-22.1463.0918l-.0064.07a40.0842,40.0842,0,0,0-15.0548,10.9133c-.0119.09-.025.1813-.0366.2715a188.7,188.7,0,0,0,1.1032,55.403c1.7118,10.1218,4.53,20.6187,11.7083,27.9572.5418.5539,1.1176,1.0844,1.7179,1.59a68.1735,68.1735,0,0,0,11.6457-1.8032,67.4917,67.4917,0,0,0,9.705,1.64,23.7051,23.7051,0,0,0,5.23-9.9031c1.75-6.6752,1.3974-13.7145,2.4928-20.5277C451.6028,428.2692,455.02,420.5253,457.8959,412.6745Z" fill="#00ada1"/><path d="M428.5814,466.2166c.42-17.7914.5108-35.64-2.2049-53.2079-.8568-5.5426-1.99-11.0382-3.1235-16.531q-2.4654-11.95-4.9306-23.9006a42.89,42.89,0,0,0-13.8978,12.1139c-7.181,9.5341-11.2175,21.5791-13.7588,33.73-2.9532,14.1212-4.0556,28.6349-5.1327,43.0891C399.1444,466.6819,414.3278,468.7455,428.5814,466.2166Z" fill="#fff"/><path d="M418.6784,467.2379a70.7152,70.7152,0,0,0,9.903-1.0213c.42-17.7914.5108-35.64-2.2049-53.2079-.8568-5.5426-1.99-11.0382-3.1235-16.531q-2.4654-11.95-4.9306-23.9006a42.89,42.89,0,0,0-13.8978,12.1139c-1.0382,1.3785-2.0035,2.8148-2.9152,4.291q-.75,2.7621-1.5008,5.5241a80.1112,80.1112,0,0,1,12.9712,7.5232,147.3868,147.3868,0,0,1-9.3285,11.66A158.2618,158.2618,0,0,1,418.6784,467.2379Z" opacity="0.05"/><path d="M475.03,418.4214c-2.5413-12.1513-6.5777-24.1963-13.7588-33.73A43.6645,43.6645,0,0,0,449.14,373.5792a98.1913,98.1913,0,0,0-6.7362,22.2006c-2.1289,11.3716-2.7347,22.9658-3.3357,34.5193-.6245,12.0038-1.5674,23.8872-2.2867,35.8552,14.35,2.621,29.6639.568,43.3814-4.6438C479.0853,447.0563,477.983,432.5426,475.03,418.4214Z" fill="#fff"/><path d="M435.1411,378.0257a33.248,33.248,0,0,0,13.2986-4.8581,34.5169,34.5169,0,0,0-4.5083-2.1845l-.0146-.1623a25.36,25.36,0,0,1-22.1463.0918l-.0064.07a34.0666,34.0666,0,0,0-3.7573,1.7643C422.3885,377.0006,429.006,378.74,435.1411,378.0257Z" fill="#00ada1" opacity="0.59" style="mix-blend-mode:multiply"/><path d="M408.5647,412.56A158.26,158.26,0,0,1,418.77,467.2341a70.6891,70.6891,0,0,0,9.811-1.0175c.42-17.7914.5108-35.64-2.2049-53.2079-.8568-5.5426-1.99-11.0382-3.1235-16.531q-2.4654-11.95-4.9306-23.9006a38.5355,38.5355,0,0,0-5.3558,3.4562l-6.3243,17.0954a80.108,80.108,0,0,1,12.2509,8.647A147.4247,147.4247,0,0,1,408.5647,412.56Z" fill="#fff"/><path d="M442.4034,395.78c-2.1289,11.3716-2.7347,22.9658-3.3357,34.5193-.6245,12.0038-1.5674,23.8872-2.2867,35.8552a70.607,70.607,0,0,0,10.1572,1.08,164.1291,164.1291,0,0,1,15.3941-53.7754,152.8783,152.8783,0,0,1-9.6746-12.093,83.0753,83.0753,0,0,1,13.4526-7.8024l-.6642-2.4445a57.9163,57.9163,0,0,0-4.1752-6.428A43.6645,43.6645,0,0,0,449.14,373.5792,98.1913,98.1913,0,0,0,442.4034,395.78Z" opacity="0.05"/><path d="M453.5025,376.6517a39.9269,39.9269,0,0,0-4.3629-3.0725,98.1913,98.1913,0,0,0-6.7362,22.2006c-2.1289,11.3716-2.7347,22.9658-3.3357,34.5193-.6245,12.0038-1.5674,23.8872-2.2867,35.8552a70.49,70.49,0,0,0,9.9044,1.0688,164.1329,164.1329,0,0,1,10.5512-54.9356,152.887,152.887,0,0,1-10.7117-11.1846A83.08,83.08,0,0,1,459.23,392.135Q456.3665,384.3934,453.5025,376.6517Z" fill="#fff"/><path d="M422.4631,363.2158a37.2435,37.2435,0,0,0,21.4539,7.6077l-1.3865-15.4081H423.1651Z" fill="#b5856d"/><path d="M415.5782,335.74a8.774,8.774,0,0,0-3.08-3.6348,3.6519,3.6519,0,0,0-4.4417.4,5.0424,5.0424,0,0,0-.85,3.72,13.6683,13.6683,0,0,0,2.3312,7.46c1.59,2.1118,4.3722,3.48,6.9278,2.8038C416.832,342.8974,417.2891,338.92,415.5782,335.74Z" fill="#ffbc99"/><path d="M415.404,338.5424l.2742.0443a15.9172,15.9172,0,0,0-1.2144-2.54,5.3323,5.3323,0,0,0-2-1.94,3.2292,3.2292,0,0,0-2.7228-.1673,2.334,2.334,0,0,0-1.4227,2.2259,2.3232,2.3232,0,0,1,2.1954-.619,2.2446,2.2446,0,0,1,1.6578,1.508,1.71,1.71,0,0,0-1.2982,1.4144,3.3578,3.3578,0,0,0,.2991,1.97,3.0934,3.0934,0,0,0,.6175.9939,1.47,1.47,0,0,0,1.0462.4655,2.1717,2.1717,0,0,1-1.54.8722,4.1872,4.1872,0,0,0,4.0766-.2647A18.2292,18.2292,0,0,0,415.404,338.5424Z" fill="#dea485"/><path d="M450.1174,337.1186a8.7741,8.7741,0,0,1,3.08-3.6349,3.6519,3.6519,0,0,1,4.4416.4006,5.0423,5.0423,0,0,1,.85,3.72,13.6683,13.6683,0,0,1-2.3312,7.46c-1.59,2.1118-4.3721,3.48-6.9278,2.8038C448.8635,344.2762,448.4064,340.2984,450.1174,337.1186Z" fill="#ffbc99"/><path d="M450.2915,339.9212l-.2742.0443a15.9217,15.9217,0,0,1,1.2144-2.54,5.3323,5.3323,0,0,1,2-1.94,3.2292,3.2292,0,0,1,2.7228-.1673,2.334,2.334,0,0,1,1.4228,2.2259,2.3235,2.3235,0,0,0-2.1955-.6191,2.245,2.245,0,0,0-1.6578,1.5081,1.71,1.71,0,0,1,1.2983,1.4144,3.3587,3.3587,0,0,1-.2992,1.97,3.0919,3.0919,0,0,1-.6175.9938,1.47,1.47,0,0,1-1.0462.4656,2.1717,2.1717,0,0,0,1.54.8722,4.1873,4.1873,0,0,1-4.0767-.2647A18.2292,18.2292,0,0,1,450.2915,339.9212Z" fill="#dea485"/><ellipse cx="432.9954" cy="339.6214" rx="19.2841" ry="25.9342" fill="#ffbc99"/><g style="mix-blend-mode:multiply"><path d="M431.7443,348.7945a4.2106,4.2106,0,0,1-1.1829-.1593,2.815,2.815,0,0,1-2.1178-2.47,3.8891,3.8891,0,0,1,.9426-2.3305l.093-.1331a13.5215,13.5215,0,0,0,2.2681-9.5779.7517.7517,0,0,1,1.4879-.2158,15.0444,15.0444,0,0,1-2.5226,10.6539l-.0969.138a2.6965,2.6965,0,0,0-.67,1.4135,1.3629,1.3629,0,0,0,1.0352,1.0777,4.575,4.575,0,0,0,2.1447-.0795.7518.7518,0,0,1,.31,1.4713A8.2382,8.2382,0,0,1,431.7443,348.7945Z" fill="#d9d9d9"/></g><g style="mix-blend-mode:multiply"><path d="M433.0609,353.74a11.9027,11.9027,0,0,1-5.9785-1.5807.7516.7516,0,1,1,.7557-1.2994,10.7514,10.7514,0,0,0,11.1431-.4173.7518.7518,0,0,1,.8516,1.2393A11.9894,11.9894,0,0,1,433.0609,353.74Z" fill="#d9d9d9"/></g><path d="M423.9169,335.5279a1.442,1.442,0,1,1-1.44-1.5119A1.4774,1.4774,0,0,1,423.9169,335.5279Z" fill="#523c22"/><path d="M444.28,335.5279a1.4421,1.4421,0,1,1-1.44-1.5119A1.4775,1.4775,0,0,1,444.28,335.5279Z" fill="#523c22"/><path d="M425.25,343.8465c0,1.5559-1.7789,2.8172-3.9734,2.8172s-3.9735-1.2613-3.9735-2.8172,1.779-2.8173,3.9735-2.8173S425.25,342.2906,425.25,343.8465Z" fill="#ffa87a"/><path d="M448.8859,343.8465c0,1.5559-1.6758,2.8172-3.7431,2.8172s-3.7432-1.2613-3.7432-2.8172,1.6759-2.8173,3.7432-2.8173S448.8859,342.2906,448.8859,343.8465Z" fill="#ffa87a"/><path d="M424.84,327.8453a4.807,4.807,0,0,0-3.4388-.011,8.5978,8.5978,0,0,0-3.9951,3.4971c-.13.1943-.1276.2506-.1236.2632a.2022.2022,0,0,0,.1618.0365,1.2247,1.2247,0,0,0,.4267-.2232,9.0321,9.0321,0,0,1,7.399-1.2476l.1728.0484a3.0748,3.0748,0,0,0,.8131.1588h.0027a.7437.7437,0,0,0,.639-.2892.5522.5522,0,0,0,.0321-.484A4.3075,4.3075,0,0,0,424.84,327.8453Z" fill="#523c22"/><path d="M447.0586,331.383a1.3473,1.3473,0,0,0,.4628.2481.196.196,0,0,0,.1625-.0382c.0034-.0109.0061-.0672-.1236-.2611a8.6,8.6,0,0,0-3.9958-3.4975,4.8068,4.8068,0,0,0-3.4387.011,4.3066,4.3066,0,0,0-2.09,1.749.5536.5536,0,0,0,.0321.4847.7448.7448,0,0,0,.639.2885h.0027a3.0739,3.0739,0,0,0,.8138-.1591l.1713-.0481a8.7874,8.7874,0,0,1,2.3232-.31A9.008,9.008,0,0,1,447.0586,331.383Z" fill="#523c22"/><path d="M410.7159,329.94A122.6361,122.6361,0,0,1,413.77,342.128a123.28,123.28,0,0,0,3.6743-17.3464,9.0776,9.0776,0,0,0,3.0905-3.6465A38.63,38.63,0,0,0,447.9,324.364a19.509,19.509,0,0,0,3.1673,7.8529,29.562,29.562,0,0,0,1.045,11.682,83.7142,83.7142,0,0,0,4.3679-15.9145c.801-4.73-1.7757-9.6006-5.2506-12.9087a21.243,21.243,0,0,0-13.0141-5.4618,33.7538,33.7538,0,0,0-14.1039,2.2547,24.585,24.585,0,0,0-10.14,6.3232C411.3,321.2022,409.5388,326.0914,410.7159,329.94Z" fill="#523c22"/><path d="M420.2144,314.2007a45.1609,45.1609,0,0,0,25.9743,4.4819,28.1721,28.1721,0,0,1-25.9743-4.4819Z" fill="#fff" opacity="0.1"/><path d="M427.7776,312.3289a75.2953,75.2953,0,0,0,9.71,1.4714,76.3257,76.3257,0,0,0,9.8209.0462,24.738,24.738,0,0,1-19.5311-1.5176Z" fill="#fff" opacity="0.1"/><path d="M433.5885,309.0806a60.9772,60.9772,0,0,0,6.505.6131,62.4765,62.4765,0,0,0,6.53-.2251,13.1774,13.1774,0,0,1-13.035-.388Z" fill="#fff" opacity="0.1"/></g><rect x="536.1991" y="417.6926" width="200.6713" height="124.9764" fill="#a2cbde"/><rect x="335.5278" y="516.5517" width="401.3427" height="26.1175" fill="#fff" opacity="0.5"/><g clip-path="url(#b0c23803-94aa-4d10-ba22-9b4a967979ed)"><path d="M702.45,553.2861a288.73,288.73,0,0,1,22.8572-83.4709c3.413,28.5942.9861,58.9329-8.9756,85.9523C711.8028,555.5209,706.033,556.0674,702.45,553.2861Z" fill="#a2cbde" opacity="0.67" style="mix-blend-mode:multiply"/><path d="M697.92,566.9063a239.1675,239.1675,0,0,1,5.0076-71.5121c7.4167,22.6714,10.3735,47.7082,6.6708,71.2728C705.88,567.2024,701.282,568.5835,697.92,566.9063Z" fill="#a2cbde" opacity="0.67" style="mix-blend-mode:multiply"/><path d="M712.2954,560.571a175.472,175.472,0,0,1,18.6835-49.1651c.4011,17.4964-2.8321,35.7084-10.43,51.4739C717.8232,562.4671,714.3009,562.462,712.2954,560.571Z" fill="#a2cbde" opacity="0.67" style="mix-blend-mode:multiply"/><path d="M592.6288,546.04a372.5787,372.5787,0,0,0-43.7781-102.7386c.6218,37.155,9.0144,75.5222,26.4621,108.3316C581.06,550.5276,588.5329,550.22,592.6288,546.04Z" fill="#a2cbde" opacity="0.67" style="mix-blend-mode:multiply"/><path d="M600.7956,562.6641a308.6187,308.6187,0,0,0-18.8709-90.56c-5.53,30.28-4.9452,62.8072,3.8975,92.2907C590.67,564.4305,596.79,565.3947,600.7956,562.6641Z" fill="#a2cbde" opacity="0.67" style="mix-blend-mode:multiply"/><path d="M581.3112,557.07a226.4283,226.4283,0,0,0-32.4605-59.6037c2.5378,22.44,9.847,45.162,22.3107,63.9946C574.5741,560.4585,579.0766,559.8379,581.3112,557.07Z" fill="#a2cbde" opacity="0.67" style="mix-blend-mode:multiply"/><rect x="596.0187" y="490.6366" width="100.201" height="59.1299" fill="#a2cbde" opacity="0.67" style="mix-blend-mode:multiply"/><path d="M613.9934,464.4937a5.4755,5.4755,0,0,1-4.5487-2.3979,10.8291,10.8291,0,0,1-1.76-5.0061,6.4064,6.4064,0,0,1,.0965-2.7478,2.4938,2.4938,0,0,1,1.8621-1.7229,1.7289,1.7289,0,0,1-.628-1.7381,1.4636,1.4636,0,0,1,1.3331-1.0295,2.7642,2.7642,0,0,1-1.6644-2.7748,2.2248,2.2248,0,0,1,1.8747-2.1667,4.826,4.826,0,0,1,5.3015-7.4253,11.0264,11.0264,0,0,1,2.1887-7.5134,9.2569,9.2569,0,0,1,6.8585-4.1652,7.6053,7.6053,0,0,1,7.0326,3.5623c1.256-1.45,2.79-1.6174,4.7013-1.4439a3.6815,3.6815,0,0,1,1.89.648,2.0761,2.0761,0,0,1,.8754,1.7329,2.1312,2.1312,0,0,1,1.901-.7662,1.854,1.854,0,0,1,1.439,1.2441,12.3948,12.3948,0,0,1,6.6786-2.5217,8.5208,8.5208,0,0,1,6.5068,2.4959,6.5784,6.5784,0,0,1,1.4764,6.6563c1.4453.1354,2.42,1.8626,2.8886,3.2365a3.8817,3.8817,0,0,1-1.0022,3.9956,4.2892,4.2892,0,0,1,1.68,2.8377,2.9764,2.9764,0,0,1-1.311,2.3893,2.7984,2.7984,0,0,1,.8529,2.2338,1.7094,1.7094,0,0,1-1.2276,1.3715,5.5346,5.5346,0,0,1,.8381,5.1076,8.4249,8.4249,0,0,1-3.0707,4.26,5.3508,5.3508,0,0,1-1.2682,5.0089,12.6407,12.6407,0,0,1-4.6713,2.8071,53.2445,53.2445,0,0,1-11.6428,2.86c-4.9913.7279-10.1792,1.0491-14.9976-.4424S615.2373,469.3819,613.9934,464.4937Z" fill="#5c4224"/><path d="M681.001,505.308a17.4824,17.4824,0,0,0,1.2531-4.7593c.182-1.5615-1.7351-2.8215-2.9955-3.761a9.6915,9.6915,0,0,1-3.308-3.2881,30.906,30.906,0,0,0-6.3682-9.4429,3.1563,3.1563,0,0,1,3.1829-1.0855,6.173,6.173,0,0,1,3.0259,1.8708c.8362.8655,1.53,1.8573,2.328,2.7582a3.3471,3.3471,0,0,0,1.2176.9689,1.3269,1.3269,0,0,0,1.4542-.25c2.1387-2.3968,2.3519-5.6781,2.7953-8.7059q.49-3.3494.9808-6.6987c.2521-1.7213.1272-4.4832,1.2176-5.9235.34-.4492.8668-.8854,1.4086-.7308a1.0873,1.0873,0,0,1,.6906.7839,3.2076,3.2076,0,0,1,.0433,1.0857l-.9708,13.1007a.7707.7707,0,0,0,.6988.7215,1.0565,1.0565,0,0,0,.9414-.45,3.1136,3.1136,0,0,0,.4443-.9933l2.9922-9.5656a9.9411,9.9411,0,0,1,1.51-3.3212,1.267,1.267,0,0,1,.6993-.5118.9908.9908,0,0,1,1.0374.7866,2.8855,2.8855,0,0,1-.108,1.4136q-1.6452,6.6432-3.29,13.2864c.8868,1.3144,1.9438-1.7482,2.6108-2.9879l4.1966-7.7992a4.3472,4.3472,0,0,1,.98-1.3619,1.3167,1.3167,0,0,1,2.2235,1.2738,4.582,4.582,0,0,1-.7033,1.6262A63.8559,63.8559,0,0,0,695.9,484.7206c-.1517.4335.3465.79.802.7313a1.7823,1.7823,0,0,0,1.0656-.813q2.2176-2.877,4.2661-5.879a4.2094,4.2094,0,0,1,1.2654-1.3694,1.41,1.41,0,0,1,1.7283.1509c.547.6309.1537,1.6017-.2706,2.3209a62.268,62.268,0,0,1-6.76,9.3505c-1.4761,1.687-.96,4.3283-1.6645,6.4564a15.0978,15.0978,0,0,1-3.23,5.8338c-.4518,2.5192-1.105,4.87-1.7436,7.348A14,14,0,0,1,681.001,505.308Z" fill="#ffbc99"/><path d="M692.0309,501.7753a7.1207,7.1207,0,0,1-3.8387-2.1586,7.9926,7.9926,0,0,1-5.9776,1.1908c-.0211.16-.0476.32-.0731.4791a7.0459,7.0459,0,0,0,5.6042,0,7.12,7.12,0,0,0,5.1664,1.2093c.0412-.2038.08-.41.1183-.6155A6.8842,6.8842,0,0,1,692.0309,501.7753Z" fill="#d9d9d9" style="mix-blend-mode:multiply"/><path d="M694.5321,490.7659a16.09,16.09,0,0,0-10.7991-3.6048,46.2842,46.2842,0,0,1,5.5221,1.4351A45.65,45.65,0,0,1,694.5321,490.7659Z" fill="#d9d9d9" style="mix-blend-mode:multiply"/><path d="M691.3378,492.7377a16.0664,16.0664,0,0,0-7.3735-3.7862c1.197.7387,2.42,1.353,3.6366,1.9908C688.8291,491.5584,690.0409,492.1939,691.3378,492.7377Z" fill="#d9d9d9" style="mix-blend-mode:multiply"/><path d="M688.6485,494.7336a7.3009,7.3009,0,0,0-4.6864-3.69c.7822.6729,1.5685,1.2422,2.3329,1.858C687.0738,493.4992,687.8121,494.13,688.6485,494.7336Z" fill="#d9d9d9" style="mix-blend-mode:multiply"/><path d="M667.0867,560.1632l.1914-3.48c2.7981-11.5842,9.293-41.1541,12.0911-52.7382a39.6077,39.6077,0,0,0,14.4426,4.3231c-.2758,11.4662-3.3755,40.4456-4.6852,51.84a28.6118,28.6118,0,0,1-1.63,7.5747,10.6919,10.6919,0,0,1-4.983,5.7361c-3.3749,1.6266-7.6137.6393-10.4816-1.7712S667.9124,563.8174,667.0867,560.1632Z" fill="#fff"/><path d="M676.0061,543.3979c-2.5412-12.1513-6.5777-24.1963-13.7587-33.73a41.3053,41.3053,0,0,0-17.34-13.7078l-1.4009-15.5678H624.1415L622.7406,495.96a41.3061,41.3061,0,0,0-17.3395,13.7079c-7.1811,9.5341-11.2175,21.5791-13.7589,33.73-2.9532,14.1213-4.0555,28.6349-5.1327,43.0891,14.9791,5.6911,31.8622,7.62,47.3147,3.8044,15.4525,3.8154,32.3356,1.8867,47.3146-3.8044C680.0617,572.0328,678.9594,557.5192,676.0061,543.3979Z" fill="#ffbc99"/><path d="M658.8723,537.651c2.8763-7.8508,5.2617-16.1533,4.3917-24.4691a22.0616,22.0616,0,0,0-.4745-2.7626c-.1815-.25-.3564-.5052-.5421-.7518a41.3053,41.3053,0,0,0-17.34-13.7078l-.0146-.1623a25.3608,25.3608,0,0,1-22.1463.0918l-.0063.07a40.0856,40.0856,0,0,0-15.0549,10.9133c-.0119.09-.025.1813-.0365.2715a188.7007,188.7007,0,0,0,1.1031,55.4031c1.7118,10.1218,4.53,20.6187,11.7083,27.9572.5419.5538,1.1177,1.0844,1.7179,1.59a68.1734,68.1734,0,0,0,11.6457-1.8031,67.4767,67.4767,0,0,0,9.7051,1.64,23.7037,23.7037,0,0,0,5.23-9.9031c1.75-6.6751,1.3974-13.7144,2.4929-20.5277C652.5793,553.2458,655.9961,545.5019,658.8723,537.651Z" fill="#00ada1"/><path d="M629.5579,591.1932c.42-17.7914.5107-35.64-2.205-53.2079-.8568-5.5427-1.99-11.0383-3.1235-16.5311l-4.9305-23.9005a42.8864,42.8864,0,0,0-13.8978,12.1138c-7.1811,9.5341-11.2175,21.5791-13.7589,33.73-2.9532,14.1213-4.0555,28.6349-5.1327,43.0891C600.1209,591.6584,615.3042,593.722,629.5579,591.1932Z" fill="#fff"/><path d="M619.6548,592.2144a70.7315,70.7315,0,0,0,9.9031-1.0212c.42-17.7914.5107-35.64-2.205-53.2079-.8568-5.5427-1.99-11.0383-3.1235-16.5311l-4.9305-23.9005a42.8864,42.8864,0,0,0-13.8978,12.1138c-1.0383,1.3785-2.0035,2.8148-2.9153,4.291l-1.5008,5.5241a80.1,80.1,0,0,1,12.9712,7.5233,147.4022,147.4022,0,0,1-9.3284,11.66A158.2593,158.2593,0,0,1,619.6548,592.2144Z" opacity="0.05"/><path d="M676.0061,543.3979c-2.5412-12.1513-6.5777-24.1963-13.7587-33.73a43.6693,43.6693,0,0,0-12.1314-11.1118,98.1911,98.1911,0,0,0-6.7361,22.2006c-2.1289,11.3716-2.7347,22.9658-3.3358,34.5194-.6245,12.0038-1.5674,23.8872-2.2866,35.8551,14.35,2.621,29.6638.568,43.3813-4.6438C680.0617,572.0328,678.9594,557.5192,676.0061,543.3979Z" fill="#fff"/><path d="M636.1176,503.0022a33.2491,33.2491,0,0,0,13.2986-4.8581,34.5108,34.5108,0,0,0-4.5084-2.1844l-.0146-.1623a25.3608,25.3608,0,0,1-22.1463.0918l-.0063.07a34.05,34.05,0,0,0-3.7573,1.7643C623.3649,501.9772,629.9825,503.7163,636.1176,503.0022Z" fill="#00ada1" opacity="0.59" style="mix-blend-mode:multiply"/><path d="M609.5412,537.5367a158.2611,158.2611,0,0,1,10.2056,54.674,70.6921,70.6921,0,0,0,9.8111-1.0175c.42-17.7914.5107-35.64-2.205-53.2079-.8568-5.5427-1.99-11.0383-3.1235-16.5311l-4.9305-23.9005a38.5265,38.5265,0,0,0-5.3559,3.4561q-3.1622,8.5476-6.3242,17.0954a80.1141,80.1141,0,0,1,12.2508,8.647A147.404,147.404,0,0,1,609.5412,537.5367Z" fill="#fff"/><path d="M643.38,520.7563c-2.1289,11.3716-2.7347,22.9658-3.3358,34.5194-.6245,12.0038-1.5674,23.8872-2.2866,35.8551a70.5773,70.5773,0,0,0,10.1571,1.08,164.1315,164.1315,0,0,1,15.3941-53.7754,152.8829,152.8829,0,0,1-9.6746-12.093,83.0753,83.0753,0,0,1,13.4526-7.8024q-.3321-1.2222-.6641-2.4445a57.9256,57.9256,0,0,0-4.1752-6.428,43.6693,43.6693,0,0,0-12.1314-11.1118A98.1911,98.1911,0,0,0,643.38,520.7563Z" opacity="0.05"/><path d="M654.4789,501.6282a39.9447,39.9447,0,0,0-4.3629-3.0725,98.1911,98.1911,0,0,0-6.7361,22.2006c-2.1289,11.3716-2.7347,22.9658-3.3358,34.5194-.6245,12.0038-1.5674,23.8872-2.2866,35.8551a70.4883,70.4883,0,0,0,9.9043,1.0688,164.1328,164.1328,0,0,1,10.5512-54.9355,152.91,152.91,0,0,1-10.7117-11.1847,83.0859,83.0859,0,0,1,12.7055-8.9679Z" fill="#fff"/><path d="M623.44,488.1924A37.2436,37.2436,0,0,0,644.8935,495.8l-1.3866-15.4081H624.1415Z" fill="#b5856d"/><path d="M616.5546,460.7163a8.7739,8.7739,0,0,0-3.08-3.6348,3.652,3.652,0,0,0-4.4417.4006,5.0427,5.0427,0,0,0-.85,3.72,13.6676,13.6676,0,0,0,2.3313,7.46c1.59,2.1118,4.3721,3.48,6.9278,2.8038C617.8084,467.8739,618.2656,463.8961,616.5546,460.7163Z" fill="#ffbc99"/><path d="M616.38,463.5189l.2743.0444a15.9217,15.9217,0,0,0-1.2144-2.54,5.3326,5.3326,0,0,0-2-1.94,3.229,3.229,0,0,0-2.7227-.1674,2.334,2.334,0,0,0-1.4228,2.226,2.3232,2.3232,0,0,1,2.1955-.6191,2.2452,2.2452,0,0,1,1.6578,1.508,1.71,1.71,0,0,0-1.2983,1.4145,3.3583,3.3583,0,0,0,.2991,1.97,3.0947,3.0947,0,0,0,.6175.9939,1.471,1.471,0,0,0,1.0463.4656,2.1728,2.1728,0,0,1-1.54.8722,4.1874,4.1874,0,0,0,4.0767-.2647A18.23,18.23,0,0,0,616.38,463.5189Z" fill="#dea485"/><path d="M651.0938,462.0951a8.7739,8.7739,0,0,1,3.08-3.6348,3.652,3.652,0,0,1,4.4417.4006,5.0427,5.0427,0,0,1,.85,3.72,13.6679,13.6679,0,0,1-2.3313,7.4605c-1.59,2.1118-4.3721,3.48-6.9278,2.8038C649.84,469.2527,649.3828,465.2749,651.0938,462.0951Z" fill="#ffbc99"/><path d="M651.2679,464.8977l-.2742.0444a15.9217,15.9217,0,0,1,1.2144-2.54,5.3326,5.3326,0,0,1,2-1.94,3.229,3.229,0,0,1,2.7227-.1674,2.334,2.334,0,0,1,1.4228,2.226,2.3232,2.3232,0,0,0-2.1955-.6191,2.2452,2.2452,0,0,0-1.6578,1.508,1.71,1.71,0,0,1,1.2983,1.4145,3.3583,3.3583,0,0,1-.2991,1.97,3.0958,3.0958,0,0,1-.6175.9939,1.471,1.471,0,0,1-1.0463.4656,2.1723,2.1723,0,0,0,1.54.8721,4.1874,4.1874,0,0,1-4.0767-.2646A18.2365,18.2365,0,0,1,651.2679,464.8977Z" fill="#dea485"/><ellipse cx="633.9718" cy="464.5979" rx="19.2841" ry="25.9341" fill="#ffbc99"/><g style="mix-blend-mode:multiply"><path d="M632.7208,473.771a4.2071,4.2071,0,0,1-1.183-.1593,2.8151,2.8151,0,0,1-2.1178-2.47,3.8894,3.8894,0,0,1,.9426-2.33l.093-.1332a13.5213,13.5213,0,0,0,2.2681-9.5778.7517.7517,0,0,1,1.4879-.2159,15.0437,15.0437,0,0,1-2.5226,10.6539l-.0969.138a2.6962,2.6962,0,0,0-.6695,1.4135,1.3628,1.3628,0,0,0,1.0351,1.0778,4.5767,4.5767,0,0,0,2.1448-.0795.7518.7518,0,0,1,.31,1.4712A8.2322,8.2322,0,0,1,632.7208,473.771Z" fill="#d9d9d9"/></g><ellipse cx="623.453" cy="460.5045" rx="1.4404" ry="1.5119" fill="#523c22"/><path d="M645.2568,460.5045a1.442,1.442,0,1,1-1.44-1.5119A1.4775,1.4775,0,0,1,645.2568,460.5045Z" fill="#523c22"/><ellipse cx="622.253" cy="468.823" rx="3.9735" ry="2.8172" fill="#ffa87a"/><path d="M649.8624,468.823c0,1.5559-1.6759,2.8172-3.7432,2.8172s-3.7431-1.2613-3.7431-2.8172,1.6758-2.8172,3.7431-2.8172S649.8624,467.2671,649.8624,468.823Z" fill="#ffa87a"/><path d="M625.8161,452.8218a4.8062,4.8062,0,0,0-3.4387-.0109,8.5975,8.5975,0,0,0-3.9952,3.4971c-.13.1942-.1276.25-.1235.2631a.2022.2022,0,0,0,.1618.0366,1.2285,1.2285,0,0,0,.4267-.2233,9.0324,9.0324,0,0,1,7.399-1.2476l.1727.0485a3.0784,3.0784,0,0,0,.8131.1587h.0027a.7435.7435,0,0,0,.639-.2891.5519.5519,0,0,0,.0321-.484A4.3068,4.3068,0,0,0,625.8161,452.8218Z" fill="#523c22"/><path d="M648.035,456.36a1.349,1.349,0,0,0,.4629.2482.1957.1957,0,0,0,.1624-.0383c.0034-.0109.0062-.0672-.1235-.2611a8.6015,8.6015,0,0,0-3.9958-3.4974,4.8066,4.8066,0,0,0-3.4388.0109,4.3077,4.3077,0,0,0-2.09,1.7491.554.554,0,0,0,.0321.4847.7448.7448,0,0,0,.639.2884h.0027a3.0739,3.0739,0,0,0,.8138-.1591l.1714-.0481a8.7868,8.7868,0,0,1,2.3232-.31A9.0075,9.0075,0,0,1,648.035,456.36Z" fill="#523c22"/><path d="M615.7008,461.2648a18.61,18.61,0,0,0,7.06,14.84,12.1591,12.1591,0,0,1,11.8063-1.1173,9.1457,9.1457,0,0,1,5.3767-1.9893,8.457,8.457,0,0,1,5.2576,1.6391,18.77,18.77,0,0,0,7.9347-10.8157c.2253.3541.6608.8565.8861,1.2106-.3631,6.4291-1.15,13.2106-4.26,18.8489a20.2437,20.2437,0,0,1-13.0221,9.98,17.6876,17.6876,0,0,1-15.7191-4.1134,24.8471,24.8471,0,0,1-5.8292-9.4707c-2.4423-6.4095-3.5528-13.62-1.371-20.1227C614.5207,460.1111,615.7159,460.5636,615.7008,461.2648Z" fill="#5c4224"/><path d="M624.4966,467.8266a7.76,7.76,0,1,1,7.76-7.76A7.7692,7.7692,0,0,1,624.4966,467.8266Zm0-14.2129a6.4526,6.4526,0,1,0,6.452,6.4532A6.4609,6.4609,0,0,0,624.4966,453.6137Z" fill="#fff"/><path d="M641.8755,467.8266a7.76,7.76,0,1,1,7.761-7.76A7.769,7.769,0,0,1,641.8755,467.8266Zm0-14.2129a6.4526,6.4526,0,1,0,6.4532,6.4532A6.46,6.46,0,0,0,641.8755,453.6137Z" fill="#fff"/><path d="M631.9881,460.5956l-.7739-1.0549a3.1,3.1,0,0,1,4.0178.0639l-.9246.9246C633.3853,459.6058,632.0456,460.5547,631.9881,460.5956Z" fill="#fff"/><rect x="614.7804" y="459.413" width="2.6091" height="1.3077" fill="#fff"/><rect x="648.9826" y="459.413" width="5.2246" height="1.3077" fill="#fff"/><path d="M610.3822,455.3464a17.8346,17.8346,0,0,0,4.1124,10.2133,60.3527,60.3527,0,0,0,2.9652-10.902,8.817,8.817,0,0,0,5.7716-6.9269c.916,1.2539,3.17,1.9668,4.7231,1.9883a5.1125,5.1125,0,0,0,4.0479-1.9514c1.1211,2.27,4.2688,3.72,6.622,2.7856,1.6365,1.9351,5.3681,1.7343,7.2154-.0007a4.2021,4.2021,0,0,0,4.95,3.4952,4.0707,4.0707,0,0,0-.7558,3.2544,3.8828,3.8828,0,0,0,1.9471,2.6142,6.3966,6.3966,0,0,0,1.5309,7.4372c1.5011-4.6652,2.8978-9.3784,3.1481-14.2727s-.9051-10.055-4.1715-13.7085c-3.6162-4.0446-9.2609-5.6766-14.6752-6.0255-5.2069-.3355-10.6529.41-15.051,3.2169C616.3469,440.6585,609.8773,447.7526,610.3822,455.3464Z" fill="#5c4224"/><g style="mix-blend-mode:multiply"><path d="M634.0374,478.7168a11.9026,11.9026,0,0,1-5.9785-1.5806.7516.7516,0,1,1,.7557-1.2995,10.7512,10.7512,0,0,0,11.143-.4172.7518.7518,0,0,1,.8516,1.2392A11.9888,11.9888,0,0,1,634.0374,478.7168Z" fill="#d9d9d9"/></g></g><path d="M772.6616,587.3821H299.7367c-23.4391,0-44.9972-12.3214-56.1728-32.1051H828.8344C817.6588,575.0607,796.1006,587.3821,772.6616,587.3821Z" fill="#e6f7ff"/><path d="M538.7581,287.0313a2.559,2.559,0,1,1-2.559-2.559A2.559,2.559,0,0,1,538.7581,287.0313Z" fill="#223138"/><path d="M528.209,287.0313a1.8081,1.8081,0,1,1-1.8081-1.8081A1.8081,1.8081,0,0,1,528.209,287.0313Z" fill="#223138"/><path d="M547.8054,287.0313a1.8081,1.8081,0,1,1-1.808-1.8081A1.808,1.808,0,0,1,547.8054,287.0313Z" fill="#223138"/><path d="M554.2111,555.277H518.1872a3.5433,3.5433,0,0,1-3.5433-3.5434h0a3.5433,3.5433,0,0,1,3.5433-3.5433h36.0239a3.5433,3.5433,0,0,1,3.5433,3.5433h0A3.5433,3.5433,0,0,1,554.2111,555.277Z" fill="#223138"/><path d="M491.9651,560.8664v1.4978a5.2234,5.2234,0,0,0,5.2233,5.2233H575.21a5.2233,5.2233,0,0,0,5.2233-5.2233v-1.4978Z" fill="#b6c3c9" style="mix-blend-mode:multiply"/><g opacity="0.9"><circle cx="552.1775" cy="529.6104" r="9.3874" transform="translate(-192.9546 703.292) rotate(-56.9256)" fill="#fff"/><circle cx="520.2208" cy="529.6104" r="9.3874" transform="translate(-164.0594 241.726) rotate(-22.6954)" fill="#fff"/></g><path d="M552.1777,531.5377a2.1568,2.1568,0,0,0,2.1568-2.1568v-4.5338a2.1568,2.1568,0,1,0-4.3136,0v4.5338A2.1568,2.1568,0,0,0,552.1777,531.5377Z" fill="#322c42"/><path d="M555.5665,529.5018v-4.1384a.4611.4611,0,0,0-.9222,0v4.1384a2.4668,2.4668,0,0,1-4.9336,0v-4.1384a.4612.4612,0,0,0-.9223,0v4.1384a3.383,3.383,0,0,0,2.9279,3.3424V535.08h-1.6954a.4611.4611,0,0,0,0,.9222h4.3136a.4611.4611,0,0,0,0-.9222h-1.6959v-2.2358A3.383,3.383,0,0,0,555.5665,529.5018Z" fill="#322c42"/><path d="M523.8225,529.61a3.6017,3.6017,0,1,1-3.6017-3.6016A3.6017,3.6017,0,0,1,523.8225,529.61Z" fill="#ff5628"/><g opacity="0.3"><path d="M797.8642,457.9509a1.2722,1.2722,0,0,1-1.2721-1.2721c0-5.6,2.902-8.4933,5.4624-11.0458,2.53-2.5219,4.7146-4.6993,4.7146-9.2437s-2.1848-6.7217-4.7146-9.2436c-2.56-2.5526-5.4624-5.4455-5.4624-11.0459s2.902-8.4916,5.4624-11.0437c2.53-2.5211,4.7146-4.6989,4.7146-9.2425a1.2722,1.2722,0,0,1,2.5443,0c0,5.6-2.9021,8.4925-5.4629,11.0446-2.5293,2.5215-4.7142,4.6989-4.7142,9.2416,0,4.5444,2.1849,6.7218,4.7146,9.2437,2.56,2.5525,5.4625,5.4455,5.4625,11.0458s-2.9021,8.4933-5.4625,11.0459c-2.53,2.5219-4.7146,4.6992-4.7146,9.2436A1.2721,1.2721,0,0,1,797.8642,457.9509Z" fill="#6d6d6d"/><path d="M815.1187,457.9509a1.2722,1.2722,0,0,1-1.2721-1.2721c0-5.6,2.9021-8.4933,5.4625-11.0458,2.53-2.5219,4.7146-4.6993,4.7146-9.2437s-2.1849-6.7217-4.7146-9.2436c-2.56-2.5526-5.4625-5.4455-5.4625-11.0459s2.9021-8.4916,5.4625-11.0437c2.53-2.5211,4.7146-4.6989,4.7146-9.2425s-2.1849-6.7205-4.7146-9.2415c-2.56-2.5517-5.4625-5.4443-5.4625-11.0438a1.2722,1.2722,0,0,1,2.5443,0c0,4.5431,2.1848,6.7205,4.7146,9.2416,2.56,2.5517,5.4624,5.4442,5.4624,11.0437s-2.902,8.4925-5.4629,11.0446c-2.5293,2.5215-4.7141,4.6989-4.7141,9.2416,0,4.5444,2.1848,6.7218,4.7146,9.2437,2.56,2.5525,5.4624,5.4455,5.4624,11.0458s-2.902,8.4933-5.4624,11.0459c-2.53,2.5219-4.7146,4.6992-4.7146,9.2436A1.2722,1.2722,0,0,1,815.1187,457.9509Z" fill="#6d6d6d"/><path d="M832.3733,457.9509a1.2722,1.2722,0,0,1-1.2722-1.2721c0-5.6,2.9021-8.4933,5.4625-11.0458,2.53-2.5219,4.7146-4.6993,4.7146-9.2437s-2.1849-6.7217-4.7146-9.2436c-2.56-2.5526-5.4625-5.4455-5.4625-11.0459s2.9021-8.4916,5.4625-11.0437c2.53-2.5211,4.7146-4.6989,4.7146-9.2425s-2.1849-6.7205-4.7146-9.2415c-2.56-2.5517-5.4625-5.4443-5.4625-11.0438s2.9021-8.4916,5.4625-11.0438c2.53-2.521,4.7146-4.6984,4.7146-9.242a1.2721,1.2721,0,1,1,2.5442,0c0,5.6-2.902,8.4921-5.4628,11.0442-2.5294,2.5211-4.7142,4.6985-4.7142,9.2416s2.1848,6.7205,4.7146,9.2416c2.56,2.5517,5.4624,5.4442,5.4624,11.0437s-2.902,8.4925-5.4628,11.0446c-2.5294,2.5215-4.7142,4.6989-4.7142,9.2416,0,4.5444,2.1848,6.7218,4.7146,9.2437,2.56,2.5525,5.4624,5.4455,5.4624,11.0458s-2.902,8.4933-5.4624,11.0459c-2.53,2.5219-4.7146,4.6992-4.7146,9.2436A1.2722,1.2722,0,0,1,832.3733,457.9509Z" fill="#6d6d6d"/><path d="M849.6278,457.9509a1.2722,1.2722,0,0,1-1.2722-1.2721c0-5.6,2.9021-8.4933,5.4625-11.0458,2.53-2.5219,4.7146-4.6993,4.7146-9.2437s-2.1848-6.7217-4.7146-9.2436c-2.56-2.5526-5.4625-5.4455-5.4625-11.0459s2.9021-8.4916,5.4625-11.0437c2.53-2.5211,4.7146-4.6989,4.7146-9.2425s-2.1848-6.7205-4.7146-9.2415c-2.56-2.5517-5.4625-5.4443-5.4625-11.0438a1.2722,1.2722,0,0,1,2.5443,0c0,4.5431,2.1848,6.7205,4.7146,9.2416,2.56,2.5517,5.4624,5.4442,5.4624,11.0437s-2.902,8.4925-5.4628,11.0446C853.0847,409.38,850.9,411.5571,850.9,416.1c0,4.5444,2.1848,6.7218,4.7146,9.2437,2.56,2.5525,5.4624,5.4455,5.4624,11.0458s-2.902,8.4933-5.4624,11.0459c-2.53,2.5219-4.7146,4.6992-4.7146,9.2436A1.2722,1.2722,0,0,1,849.6278,457.9509Z" fill="#6d6d6d"/></g><g clip-path="url(#b39cffa5-136c-4200-9874-b0fb7ae9fc91)"><path d="M426.4328,480.1386a6.8152,6.8152,0,0,1-10.3295-6.9464,2.2709,2.2709,0,0,1-2.2288-1.1188,3.7288,3.7288,0,0,1-.3836-2.5641,9.8889,9.8889,0,0,1,.8-2.3648,4.108,4.108,0,0,1-3.6685-2.0962,3.357,3.357,0,0,1,.24-3.7789,6.7723,6.7723,0,0,1-3.8231-6.4767,6.048,6.048,0,0,1,4.5654-5.395,5.28,5.28,0,0,1,.6286-4.8886c.51-.71,1.3443-1.3875,2.1864-1.1538a4.86,4.86,0,0,1,6.6315-5.6258,16.9875,16.9875,0,0,1,3.4857-6.2929,8.7868,8.7868,0,0,1,6.2338-3.1836,6.01,6.01,0,0,1,5.7306,3.5832,5.003,5.003,0,0,1,4.0132-3.1411,4.2922,4.2922,0,0,1,4.1662,2.1609,3.634,3.634,0,0,1,3.2925-.3844,2.6,2.6,0,0,1,1.5625,2.2917c1.4543-1.41,4.5227-1.4964,6.4-.7364a7,7,0,0,1,3.8889,4.4114,10.0765,10.0765,0,0,1-.1292,5.9812c1.0986-.0548,2.0309,1.0518,2.3378,2.108a7.4431,7.4431,0,0,1-.0478,3.27,4.1423,4.1423,0,0,1,2.0751,2.8,3.9965,3.9965,0,0,1-1.1169,3.2363,5.8356,5.8356,0,0,1,1.8922,4.3789,5.4756,5.4756,0,0,1-1.9826,4.1673,3.1187,3.1187,0,0,1-.02,3.1491,9.12,9.12,0,0,1-2.0482,2.5722,7.1662,7.1662,0,0,1-.481,4.9044,5.5306,5.5306,0,0,1-3.5117,2.5,7.9433,7.9433,0,0,1-5.8251,5.1636,7.5948,7.5948,0,0,1-7.1211-2.655c-1.87,2.7436-5.1067,3.5582-8.4216,3.75a11.0641,11.0641,0,0,1-8.86-3.7429C426.5294,478.6939,426.468,479.4657,426.4328,480.1386Z" fill="#402c15"/><path d="M418.978,462.58a8.596,8.596,0,0,0-3.0169-3.5606,3.5777,3.5777,0,0,0-4.3511.3923,4.94,4.94,0,0,0-.8327,3.6441,13.3875,13.3875,0,0,0,2.2837,7.3083,6.73,6.73,0,0,0,6.7864,2.7466C420.2063,469.5918,420.6542,465.6951,418.978,462.58Z" fill="#80582f"/><path d="M418.8074,465.3256l.2686.0433a15.5929,15.5929,0,0,0-1.19-2.4885,5.2235,5.2235,0,0,0-1.9588-1.9007,3.1634,3.1634,0,0,0-2.6672-.1639,2.2864,2.2864,0,0,0-1.3937,2.1806,2.2759,2.2759,0,0,1,2.1507-.6065,2.199,2.199,0,0,1,1.6239,1.4773,1.6755,1.6755,0,0,0-1.2718,1.3856,3.29,3.29,0,0,0,.2931,1.93,3.0273,3.0273,0,0,0,.6049.9735,1.44,1.44,0,0,0,1.025.4562,2.1278,2.1278,0,0,1-1.509.8543,4.1014,4.1014,0,0,0,3.9935-.2592A17.8467,17.8467,0,0,0,418.8074,465.3256Z" fill="#614323"/><path d="M452.813,463.9307A8.5955,8.5955,0,0,1,455.83,460.37a3.5775,3.5775,0,0,1,4.3511.3923,4.94,4.94,0,0,1,.8328,3.644,13.3892,13.3892,0,0,1-2.2837,7.3084,6.73,6.73,0,0,1-6.7865,2.7466C451.5848,470.9424,451.137,467.0458,452.813,463.9307Z" fill="#80582f"/><path d="M452.9836,466.6762l-.2686.0434a15.5878,15.5878,0,0,1,1.19-2.4884,5.2229,5.2229,0,0,1,1.9588-1.9008,3.1633,3.1633,0,0,1,2.6673-.164,2.2867,2.2867,0,0,1,1.3937,2.1807,2.2761,2.2761,0,0,0-2.1507-.6066,2.1988,2.1988,0,0,0-1.6239,1.4774,1.6754,1.6754,0,0,1,1.2717,1.3856,3.2893,3.2893,0,0,1-.293,1.93,3.03,3.03,0,0,1-.605.9736,1.44,1.44,0,0,1-1.0248.4561,2.1272,2.1272,0,0,0,1.5089.8543,4.1019,4.1019,0,0,1-3.9936-.2592A17.86,17.86,0,0,1,452.9836,466.6762Z" fill="#614323"/><path d="M477.0441,513.7322a32.6436,32.6436,0,0,0-17.7548-11.6089c-3.2116-.8033-6.5421-1.113-9.7009-2.1037a18.27,18.27,0,0,1-2.6256-1.0552,57.872,57.872,0,0,1-1.8107-14.8064H426.639a57.8624,57.8624,0,0,1-1.8107,14.8063,18.2657,18.2657,0,0,1-2.6256,1.0553c-3.1588.9907-6.4894,1.3-9.701,2.1037a32.3562,32.3562,0,0,0-24.5033,31.72v45.7484l82.5867-1.2085a13.4038,13.4038,0,0,0,13.2075-13.4023V533.8433A32.6427,32.6427,0,0,0,477.0441,513.7322Z" fill="#80582f"/><path d="M425.6107,495.4516a58.24,58.24,0,0,0,19.5732-9.0236c-.0239-.7563-.0379-1.5131-.0317-2.27H426.639A57.7527,57.7527,0,0,1,425.6107,495.4516Z" fill="#614323"/><ellipse cx="436.0402" cy="464.8885" rx="18.8909" ry="23.9113" fill="#80582f"/><g style="mix-blend-mode:multiply"><path d="M436.4628,482.834a8.1381,8.1381,0,0,1-2.602-.4263.8628.8628,0,1,1,.5527-1.6347,6.414,6.414,0,0,0,3.1065.2471.8629.8629,0,0,1,.2854,1.7021A8.08,8.08,0,0,1,436.4628,482.834Z" fill="#d9d9d9"/></g><path d="M459.2894,502.1233c-3.2117-.8033-6.5422-1.113-9.701-2.1037-.038-.012-.0752-.0283-.1132-.0405a22.6064,22.6064,0,0,1-27.65.1488c-3.0463.9014-6.2389,1.2238-9.3234,1.9954a32.3562,32.3562,0,0,0-24.5033,31.72v45.7484l82.5867-1.2085a13.4038,13.4038,0,0,0,13.2075-13.4023V533.8433a32.356,32.356,0,0,0-24.5032-31.72Z" fill="#5bb9ef"/><path d="M456.3781,501.5041a59.02,59.02,0,0,1-6.79-1.4845c-.038-.012-.0752-.0283-.1132-.0405a22.6064,22.6064,0,0,1-27.65.1488,50.3556,50.3556,0,0,1-5.2068,1.1495,28.8,28.8,0,0,0,16.9648,8.1566c.6614,23.056.761,46.3976.3048,69.4861l2.7407-.04c.4531-23.02.3544-46.29-.301-69.2793A28.6769,28.6769,0,0,0,456.3781,501.5041Z" fill="#458cb5"/><path d="M459.2894,502.1233c-1.8326-.4584-3.7034-.7581-5.5593-1.1132a284.1811,284.1811,0,0,0-8.2165,77.74l25.0715-.3669a13.4035,13.4035,0,0,0,13.2075-13.4022V533.8433a32.356,32.356,0,0,0-24.5032-31.72Z" fill="#fff"/><path d="M415.8292,501.4237c-1.1152.2074-2.2283.4246-3.3275.7a32.3562,32.3562,0,0,0-24.5033,31.72v45.7484l35.9369-.5259A284.1872,284.1872,0,0,0,415.8292,501.4237Z" fill="#fff"/><path d="M415.8292,501.4237q-1.1287.21-2.2489.4554a127.0715,127.0715,0,0,0-6.3335,20.7229,42.688,42.688,0,0,1,10.2307,6.7528,132.98,132.98,0,0,1-10.6638,14.2937,236.6175,236.6175,0,0,1,9.3274,35.5313l7.7942-.114A284.1872,284.1872,0,0,0,415.8292,501.4237Z" fill="#e0e0e0"/><path d="M462.7715,543.6485a132.9914,132.9914,0,0,1-10.6636-14.2937,42.6849,42.6849,0,0,1,10.2305-6.7528,127.078,127.078,0,0,0-6.5241-21.2046c-.6951-.1284-1.3906-.2546-2.0842-.3873a284.1811,284.1811,0,0,0-8.2165,77.74l8.0324-.1175A236.83,236.83,0,0,1,462.7715,543.6485Z" fill="#e0e0e0"/><path d="M443.1516,528.4486a1.7886,1.7886,0,1,1-1.7886-1.7887A1.7885,1.7885,0,0,1,443.1516,528.4486Z" fill="#458cb5"/><path d="M443.1516,545.8468a1.7886,1.7886,0,1,1-1.7886-1.7886A1.7886,1.7886,0,0,1,443.1516,545.8468Z" fill="#458cb5"/><path d="M443.1516,563.245a1.7886,1.7886,0,1,1-1.7886-1.7886A1.7886,1.7886,0,0,1,443.1516,563.245Z" fill="#458cb5"/><g style="mix-blend-mode:multiply"><path d="M434.1428,473.6852a.8688.8688,0,0,1-.2865-.0488,7.8517,7.8517,0,0,1-2.9672-1.5719,3.263,3.263,0,0,1-.8483-3.748,4.3239,4.3239,0,0,1,1.3628-1.4432l.1921-.1472a10.1491,10.1491,0,0,0,3.6627-9.5544.8628.8628,0,0,1,1.6988-.3033,11.9151,11.9151,0,0,1-4.3009,11.2189l-.2056.1584a2.9739,2.9739,0,0,0-.8706.8506,1.6106,1.6106,0,0,0,.5021,1.7217,6.4512,6.4512,0,0,0,2.347,1.19.8628.8628,0,0,1-.2864,1.6768Z" fill="#d9d9d9"/></g><path d="M428.5253,467.547c0,1.28-2.1153,2.3181-4.7247,2.3181s-4.7246-1.0378-4.7246-2.3181,2.1153-2.3181,4.7246-2.3181S428.5253,466.2668,428.5253,467.547Z" fill="#8f5935"/><path d="M452.715,467.547c0,1.28-2.1153,2.3181-4.7246,2.3181s-4.7247-1.0378-4.7247-2.3181,2.1153-2.3181,4.7247-2.3181S452.715,466.2668,452.715,467.547Z" fill="#8f5935"/><ellipse cx="426.2804" cy="460.9044" rx="1.8301" ry="2.4326" fill="#402c15"/><path d="M420.78,456.0912c-.45.2647-.9417.7315-.7575,1.22s.8577.5151,1.3719.429c1.2248-.205,2.4214-.5614,3.65-.7426a6.762,6.762,0,0,1,3.6636.3164c.5636.2438,1.0762.6014,1.6565.8019.96.3313,2.73-.2491,1.9656-1.5387-.5009-.845-2.4964-1.3394-3.37-1.5642A10.9394,10.9394,0,0,0,420.78,456.0912Z" fill="#402c15"/><ellipse cx="445.898" cy="460.9044" rx="1.8301" ry="2.4326" fill="#402c15"/><path d="M451.3985,456.0912c.45.2647.9417.7315.7575,1.22s-.8577.5151-1.3719.429c-1.2248-.205-2.4214-.5614-3.65-.7426a6.762,6.762,0,0,0-3.6636.3164c-.5636.2438-1.0762.6014-1.6565.8019-.96.3313-2.73-.2491-1.9656-1.5387.5009-.845,2.4964-1.3394,3.37-1.5642A10.9393,10.9393,0,0,1,451.3985,456.0912Z" fill="#402c15"/><path d="M413.29,457.21a18.0483,18.0483,0,0,0,3.828,10.9448,22.73,22.73,0,0,0,2.209-8.9264,16.4611,16.4611,0,0,0,2.3242-10.7754,7.93,7.93,0,0,0,5.05,2.6412,7.314,7.314,0,0,0,5.2739-1.4371c.1943,1.2943,1.82,1.6654,3.1275,1.6063a6.8948,6.8948,0,0,0,3.5544-1.5324,4.6712,4.6712,0,0,0,3.5049,1.6655,5.4312,5.4312,0,0,0,3.83-1.7277,4.37,4.37,0,0,0,1.8956,2.9453,3.8206,3.8206,0,0,0,3.2562.241,2.6082,2.6082,0,0,0,.7543,2.1234,2.7134,2.7134,0,0,0,2.086.9832,5.9693,5.9693,0,0,0,.1415,7.2612,15.9471,15.9471,0,0,0,.63,6.6628,35.7628,35.7628,0,0,0,4.7117-13.1258,18.7171,18.7171,0,0,0-5.1368-14.9294c-3.5548-3.5794-8.8457-4.7941-13.8777-5.1512a35.4289,35.4289,0,0,0-12.9953,1.2092,20.7724,20.7724,0,0,0-10.6728,7.2563A19.6494,19.6494,0,0,0,413.29,457.21Z" fill="#402c15"/><path d="M385.1175,514.7263a20.28,20.28,0,0,1-1.4536-5.5208c-.2111-1.8113,2.0126-3.2729,3.4748-4.3627s3.0609-2.1641,3.8372-3.8142a35.85,35.85,0,0,1,7.387-10.9536,3.6608,3.6608,0,0,0-3.692-1.2592,7.1584,7.1584,0,0,0-3.51,2.17c-.97,1.0039-1.7748,2.1544-2.7,3.1994a3.8816,3.8816,0,0,1-1.4124,1.124,1.54,1.54,0,0,1-1.687-.2906c-2.3107-2.59-2.8277-6.1128-3.1709-9.5664s-.2252-6.9538-.8064-10.3755a10.8571,10.8571,0,0,0-1.8151-4.7985c-.3945-.5211-1.0056-1.0272-1.634-.8478a1.2612,1.2612,0,0,0-.8012.9093,3.7207,3.7207,0,0,0-.05,1.2593q.5631,7.5985,1.1261,15.1969a.894.894,0,0,1-.81.8369,1.2258,1.2258,0,0,1-1.0921-.5222,3.6163,3.6163,0,0,1-.5154-1.1523q-1.7354-5.548-3.471-11.0959a11.5247,11.5247,0,0,0-1.751-3.8526,1.4683,1.4683,0,0,0-.8111-.5937,1.149,1.149,0,0,0-1.2033.9123,3.3449,3.3449,0,0,0,.1253,1.64q1.9083,7.7061,3.8168,15.4121c-1.0286,1.5246-2.2548-2.0278-3.0285-3.4659q-2.4339-4.5235-4.8679-9.0471a5.0422,5.0422,0,0,0-1.1365-1.58,1.5273,1.5273,0,0,0-2.5791,1.4777,5.315,5.315,0,0,0,.8157,1.8864,74.0628,74.0628,0,0,1,6.1347,13.1933c.176.5027-.402.9165-.93.8482a2.067,2.067,0,0,1-1.2361-.943q-2.5724-3.3372-4.9488-6.82a4.8815,4.8815,0,0,0-1.4677-1.5885,1.6354,1.6354,0,0,0-2.0049.175c-.6345.7318-.1782,1.858.314,2.6921a72.21,72.21,0,0,0,7.8412,10.8465c1.7123,1.957,1.1135,5.021,1.9309,7.49a17.5135,17.5135,0,0,0,3.7463,6.7672c.5242,2.9222,1.2819,5.6486,2.0225,8.5237A16.2409,16.2409,0,0,0,385.1175,514.7263Z" fill="#80582f"/><path d="M372.3229,510.6284a8.2614,8.2614,0,0,0,4.4528-2.504,9.2717,9.2717,0,0,0,6.934,1.3814c.0245.1858.0552.3706.0849.5557a8.1735,8.1735,0,0,1-6.501,0,8.2585,8.2585,0,0,1-5.993,1.4028c-.0478-.2363-.0922-.4753-.1372-.7138A8.0283,8.0283,0,0,0,372.3229,510.6284Z" fill="#6e4b28"/><path d="M368.32,497.6817a17.6692,17.6692,0,0,1,14.2221-3.81,21.65,21.65,0,0,1,2.2927.493c.1654.2229.3379.4425.5262.6537l.0066.0059a11.7029,11.7029,0,0,0-4.3726,4.1294,36.7528,36.7528,0,0,0-2.8988,6.4338,7.2413,7.2413,0,0,1-.6265-4.5224,7.9016,7.9016,0,0,1,2.3144-4.1757l.0427-.1819a30.1748,30.1748,0,0,0-7.0609,2.4894,16.773,16.773,0,0,1,6.6529-3.63A18.8116,18.8116,0,0,0,368.32,497.6817Z" fill="#6e4b28"/><path d="M397.5215,558.017,397.3,553.98c-3.2458-13.4376-7.0435-27.3975-10.2893-40.835a45.9444,45.9444,0,0,1-16.7532,5.0147c.32,13.3007.1791,26.5758,1.6983,39.7933a33.184,33.184,0,0,0,1.8906,8.7866,12.4036,12.4036,0,0,0,5.78,6.6539c3.9148,1.8868,8.8318.7415,12.1586-2.0546S396.5638,562.256,397.5215,558.017Z" fill="#fff"/><path d="M437.9275,476.7481a2.6025,2.6025,0,1,1-2.53-1.9932A2.31,2.31,0,0,1,437.9275,476.7481Z" fill="#d9d9d9" style="mix-blend-mode:multiply"/></g><g clip-path="url(#f0ac2243-8d81-4e21-b4d2-f1e221357ffc)"><path d="M622.5668,336.3265a8.8048,8.8048,0,0,0-3.09-3.6475,3.6647,3.6647,0,0,0-4.4572.402,5.06,5.06,0,0,0-.8531,3.7328,13.7165,13.7165,0,0,0,2.3393,7.4866c1.5957,2.1192,4.3875,3.4919,6.9521,2.8136C623.8251,343.5091,624.2838,339.5175,622.5668,336.3265Z" fill="#ffc685"/><path d="M622.3921,339.1389l.2751.0446a15.9733,15.9733,0,0,0-1.2186-2.5492,5.3513,5.3513,0,0,0-2.0065-1.9471,3.24,3.24,0,0,0-2.7323-.1679,2.3418,2.3418,0,0,0-1.4277,2.2337,2.3309,2.3309,0,0,1,2.2031-.6212,2.2523,2.2523,0,0,1,1.6636,1.5133,1.716,1.716,0,0,0-1.3028,1.4193,3.3688,3.3688,0,0,0,.3,1.9772,3.104,3.104,0,0,0,.62.9974,1.4756,1.4756,0,0,0,1.05.4671,2.1791,2.1791,0,0,1-1.5456.8752,4.2015,4.2015,0,0,0,4.0909-.2656A18.3,18.3,0,0,0,622.3921,339.1389Z" fill="#c79a68"/><path d="M657.2268,337.71a8.805,8.805,0,0,1,3.09-3.6476,3.6644,3.6644,0,0,1,4.4571.402,5.06,5.06,0,0,1,.8532,3.7329,13.7162,13.7162,0,0,1-2.3394,7.4865c-1.5958,2.1192-4.3874,3.4918-6.9521,2.8136C655.9685,344.8928,655.51,340.901,657.2268,337.71Z" fill="#ffc685"/><path d="M657.4015,340.5225l-.2752.0446a15.97,15.97,0,0,1,1.2187-2.5493,5.35,5.35,0,0,1,2.0065-1.947,3.24,3.24,0,0,1,2.7322-.168,2.3422,2.3422,0,0,1,1.4278,2.2337,2.3314,2.3314,0,0,0-2.2032-.6211,2.2525,2.2525,0,0,0-1.6635,1.5133,1.716,1.716,0,0,1,1.3027,1.4193,3.368,3.368,0,0,1-.3,1.9772,3.1029,3.1029,0,0,1-.62.9973,1.4758,1.4758,0,0,1-1.05.4672,2.1791,2.1791,0,0,0,1.5457.8752,4.2015,4.2015,0,0,1-4.0909-.2656A18.3,18.3,0,0,1,657.4015,340.5225Z" fill="#c79a68"/><path d="M682.0486,388.7258a33.4389,33.4389,0,0,0-18.1876-11.8919c-3.29-.823-6.7018-1.14-9.9375-2.1551a18.7037,18.7037,0,0,1-2.69-1.0809,59.28,59.28,0,0,1-1.8549-15.1673H630.4146a59.2755,59.2755,0,0,1-1.8549,15.1673,18.7037,18.7037,0,0,1-2.69,1.0809c-3.2357,1.015-6.6475,1.3321-9.9375,2.1551a33.1449,33.1449,0,0,0-25.1007,32.4934v46.8636l84.6-1.2379a13.73,13.73,0,0,0,13.5295-13.7291V409.3273A33.4391,33.4391,0,0,0,682.0486,388.7258Z" fill="#ffc685"/><path d="M629.3611,370a59.6577,59.6577,0,0,0,20.0505-9.2435c-.0245-.7748-.0388-1.55-.0326-2.3254H630.4146A59.1581,59.1581,0,0,1,629.3611,370Z" fill="#876236"/><path d="M622.2165,345.0611a28.0155,28.0155,0,0,1-7.9739-22.9815,14.4329,14.4329,0,0,1-1.7892-12.3836,66.4559,66.4559,0,0,0,13.26-3.7247,72.7027,72.7027,0,0,1,13.23-3.8438,23.6368,23.6368,0,0,1,13.5237,1.4408c4.1744,1.9321,7.6151,5.7688,8.3084,10.3162-.0488,0,.3214.1165.2725.1165a8.36,8.36,0,0,1,3.2539,5.89,24.6565,24.6565,0,0,1-.3572,6.8832,62.3346,62.3346,0,0,1-2.3151,11.071,20.8858,20.8858,0,0,1-6.0347,9.4186,23.0083,23.0083,0,0,0-16.3576-8.0537C632.8726,338.9391,626.8,340.6369,622.2165,345.0611Z" fill="#8f5e26"/><ellipse cx="640.045" cy="338.6912" rx="19.3515" ry="24.4942" fill="#ffc685"/><g style="mix-blend-mode:multiply"><path d="M640.11,352.5815a12.0652,12.0652,0,0,1-6.0577-1.6013.8707.8707,0,0,1,.8761-1.505,10.6677,10.6677,0,0,0,11.0575-.4135.87.87,0,0,1,.9859,1.4346A12.1534,12.1534,0,0,1,640.11,352.5815Z" fill="#d9d9d9"/></g><g style="mix-blend-mode:multiply"><path d="M639.8882,357.65a8.3208,8.3208,0,0,1-2.6614-.4357.87.87,0,1,1,.557-1.6489,6.5917,6.5917,0,0,0,3.189.2539.8705.8705,0,0,1,.2889,1.7169A8.3429,8.3429,0,0,1,639.8882,357.65Z" fill="#d9d9d9"/></g><path d="M663.861,376.8339c-3.29-.823-6.7018-1.14-9.9375-2.1551-.039-.0121-.0771-.0289-.1159-.0414a23.1578,23.1578,0,0,1-28.3243.1524c-3.1206.9234-6.391,1.2537-9.5507,2.0441a33.1452,33.1452,0,0,0-25.1008,32.4933v46.8637l84.6-1.2379a13.73,13.73,0,0,0,13.5295-13.7291V409.3272a33.1447,33.1447,0,0,0-25.1006-32.4933Z" fill="#0098ef"/><path d="M660.8788,376.2a60.4222,60.4222,0,0,1-6.9553-1.5208c-.039-.0121-.0771-.0289-.1159-.0414a23.1579,23.1579,0,0,1-28.3244.1524,51.6186,51.6186,0,0,1-5.3337,1.1776,29.5044,29.5044,0,0,0,17.3785,8.3554c.6775,23.618.7795,47.5288.3123,71.18l2.8074-.041c.4642-23.5814.363-47.4191-.3083-70.9685A29.3772,29.3772,0,0,0,660.8788,376.2Z" fill="#006ead"/><path d="M663.861,376.8339c-1.8773-.47-3.7936-.7766-5.6948-1.14a291.1065,291.1065,0,0,0-8.4169,79.6352l25.6828-.3757a13.73,13.73,0,0,0,13.5295-13.7291V409.3272a33.1447,33.1447,0,0,0-25.1006-32.4933Z" fill="#fff"/><path d="M619.3412,376.1172c-1.1424.2125-2.2826.435-3.4086.7167a33.1449,33.1449,0,0,0-25.1007,32.4933v46.8637l36.8131-.5386A291.1186,291.1186,0,0,0,619.3412,376.1172Z" fill="#fff"/><path d="M619.3412,376.1172q-1.1562.2149-2.3037.4666a130.1522,130.1522,0,0,0-6.4879,21.228,43.7291,43.7291,0,0,1,10.48,6.9175,136.23,136.23,0,0,1-10.9236,14.6422,242.412,242.412,0,0,1,9.5548,36.3976l7.9842-.1168A291.1186,291.1186,0,0,0,619.3412,376.1172Z" fill="#e0e0e0"/><path d="M667.428,419.3715a136.23,136.23,0,0,1-10.9236-14.6422,43.7271,43.7271,0,0,1,10.48-6.9175,130.1481,130.1481,0,0,0-6.6833-21.7215c-.7119-.1315-1.4244-.2608-2.1349-.3968a291.1065,291.1065,0,0,0-8.4169,79.6352l8.2283-.12A242.5849,242.5849,0,0,1,667.428,419.3715Z" fill="#e0e0e0"/><path d="M647.33,403.801a1.8322,1.8322,0,1,1-1.8322-1.8323A1.8322,1.8322,0,0,1,647.33,403.801Z" fill="#006ead"/><circle cx="645.4975" cy="421.6233" r="1.8322" fill="#006ead"/><circle cx="645.4975" cy="439.4458" r="1.8322" fill="#006ead"/><g style="mix-blend-mode:multiply"><path d="M638.1012,347.6887a.87.87,0,0,1-.2885-.0493,8.1382,8.1382,0,0,1-3.0348-1.6069,3.33,3.33,0,0,1-.8664-3.8241,4.4316,4.4316,0,0,1,1.3939-1.4738l.195-.15a10.4079,10.4079,0,0,0,3.7571-9.8.87.87,0,0,1,1.7135-.306,12.1908,12.1908,0,0,1-4.4009,11.48l-.209.16a3.0636,3.0636,0,0,0-.897.8777,1.6611,1.6611,0,0,0,.5167,1.7786,6.6063,6.6063,0,0,0,2.4087,1.2227.87.87,0,0,1-.2883,1.6914Z" fill="#d9d9d9"/></g><path d="M632.3468,341.4145c0,1.3116-2.1669,2.3746-4.84,2.3746s-4.84-1.063-4.84-2.3746,2.1669-2.3744,4.84-2.3744S632.3468,340.1031,632.3468,341.4145Z" fill="#ffa175"/><path d="M657.1263,341.4145c0,1.3116-2.1669,2.3746-4.84,2.3746s-4.84-1.063-4.84-2.3746,2.1668-2.3744,4.84-2.3744S657.1263,340.1031,657.1263,341.4145Z" fill="#ffa175"/><path d="M631.9219,334.61c0,1.3762-.8394,2.4918-1.8747,2.4918s-1.8747-1.1156-1.8747-2.4918.8394-2.4919,1.8747-2.4919S631.9219,333.2337,631.9219,334.61Z" fill="#402c15"/><path d="M624.4127,329.68c-.4613.271-.9648.7491-.7761,1.25s.8786.5276,1.4053.4394c1.2547-.21,2.48-.5752,3.739-.7606a6.9263,6.9263,0,0,1,3.7529.324c.5773.25,1.1025.616,1.697.8213.983.3394,2.7966-.2551,2.0135-1.576-.5132-.8658-2.5573-1.3722-3.4525-1.6023A11.204,11.204,0,0,0,624.4127,329.68Z" fill="#7a5021"/><path d="M648.2685,334.61c0,1.3762.8393,2.4918,1.8747,2.4918s1.8746-1.1156,1.8746-2.4918-.8393-2.4919-1.8746-2.4919S648.2685,333.2337,648.2685,334.61Z" fill="#402c15"/><path d="M655.7776,329.68c.4613.271.9648.7491.776,1.25s-.8784.5276-1.4053.4394c-1.2546-.21-2.48-.5752-3.7389-.7606a6.9258,6.9258,0,0,0-3.7528.324c-.5773.25-1.1025.616-1.697.8213-.983.3394-2.7967-.2551-2.0136-1.576.5133-.8658,2.5574-1.3722,3.4525-1.6023A11.204,11.204,0,0,1,655.7776,329.68Z" fill="#7a5021"/><path d="M653.3606,320.0427a5.356,5.356,0,0,0,.6018,3.9462c.63,1.2108,1.5085,2.2727,2.2292,3.4318,2.5693,4.1324,2.9832,9.2033,3.3294,14.057.6917-6.1345,1.7422-12.53,1.8819-18.7015a10.6041,10.6041,0,0,0-.7473-5.048c-.7736-1.5352-2.5465-2.7067-4.197-2.2261a3.674,3.674,0,0,0-2.0719,1.7646A14.0733,14.0733,0,0,0,653.3606,320.0427Z" fill="#8f5e26"/><path d="M654.0274,318.2c-4.1854,3.4806-9.8938,4.4663-15.3325,4.6943s-10.9639-.1641-16.2609,1.09a56.4,56.4,0,0,1-4.0443,16.4392,20.95,20.95,0,0,1-2.0009-17.684,22.1313,22.1313,0,0,1,12.0376-12.4586c4.2088-1.7994,8.8482-2.3256,13.4218-2.51a26.4155,26.4155,0,0,1,6.2345.3089,10.7981,10.7981,0,0,1,5.5277,2.7377,6.04,6.04,0,0,1,1.8741,3.7009A4.2569,4.2569,0,0,1,654.0274,318.2Z" fill="#8f5e26"/><path d="M693.9886,384.6069a15.7379,15.7379,0,0,0,1.1282-4.2848c.1638-1.4057-1.5621-2.54-2.6968-3.3859a8.7246,8.7246,0,0,1-2.9782-2.96,27.8244,27.8244,0,0,0-5.7332-8.5013,2.8417,2.8417,0,0,1,2.8655-.9772,5.557,5.557,0,0,1,2.7242,1.6842c.7528.7792,1.3775,1.6721,2.0959,2.4832a3.0133,3.0133,0,0,0,1.0962.8723,1.1947,1.1947,0,0,0,1.3092-.2255c1.9254-2.1578,2.1173-5.1119,2.5165-7.8378q.4415-3.0154.883-6.0308c.227-1.55.1146-4.0361,1.0962-5.3328.3061-.4044.78-.7971,1.2682-.6579a.9787.9787,0,0,1,.6217.7057,2.8879,2.8879,0,0,1,.039.9774q-.4369,5.8972-.874,11.7944a.6939.6939,0,0,0,.6291.65.9512.9512,0,0,0,.8475-.4054,2.7994,2.7994,0,0,0,.4-.8942q1.347-4.3059,2.6939-8.6118a8.9485,8.9485,0,0,1,1.359-2.99,1.1406,1.1406,0,0,1,.63-.4608.8922.8922,0,0,1,.934.7082,2.5977,2.5977,0,0,1-.0973,1.2726q-1.4811,5.9808-2.9623,11.9616c.7983,1.1833,1.75-1.5739,2.35-2.69q1.8891-3.5106,3.7782-7.0215a3.9143,3.9143,0,0,1,.8819-1.2261,1.1854,1.1854,0,0,1,2.0018,1.1468,4.1257,4.1257,0,0,1-.6332,1.464,57.4892,57.4892,0,0,0-4.7612,10.2395c-.1365.39.312.7114.7221.6584a1.6043,1.6043,0,0,0,.9593-.7319q1.9965-2.59,3.8407-5.2928a3.79,3.79,0,0,1,1.1392-1.2328,1.2693,1.2693,0,0,1,1.556.1358c.4925.568.1384,1.442-.2436,2.09a56.0621,56.0621,0,0,1-6.0858,8.4181c-1.3289,1.5188-.8642,3.8967-1.4985,5.8126a13.5914,13.5914,0,0,1-2.9076,5.2521c-.4067,2.268-.9948,4.384-1.57,6.6153A12.604,12.604,0,0,1,693.9886,384.6069Z" fill="#ffbc99"/><path d="M703.9187,381.4264a6.41,6.41,0,0,1-3.4559-1.9433,7.1955,7.1955,0,0,1-5.3816,1.072c-.019.1443-.0428.2878-.0658.4314a6.3434,6.3434,0,0,0,5.0454,0,6.41,6.41,0,0,0,4.6512,1.0887c.0371-.1834.0717-.3689.1065-.5541A6.1892,6.1892,0,0,1,703.9187,381.4264Z" fill="#d9d9d9" style="mix-blend-mode:multiply"/><path d="M706.1705,371.5148a14.4854,14.4854,0,0,0-9.7223-3.2453,41.6689,41.6689,0,0,1,4.9715,1.292A41.0949,41.0949,0,0,1,706.1705,371.5148Z" fill="#d9d9d9" style="mix-blend-mode:multiply"/><path d="M703.2947,373.29a14.4627,14.4627,0,0,0-6.6383-3.4086c1.0777.665,2.1784,1.218,3.274,1.7922C701.0362,372.2283,702.1271,372.8,703.2947,373.29Z" fill="#d9d9d9" style="mix-blend-mode:multiply"/><path d="M700.8736,375.0869a6.5738,6.5738,0,0,0-4.2191-3.3219c.7042.6058,1.4121,1.1184,2.1,1.6728C699.4559,373.9756,700.1206,374.5435,700.8736,375.0869Z" fill="#d9d9d9" style="mix-blend-mode:multiply"/><path d="M681.4618,433.9922l.1723-3.1332c2.5191-10.4291,8.3664-37.05,10.8854-47.4795a35.6584,35.6584,0,0,0,13.0025,3.8921c-.2483,10.3228-3.0389,36.4125-4.218,46.6708a25.7572,25.7572,0,0,1-1.4674,6.8194,9.6265,9.6265,0,0,1-4.4861,5.1642c-3.0384,1.4644-6.8545.5755-9.4364-1.5946S682.2051,437.2821,681.4618,433.9922Z" fill="#fff"/></g></g></g></svg>