<svg width="19" height="22" viewBox="0 0 19 22" fill="none" xmlns="http://www.w3.org/2000/svg">
<path d="M17.4992 8.86513C16.9546 8.41987 16.1833 8.27737 15.5339 8.50194C15.3599 8.5622 15.1984 8.6467 15.0536 8.75317C14.6844 9.02476 13.8648 9.84001 13.2153 10.6469V5.60394C13.2153 5.07531 12.998 4.55863 12.6192 4.18622C12.243 3.81657 11.749 3.6172 11.2305 3.62689C10.9951 3.63109 10.7696 3.67778 10.5612 3.75937V3.15189C10.5612 2.57657 10.3246 2.01416 9.912 1.60864C9.50309 1.20667 8.96799 0.990014 8.40203 1.00035C7.27367 1.0199 6.35244 1.9371 6.31867 3.05835C6.07422 2.94752 5.80878 2.88531 5.53396 2.87707C4.96073 2.86027 4.39299 3.0821 3.97681 3.48617C3.56918 3.88184 3.34461 4.40417 3.34461 4.95543L3.34316 5.54449C3.16721 5.48665 2.97964 5.45498 2.78463 5.45498C1.80055 5.45498 1 6.25553 1 7.23945L1.00065 15.1037L1.0021 15.1466C1.08434 16.3331 1.33266 17.349 1.74045 18.1662C2.1227 18.9323 2.65603 19.5492 3.32554 19.9996C4.6431 20.8863 6.27069 21 7.54138 21C10.0367 21 12.2817 19.7594 13.4044 17.7611C13.5409 17.5411 13.9007 16.9753 14.2892 16.3651C14.6676 15.7705 15.0197 15.2227 15.33 14.7393C15.5006 14.4735 15.6559 14.2318 15.7907 14.0211C16.2926 13.2361 16.8276 12.4749 17.3808 11.7587C17.5859 11.4931 17.6491 11.4211 17.6635 11.4052C17.9225 11.1227 18.0857 10.7768 18.1354 10.4047C18.2138 9.82094 17.9818 9.25967 17.4992 8.86513ZM16.9043 10.2399C16.8883 10.3588 16.8342 10.4716 16.7478 10.5659C16.7027 10.6152 16.6221 10.7089 16.3978 10.9994C15.8222 11.7445 15.2657 12.536 14.744 13.3519C14.6096 13.5621 14.455 13.8028 14.2847 14.068C13.9737 14.5523 13.6212 15.1015 13.2413 15.698C12.8437 16.3226 12.4757 16.9011 12.3409 17.1188L12.3269 17.1427C11.4259 18.7557 9.59227 19.7577 7.54154 19.7577C6.44727 19.7577 5.05783 19.6681 4.01914 18.9691C2.95928 18.256 2.3783 16.9845 2.24291 15.0819L2.24226 7.23961C2.24226 6.94056 2.48558 6.69724 2.78463 6.69724C3.08546 6.69724 3.33023 6.94056 3.33023 7.23961V9.44644C3.33023 9.45646 3.33136 9.46615 3.33168 9.47617C3.33233 9.48715 3.33233 9.4983 3.33346 9.50929C3.33443 9.51914 3.33637 9.52868 3.33782 9.53837C3.33944 9.54919 3.34057 9.56018 3.34267 9.571C3.34477 9.5807 3.34768 9.59023 3.3501 9.59976C3.35269 9.60994 3.35479 9.62044 3.35802 9.63046C3.36093 9.64015 3.3648 9.64952 3.36836 9.6589C3.37175 9.66843 3.37482 9.67812 3.37886 9.68749C3.38274 9.69686 3.38742 9.70575 3.39179 9.7148C3.39615 9.72384 3.40019 9.73305 3.40487 9.74194C3.40956 9.75066 3.41521 9.75906 3.42038 9.76763C3.42555 9.77619 3.4304 9.78491 3.43589 9.79315C3.44155 9.80139 3.44785 9.80915 3.45383 9.81707C3.4598 9.82514 3.4653 9.83338 3.4716 9.84098C3.4779 9.84857 3.48485 9.85552 3.49131 9.86279C3.49809 9.87022 3.50456 9.87814 3.51167 9.88525C3.51861 9.89203 3.52588 9.89817 3.53315 9.9048C3.54059 9.91158 3.54786 9.91885 3.55577 9.92531C3.5632 9.93145 3.57112 9.93695 3.57888 9.94276C3.58712 9.9489 3.59503 9.95536 3.60343 9.96118C3.61135 9.96651 3.61975 9.97104 3.62783 9.97588C3.63672 9.98137 3.64544 9.98719 3.65465 9.99236C3.66305 9.99689 3.67194 10.0006 3.6805 10.0048C3.68987 10.0095 3.69924 10.0143 3.70893 10.0185C3.71782 10.0224 3.72735 10.0253 3.7364 10.0287C3.74626 10.0323 3.75595 10.0363 3.76597 10.0395C3.7755 10.0424 3.78552 10.0445 3.79521 10.0471C3.80539 10.0497 3.81524 10.0528 3.82542 10.0549C3.83576 10.057 3.8461 10.0581 3.85644 10.0597C3.86678 10.0612 3.8768 10.0633 3.88714 10.0644C3.89748 10.0654 3.90814 10.0655 3.91864 10.066C3.92898 10.0665 3.93932 10.0676 3.94983 10.0676H3.95144C3.97293 10.0676 3.99409 10.0665 4.01494 10.0644C4.02398 10.0636 4.03287 10.0617 4.04192 10.0604C4.05339 10.0588 4.06518 10.0575 4.07649 10.055C4.08845 10.0526 4.09992 10.0492 4.11155 10.0462C4.11963 10.0439 4.12803 10.0423 4.13595 10.0399C4.14887 10.0358 4.16147 10.0308 4.17408 10.026C4.18022 10.0235 4.18684 10.0216 4.19298 10.019C4.20558 10.0137 4.21754 10.0074 4.22965 10.0014C4.23547 9.9985 4.24145 9.99608 4.24726 9.99301C4.25857 9.98687 4.26924 9.97976 4.28006 9.97297C4.2862 9.96926 4.2925 9.96587 4.29832 9.96183C4.30834 9.9552 4.31787 9.94761 4.3274 9.94018C4.3337 9.93549 4.34016 9.93113 4.34614 9.92612C4.35503 9.91901 4.36311 9.91093 4.37151 9.90318C4.37781 9.89752 4.38427 9.89203 4.39041 9.88622C4.39816 9.87846 4.40511 9.87006 4.41238 9.86198C4.41836 9.85536 4.42482 9.84889 4.43048 9.84211C4.43694 9.83419 4.44276 9.82579 4.4489 9.81755C4.45471 9.8098 4.46085 9.80236 4.46618 9.79429C4.47184 9.78605 4.47652 9.77748 4.48169 9.76892C4.48686 9.76036 4.49252 9.75196 4.49736 9.74323C4.50205 9.73451 4.50593 9.72546 4.51029 9.71657C4.51465 9.70736 4.5195 9.69832 4.52354 9.68895C4.52742 9.6799 4.53032 9.67037 4.53372 9.66116C4.53743 9.65146 4.54131 9.64193 4.54454 9.63191C4.54745 9.62238 4.54955 9.61269 4.55197 9.60299C4.55456 9.59282 4.55763 9.5828 4.55989 9.57246C4.56183 9.56277 4.56296 9.55259 4.56441 9.54257C4.56619 9.53207 4.56813 9.52157 4.56926 9.5109C4.57039 9.50089 4.57039 9.49055 4.57088 9.48037C4.57152 9.46954 4.57265 9.45904 4.57265 9.44822L4.58703 4.95704C4.58703 4.74313 4.67767 4.5373 4.84214 4.37751C5.01889 4.2061 5.25801 4.11142 5.49728 4.11885C5.94546 4.13226 6.31011 4.52211 6.31011 4.98887L6.31722 9.41364C6.31722 9.42495 6.31835 9.43594 6.31899 9.44692C6.31948 9.45678 6.31948 9.46696 6.32045 9.47665C6.32158 9.48828 6.32384 9.49943 6.32562 9.51074C6.32707 9.51995 6.32804 9.52932 6.32982 9.53837C6.3324 9.55065 6.33596 9.5626 6.33919 9.57456C6.34129 9.58231 6.3429 9.59023 6.34517 9.59782C6.34921 9.61075 6.35438 9.62335 6.35922 9.63595C6.36165 9.64225 6.36342 9.64872 6.36601 9.65486C6.37182 9.66827 6.37845 9.68135 6.38507 9.69428C6.38766 9.69912 6.3896 9.7043 6.39218 9.70898C6.39945 9.72239 6.40769 9.73515 6.41577 9.74776C6.41835 9.75196 6.42062 9.75616 6.42336 9.7602C6.43193 9.77296 6.4413 9.78491 6.45067 9.79687C6.45358 9.80059 6.45616 9.80446 6.45907 9.80802C6.46957 9.82078 6.48088 9.83274 6.49235 9.84453C6.49477 9.84712 6.49671 9.8497 6.49914 9.85213C6.51093 9.86392 6.52353 9.87491 6.5363 9.88573C6.53872 9.88783 6.54082 9.89009 6.54324 9.89219C6.55601 9.90269 6.56926 9.91223 6.58266 9.9216C6.58557 9.9237 6.58816 9.92596 6.59107 9.9279C6.60464 9.93711 6.61885 9.94535 6.63307 9.95343C6.63614 9.9552 6.63905 9.9573 6.64228 9.95908C6.65715 9.967 6.67249 9.9741 6.688 9.98105C6.69091 9.98234 6.69366 9.98396 6.69657 9.98525C6.7124 9.99188 6.72872 9.99753 6.7452 10.003C6.74811 10.0038 6.75069 10.0051 6.7536 10.0061C6.76992 10.0111 6.78656 10.0151 6.8032 10.0189C6.80659 10.0195 6.80982 10.0206 6.81322 10.0214C6.85361 10.0297 6.89545 10.034 6.93827 10.034C6.94909 10.034 6.96072 10.0329 6.97139 10.0324C6.98173 10.0318 6.99207 10.0318 7.00224 10.0308C7.01355 10.0295 7.02438 10.0274 7.03553 10.0256C7.0449 10.0242 7.05459 10.0232 7.06396 10.0213C7.07511 10.019 7.08594 10.0158 7.09692 10.0129C7.10581 10.0105 7.11469 10.0087 7.12342 10.0059C7.13457 10.0025 7.14523 9.99818 7.15605 9.99398C7.16413 9.99091 7.17253 9.98848 7.18045 9.98509C7.1916 9.98024 7.20242 9.97459 7.21325 9.96926C7.22036 9.9657 7.22779 9.96264 7.23473 9.95892C7.2454 9.9531 7.25558 9.94632 7.26592 9.94002C7.27254 9.93582 7.27949 9.9321 7.28595 9.92774C7.29581 9.92111 7.30502 9.91368 7.31439 9.90641C7.32085 9.90156 7.32747 9.89704 7.33377 9.89187C7.34266 9.8846 7.35106 9.87636 7.35962 9.86844C7.3656 9.86295 7.3719 9.85762 7.37788 9.8518C7.3858 9.84372 7.39323 9.835 7.40082 9.8266C7.40648 9.8203 7.41245 9.81432 7.41795 9.8077C7.42473 9.79929 7.43087 9.79041 7.43717 9.78185C7.44267 9.77441 7.44848 9.7673 7.45365 9.75987C7.45947 9.75131 7.46432 9.74226 7.46965 9.73338C7.47466 9.72514 7.48015 9.71706 7.48467 9.70866C7.48952 9.69977 7.4934 9.6904 7.49776 9.68135C7.50212 9.67231 7.50697 9.66358 7.51085 9.65421C7.51456 9.64532 7.51763 9.63595 7.52086 9.62674C7.52458 9.61689 7.52862 9.60719 7.53169 9.59718C7.5346 9.58748 7.5367 9.57763 7.53928 9.56777C7.54187 9.55776 7.54494 9.5479 7.54688 9.53772C7.54898 9.52754 7.55011 9.51704 7.55172 9.50686C7.55318 9.49652 7.55528 9.48635 7.55625 9.47601C7.55738 9.4655 7.55738 9.45484 7.55786 9.44418C7.55851 9.43368 7.55948 9.4235 7.55948 9.41283V3.12217C7.55948 2.64523 7.94723 2.25069 8.42368 2.24245C8.65359 2.23922 8.87202 2.32808 9.0415 2.49465C9.21793 2.66801 9.31907 2.90761 9.31907 3.15189V9.44709C9.31907 9.4584 9.3202 9.46938 9.32084 9.48053C9.32133 9.49038 9.32133 9.5004 9.3223 9.51026C9.32343 9.52124 9.32569 9.53191 9.32731 9.54273C9.32892 9.55259 9.32989 9.56244 9.33183 9.57197C9.33409 9.5828 9.33732 9.5933 9.34007 9.60396C9.34249 9.61317 9.34427 9.62238 9.34718 9.63143C9.35073 9.6429 9.35526 9.65405 9.35946 9.6652C9.36236 9.67295 9.36479 9.68087 9.36802 9.68846C9.37303 9.70009 9.37884 9.71124 9.3845 9.72255C9.38773 9.72918 9.39064 9.73612 9.39419 9.74275C9.40033 9.75422 9.40744 9.76504 9.41439 9.77603C9.4181 9.78185 9.42134 9.78815 9.42537 9.79396C9.43281 9.80495 9.44105 9.81545 9.44929 9.82595C9.45332 9.83112 9.45688 9.83662 9.46108 9.84162C9.47013 9.85277 9.48014 9.86311 9.49 9.87361C9.49388 9.87749 9.49727 9.88185 9.50115 9.88573C9.51133 9.89607 9.52231 9.90544 9.5333 9.91497C9.53734 9.91853 9.54105 9.92241 9.54525 9.9258C9.55753 9.93598 9.57046 9.94519 9.58338 9.9544C9.58661 9.95666 9.58968 9.95924 9.59308 9.96167C9.60697 9.97104 9.62151 9.9796 9.63621 9.98784C9.63896 9.98929 9.64139 9.99123 9.64413 9.99268C9.66029 10.0014 9.67677 10.0092 9.69373 10.0166L9.69842 10.0189C9.71603 10.0263 9.73412 10.0328 9.75254 10.0386L9.75561 10.0397C9.79422 10.0518 9.83445 10.0601 9.87597 10.0644C9.89682 10.0665 9.91879 10.0676 9.94028 10.0676C9.95126 10.0676 9.96273 10.0665 9.97372 10.066C9.9839 10.0654 9.99408 10.0654 10.0041 10.0644C10.0156 10.0633 10.0267 10.061 10.038 10.0592C10.0472 10.0578 10.0566 10.0568 10.0658 10.0549C10.0779 10.0525 10.0896 10.0489 10.1014 10.0458C10.1093 10.0437 10.1175 10.0421 10.1253 10.0397C10.1379 10.0357 10.15 10.0308 10.1623 10.0261C10.1689 10.0235 10.1757 10.0214 10.1823 10.0187C10.1947 10.0134 10.2067 10.0072 10.2188 10.0011C10.2246 9.99818 10.2308 9.99575 10.2366 9.99252C10.2484 9.98606 10.2597 9.97879 10.2712 9.97152C10.2767 9.96813 10.2823 9.96506 10.2878 9.96134C10.2994 9.95359 10.3103 9.94486 10.3212 9.9363C10.3259 9.93275 10.3309 9.92935 10.3356 9.92564C10.3464 9.91659 10.3566 9.90673 10.367 9.89704C10.3712 9.89316 10.3757 9.88961 10.3796 9.88557C10.3896 9.87555 10.399 9.86489 10.4082 9.85406C10.412 9.84986 10.4161 9.84582 10.4198 9.84146C10.4287 9.83064 10.4368 9.81917 10.4448 9.80786C10.4482 9.80301 10.4521 9.79849 10.4555 9.79364C10.4631 9.78233 10.4699 9.77054 10.4767 9.75874C10.4799 9.75325 10.4836 9.74808 10.4867 9.74242C10.4931 9.73047 10.4986 9.71803 10.5043 9.70559C10.507 9.69977 10.5103 9.69412 10.5127 9.68814C10.5179 9.67602 10.5221 9.66342 10.5264 9.65098C10.5287 9.64435 10.5316 9.63789 10.5337 9.63095C10.5373 9.61915 10.54 9.60671 10.5431 9.59459C10.5448 9.58684 10.5473 9.57924 10.5489 9.57149C10.5513 9.55953 10.5528 9.54709 10.5545 9.53498C10.5557 9.52658 10.5574 9.51834 10.5583 9.50977C10.5596 9.49846 10.5596 9.48683 10.56 9.4752C10.5605 9.46566 10.5615 9.45629 10.5615 9.44644V5.49618C10.6019 5.14963 10.8961 4.87513 11.2523 4.86899C11.4354 4.86592 11.6121 4.93798 11.7487 5.07224C11.8915 5.21247 11.9734 5.40635 11.9734 5.60394V11.7591L11.9737 11.7868C11.9771 12.1893 12.2414 12.5294 12.6313 12.6331C13.0185 12.736 13.4142 12.5733 13.6178 12.2247L13.6217 12.2177C14.1086 11.3669 15.4102 10.0334 15.7902 9.75389C15.8341 9.72142 15.8847 9.69541 15.9404 9.67602C16.1879 9.59055 16.4983 9.65114 16.7132 9.82692C16.8143 9.9098 16.9298 10.0487 16.9043 10.2399Z" fill="#a2a1a1" stroke="#a2a1a1" stroke-width="0.5"/>
</svg>
