<svg id="ba2bba0b-a978-41ca-9283-c21fd3633996" data-name="Layer 1" xmlns="http://www.w3.org/2000/svg" viewBox="0 0 32 32"><rect x="0.1061" y="-0.0098" width="32" height="32" rx="7.4138" fill="#ee9500"/><circle cx="15.9646" cy="16.0033" r="10.6667" fill="#fff"/><path d="M13.3623,15.123h.3934V11.3088a.6557.6557,0,0,1,1.3113-.0007v3.8092H15.46V10.4536a.6557.6557,0,1,1,1.3056,0V15.123h.3934V11.3943a.6557.6557,0,1,1,1.2828-.0342v5.9465a.1937.1937,0,0,0,.2508.2109.2339.2339,0,0,0,.1255-.1083c.2622-.439.5131-.8837.77-1.3227a.6727.6727,0,0,1,1.0662-.1311.6556.6556,0,0,1,.0684.781l-1.3683,2.4174c-.0684.12-.1483.2395-.211.3649a2.9772,2.9772,0,0,1-.7525.9464,4.9437,4.9437,0,0,1-2.1038,1.14,3.4215,3.4215,0,0,1-2.2806-.1426,3.1244,3.1244,0,0,1-1.6705-1.7674,4.44,4.44,0,0,1-.3078-1.4823V12.7569a.6613.6613,0,0,1,.665-.6576c.0159,0,.0318.0007.0476.002a.6557.6557,0,0,1,.6215.65Z" fill="#ee9500"/></svg>