<svg fill="#08aa3e" id="a9986211-7bc3-4b37-aeea-d818d2ff444b" data-name="Layer 1" xmlns="http://www.w3.org/2000/svg" viewBox="0 0 24 24"><path d="M5.8128,10.7047h.792v-.2125q0-3.7173,0-7.4345A1.3188,1.3188,0,1,1,9.2377,3.052Q9.24,6.7609,9.2382,10.47v.2286h.78v-.2159q0-4.5673,0-9.1348a1.314,1.314,0,1,1,2.6272-.0039q.0012,4.5674,0,9.1347v.2227h.78V10.49q0-3.6255,0-7.2511a1.3121,1.3121,0,0,1,2.6231-.0742q.002,4.2173,0,8.4346,0,1.7419.0006,3.4839c0,.3121.2383.52.503.4237a.5339.5339,0,0,0,.2524-.22c.5174-.88,1.024-1.7658,1.5362-2.6487a1.3484,1.3484,0,0,1,2.1374-.2563,1.321,1.321,0,0,1,.1442,1.5621q-1.3947,2.4229-2.7946,4.8429c-.1414.2449-.2956.4837-.42.737a6.23,6.23,0,0,1-1.5149,1.8982,9.97,9.97,0,0,1-4.2089,2.3307,6.8382,6.8382,0,0,1-4.5129-.2937A6.2516,6.2516,0,0,1,3.8153,19.915,8.7388,8.7388,0,0,1,3.2046,16.95c-.0087-.2162-.015-.4327-.0151-.6491q-.0013-5.1424,0-10.2849A1.3252,1.3252,0,0,1,4.5254,4.6523a1.3069,1.3069,0,0,1,1.2873,1.302q.0007,2.267,0,4.534Z"/></svg>