<svg width="20" height="8" viewBox="0 0 20 8" fill="none" xmlns="http://www.w3.org/2000/svg">
<path d="M18.6956 8H15.7733C15.1878 8 14.6744 7.55686 14.5167 6.91678L14.0911 5.18589C14.0399 4.97814 13.9304 4.7951 13.7791 4.66472C13.6278 4.53433 13.4432 4.46375 13.2533 4.46374H6.74667C6.55685 4.46396 6.37229 4.53462 6.22106 4.66497C6.06983 4.79533 5.96022 4.97824 5.90889 5.18589L5.48333 6.91678C5.40651 7.22835 5.24213 7.50284 5.01525 7.6984C4.78837 7.89397 4.51144 7.99988 4.22667 8H1.30444C1.13314 8 0.963518 7.96166 0.805255 7.88718C0.646993 7.81269 0.503192 7.70351 0.382063 7.56588C0.260934 7.42825 0.164849 7.26485 0.099295 7.08503C0.0337405 6.9052 0 6.71247 0 6.51783V4.94349C0 3.16084 1.04778 1.60039 2.58778 1.12316L2.69111 1.0916C7.19859 -0.305062 11.9463 -0.362447 16.4789 0.924951L17.3656 1.17745C18.1181 1.39118 18.7862 1.88465 19.2635 2.57939C19.7409 3.27414 20.0001 4.13027 20 5.01166V6.51783C20 7.33719 19.4156 8 18.6956 8Z" fill="white"/>
</svg>
