<svg id="e1cfe504-a19f-4b5f-83a4-2db379894a3f" data-name="Layer 1" xmlns="http://www.w3.org/2000/svg" viewBox="0 0 21 21"><path d="M21,11.56a2.78,2.78,0,0,1-.81,1.08L18.62,14.2a1.26,1.26,0,0,1-1.86.09,11.19,11.19,0,0,0-2.14-1.48A1.26,1.26,0,0,1,14,11.6c0-.7,0-1.4,0-2.11,0-.16,0-.22-.2-.26A11.82,11.82,0,0,0,11.36,9c-.87,0-1.74,0-2.6,0-.53,0-1,.16-1.58.23C7,9.27,7,9.33,7,9.46v1.93a3.39,3.39,0,0,1,0,.55,1.17,1.17,0,0,1-.61.88,9.9,9.9,0,0,0-2.08,1.44,1.32,1.32,0,0,1-1.92-.09l-1.9-1.9a1.29,1.29,0,0,1,0-2A14.54,14.54,0,0,1,11.58,6.39,14.23,14.23,0,0,1,18.89,9a17,17,0,0,1,1.68,1.37A2.62,2.62,0,0,1,21,11Z"/></svg>