<svg width="73" height="93" viewBox="0 0 73 93" fill="none" xmlns="http://www.w3.org/2000/svg">
<g clip-path="url(#clip0_2892_26933)">
<path d="M10.8508 73.1846C10.8633 73.7585 10.7442 74.3275 10.5031 74.8467C10.2816 75.3109 9.95993 75.7184 9.56208 76.0391C9.14861 76.3668 8.6771 76.6109 8.1731 76.7583C7.62108 76.9228 7.04829 77.0043 6.473 77.0001C6.09158 77.0022 5.71081 76.9681 5.33564 76.8982C5.02095 76.8395 4.71097 76.7573 4.40824 76.6521C4.17607 76.572 3.95135 76.4711 3.7367 76.3508C3.5964 76.2744 3.46593 76.1807 3.34823 76.0719C3.26039 75.9755 3.20141 75.8557 3.17822 75.7265C3.13909 75.5107 3.12228 75.2914 3.12806 75.072C3.12806 74.8803 3.13402 74.7189 3.14592 74.5894C3.15412 74.4821 3.17407 74.3761 3.20542 74.2734C3.22352 74.2057 3.26183 74.1453 3.31508 74.1007C3.36125 74.066 3.41744 74.0478 3.47489 74.0489C3.6064 74.0674 3.7309 74.1204 3.83616 74.2026C4.02828 74.3263 4.22692 74.4393 4.43119 74.541C4.71207 74.6791 5.00415 74.7924 5.30419 74.8795C5.68612 74.9881 6.08154 75.0398 6.4781 75.0332C6.74369 75.0371 7.00838 75.001 7.26355 74.9261C7.47719 74.8645 7.67737 74.7622 7.85349 74.6248C8.01339 74.4967 8.14028 74.331 8.22326 74.1421C8.31096 73.9404 8.35475 73.7219 8.35161 73.5015C8.35812 73.2494 8.28087 73.0024 8.1323 72.8004C7.97329 72.595 7.77993 72.4196 7.56107 72.2823C7.3054 72.1199 7.038 71.9773 6.76117 71.8558C6.46309 71.7228 6.15537 71.5821 5.83802 71.4336C5.52052 71.2846 5.21248 71.1156 4.91571 70.9276C4.61916 70.7408 4.3499 70.5127 4.11582 70.2498C3.87384 69.9748 3.68058 69.6593 3.54459 69.3173C3.38845 68.9044 3.31393 68.4643 3.32528 68.0222C3.31591 67.4999 3.42467 66.9824 3.64319 66.5095C3.84279 66.0873 4.13331 65.716 4.49324 65.4233C4.86797 65.1263 5.29662 64.9071 5.75472 64.7783C6.25535 64.6336 6.77366 64.5618 7.29415 64.565C7.57559 64.5651 7.85662 64.5868 8.13485 64.6298C8.40035 64.6685 8.66282 64.7262 8.9203 64.8025C9.14285 64.8687 9.35998 64.9524 9.56973 65.0529C9.70479 65.1116 9.83077 65.1898 9.94375 65.2851C9.99246 65.3314 10.0343 65.3846 10.0679 65.4431C10.0929 65.4982 10.1111 65.5562 10.1223 65.6158C10.1395 65.7047 10.1503 65.7947 10.1546 65.8852C10.1605 65.9931 10.1631 66.1278 10.1631 66.2884C10.1631 66.468 10.1588 66.62 10.1495 66.7435C10.1431 66.8465 10.128 66.9487 10.1044 67.0491C10.0898 67.1141 10.0581 67.1738 10.0126 67.2218C9.96853 67.2609 9.91122 67.281 9.8528 67.2779C9.73789 67.2597 9.62858 67.2151 9.53318 67.1475C9.38697 67.0606 9.20705 66.9662 8.9934 66.8643C8.75437 66.7523 8.50711 66.6593 8.25386 66.5863C7.95366 66.4997 7.64277 66.4572 7.33071 66.4603C7.09869 66.4559 6.86746 66.4889 6.64557 66.5578C6.46645 66.6139 6.30004 66.7055 6.15594 66.8272C6.02735 66.939 5.92707 67.0806 5.86352 67.2399C5.79974 67.4022 5.76742 67.5755 5.76832 67.7502C5.76262 67.9982 5.83795 68.2411 5.98253 68.4409C6.14038 68.649 6.33566 68.8248 6.55801 68.959C6.81979 69.1236 7.09343 69.2679 7.37661 69.3907C7.68092 69.5237 7.99261 69.6644 8.31166 69.8129C8.63256 69.9634 8.94475 70.1323 9.24671 70.3189C9.5478 70.505 9.82164 70.7332 10.0602 70.9967C10.3037 71.2698 10.4984 71.5839 10.6357 71.9249C10.7899 72.3251 10.8644 72.7524 10.855 73.182" fill="#26489E"/>
<path d="M7.29767 64.6486C7.57481 64.6486 7.85156 64.6697 8.12561 64.7116C8.38742 64.7506 8.64619 64.8083 8.90001 64.8843C9.11791 64.9491 9.33051 65.0311 9.53585 65.1295C9.6631 65.1832 9.78172 65.256 9.88776 65.3454C9.92979 65.3847 9.96588 65.43 9.99487 65.48C10.0165 65.5287 10.0324 65.5797 10.0425 65.632C10.0594 65.7174 10.0697 65.804 10.0731 65.891C10.079 65.9964 10.0816 66.1268 10.0816 66.2899C10.0816 66.4626 10.0773 66.6172 10.068 66.7389C10.0623 66.8364 10.0481 66.9332 10.0255 67.0282C10.0156 67.0791 9.99206 67.1263 9.95747 67.1646C9.92916 67.1883 9.89293 67.2001 9.85631 67.1974C9.82741 67.1974 9.75261 67.1819 9.5792 67.0791C9.43299 66.9928 9.24938 66.8952 9.03347 66.7916C8.79014 66.6782 8.53865 66.5838 8.28117 66.5092C7.97319 66.4206 7.65433 66.3769 7.33422 66.3797C7.09326 66.3755 6.85315 66.4099 6.62273 66.4816C6.43305 66.5413 6.25683 66.6384 6.1042 66.7674C5.96517 66.8882 5.85696 67.0413 5.78883 67.2138C5.7207 67.3862 5.68606 67.5703 5.68682 67.756C5.68095 68.023 5.76225 68.2844 5.91804 68.4994C6.08115 68.7163 6.28302 68.8999 6.51307 69.0408C6.77832 69.2056 7.05537 69.3499 7.34187 69.4725C7.65044 69.6072 7.96326 69.7488 8.27183 69.8939C8.589 70.0427 8.89751 70.2099 9.19583 70.3947C9.48951 70.5772 9.75696 70.8 9.99062 71.0569C10.2273 71.3227 10.4165 71.6283 10.55 71.96C10.6997 72.3499 10.7722 72.766 10.7633 73.1844C10.7749 73.7451 10.6585 74.301 10.4233 74.8085C10.2072 75.2606 9.89442 75.6579 9.50779 75.9715C9.10267 76.2921 8.64106 76.5312 8.14772 76.6761C7.60346 76.837 7.03911 76.917 6.47227 76.9135C6.09627 76.9157 5.72089 76.8822 5.35105 76.8133C5.04043 76.755 4.73445 76.6737 4.43555 76.5699C4.20825 76.492 3.98832 76.3935 3.77846 76.2754C3.64468 76.2024 3.51997 76.1134 3.40699 76.0104C3.33079 75.9247 3.28035 75.8186 3.26164 75.7047C3.22401 75.4951 3.20778 75.2822 3.21318 75.0692C3.21318 74.8819 3.21913 74.7238 3.23103 74.5943C3.23781 74.494 3.25636 74.3949 3.28629 74.299C3.29939 74.2486 3.3269 74.2032 3.36534 74.1687C3.39718 74.1453 3.43571 74.1331 3.475 74.1341C3.52175 74.1341 3.6144 74.1583 3.78951 74.2731C3.98561 74.3992 4.18821 74.5145 4.39645 74.6185C4.68137 74.76 4.97806 74.8756 5.28305 74.9639C5.67307 75.0745 6.07674 75.1274 6.48162 75.121C6.75553 75.1247 7.02848 75.0875 7.29172 75.0105C7.51554 74.9454 7.72522 74.8379 7.9097 74.6936C8.08047 74.5557 8.21604 74.378 8.30497 74.1756C8.39669 73.9625 8.44277 73.7321 8.44013 73.4995C8.44639 73.2286 8.36287 72.9635 8.20297 72.7466C8.03757 72.5322 7.83612 72.3492 7.60794 72.2061C7.34834 72.0418 7.07698 71.8975 6.79614 71.7744C6.50032 71.6432 6.19005 71.5007 5.87469 71.353C5.56058 71.2052 5.25569 71.038 4.96173 70.8523C4.67207 70.6694 4.40886 70.4466 4.17969 70.19C3.94468 69.9219 3.7569 69.6146 3.6246 69.2817C3.4736 68.8811 3.40113 68.4543 3.41125 68.0254C3.40099 67.5148 3.50596 67.0086 3.71811 66.5455C3.91227 66.1349 4.19461 65.7738 4.54436 65.4887C4.91053 65.1992 5.32898 64.9854 5.77608 64.8593C6.26931 64.7171 6.77986 64.6464 7.29257 64.6494L7.29767 64.6486ZM7.29257 64.5631C6.77207 64.5599 6.25376 64.6317 5.75313 64.7764C5.29503 64.9052 4.86638 65.1243 4.49166 65.4213C4.13183 65.7147 3.8416 66.0865 3.64246 66.5092C3.42408 66.9839 3.31617 67.5033 3.32709 68.0271C3.31641 68.4676 3.39093 68.9058 3.5464 69.3171C3.68239 69.6591 3.87566 69.9746 4.11764 70.2496C4.35172 70.5124 4.62098 70.7406 4.91753 70.9274C5.2143 71.1154 5.52233 71.2844 5.83983 71.4334C6.15718 71.5819 6.4649 71.7226 6.76299 71.8556C7.0399 71.9769 7.30731 72.1195 7.56288 72.2821C7.78174 72.4194 7.9751 72.5948 8.13412 72.8001C8.28268 73.0022 8.35993 73.2492 8.35343 73.5012C8.35656 73.7217 8.31277 73.9402 8.22507 74.1419C8.14209 74.3308 8.0152 74.4964 7.8553 74.6246C7.67918 74.762 7.479 74.8642 7.26537 74.9259C7.01019 75.0008 6.7455 75.0369 6.47992 75.033C6.08336 75.0396 5.68794 74.9879 5.306 74.8793C5.00597 74.7921 4.71388 74.6789 4.433 74.5408C4.22873 74.4391 4.03009 74.3261 3.83797 74.2024C3.73271 74.1202 3.60821 74.0672 3.4767 74.0487C3.41926 74.0475 3.36306 74.0657 3.31689 74.1005C3.26364 74.1451 3.22533 74.2055 3.20723 74.2731C3.17597 74.3759 3.15601 74.4819 3.14773 74.5892C3.13583 74.7187 3.12988 74.8801 3.12988 75.0718C3.12453 75.2911 3.14133 75.5104 3.18003 75.7263C3.20322 75.8555 3.2622 75.9753 3.35004 76.0717C3.46774 76.1805 3.59822 76.2742 3.73851 76.3505C3.95324 76.4708 4.17795 76.5716 4.41005 76.6519C4.71279 76.757 5.02276 76.8393 5.33746 76.898C5.71262 76.9678 6.0934 77.0019 6.47482 76.9998C7.05011 77.0041 7.62289 76.9226 8.17492 76.7581C8.67899 76.6109 9.15052 76.3667 9.5639 76.0389C9.96174 75.7182 10.2834 75.3107 10.5049 74.8465C10.7461 74.3273 10.8651 73.7583 10.8526 73.1844C10.862 72.7547 10.7875 72.3274 10.6333 71.9272C10.496 71.5862 10.3012 71.2721 10.0578 70.999C9.8192 70.7355 9.54536 70.5074 9.24428 70.3213C8.94232 70.1347 8.63013 69.9658 8.30923 69.8153C7.99188 69.6668 7.68019 69.5261 7.37417 69.3931C7.09108 69.2701 6.81745 69.1258 6.55558 68.9614C6.33323 68.8272 6.13795 68.6514 5.98009 68.4433C5.83551 68.2434 5.76019 68.0005 5.76588 67.7526C5.76498 67.5778 5.79731 67.4046 5.86108 67.2423C5.92463 67.0829 6.02491 66.9414 6.1535 66.8296C6.2976 66.7078 6.46401 66.6163 6.64313 66.5602C6.86503 66.4912 7.09625 66.4583 7.32827 66.4626C7.64034 66.4596 7.95122 66.502 8.25142 66.5887C8.50467 66.6617 8.75193 66.7547 8.99096 66.8667C9.20404 66.9686 9.38397 67.063 9.53075 67.1499C9.62615 67.2175 9.73546 67.2621 9.85037 67.2803C9.90879 67.2834 9.9661 67.2632 10.0102 67.2242C10.0556 67.1761 10.0873 67.1164 10.102 67.0515C10.1255 66.9508 10.1406 66.8482 10.147 66.745C10.1564 66.6215 10.1606 66.4695 10.1606 66.2899C10.1606 66.1293 10.1606 65.9947 10.1521 65.8867C10.1479 65.7962 10.1371 65.7062 10.1198 65.6173C10.1087 65.5577 10.0904 65.4997 10.0654 65.4447C10.0318 65.3861 9.99002 65.3329 9.94132 65.2866C9.82848 65.1911 9.70247 65.1128 9.5673 65.0544C9.35755 64.9539 9.14041 64.8702 8.91786 64.804C8.66038 64.7277 8.39791 64.67 8.13242 64.6313C7.85418 64.5883 7.57315 64.5666 7.29172 64.5665" fill="#26489E"/>
<path d="M21.9198 76.4525C21.9199 76.5134 21.8988 76.5725 21.8603 76.6192C21.8072 76.6773 21.7392 76.7192 21.6639 76.74C21.5447 76.7766 21.4223 76.8015 21.2984 76.8143C21.1072 76.8346 20.9151 76.8438 20.7229 76.8419C20.5259 76.8438 20.329 76.8346 20.133 76.8143C20.0093 76.8022 19.8871 76.7773 19.7683 76.74C19.6942 76.7188 19.6273 76.6769 19.5754 76.6192C19.5371 76.5723 19.5164 76.5133 19.5167 76.4525V71.5975H15.0964V76.4525C15.0971 76.5127 15.0779 76.5713 15.042 76.6192C14.9915 76.6782 14.9245 76.7204 14.8499 76.74C14.7307 76.7767 14.6083 76.8016 14.4844 76.8143C14.0971 76.8511 13.7072 76.8511 13.3198 76.8143C13.1942 76.8018 13.0701 76.7769 12.9492 76.74C12.8738 76.7194 12.8058 76.6775 12.7529 76.6192C12.7143 76.5725 12.6933 76.5134 12.6934 76.4525V65.1097C12.6931 65.0485 12.7142 64.9892 12.7529 64.9422C12.8058 64.8842 12.8739 64.8426 12.9492 64.8222C13.0701 64.785 13.1942 64.7599 13.3198 64.7471C13.7072 64.7103 14.0971 64.7103 14.4844 64.7471C14.6084 64.7601 14.7308 64.7852 14.8499 64.8222C14.9244 64.8416 14.9914 64.8834 15.042 64.9422C15.0779 64.9904 15.0971 65.0493 15.0964 65.1097V69.5184H19.5167V65.1097C19.5162 65.0486 19.537 64.9893 19.5754 64.9422C19.6274 64.8847 19.6942 64.8432 19.7683 64.8222C19.887 64.7846 20.0092 64.7594 20.133 64.7471C20.329 64.7268 20.5259 64.7176 20.7229 64.7195C20.9151 64.7176 21.1072 64.7268 21.2984 64.7471C21.4223 64.7602 21.5447 64.7853 21.6639 64.8222C21.7391 64.8428 21.8072 64.8844 21.8603 64.9422C21.899 64.9892 21.9201 65.0485 21.9198 65.1097V76.4525Z" fill="#26489E"/>
<path d="M20.72 64.8059C20.9088 64.804 21.0975 64.8132 21.2853 64.8335C21.4038 64.8452 21.5208 64.8689 21.6346 64.9043C21.694 64.9202 21.7481 64.9521 21.791 64.9967C21.8176 65.0282 21.8321 65.0683 21.8318 65.1098V76.4526C21.8321 76.4936 21.8179 76.5334 21.7919 76.5648C21.7486 76.6096 21.6943 76.6418 21.6346 76.6581C21.5207 76.693 21.4037 76.7164 21.2853 76.728C21.0975 76.7483 20.9088 76.7575 20.72 76.7556C20.5264 76.7576 20.3328 76.7483 20.1403 76.728C20.0223 76.7171 19.9057 76.6937 19.7926 76.6581C19.7339 76.6418 19.6807 76.6096 19.6387 76.5648C19.6127 76.5334 19.5985 76.4936 19.5988 76.4526V71.5112H15.0085V76.4526C15.0092 76.494 14.996 76.5345 14.9711 76.5674C14.9308 76.612 14.8785 76.6435 14.8207 76.6581C14.7067 76.693 14.5897 76.7164 14.4713 76.728C14.0905 76.7649 13.7071 76.7649 13.3263 76.728C13.2067 76.7167 13.0885 76.6932 12.9735 76.6581C12.9137 76.6421 12.8593 76.6098 12.8162 76.5648C12.7899 76.5335 12.7754 76.4937 12.7754 76.4526V65.1098C12.7752 65.0683 12.7897 65.0282 12.8162 64.9967C12.8596 64.9522 12.9139 64.9203 12.9735 64.9043C13.0885 64.8688 13.2066 64.845 13.3263 64.8335C13.7071 64.7966 14.0905 64.7966 14.4713 64.8335C14.5898 64.8452 14.7068 64.8689 14.8207 64.9043C14.8779 64.9179 14.9301 64.9478 14.9711 64.9906C14.996 65.0239 15.0091 65.0646 15.0085 65.1063V69.6013H19.5988V65.1063C19.5985 65.0653 19.6127 65.0255 19.6387 64.9941C19.6808 64.9493 19.7339 64.9168 19.7926 64.9C19.9058 64.8647 20.0223 64.8413 20.1403 64.83C20.3328 64.8097 20.5264 64.8005 20.72 64.8024V64.8059ZM20.72 64.7161C20.523 64.7142 20.326 64.7234 20.1301 64.7437C20.0063 64.756 19.8841 64.7812 19.7654 64.8188C19.6913 64.8398 19.6245 64.8813 19.5724 64.9388C19.534 64.9859 19.5133 65.0452 19.5138 65.1063V69.515H15.0935V65.1063C15.0941 65.0459 15.075 64.987 15.0391 64.9388C14.9885 64.88 14.9215 64.8382 14.847 64.8188C14.7278 64.7818 14.6054 64.7567 14.4815 64.7437C14.0941 64.7069 13.7043 64.7069 13.3169 64.7437C13.1913 64.7565 13.0671 64.7816 12.9463 64.8188C12.871 64.8392 12.8029 64.8808 12.7499 64.9388C12.7112 64.9858 12.6902 65.0451 12.6904 65.1063V76.4491C12.6904 76.5101 12.7114 76.5691 12.7499 76.6158C12.8028 76.6741 12.8709 76.716 12.9463 76.7366C13.0672 76.7735 13.1913 76.7984 13.3169 76.8109C13.7043 76.8477 14.0941 76.8477 14.4815 76.8109C14.6054 76.7982 14.7278 76.7733 14.847 76.7366C14.9216 76.717 14.9886 76.6748 15.0391 76.6158C15.075 76.5679 15.0941 76.5093 15.0935 76.4491V71.5941H19.5138V76.4491C19.5135 76.5099 19.5342 76.5689 19.5724 76.6158C19.6244 76.6735 19.6912 76.7154 19.7654 76.7366C19.8841 76.7739 20.0063 76.7988 20.1301 76.8109C20.326 76.8312 20.523 76.8404 20.72 76.8385C20.9122 76.8404 21.1043 76.8312 21.2955 76.8109C21.4194 76.7981 21.5418 76.7732 21.661 76.7366C21.7363 76.7158 21.8043 76.6739 21.8574 76.6158C21.8959 76.5691 21.9169 76.5101 21.9169 76.4491V65.1098C21.9171 65.0486 21.8961 64.9892 21.8574 64.9423C21.8042 64.8844 21.7362 64.8428 21.661 64.8223C21.5418 64.7854 21.4194 64.7602 21.2955 64.7471C21.1043 64.7269 20.9122 64.7177 20.72 64.7195" fill="#26489E"/>
<path d="M35.1311 70.6419C35.1444 71.5478 35.0212 72.4505 34.7656 73.3185C34.5478 74.0565 34.1771 74.7386 33.6784 75.319C33.188 75.8728 32.5766 76.3019 31.8933 76.5719C31.1837 76.8597 30.362 77.0036 29.4281 77.0036C28.5084 77.0036 27.7056 76.8813 27.0199 76.6366C26.3664 76.4137 25.7776 76.0295 25.3062 75.5185C24.85 75.0166 24.5075 74.3791 24.2785 73.606C24.0496 72.8329 23.9362 71.9171 23.9385 70.8586C23.9251 69.9708 24.047 69.0863 24.2998 68.2364C24.5181 67.503 24.8888 66.8258 25.387 66.2505C25.8787 65.6984 26.4898 65.2696 27.1721 64.9977C27.8816 64.707 28.7056 64.5631 29.644 64.566C30.54 64.566 31.3302 64.6866 32.0148 64.9277C32.6694 65.1493 33.2599 65.532 33.7336 66.0415C34.2178 66.5865 34.5738 67.236 34.7749 67.9411C35.0095 68.7049 35.1268 69.6069 35.1268 70.6471L35.1311 70.6419ZM32.6047 70.7774C32.6096 70.1999 32.5606 69.6231 32.4585 69.0549C32.3783 68.584 32.2091 68.1334 31.9604 67.7278C31.7297 67.3632 31.4068 67.0682 31.0254 66.8739C30.6349 66.6724 30.1475 66.572 29.5633 66.5726C28.979 66.5731 28.4854 66.686 28.0825 66.911C27.6953 67.1291 27.3662 67.4397 27.1236 67.8159C26.8698 68.2192 26.6946 68.6682 26.6076 69.1386C26.5045 69.6657 26.4538 70.202 26.4563 70.7394C26.4508 71.3322 26.4997 71.9242 26.6025 72.5077C26.682 72.9827 26.8496 73.438 27.0964 73.8495C27.323 74.2164 27.6471 74.5107 28.0315 74.6982C28.4219 74.8934 28.9124 74.9909 29.5029 74.9909C30.0934 74.9909 30.5867 74.8796 30.9828 74.6568C31.3727 74.4402 31.7027 74.1276 31.9426 73.7476C32.1964 73.3373 32.3717 72.8821 32.4594 72.4058C32.5621 71.8694 32.6125 71.3239 32.6098 70.7774" fill="#26489E"/>
<path d="M29.6484 64.6476C30.4437 64.6344 31.2356 64.7552 31.992 65.0051C32.6328 65.2228 33.2109 65.5976 33.6751 66.0964C34.1487 66.6324 34.4973 67.2698 34.6952 67.9614C34.9255 68.7135 35.0428 69.6157 35.0428 70.638C35.055 71.5339 34.9332 72.4265 34.6816 73.2853C34.4667 74.0113 34.1018 74.6824 33.6114 75.2539C33.1291 75.7975 32.5282 76.2188 31.8569 76.4843C31.1607 76.7666 30.3421 76.9099 29.4257 76.9099C28.5094 76.9099 27.7188 76.7882 27.0456 76.5482C26.4058 76.3286 25.8292 75.9523 25.3667 75.4525C24.9213 74.9629 24.5813 74.33 24.3577 73.5745C24.1342 72.819 24.0177 71.896 24.0177 70.8513C24.0064 69.9724 24.1282 69.0971 24.379 68.2558C24.5951 67.5358 24.96 66.8708 25.4492 66.3054C25.9329 65.7635 26.5334 65.3424 27.2037 65.075C27.9007 64.7892 28.7219 64.6433 29.6442 64.6433L29.6484 64.6476ZM29.498 75.0674C30.1007 75.0674 30.6124 74.9517 31.0196 74.722C31.4212 74.4977 31.7613 74.1751 32.009 73.7835C32.2682 73.3641 32.4475 72.899 32.5377 72.4124C32.6413 71.8702 32.6923 71.319 32.6899 70.7667C32.6945 70.1836 32.645 69.6014 32.542 69.0277C32.4592 68.5463 32.2861 68.0855 32.032 67.6704C31.7926 67.2927 31.4576 66.9873 31.0621 66.7863C30.6617 66.5799 30.1568 66.4755 29.5617 66.4755C28.9667 66.4755 28.4473 66.5929 28.0401 66.8208C27.6408 67.0457 27.3013 67.3657 27.0507 67.7533C26.7914 68.166 26.6122 68.6253 26.5228 69.1063C26.419 69.6392 26.3678 70.1812 26.3698 70.7244C26.3647 71.3226 26.4142 71.9201 26.5177 72.5091C26.5994 72.9944 26.7707 73.4596 27.0226 73.8802C27.2575 74.2597 27.5923 74.5647 27.9891 74.7609C28.3895 74.9612 28.897 75.0622 29.498 75.0622V75.0674ZM29.6442 64.5518C28.7057 64.5518 27.8817 64.6974 27.1722 64.9887C26.4899 65.2606 25.8789 65.6894 25.3871 66.2415C24.8879 66.8193 24.5171 67.4996 24.2999 68.236C24.0457 69.0857 23.9224 69.9702 23.9344 70.8582C23.9344 71.9168 24.0477 72.8326 24.2744 73.6056C24.5011 74.3787 24.8437 75.0162 25.3021 75.5181C25.7753 76.0282 26.3655 76.4112 27.0201 76.6328C27.7052 76.8768 28.5079 76.9991 29.4283 76.9997C30.3605 76.9997 31.1822 76.8558 31.8934 76.568C32.5768 76.2981 33.1882 75.8689 33.6785 75.3152C34.1772 74.7347 34.5479 74.0526 34.7657 73.3146C35.0213 72.4466 35.1446 71.5439 35.1312 70.638C35.1312 69.5985 35.0139 68.6965 34.7793 67.9321C34.5782 67.227 34.2222 66.5775 33.738 66.0325C33.2648 65.5227 32.6746 65.14 32.0201 64.9187C31.3338 64.677 30.5432 64.5561 29.6484 64.5561L29.6442 64.5518ZM29.5022 74.9802C28.9111 74.9802 28.4207 74.8826 28.0308 74.6875C27.6464 74.4999 27.3223 74.2057 27.0957 73.8387C26.8489 73.4273 26.6813 72.972 26.6018 72.497C26.499 71.9135 26.4501 71.3215 26.4556 70.7287C26.4531 70.1913 26.5037 69.655 26.6069 69.1279C26.6938 68.6574 26.869 68.2083 27.1229 67.8051C27.3653 67.4287 27.6944 67.1181 28.0818 66.9003C28.4785 66.6741 28.9721 66.5612 29.5626 66.5618C30.1531 66.5624 30.6404 66.6628 31.0247 66.8631C31.4061 67.0575 31.729 67.3524 31.9597 67.7171C32.2085 68.1227 32.3776 68.5733 32.4578 69.0441C32.56 69.6124 32.6089 70.1891 32.604 70.7667C32.6067 71.3132 32.5563 71.8586 32.4536 72.3951C32.3659 72.8714 32.1906 73.3266 31.9368 73.7368C31.6969 74.1168 31.3669 74.4295 30.977 74.646C30.5804 74.8688 30.087 74.9802 29.4971 74.9802" fill="#26489E"/>
<path d="M47.7871 70.6419C47.8001 71.5478 47.6768 72.4504 47.4216 73.3185C47.2038 74.0565 46.8331 74.7386 46.3344 75.319C45.8441 75.8728 45.2327 76.3019 44.5493 76.5719C43.8392 76.8597 43.0175 77.0036 42.0842 77.0036C41.1638 77.0036 40.3611 76.8813 39.676 76.6366C39.0224 76.4137 38.4336 76.0295 37.9623 75.5185C37.5055 75.0166 37.1629 74.3791 36.9346 73.606C36.7062 72.8329 36.5929 71.9171 36.5946 70.8586C36.5825 69.9706 36.7058 69.0861 36.9601 68.2364C37.1784 67.503 37.5491 66.8258 38.0473 66.2505C38.539 65.6984 39.1501 65.2696 39.8324 64.9977C40.5419 64.707 41.3659 64.5631 42.3043 64.566C43.1997 64.566 43.99 64.6866 44.6751 64.9277C45.3296 65.1491 45.9198 65.5318 46.3931 66.0415C46.8775 66.5865 47.2338 67.236 47.4352 67.9411C47.6698 68.7049 47.7871 69.6069 47.7871 70.6471V70.6419ZM45.265 70.7774C45.2695 70.1999 45.2205 69.6232 45.1188 69.0549C45.0386 68.584 44.8695 68.1334 44.6207 67.7278C44.3898 67.3633 44.0669 67.0685 43.6857 66.8739C43.2958 66.6724 42.8084 66.572 42.2236 66.5726C41.6387 66.5731 41.1451 66.686 40.7428 66.911C40.3554 67.1289 40.0263 67.4395 39.7839 67.8159C39.5298 68.2191 39.3544 68.6682 39.2671 69.1386C39.1646 69.6658 39.1143 70.2021 39.1166 70.7394C39.1111 71.3322 39.16 71.9242 39.2629 72.5077C39.3423 72.9827 39.5099 73.438 39.7567 73.8495C39.9833 74.2164 40.3074 74.5107 40.6918 74.6982C41.0817 74.8934 41.5722 74.9909 42.1632 74.9909C42.7543 74.9909 43.2476 74.8796 43.6432 74.6568C44.0329 74.44 44.3628 74.1274 44.6029 73.7476C44.8567 73.3373 45.032 72.8821 45.1197 72.4058C45.222 71.8693 45.2724 71.3239 45.2701 70.7774" fill="#26489E"/>
<path d="M42.303 64.648C43.0983 64.6346 43.8902 64.7554 44.6466 65.0054C45.2877 65.2229 45.8662 65.5978 46.3305 66.0968C46.8044 66.6325 47.1531 67.2701 47.3506 67.9618C47.5818 68.7138 47.6991 69.6161 47.6991 70.6384C47.7114 71.5344 47.5893 72.427 47.337 73.2857C47.1224 74.0116 46.7578 74.6828 46.2676 75.2543C45.7853 75.7979 45.1845 76.2192 44.5131 76.4847C43.8161 76.767 42.9983 76.9103 42.082 76.9103C41.1656 76.9103 40.3742 76.7886 39.7018 76.5485C39.062 76.3292 38.4853 75.9528 38.023 75.4529C37.5767 74.9633 37.2375 74.3304 37.014 73.5749C36.7904 72.8194 36.6739 71.8964 36.6739 70.8517C36.6626 69.9728 36.7845 69.0974 37.0352 68.2562C37.251 67.536 37.6159 66.871 38.1054 66.3058C38.5892 65.7638 39.1896 65.3428 39.8599 65.0754C40.557 64.7896 41.3773 64.6437 42.2996 64.6437L42.303 64.648ZM42.1542 75.0678C42.7561 75.0678 43.2678 74.9521 43.6758 74.7224C44.0774 74.4981 44.4175 74.1755 44.6653 73.7839C44.9244 73.3644 45.1038 72.8994 45.194 72.4127C45.2976 71.8706 45.3485 71.3194 45.3462 70.7671C45.3504 70.184 45.3008 69.6018 45.1982 69.0281C45.1155 68.5467 44.9423 68.0859 44.6882 67.6708C44.4484 67.2934 44.1135 66.9881 43.7183 66.7867C43.3179 66.5803 42.813 66.4758 42.218 66.4758C41.6229 66.4758 41.1027 66.5933 40.6955 66.8212C40.2965 67.0461 39.9572 67.3661 39.7069 67.7537C39.4474 68.1664 39.268 68.6256 39.1782 69.1067C39.0747 69.6396 39.0238 70.1816 39.026 70.7247C39.0205 71.323 39.0701 71.9205 39.1739 72.5094C39.2556 72.9947 39.4269 73.46 39.6789 73.8806C39.9135 74.2603 40.2484 74.5654 40.6454 74.7613C41.0449 74.9616 41.5532 75.0626 42.1542 75.0626V75.0678ZM42.2996 64.5521C41.3623 64.5521 40.5386 64.6978 39.8285 64.989C39.1462 65.261 38.5351 65.6898 38.0434 66.2419C37.5452 66.8172 37.1745 67.4944 36.9562 68.2277C36.7019 69.0774 36.5786 69.962 36.5906 70.8499C36.5906 71.9085 36.704 72.8243 36.9307 73.5974C37.1573 74.3704 37.4999 75.0079 37.9584 75.5098C38.4299 76.0206 39.0187 76.4047 39.6721 76.628C40.3572 76.872 41.1599 76.9944 42.0803 76.9949C43.0119 76.9949 43.8336 76.851 44.5454 76.5632C45.2288 76.2933 45.8402 75.8641 46.3305 75.3104C46.8292 74.7299 47.1999 74.0478 47.4177 73.3098C47.6729 72.4417 47.7962 71.5391 47.7832 70.6332C47.7832 69.5937 47.6659 68.6917 47.4313 67.9273C47.2299 67.2221 46.8736 66.5726 46.3892 66.0277C45.9162 65.5177 45.3258 65.135 44.6712 64.9139C43.9861 64.6722 43.1955 64.5513 42.2996 64.5513V64.5521ZM42.1542 74.9754C41.5626 74.9754 41.0721 74.8778 40.6828 74.6827C40.2984 74.4951 39.9743 74.2009 39.7477 73.8339C39.5009 73.4225 39.3333 72.9672 39.2539 72.4922C39.151 71.9087 39.1021 71.3167 39.1076 70.7239C39.1052 70.1865 39.1556 69.6503 39.2581 69.1231C39.3452 68.6526 39.5207 68.2035 39.7749 67.8003C40.017 67.4237 40.3462 67.113 40.7338 66.8955C41.1305 66.6692 41.6241 66.5564 42.2146 66.557C42.8051 66.5576 43.2924 66.658 43.6767 66.8583C44.0579 67.0529 44.3808 67.3478 44.6117 67.7123C44.8605 68.1179 45.0296 68.5685 45.1098 69.0394C45.2115 69.6076 45.2605 70.1843 45.2561 70.7619C45.2585 71.3084 45.2078 71.8539 45.1047 72.3903C45.0177 72.8666 44.8427 73.3219 44.5888 73.732C44.3489 74.112 44.0189 74.4247 43.6291 74.6412C43.2324 74.864 42.7391 74.9754 42.1491 74.9754" fill="#26489E"/>
<path d="M58.4425 76.4241C58.4435 76.4882 58.426 76.5512 58.3923 76.6054C58.3436 76.6686 58.2763 76.7143 58.2002 76.7358C58.0739 76.7761 57.9436 76.8024 57.8117 76.8144C57.6052 76.8347 57.3978 76.8439 57.1903 76.842C56.9062 76.8487 56.622 76.8331 56.3403 76.7954C56.2062 76.7804 56.0776 76.7327 55.9654 76.6564C55.8908 76.5963 55.8302 76.5202 55.7878 76.4336L52.2176 70.735V76.4336C52.2185 76.4957 52.1994 76.5563 52.1632 76.6063C52.1122 76.666 52.0456 76.7098 51.971 76.7324C51.8524 76.7719 51.7298 76.7982 51.6055 76.8109C51.2179 76.8478 50.8277 76.8478 50.4401 76.8109C50.3144 76.7985 50.1904 76.7722 50.0703 76.7324C49.9949 76.709 49.9271 76.6655 49.874 76.6063C49.8348 76.5576 49.8137 76.4965 49.8145 76.4336V65.1228C49.814 65.06 49.835 64.9989 49.874 64.9501C49.9268 64.8919 49.9949 64.8502 50.0703 64.8301C50.1909 64.7929 50.3147 64.7677 50.4401 64.755C50.8277 64.7181 51.2179 64.7181 51.6055 64.755C51.7295 64.768 51.8519 64.7932 51.971 64.8301C52.0455 64.8495 52.1125 64.8913 52.1632 64.9501C52.1992 65.0002 52.2182 65.0608 52.2176 65.1228V70.2377L55.6815 65.1323C55.7202 65.0565 55.7727 64.9888 55.8362 64.9328C55.9065 64.8754 55.9875 64.8328 56.0742 64.8076C56.1964 64.772 56.3222 64.7503 56.4491 64.7429C56.6004 64.7308 56.7959 64.7239 57.0331 64.7239C57.2346 64.722 57.4361 64.7312 57.6366 64.7515C57.7654 64.7643 57.8925 64.7909 58.0157 64.831C58.0915 64.8531 58.1596 64.8965 58.2121 64.9561C58.2482 65.0039 58.2677 65.0625 58.2673 65.1228C58.2643 65.2365 58.2352 65.348 58.1823 65.4483C58.1257 65.5594 58.0223 65.7355 57.8721 65.9767L54.6274 70.2938L58.1645 75.7239C58.2558 75.887 58.3365 76.056 58.4059 76.2299C58.4299 76.2938 58.4439 76.361 58.4476 76.4293" fill="#26489E"/>
<path d="M57.0261 64.8057C57.2248 64.8037 57.4235 64.8129 57.6212 64.8333C57.7436 64.8446 57.8645 64.8695 57.9816 64.9076C58.0416 64.9239 58.0958 64.9571 58.138 65.0034C58.163 65.0363 58.1765 65.0767 58.1763 65.1182C58.174 65.2182 58.1489 65.3163 58.1032 65.4049C58.0496 65.5128 57.9476 65.6872 57.7988 65.9229L54.5567 70.2401L54.5193 70.2884L54.5533 70.3402L58.0879 75.7668C58.176 75.9246 58.2543 76.0878 58.3225 76.2555C58.3435 76.3108 58.3558 76.3691 58.359 76.4282C58.3602 76.4758 58.3475 76.5227 58.3225 76.5629C58.2832 76.6092 58.231 76.6423 58.1729 76.6579C58.0531 76.6968 57.9293 76.7217 57.8039 76.7321C57.6006 76.7524 57.3962 76.7616 57.1919 76.7598C56.9112 76.7661 56.6305 76.7511 56.352 76.7149C56.2309 76.702 56.1144 76.6603 56.012 76.5931C55.9467 76.5409 55.8935 76.4745 55.8565 76.3989L52.2863 70.7003L52.1537 70.4879L52.2846 70.2945L55.7485 65.189C55.7826 65.1234 55.8284 65.0648 55.8837 65.0163C55.9455 64.9667 56.0162 64.9297 56.0919 64.9076C56.2079 64.8744 56.327 64.8539 56.4473 64.8463C56.5986 64.8342 56.7932 64.8281 57.0253 64.8281L57.0261 64.8057ZM51.0129 64.8281C51.2048 64.8261 51.3967 64.8353 51.5875 64.8558C51.706 64.8676 51.823 64.8913 51.9369 64.9266C51.9939 64.9401 52.0458 64.9701 52.0865 65.0129C52.1126 65.0488 52.1261 65.0926 52.1247 65.1372V76.4481C52.1259 76.493 52.1125 76.537 52.0865 76.5733C52.0451 76.6185 51.9926 76.6515 51.9343 76.6691C51.8217 76.7064 51.7054 76.731 51.5875 76.7425C51.2067 76.7794 50.8233 76.7794 50.4425 76.7425C50.3232 76.7312 50.2054 76.7066 50.0914 76.6691C50.0308 76.6508 49.9759 76.6165 49.9325 76.5698C49.9045 76.5357 49.89 76.4924 49.8917 76.4481V65.1372C49.8903 65.093 49.9048 65.0497 49.9325 65.0155C49.9757 64.9708 50.03 64.9388 50.0897 64.9231C50.2047 64.8875 50.3229 64.8638 50.4425 64.8523C50.632 64.8321 50.8224 64.8229 51.0129 64.8247V64.8281ZM57.0253 64.7383C56.7881 64.7383 56.5926 64.7452 56.4413 64.7573C56.3144 64.7648 56.1886 64.7865 56.0664 64.8221C55.9796 64.8472 55.8987 64.8898 55.8284 64.9473C55.7649 65.0033 55.7124 65.0709 55.6737 65.1467L52.2098 70.2521V65.1372C52.2104 65.0752 52.1913 65.0146 52.1553 64.9645C52.1047 64.9058 52.0377 64.8639 51.9632 64.8445C51.8441 64.8076 51.7217 64.7825 51.5977 64.7694C51.2101 64.7326 50.8199 64.7326 50.4323 64.7694C50.3069 64.7822 50.1831 64.8073 50.0625 64.8445C49.9871 64.8647 49.919 64.9063 49.8662 64.9645C49.8272 65.0134 49.8062 65.0744 49.8067 65.1372V76.4481C49.8059 76.511 49.827 76.5721 49.8662 76.6208C49.9193 76.6799 49.9871 76.7234 50.0625 76.7468C50.1826 76.7866 50.3066 76.813 50.4323 76.8254C50.8199 76.8622 51.2101 76.8622 51.5977 76.8254C51.722 76.8127 51.8445 76.7863 51.9632 76.7468C52.0378 76.7242 52.1044 76.6805 52.1553 76.6208C52.1916 76.5708 52.2107 76.5101 52.2098 76.4481V70.7495L55.78 76.4481C55.8222 76.5348 55.8829 76.6109 55.9576 76.6708C56.0698 76.7471 56.1983 76.7948 56.3325 76.8098C56.6142 76.8475 56.8984 76.8631 57.1825 76.8565C57.39 76.8583 57.5974 76.8491 57.8039 76.8288C57.9358 76.8169 58.0661 76.7905 58.1924 76.7503C58.2685 76.7287 58.3358 76.683 58.3845 76.6199C58.4182 76.5657 58.4357 76.5027 58.4347 76.4386C58.4311 76.3703 58.417 76.303 58.393 76.2391C58.3236 76.0653 58.2429 75.8962 58.1516 75.7332L54.6145 70.3039L57.8592 65.9868C58.0111 65.7451 58.1145 65.5687 58.1695 65.4576C58.2223 65.3572 58.2514 65.2458 58.2545 65.1321C58.2548 65.0718 58.2353 65.0132 58.1992 64.9654C58.1467 64.9057 58.0786 64.8623 58.0028 64.8402C57.8796 64.8002 57.7525 64.7736 57.6237 64.7608C57.4232 64.7405 57.2217 64.7312 57.0202 64.7332" fill="#26489E"/>
<path d="M69.7273 75.8765C69.7876 76.0488 69.8336 76.2258 69.865 76.4058C69.8773 76.4569 69.877 76.5103 69.8641 76.5612C69.8512 76.6121 69.8261 76.659 69.791 76.6976C69.6884 76.7763 69.5634 76.8187 69.4349 76.8185C69.2648 76.8341 69.0302 76.8418 68.731 76.8418C68.4205 76.8418 68.1785 76.8372 68.0051 76.828C67.8708 76.8247 67.7373 76.8058 67.6072 76.7719C67.533 76.7545 67.4658 76.714 67.4151 76.6562C67.3739 76.597 67.3431 76.531 67.3242 76.4611L66.5285 74.0435H62.0879L61.3381 76.392C61.3182 76.4697 61.2857 76.5435 61.2421 76.6104C61.194 76.6757 61.1272 76.7243 61.0508 76.7495C60.9295 76.7897 60.8034 76.8129 60.6759 76.8185C60.5144 76.8318 60.3028 76.8381 60.041 76.8375C59.8213 76.8402 59.6017 76.8309 59.383 76.8099C59.2609 76.8073 59.1439 76.7594 59.0541 76.6752C59.0221 76.6329 58.9998 76.5839 58.9886 76.5319C58.9775 76.4798 58.9777 76.4258 58.9894 76.3739C59.0203 76.1974 59.0664 76.024 59.1272 75.8558L62.773 65.1994C62.8025 65.1083 62.8458 65.0223 62.9014 64.9447C62.9619 64.8717 63.0433 64.8195 63.1343 64.7954C63.2788 64.7558 63.4275 64.7341 63.5772 64.7306C63.7667 64.722 64.0166 64.7168 64.3269 64.7168C64.6865 64.7168 64.9729 64.722 65.1855 64.7306C65.3533 64.7338 65.5203 64.7555 65.6836 64.7954C65.7825 64.8178 65.8718 64.8716 65.9386 64.9491C65.9983 65.0336 66.0432 65.1279 66.0712 65.2279L69.7273 75.8765ZM64.2989 67.0696H64.2904L62.6175 72.175H65.9718L64.2989 67.0696Z" fill="#26489E"/>
<path d="M64.3273 64.8058C64.6835 64.8058 64.9716 64.811 65.1824 64.8196C65.3437 64.8231 65.5041 64.8439 65.661 64.8818C65.7425 64.899 65.8166 64.9419 65.8727 65.0044C65.9267 65.0833 65.9672 65.1708 65.9925 65.2634L69.6477 75.9086C69.7069 76.0771 69.7518 76.2504 69.7821 76.4266C69.7921 76.4641 69.7929 76.5036 69.7844 76.5415C69.776 76.5794 69.7585 76.6147 69.7336 76.6442C69.6979 76.6787 69.6163 76.7245 69.4284 76.7417C69.2584 76.7564 69.0289 76.7642 68.7322 76.7642C68.4356 76.7642 68.1823 76.7599 68.0105 76.7504C67.8833 76.7471 67.7567 76.7297 67.6331 76.6986C67.5763 76.6852 67.5245 76.6552 67.4844 76.6122C67.4484 76.5598 67.4219 76.5014 67.4062 76.4395L66.6105 74.022L66.5918 73.9633H62.0271L62.0084 74.0228L61.2578 76.3748C61.2396 76.4434 61.2109 76.5086 61.1728 76.5682C61.1343 76.6186 61.0814 76.6556 61.0214 76.6744C60.9077 76.7124 60.7892 76.7342 60.6695 76.7392C60.5123 76.7512 60.3066 76.7573 60.0413 76.7573C59.8251 76.7599 59.6089 76.7507 59.3936 76.7297C59.2924 76.729 59.1947 76.6916 59.1182 76.6243C59.0948 76.5911 59.0788 76.5531 59.0713 76.513C59.0639 76.4729 59.065 76.4316 59.0748 76.3921C59.1045 76.2207 59.1489 76.0522 59.2074 75.8887L62.8533 65.2332C62.8803 65.1504 62.9192 65.0721 62.9689 65.0009C63.0193 64.943 63.0856 64.9018 63.1593 64.8827C63.2981 64.8452 63.4408 64.8247 63.5843 64.8213C63.7714 64.8127 64.0221 64.8075 64.3298 64.8075L64.3273 64.8058ZM62.5031 72.2614H66.0928L66.0554 72.1475L64.3825 67.0421L64.3638 66.9834H64.2321L64.2125 67.0421L62.5396 72.1475L62.5031 72.2614ZM64.3298 64.7212C64.0196 64.7212 63.7697 64.7264 63.5801 64.735C63.4304 64.7384 63.2817 64.7602 63.1372 64.7998C63.0462 64.8239 62.9649 64.8761 62.9043 64.9491C62.8491 65.027 62.8058 65.1128 62.7759 65.2038L59.1301 75.8602C59.0693 76.0284 59.0232 76.2018 58.9924 76.3782C58.9807 76.4302 58.9804 76.4842 58.9916 76.5362C59.0027 76.5883 59.0251 76.6373 59.057 76.6796C59.1468 76.7637 59.2638 76.8117 59.386 76.8143C59.6046 76.8353 59.8243 76.8445 60.0439 76.8419C60.3057 76.8419 60.5174 76.8356 60.6789 76.8229C60.8063 76.8173 60.9325 76.794 61.0537 76.7538C61.1302 76.7289 61.1971 76.6803 61.245 76.6148C61.2886 76.5479 61.3211 76.4741 61.3411 76.3964L62.0908 74.0479H66.5323L67.3271 76.4655C67.346 76.5354 67.3768 76.6014 67.4181 76.6606C67.4689 76.7184 67.5359 76.7591 67.6102 76.7771C67.7404 76.8103 67.8738 76.8288 68.008 76.8324C68.1814 76.8416 68.4234 76.8462 68.7339 76.8462C69.0326 76.8462 69.2672 76.8384 69.4378 76.8229C69.6078 76.8074 69.7276 76.7676 69.7939 76.702C69.829 76.6634 69.8541 76.6165 69.867 76.5656C69.8799 76.5146 69.8802 76.4612 69.8679 76.4102C69.8366 76.2302 69.7905 76.0531 69.7302 75.8809L66.075 65.2349C66.0469 65.1349 66.0021 65.0405 65.9424 64.956C65.8756 64.8786 65.7863 64.8247 65.6874 64.8023C65.5241 64.7625 65.3571 64.7408 65.1892 64.7376C64.9767 64.729 64.6903 64.7238 64.3307 64.7238L64.3298 64.7212ZM62.6212 72.1777L64.2941 67.0723H64.3026L65.9755 72.1777H62.6212Z" fill="#26489E"/>
<path d="M10.8508 73.1846C10.8633 73.7585 10.7442 74.3275 10.5031 74.8467C10.2816 75.3109 9.95993 75.7184 9.56208 76.0391C9.14861 76.3668 8.6771 76.6109 8.1731 76.7583C7.62108 76.9228 7.04829 77.0043 6.473 77.0001C6.09158 77.0022 5.71081 76.9681 5.33564 76.8982C5.02095 76.8395 4.71097 76.7573 4.40824 76.6521C4.17607 76.572 3.95135 76.4711 3.7367 76.3508C3.5964 76.2744 3.46593 76.1807 3.34823 76.0719C3.26039 75.9755 3.20141 75.8557 3.17822 75.7265C3.13909 75.5107 3.12228 75.2914 3.12806 75.072C3.12806 74.8803 3.13402 74.7189 3.14592 74.5894C3.15412 74.4821 3.17407 74.3761 3.20542 74.2734C3.22352 74.2057 3.26183 74.1453 3.31508 74.1007C3.36125 74.066 3.41744 74.0478 3.47489 74.0489C3.6064 74.0674 3.7309 74.1204 3.83616 74.2026C4.02828 74.3263 4.22692 74.4393 4.43119 74.541C4.71207 74.6791 5.00415 74.7924 5.30419 74.8795C5.68612 74.9881 6.08154 75.0398 6.4781 75.0332C6.74369 75.0371 7.00838 75.001 7.26355 74.9261C7.47719 74.8645 7.67737 74.7622 7.85349 74.6248C8.01339 74.4967 8.14028 74.331 8.22326 74.1421C8.31096 73.9404 8.35475 73.7219 8.35161 73.5015C8.35812 73.2494 8.28087 73.0024 8.1323 72.8004C7.97329 72.595 7.77993 72.4196 7.56107 72.2823C7.3054 72.1199 7.038 71.9773 6.76117 71.8558C6.46309 71.7228 6.15537 71.5821 5.83802 71.4336C5.52052 71.2846 5.21248 71.1156 4.91571 70.9276C4.61916 70.7408 4.3499 70.5127 4.11582 70.2498C3.87384 69.9748 3.68058 69.6593 3.54459 69.3173C3.38845 68.9044 3.31393 68.4643 3.32528 68.0222C3.31591 67.4999 3.42467 66.9824 3.64319 66.5095C3.84279 66.0873 4.13331 65.716 4.49324 65.4233C4.86797 65.1263 5.29662 64.9071 5.75472 64.7783C6.25535 64.6336 6.77366 64.5618 7.29415 64.565C7.57559 64.5651 7.85662 64.5868 8.13485 64.6298C8.40035 64.6685 8.66282 64.7262 8.9203 64.8025C9.14285 64.8687 9.35998 64.9524 9.56973 65.0529C9.70479 65.1116 9.83077 65.1898 9.94375 65.2851C9.99246 65.3314 10.0343 65.3846 10.0679 65.4431C10.0929 65.4982 10.1111 65.5562 10.1223 65.6158C10.1395 65.7047 10.1503 65.7947 10.1546 65.8852C10.1605 65.9931 10.1631 66.1278 10.1631 66.2884C10.1631 66.468 10.1588 66.62 10.1495 66.7435C10.1431 66.8465 10.128 66.9487 10.1044 67.0491C10.0898 67.1141 10.0581 67.1738 10.0126 67.2218C9.96853 67.2609 9.91122 67.281 9.8528 67.2779C9.73789 67.2597 9.62858 67.2151 9.53318 67.1475C9.38697 67.0606 9.20705 66.9662 8.9934 66.8643C8.75437 66.7523 8.50711 66.6593 8.25386 66.5863C7.95366 66.4997 7.64277 66.4572 7.33071 66.4603C7.09869 66.4559 6.86746 66.4889 6.64557 66.5578C6.46645 66.6139 6.30004 66.7055 6.15594 66.8272C6.02735 66.939 5.92707 67.0806 5.86352 67.2399C5.79974 67.4022 5.76742 67.5755 5.76832 67.7502C5.76262 67.9982 5.83795 68.2411 5.98253 68.4409C6.14038 68.649 6.33566 68.8248 6.55801 68.959C6.81979 69.1236 7.09343 69.2679 7.37661 69.3907C7.68092 69.5237 7.99261 69.6644 8.31166 69.8129C8.63256 69.9634 8.94475 70.1323 9.24671 70.3189C9.5478 70.505 9.82164 70.7332 10.0602 70.9967C10.3037 71.2698 10.4984 71.5839 10.6357 71.9249C10.7899 72.3251 10.8644 72.7524 10.855 73.182" fill="#1B76FF"/>
<path d="M21.9198 76.4525C21.9199 76.5134 21.8988 76.5725 21.8603 76.6192C21.8072 76.6773 21.7392 76.7192 21.6639 76.74C21.5447 76.7766 21.4223 76.8015 21.2984 76.8143C21.1072 76.8346 20.9151 76.8438 20.7229 76.8419C20.5259 76.8438 20.329 76.8346 20.133 76.8143C20.0093 76.8022 19.8871 76.7773 19.7683 76.74C19.6942 76.7188 19.6273 76.6769 19.5754 76.6192C19.5371 76.5723 19.5164 76.5133 19.5167 76.4525V71.5975H15.0964V76.4525C15.0971 76.5127 15.0779 76.5713 15.042 76.6192C14.9915 76.6782 14.9245 76.7204 14.8499 76.74C14.7307 76.7767 14.6083 76.8016 14.4844 76.8143C14.0971 76.8511 13.7072 76.8511 13.3198 76.8143C13.1942 76.8018 13.0701 76.7769 12.9492 76.74C12.8738 76.7194 12.8058 76.6775 12.7529 76.6192C12.7143 76.5725 12.6933 76.5134 12.6934 76.4525V65.1097C12.6931 65.0485 12.7142 64.9892 12.7529 64.9422C12.8058 64.8842 12.8739 64.8426 12.9492 64.8222C13.0701 64.785 13.1942 64.7599 13.3198 64.7471C13.7072 64.7103 14.0971 64.7103 14.4844 64.7471C14.6084 64.7601 14.7308 64.7852 14.8499 64.8222C14.9244 64.8416 14.9914 64.8834 15.042 64.9422C15.0779 64.9904 15.0971 65.0493 15.0964 65.1097V69.5184H19.5167V65.1097C19.5162 65.0486 19.537 64.9893 19.5754 64.9422C19.6274 64.8847 19.6942 64.8432 19.7683 64.8222C19.887 64.7846 20.0092 64.7594 20.133 64.7471C20.329 64.7268 20.5259 64.7176 20.7229 64.7195C20.9151 64.7176 21.1072 64.7268 21.2984 64.7471C21.4223 64.7602 21.5447 64.7853 21.6639 64.8222C21.7391 64.8428 21.8072 64.8844 21.8603 64.9422C21.899 64.9892 21.9201 65.0485 21.9198 65.1097V76.4525Z" fill="#1B76FF"/>
<path d="M35.1311 70.6419C35.1444 71.5478 35.0212 72.4505 34.7656 73.3185C34.5478 74.0565 34.1771 74.7386 33.6784 75.319C33.188 75.8728 32.5766 76.3019 31.8933 76.5719C31.1837 76.8597 30.362 77.0036 29.4281 77.0036C28.5084 77.0036 27.7056 76.8813 27.0199 76.6366C26.3664 76.4137 25.7776 76.0295 25.3062 75.5185C24.85 75.0166 24.5075 74.3791 24.2785 73.606C24.0496 72.8329 23.9362 71.9171 23.9385 70.8586C23.9251 69.9708 24.047 69.0863 24.2998 68.2364C24.5181 67.503 24.8888 66.8258 25.387 66.2505C25.8787 65.6984 26.4898 65.2696 27.1721 64.9977C27.8816 64.707 28.7056 64.5631 29.644 64.566C30.54 64.566 31.3302 64.6866 32.0148 64.9277C32.6694 65.1493 33.2599 65.532 33.7336 66.0415C34.2178 66.5865 34.5738 67.236 34.7749 67.9411C35.0095 68.7049 35.1268 69.6069 35.1268 70.6471L35.1311 70.6419ZM32.6047 70.7774C32.6096 70.1999 32.5606 69.6231 32.4585 69.0549C32.3783 68.584 32.2091 68.1334 31.9604 67.7278C31.7297 67.3632 31.4068 67.0682 31.0254 66.8739C30.6349 66.6724 30.1475 66.572 29.5633 66.5726C28.979 66.5731 28.4854 66.686 28.0825 66.911C27.6953 67.1291 27.3662 67.4397 27.1236 67.8159C26.8698 68.2192 26.6946 68.6682 26.6076 69.1386C26.5045 69.6657 26.4538 70.202 26.4563 70.7394C26.4508 71.3322 26.4997 71.9242 26.6025 72.5077C26.682 72.9827 26.8496 73.438 27.0964 73.8495C27.323 74.2164 27.6471 74.5107 28.0315 74.6982C28.4219 74.8934 28.9124 74.9909 29.5029 74.9909C30.0934 74.9909 30.5867 74.8796 30.9828 74.6568C31.3727 74.4402 31.7027 74.1276 31.9426 73.7476C32.1964 73.3373 32.3717 72.8821 32.4594 72.4058C32.5621 71.8694 32.6125 71.3239 32.6098 70.7774" fill="#1B76FF"/>
<path d="M47.7871 70.6419C47.8001 71.5478 47.6768 72.4504 47.4216 73.3185C47.2038 74.0565 46.8331 74.7386 46.3344 75.319C45.8441 75.8728 45.2327 76.3019 44.5493 76.5719C43.8392 76.8597 43.0175 77.0036 42.0842 77.0036C41.1638 77.0036 40.3611 76.8813 39.676 76.6366C39.0224 76.4137 38.4336 76.0295 37.9623 75.5185C37.5055 75.0166 37.1629 74.3791 36.9346 73.606C36.7062 72.8329 36.5929 71.9171 36.5946 70.8586C36.5825 69.9706 36.7058 69.0861 36.9601 68.2364C37.1784 67.503 37.5491 66.8258 38.0473 66.2505C38.539 65.6984 39.1501 65.2696 39.8324 64.9977C40.5419 64.707 41.3659 64.5631 42.3043 64.566C43.1997 64.566 43.99 64.6866 44.6751 64.9277C45.3296 65.1491 45.9198 65.5318 46.3931 66.0415C46.8775 66.5865 47.2338 67.236 47.4352 67.9411C47.6698 68.7049 47.7871 69.6069 47.7871 70.6471V70.6419ZM45.265 70.7774C45.2695 70.1999 45.2205 69.6232 45.1188 69.0549C45.0386 68.584 44.8695 68.1334 44.6207 67.7278C44.3898 67.3633 44.0669 67.0685 43.6857 66.8739C43.2958 66.6724 42.8084 66.572 42.2236 66.5726C41.6387 66.5731 41.1451 66.686 40.7428 66.911C40.3554 67.1289 40.0263 67.4395 39.7839 67.8159C39.5298 68.2191 39.3544 68.6682 39.2671 69.1386C39.1646 69.6658 39.1143 70.2021 39.1166 70.7394C39.1111 71.3322 39.16 71.9242 39.2629 72.5077C39.3423 72.9827 39.5099 73.438 39.7567 73.8495C39.9833 74.2164 40.3074 74.5107 40.6918 74.6982C41.0817 74.8934 41.5722 74.9909 42.1632 74.9909C42.7543 74.9909 43.2476 74.8796 43.6432 74.6568C44.0329 74.44 44.3628 74.1274 44.6029 73.7476C44.8567 73.3373 45.032 72.8821 45.1197 72.4058C45.222 71.8693 45.2724 71.3239 45.2701 70.7774" fill="#1B76FF"/>
<path d="M58.4425 76.4241C58.4435 76.4882 58.426 76.5512 58.3923 76.6054C58.3436 76.6686 58.2763 76.7143 58.2002 76.7358C58.0739 76.7761 57.9436 76.8024 57.8117 76.8144C57.6052 76.8347 57.3978 76.8439 57.1903 76.842C56.9062 76.8487 56.622 76.8331 56.3403 76.7954C56.2062 76.7804 56.0776 76.7327 55.9654 76.6564C55.8908 76.5963 55.8302 76.5202 55.7878 76.4336L52.2176 70.735V76.4336C52.2185 76.4957 52.1994 76.5563 52.1632 76.6063C52.1122 76.666 52.0456 76.7098 51.971 76.7324C51.8524 76.7719 51.7298 76.7982 51.6055 76.8109C51.2179 76.8478 50.8277 76.8478 50.4401 76.8109C50.3144 76.7985 50.1904 76.7722 50.0703 76.7324C49.9949 76.709 49.9271 76.6655 49.874 76.6063C49.8348 76.5576 49.8137 76.4965 49.8145 76.4336V65.1228C49.814 65.06 49.835 64.9989 49.874 64.9501C49.9268 64.8919 49.9949 64.8502 50.0703 64.8301C50.1909 64.7929 50.3147 64.7677 50.4401 64.755C50.8277 64.7181 51.2179 64.7181 51.6055 64.755C51.7295 64.768 51.8519 64.7932 51.971 64.8301C52.0455 64.8495 52.1125 64.8913 52.1632 64.9501C52.1992 65.0002 52.2182 65.0608 52.2176 65.1228V70.2377L55.6815 65.1323C55.7202 65.0565 55.7727 64.9888 55.8362 64.9328C55.9065 64.8754 55.9875 64.8328 56.0742 64.8076C56.1964 64.772 56.3222 64.7503 56.4491 64.7429C56.6004 64.7308 56.7959 64.7239 57.0331 64.7239C57.2346 64.722 57.4361 64.7312 57.6366 64.7515C57.7654 64.7643 57.8925 64.7909 58.0157 64.831C58.0915 64.8531 58.1596 64.8965 58.2121 64.9561C58.2482 65.0039 58.2677 65.0625 58.2673 65.1228C58.2643 65.2365 58.2352 65.348 58.1823 65.4483C58.1257 65.5594 58.0223 65.7355 57.8721 65.9767L54.6274 70.2938L58.1645 75.7239C58.2558 75.887 58.3365 76.056 58.4059 76.2299C58.4299 76.2938 58.4439 76.361 58.4476 76.4293" fill="#1B76FF"/>
<path d="M69.7273 75.8765C69.7876 76.0488 69.8336 76.2258 69.865 76.4058C69.8773 76.4569 69.877 76.5103 69.8641 76.5612C69.8512 76.6121 69.8261 76.659 69.791 76.6976C69.6884 76.7763 69.5634 76.8187 69.4349 76.8185C69.2648 76.8341 69.0302 76.8418 68.731 76.8418C68.4205 76.8418 68.1785 76.8372 68.0051 76.828C67.8708 76.8247 67.7373 76.8058 67.6072 76.7719C67.533 76.7545 67.4658 76.714 67.4151 76.6562C67.3739 76.597 67.3431 76.531 67.3242 76.4611L66.5285 74.0435H62.0879L61.3381 76.392C61.3182 76.4697 61.2857 76.5435 61.2421 76.6104C61.194 76.6757 61.1272 76.7243 61.0508 76.7495C60.9295 76.7897 60.8034 76.8129 60.6759 76.8185C60.5144 76.8318 60.3028 76.8381 60.041 76.8375C59.8213 76.8402 59.6017 76.8309 59.383 76.8099C59.2609 76.8073 59.1439 76.7594 59.0541 76.6752C59.0221 76.6329 58.9998 76.5839 58.9886 76.5319C58.9775 76.4798 58.9777 76.4258 58.9894 76.3739C59.0203 76.1974 59.0664 76.024 59.1272 75.8558L62.773 65.1994C62.8025 65.1083 62.8458 65.0223 62.9014 64.9447C62.9619 64.8717 63.0433 64.8195 63.1343 64.7954C63.2788 64.7558 63.4275 64.7341 63.5772 64.7306C63.7667 64.722 64.0166 64.7168 64.3269 64.7168C64.6865 64.7168 64.9729 64.722 65.1855 64.7306C65.3533 64.7338 65.5203 64.7555 65.6836 64.7954C65.7825 64.8178 65.8718 64.8716 65.9386 64.9491C65.9983 65.0336 66.0432 65.1279 66.0712 65.2279L69.7273 75.8765ZM64.2989 67.0696H64.2904L62.6175 72.175H65.9718L64.2989 67.0696Z" fill="#1B76FF"/>
<path d="M40.4987 34.2451H35.293V40.2873H40.4987V34.2451Z" fill="#67B934"/>
<path d="M52.6777 6.04298V34.2441C52.6777 35.847 52.0508 37.3843 50.9349 38.5178C49.819 39.6513 48.3055 40.288 46.7273 40.288H40.4973V34.2441H42.5629C43.6388 34.245 44.6733 33.823 45.4497 33.0666C46.2261 32.3101 46.6843 31.2779 46.7282 30.186C46.7282 30.1273 46.7282 30.0694 46.7282 30.0133V10.2729C46.7282 9.15083 46.2893 8.07471 45.5082 7.28128C44.7271 6.48786 43.6676 6.04213 42.5629 6.04213H23.1283C22.0236 6.04213 20.9641 6.48786 20.183 7.28128C19.4019 8.07471 18.963 9.15083 18.963 10.2729C18.963 10.2729 18.963 25.5969 18.963 25.6539H13.0127V6.04298C13.0127 4.44002 13.6396 2.90272 14.7555 1.76926C15.8714 0.635799 17.3849 -0.000976562 18.963 -0.000976562H46.7273C48.3055 -0.000976562 49.819 0.635799 50.9349 1.76926C52.0508 2.90272 52.6777 4.44002 52.6777 6.04298Z" fill="#59AA47"/>
<path d="M32.7721 15.1125C32.7721 16.1086 32.4813 17.0823 31.9365 17.9106C31.3917 18.7388 30.6173 19.3843 29.7113 19.7655C28.8053 20.1467 27.8083 20.2464 26.8465 20.0521C25.8847 19.8578 25.0012 19.3781 24.3077 18.6738C23.6143 17.9694 23.1421 17.072 22.9507 16.0951C22.7594 15.1181 22.8576 14.1055 23.2329 13.1852C23.6082 12.2649 24.2437 11.4783 25.0591 10.9249C25.8745 10.3715 26.8331 10.0762 27.8138 10.0762C28.4649 10.0762 29.1097 10.2064 29.7113 10.4595C30.3128 10.7126 30.8594 11.0836 31.3199 11.5513C31.7803 12.019 32.1455 12.5742 32.3947 13.1852C32.6439 13.7962 32.7721 14.4511 32.7721 15.1125Z" fill="#59AA47"/>
<path d="M64.7943 24.9028H52.6785V30.1904H61.1501C62.1165 30.1907 63.0433 30.5807 63.7267 31.2748C64.41 31.9689 64.794 32.9103 64.7943 33.8919V51.1664C64.794 52.148 64.41 53.0894 63.7267 53.7835C63.0433 54.4776 62.1165 54.8677 61.1501 54.8679H44.1432C43.1767 54.8677 42.25 54.4776 41.5666 53.7835C40.8832 53.0894 40.4992 52.148 40.499 51.1664V33.8919C40.4992 32.9103 40.8832 31.9689 41.5666 31.2748C42.25 30.5807 43.1767 30.1907 44.1432 30.1904H46.7256C46.7256 30.1317 46.7256 30.0739 46.7256 30.0177V24.9063H40.4956C39.8119 24.9062 39.1349 25.0429 38.5032 25.3085C37.8715 25.5742 37.2976 25.9637 36.8141 26.4547C36.3306 26.9457 35.9471 27.5286 35.6854 28.1702C35.4237 28.8118 35.2891 29.4994 35.2891 30.1939V54.8705C35.2891 56.2731 35.8376 57.6182 36.814 58.61C37.7904 59.6018 39.1147 60.1589 40.4956 60.1589H64.79C65.4737 60.1589 66.1507 60.0222 66.7823 59.7564C67.414 59.4906 67.9879 59.101 68.4713 58.6099C68.9547 58.1189 69.3381 57.5358 69.5997 56.8942C69.8613 56.2526 69.9958 55.5649 69.9957 54.8705V30.1939C69.9957 28.7915 69.4472 27.4466 68.471 26.455C67.4947 25.4634 66.1706 24.9063 64.79 24.9063" fill="#1B76FF"/>
<path d="M52.7109 46.9313C52.7109 46.0604 52.9652 45.209 53.4416 44.4849C53.9179 43.7607 54.595 43.1963 55.3872 42.863C56.1793 42.5297 57.051 42.4425 57.892 42.6124C58.7329 42.7824 59.5054 43.2017 60.1117 43.8176C60.718 44.4334 61.1309 45.218 61.2981 46.0722C61.4654 46.9264 61.3796 47.8118 61.0514 48.6164C60.7233 49.421 60.1677 50.1088 59.4547 50.5926C58.7418 51.0765 57.9036 51.3347 57.0462 51.3347C55.8964 51.3347 54.7937 50.8708 53.9807 50.045C53.1677 49.2192 52.7109 48.0992 52.7109 46.9313Z" fill="#1B76FF"/>
<path d="M32.7488 34.2449V30.1868C32.7489 29.5915 32.6335 29.002 32.4093 28.452C32.1851 27.9019 31.8563 27.4022 31.4419 26.9812C31.0275 26.5603 30.5355 26.2264 29.994 25.9986C29.4525 25.7709 28.8721 25.6537 28.286 25.6538H7.45983C6.87374 25.6537 6.29337 25.7709 5.75187 25.9986C5.21037 26.2264 4.71836 26.5603 4.30393 26.9812C3.8895 27.4022 3.56079 27.9019 3.33655 28.452C3.11232 29.002 2.99696 29.5915 2.99707 30.1868V51.3406C2.99707 52.5428 3.46725 53.6958 4.30418 54.5459C5.14111 55.396 6.27623 55.8736 7.45983 55.8736H28.286C29.4696 55.8736 30.6047 55.396 31.4417 54.5459C32.2786 53.6958 32.7488 52.5428 32.7488 51.3406V40.2888H28.286V48.1675C28.286 49.0089 27.957 49.8157 27.3713 50.4106C26.7856 51.0055 25.9912 51.3398 25.1629 51.3398H10.5855C9.75716 51.3398 8.9628 51.0055 8.37711 50.4106C7.79141 49.8157 7.46237 49.0089 7.46237 48.1675V33.359C7.46237 32.5176 7.79139 31.7106 8.37705 31.1156C8.96272 30.5206 9.75708 30.1862 10.5855 30.1859H25.1629C25.9913 30.1862 26.7857 30.5206 27.3713 31.1156C27.957 31.7106 28.286 32.5176 28.286 33.359V34.2449H32.7488Z" fill="#FDAC42"/>
<path d="M35.2926 34.2451V40.2891H18.964C17.3859 40.2891 15.8724 39.6523 14.7565 38.5188C13.6406 37.3854 13.0137 35.8481 13.0137 34.2451V30.187H18.964C19.0079 31.2789 19.4661 32.3111 20.2425 33.0676C21.0189 33.824 22.0534 34.246 23.1293 34.2451H35.2926Z" fill="#67B934"/>
<path d="M14.1589 40.8188C14.8946 40.8182 15.614 41.0391 16.226 41.4538C16.838 41.8684 17.3152 42.4582 17.5972 43.1483C17.8792 43.8385 17.9534 44.5982 17.8102 45.3312C17.6671 46.0641 17.3132 46.7375 16.7932 47.2662C16.2733 47.7948 15.6106 48.1549 14.8891 48.301C14.1676 48.447 13.4197 48.3724 12.7399 48.0866C12.0602 47.8008 11.4791 47.3166 11.0704 46.6953C10.6616 46.0741 10.4434 45.3436 10.4434 44.5963C10.4434 43.5945 10.8352 42.6337 11.5326 41.9252C12.2301 41.2168 13.176 40.8188 14.1623 40.8188" fill="#FDAC42"/>
</g>
<path d="M2.07725 89.4175C2.33584 89.1811 2.56782 88.9171 2.7691 88.6303C2.52072 88.409 2.2849 88.1739 2.06275 87.9263C1.90052 88.1116 1.6511 88.373 1.31445 88.7104C1.5505 88.9651 1.8055 89.2014 2.07725 89.4175Z" fill="#676767"/>
<path d="M4.26963 89.8431C4.23454 89.6395 4.19868 89.4333 4.16206 89.2246C4.12545 89.0159 4.09417 88.8123 4.06824 88.6138C3.50173 88.881 3.21848 89.249 3.21848 89.7179C3.2234 89.8127 3.24644 89.9058 3.28637 89.992C3.33137 90.0996 3.38935 90.2211 3.45876 90.3524C3.52818 90.4837 3.60522 90.6273 3.6876 90.7807C3.76998 90.9342 3.85009 91.0923 3.92484 91.2549C3.67081 91.4988 3.37148 91.6905 3.0438 91.8192C2.67364 91.9472 2.28346 92.0075 1.89196 91.9971C1.51819 91.9971 1.24206 91.9001 1.06357 91.7062C0.88507 91.5122 0.795566 91.2142 0.795058 90.812C0.801621 90.586 0.840408 90.3621 0.910242 90.147L0.537221 90.0561C0.400933 90.5738 0.33254 90.978 0.332031 91.2687C0.332031 91.8286 0.463227 92.2567 0.725631 92.553C0.988035 92.8492 1.36944 92.9961 1.86984 92.9935C2.31008 92.9986 2.74595 92.9057 3.146 92.7217C3.5121 92.5577 3.82802 92.2992 4.06137 91.9727C4.27797 91.6712 4.39458 91.3093 4.39472 90.938C4.39351 90.7671 4.38128 90.5965 4.35811 90.4272C4.3337 90.2379 4.30472 90.0431 4.26963 89.8431Z" fill="#676767"/>
<path d="M6.05505 85.0034C5.89761 85.0024 5.7417 85.0344 5.59737 85.0974C5.46627 85.1513 5.35233 85.24 5.26783 85.3539C5.19118 85.4634 5.15112 85.5944 5.15341 85.7281L5.37235 88.5853C5.44049 89.4033 5.49134 90.0875 5.52491 90.6377L6.06421 90.5682L6.10235 87.8431L6.1092 87.1559V86.2564L6.39449 86.0373C6.26583 85.7018 6.15269 85.3572 6.05505 85.0034Z" fill="#676767"/>
<path d="M9.76882 91.4287C9.67373 91.5305 9.56464 91.6466 9.44158 91.7769C9.31876 91.9098 9.19444 92.0334 9.06934 92.1503C9.2864 92.3923 9.52513 92.6138 9.78255 92.8123C10.0235 92.5924 10.2385 92.3457 10.4233 92.077C10.1543 91.8235 9.93613 91.6074 9.76882 91.4287Z" fill="#676767"/>
<path d="M11.1633 91.271C10.9448 91.525 10.7136 91.7679 10.4707 91.9987C10.6866 92.2398 10.9254 92.4592 11.1839 92.6538C11.4221 92.4333 11.6347 92.1866 11.8178 91.9185C11.5605 91.6726 11.3423 91.4568 11.1633 91.271Z" fill="#676767"/>
<path d="M11.6072 87.2119C11.4059 87.309 11.2248 87.4432 11.0732 87.6074C10.9207 87.7739 10.8444 87.9251 10.8444 88.0656C10.8466 88.1495 10.865 88.2322 10.8985 88.3091C10.9403 88.4101 10.9879 88.5085 11.0412 88.6039C11.1007 88.7115 11.167 88.8329 11.241 88.9643C11.315 89.0956 11.3898 89.2445 11.4638 89.4071C11.2924 89.481 11.0112 89.539 10.6201 89.5812C10.2524 89.6202 9.86952 89.6393 9.47591 89.6423C9.26757 89.6417 9.06243 89.5909 8.87787 89.4942C8.80053 89.1623 8.704 88.8352 8.58877 88.5145C8.43316 88.064 8.32866 87.7263 8.27527 87.5013C8.08077 87.5937 7.9087 87.7273 7.77105 87.893C7.64927 88.0264 7.57871 88.1988 7.57195 88.3794C7.57846 88.5382 7.61713 88.6941 7.6856 88.8375C7.78504 89.0541 7.90188 89.2622 8.03497 89.4598C8.20203 89.7194 8.30807 89.8874 8.35155 89.9615C8.39503 90.0356 8.44231 90.1241 8.49113 90.2264C8.3873 90.5838 8.16984 90.8974 7.87174 91.1198C7.56482 91.3336 7.19742 91.4431 6.82365 91.4321C6.53696 91.4292 6.25174 91.3905 5.97465 91.3168L5.83887 91.665C6.04385 91.843 6.26271 92.0044 6.49336 92.1476C6.71355 92.2835 6.87602 92.3514 6.98078 92.3514C7.21029 92.3538 7.43793 92.3098 7.65011 92.2222C7.86229 92.1345 8.05467 92.005 8.21577 91.8414C8.56462 91.5008 8.78989 91.045 8.8916 90.4738C9.04018 90.5572 9.20426 90.6091 9.37369 90.6265C9.38164 90.6312 9.39049 90.634 9.39963 90.6349C9.42023 90.6349 9.44081 90.6349 9.46141 90.6349C9.482 90.6349 9.49422 90.6349 9.511 90.6349C9.52778 90.6349 9.52397 90.6304 9.53083 90.6288C9.90737 90.6221 10.2826 90.5822 10.6521 90.5097C11.0702 90.4257 11.3964 90.313 11.6308 90.1715C11.849 89.7347 11.958 89.398 11.958 89.1613C11.958 88.9826 11.878 88.5145 11.7178 87.7571L11.6072 87.2119Z" fill="#676767"/>
<path d="M13.1523 85.0955C13.0215 85.1496 12.9078 85.2383 12.8235 85.352C12.7468 85.4615 12.7068 85.5925 12.7091 85.7262L12.928 88.5834C12.9951 89.4014 13.046 90.0856 13.0806 90.6358L13.6206 90.5663L13.6588 87.8412L13.6656 87.154V86.2545L13.9509 86.0354C13.8238 85.6984 13.7114 85.3533 13.6138 85C13.455 84.9991 13.2977 85.0316 13.1523 85.0955Z" fill="#676767"/>
<path d="M24.3282 86.7515C24.5873 86.5155 24.8193 86.2515 25.0201 85.9642C24.7719 85.7428 24.5361 85.5077 24.3137 85.2603C24.152 85.4461 23.9026 85.7074 23.5654 86.0444C23.8015 86.2991 24.0565 86.5354 24.3282 86.7515Z" fill="#676767"/>
<path d="M24.9871 87.2119C24.7859 87.309 24.6047 87.4432 24.4531 87.6074C24.3006 87.7739 24.2243 87.9251 24.2243 88.0656C24.2265 88.1495 24.2449 88.2322 24.2785 88.3091C24.3203 88.4101 24.3679 88.5085 24.4211 88.6039C24.4806 88.7115 24.547 88.8329 24.6217 88.9643C24.6965 89.0956 24.7697 89.2445 24.8445 89.4071C24.628 89.4911 24.4025 89.549 24.1724 89.5797C23.9112 89.62 23.6473 89.641 23.3829 89.6423C23.2058 89.644 23.0289 89.6276 22.8551 89.5934C22.7029 89.5609 22.5574 89.5025 22.4249 89.4209L22.5263 89.0933C22.6397 88.7126 22.7325 88.4326 22.8047 88.2534C22.7172 88.1985 22.6159 88.1694 22.5126 88.1694C22.4202 88.168 22.3295 88.1946 22.2525 88.2458C22.1857 88.2893 22.1328 88.351 22.0999 88.4237L21.9855 88.723C21.8049 89.2437 21.6819 89.5573 21.6163 89.6637C21.4225 89.7244 21.2205 89.755 21.0175 89.7545H20.9168L20.7879 89.7477L20.9061 89.3659C21.0663 88.8406 21.1789 88.4967 21.244 88.3343C21.1575 88.273 21.0541 88.2402 20.9481 88.2404C20.8581 88.2386 20.7696 88.2639 20.6941 88.313C20.626 88.355 20.5727 88.4172 20.5415 88.4909L20.4301 88.7764C20.3287 89.0662 20.2113 89.3502 20.0785 89.627C19.9891 89.6568 19.8979 89.6805 19.8054 89.698C19.6975 89.7132 19.5886 89.7195 19.4797 89.7171L19.1212 89.7034C19.0261 89.1689 18.9671 88.8077 18.9442 88.6199C18.3777 88.8872 18.0944 89.2552 18.0944 89.724C18.0993 89.8189 18.1224 89.9119 18.1623 89.9981C18.2073 90.1058 18.2653 90.2272 18.3347 90.3585C18.4041 90.4899 18.4812 90.6334 18.5636 90.7869C18.6459 90.9404 18.726 91.0984 18.8008 91.2611C18.5468 91.5049 18.2474 91.6966 17.9198 91.8253C17.5496 91.9534 17.1594 92.0136 16.7679 92.0032C16.3942 92.0032 16.118 91.9062 15.9395 91.7123C15.761 91.5184 15.6715 91.2203 15.671 90.8182C15.6776 90.5921 15.7164 90.3682 15.7862 90.1531L15.4132 90.0623C15.2769 90.58 15.2085 90.9841 15.208 91.2748C15.208 91.8347 15.3392 92.2628 15.6016 92.5591C15.864 92.8554 16.2454 93.0022 16.7458 92.9997C17.1858 93.0048 17.6215 92.9119 18.0212 92.7278C18.3876 92.5643 18.7036 92.3057 18.9366 91.9788C19.1537 91.6776 19.2706 91.3156 19.2707 90.9442L19.2569 90.7037L19.4347 90.7174C19.6328 90.7175 19.8306 90.7006 20.0258 90.667C20.1707 90.6497 20.3112 90.6065 20.4408 90.5395C20.5567 90.5864 20.6751 90.6267 20.7955 90.6601C20.9004 90.6933 21.0091 90.7126 21.1189 90.7174C21.3217 90.7215 21.5242 90.6999 21.7216 90.6533C21.8843 90.6095 21.9875 90.5543 22.0313 90.4876C22.0902 90.3745 22.1424 90.2579 22.1876 90.1386C22.3417 90.2952 22.527 90.4175 22.7315 90.4975C22.9233 90.5807 23.1284 90.6288 23.3372 90.6395C23.3425 90.6395 23.3448 90.6441 23.3501 90.6441C23.3555 90.6441 23.3707 90.6441 23.3814 90.6441H23.4203C23.4287 90.6441 23.4318 90.6395 23.4386 90.638C23.9936 90.6251 24.5356 90.4672 25.0108 90.1799C25.2289 89.7431 25.338 89.4064 25.338 89.1697C25.338 88.991 25.2579 88.5229 25.0977 87.7655L24.9871 87.2119Z" fill="#676767"/>
<path d="M26.9974 85.0034C26.84 85.0025 26.6841 85.0345 26.5397 85.0974C26.4087 85.1511 26.295 85.2398 26.211 85.3539C26.1341 85.4633 26.0938 85.5943 26.0958 85.7281L26.3155 88.5853C26.3826 89.4033 26.4335 90.0875 26.468 90.6377L27.0073 90.5682L27.0455 87.8431L27.0531 87.1559V86.2564L27.3384 86.0373C27.2092 85.7018 27.0956 85.3572 26.9974 85.0034Z" fill="#676767"/>
<path d="M32.0423 86.7368C32.3016 86.5006 32.5341 86.2367 32.7357 85.9496C32.4871 85.7283 32.251 85.4933 32.0286 85.2456C31.8659 85.4309 31.6164 85.692 31.2803 86.029C31.516 86.284 31.7707 86.5206 32.0423 86.7368Z" fill="#676767"/>
<path d="M34.97 87.8081C35.2297 87.5721 35.4623 87.3078 35.6634 87.0201C35.4146 86.7993 35.1786 86.5645 34.9563 86.3169C34.7936 86.5027 34.5441 86.7638 34.208 87.1003C34.4437 87.3553 34.6984 87.5919 34.97 87.8081Z" fill="#676767"/>
<path d="M38.9947 85.2928C38.7003 85.418 38.4363 85.5349 38.2029 85.641C37.9695 85.7471 37.4554 85.9991 36.6598 86.3939C36.6293 86.4122 36.5835 86.5649 36.527 86.852C36.4811 87.049 36.452 87.2495 36.4401 87.4514C36.44 87.524 36.4557 87.5958 36.4862 87.6617C36.5166 87.7276 36.561 87.7861 36.6163 87.8332C36.7243 87.9365 36.8681 87.994 37.0175 87.9935C37.0896 87.9928 37.1612 87.9822 37.2304 87.9622C37.5983 88.165 37.9451 88.4042 38.2655 88.6761C38.5523 88.925 38.7468 89.1541 38.849 89.3633C38.5477 89.4826 38.2301 89.5555 37.907 89.5794C37.5218 89.6199 37.0015 89.6405 36.3516 89.6413C36.0464 89.6428 35.7456 89.5688 35.4759 89.4259C35.5156 89.345 35.6397 89.0582 35.8482 88.5654C35.7789 88.5059 35.6948 88.4663 35.6048 88.4507C35.5148 88.4351 35.4223 88.4441 35.3371 88.4768C35.2825 88.4983 35.2344 88.5336 35.1975 88.5792C35.0948 88.742 35.0018 88.9108 34.9191 89.0846C34.8237 89.2725 34.7367 89.39 34.6582 89.4466C34.4675 89.5771 34.1944 89.642 33.8366 89.642H33.5513L33.1959 89.6351C33.3138 89.4457 33.3777 89.2276 33.3805 89.0045C33.377 88.7431 33.3269 88.4845 33.2325 88.2409C33.1505 88.0033 33.0236 87.7838 32.8587 87.5942C32.7062 87.4292 32.5536 87.3468 32.4056 87.3468C32.1531 87.3468 31.8961 87.4445 31.6367 87.64C31.3759 87.8356 31.1589 88.0837 30.9998 88.3684C30.9445 88.4993 30.9093 88.6378 30.8953 88.7792C30.8692 88.9334 30.8541 89.0894 30.8503 89.2457C30.8521 89.386 30.8942 89.5228 30.9715 89.6397L30.7732 89.6435H30.4551C30.2343 89.6473 30.0162 89.5947 29.8212 89.4908C29.7443 89.1589 29.6477 88.8318 29.5321 88.5112C29.3765 88.0607 29.272 87.723 29.2186 87.498C29.0243 87.5905 28.8522 87.7242 28.7144 87.8897C28.5934 88.0235 28.5232 88.1957 28.5161 88.376C28.5223 88.5348 28.5607 88.6907 28.629 88.8342C28.7287 89.0506 28.8455 89.2587 28.9783 89.4565C29.1462 89.7161 29.2514 89.8841 29.2957 89.9581C29.3399 90.0322 29.3864 90.1208 29.4353 90.2231C29.3309 90.5803 29.1132 90.8939 28.8151 91.1164C28.5085 91.3302 28.1413 91.4397 27.7678 91.4287C27.4808 91.4258 27.1954 91.3871 26.918 91.3134L26.7822 91.6616C26.9872 91.8397 27.2061 92.001 27.4367 92.1442C27.6574 92.2801 27.8199 92.3481 27.9241 92.3481C28.1538 92.3505 28.3816 92.3065 28.5939 92.2189C28.8062 92.1313 28.9987 92.0017 29.1599 91.838C29.5077 91.4975 29.7328 91.0416 29.835 90.4705C29.9996 90.564 30.1837 90.6181 30.3728 90.6285C30.3789 90.6285 30.3811 90.6339 30.388 90.6339H30.4323H30.4551C30.4551 90.6339 30.4551 90.6339 30.462 90.6339C31.1653 90.6278 31.7183 90.5384 32.115 90.3613C32.5727 90.5377 33.1455 90.627 33.8298 90.6339C33.8336 90.6339 33.8343 90.6339 33.8382 90.6339H33.9106C33.9144 90.6339 33.916 90.6339 33.9198 90.6339C34.0538 90.6321 34.1876 90.6217 34.3203 90.6026C34.456 90.5822 34.5886 90.5453 34.7154 90.4926C34.8219 90.4491 34.9158 90.3796 34.9885 90.2903C35.0468 90.2171 35.1008 90.1407 35.1502 90.0612C35.5011 90.4124 35.8695 90.5957 36.2555 90.6239C36.2663 90.6315 36.279 90.6357 36.2921 90.6362H36.3501H36.3615H36.3669C36.8973 90.6413 37.4267 90.587 37.9451 90.4743C38.4028 90.3649 38.7387 90.2068 38.9528 90.0001C39.0561 89.9071 39.1386 89.7932 39.1948 89.6659C39.2509 89.5387 39.2795 89.4009 39.2785 89.2618C39.2785 88.9925 39.1712 88.7049 38.9566 88.399C38.7226 88.0751 38.4297 87.7984 38.0931 87.5835C37.735 87.3469 37.3404 87.171 36.9252 87.0627C37.3178 86.9538 37.6542 86.85 37.9344 86.7512C38.2146 86.6524 38.4979 86.5405 38.7842 86.4152C39.0695 86.2895 39.2808 86.1907 39.4181 86.119C39.5505 86.0505 39.6617 85.9473 39.74 85.8204C39.8155 85.7012 39.8557 85.563 39.8559 85.4218C39.8595 85.3445 39.8468 85.2674 39.8187 85.1953C39.7906 85.1232 39.7476 85.0578 39.6927 85.0034C39.5223 85.0716 39.2897 85.1681 38.9947 85.2928ZM32.0921 89.6695C31.7874 89.5828 31.5142 89.4096 31.3057 89.1709C31.4529 88.9573 31.6261 88.7629 31.8213 88.5921C31.9571 88.4656 32.1334 88.3917 32.3187 88.3837C32.4097 88.3837 32.516 88.4748 32.6375 88.657C32.7604 88.8426 32.8527 89.0468 32.9106 89.2618C32.6714 89.4569 32.3918 89.5962 32.0921 89.6695Z" fill="#676767"/>
<path d="M44.1034 87.0062C44.2806 86.911 44.4629 86.8256 44.6495 86.7504C44.9154 86.6508 45.1863 86.5651 45.4611 86.4939L45.5031 85.9647C45.3423 86.005 45.1775 86.027 45.0118 86.0304C44.8314 86.0389 44.6546 85.9779 44.5176 85.8601C44.6335 85.6397 44.7693 85.5293 44.9249 85.5288C44.9416 85.5276 44.9583 85.5303 44.9738 85.5367C44.9893 85.543 45.0031 85.5529 45.0141 85.5654C45.0333 85.5898 45.0435 85.6199 45.0431 85.6509V85.6861L45.2415 85.7311C45.2651 85.6892 45.2843 85.6449 45.2987 85.599C45.3177 85.5453 45.3278 85.4888 45.3284 85.4318C45.3319 85.3231 45.294 85.2172 45.2224 85.1355C45.1849 85.0954 45.1392 85.0641 45.0883 85.0436C45.0374 85.0232 44.9827 85.0141 44.928 85.0172C44.794 85.0214 44.6642 85.0643 44.5542 85.1409C44.4265 85.2218 44.3196 85.3317 44.2422 85.4616C44.1654 85.5854 44.1245 85.7281 44.124 85.8739C44.1227 85.9607 44.1495 86.0456 44.2002 86.1159C44.2685 86.1997 44.3555 86.2661 44.4542 86.3099C44.3268 86.373 44.2046 86.4463 44.0889 86.529L44.1034 87.0062Z" fill="#676767"/>
<path d="M45.4238 87.2119C45.2225 87.3089 45.0413 87.4431 44.8898 87.6074C44.7373 87.7739 44.661 87.9251 44.661 88.0656C44.6632 88.1495 44.6816 88.2322 44.7151 88.3091C44.7569 88.4101 44.8046 88.5085 44.8578 88.6039C44.9173 88.7115 44.9836 88.8329 45.0584 88.9643C45.1332 89.0956 45.2064 89.2445 45.2811 89.4071C45.0647 89.4911 44.8391 89.549 44.6091 89.5797C44.336 89.622 44.0601 89.6435 43.7838 89.6438H43.4024C43.3686 89.2638 43.2783 88.8909 43.1346 88.5374C43.0229 88.2408 42.8503 87.9708 42.6281 87.7449C42.4654 87.574 42.2421 87.4739 42.0064 87.4662C41.8112 87.4662 41.6205 87.5547 41.432 87.7327C41.2279 87.9354 41.0694 88.1797 40.9675 88.4489C40.8463 88.7439 40.7841 89.0599 40.7844 89.3789C40.7744 89.6212 40.8382 89.8609 40.9675 90.0661C41.1052 90.2577 41.3032 90.3975 41.5297 90.4631C41.7839 90.5481 42.2063 90.6034 42.7967 90.6288C42.6308 90.8846 42.3978 91.0896 42.1231 91.2214C41.827 91.3668 41.501 91.4408 41.1712 91.4374C40.8612 91.4376 40.5524 91.3989 40.252 91.3221L40.1162 91.6703C40.3246 91.8477 40.5491 92.0051 40.7867 92.1407C41.0359 92.2852 41.2162 92.3573 41.3275 92.3568C41.7891 92.3582 42.2349 92.1888 42.5793 91.8811C42.9548 91.5566 43.2212 91.1241 43.3421 90.6426H43.8539C43.8616 90.6426 43.8654 90.638 43.8722 90.6365C44.4272 90.6236 44.9692 90.4657 45.4444 90.1783C45.6625 89.7416 45.7716 89.4049 45.7716 89.1681C45.7716 88.9895 45.6915 88.5214 45.5313 87.764L45.4238 87.2119ZM42.0598 89.5889C41.5076 89.514 41.2314 89.3224 41.2314 89.0139C41.2323 88.9414 41.2484 88.87 41.2788 88.8042C41.3092 88.7384 41.3531 88.6798 41.4076 88.6321C41.4624 88.5781 41.5274 88.5356 41.5988 88.5069C41.6701 88.4782 41.7465 88.4639 41.8233 88.4649C42.039 88.4649 42.2373 88.5667 42.4183 88.7703C42.5994 88.974 42.7456 89.2626 42.8569 89.6362C42.5906 89.6351 42.3245 89.6193 42.0598 89.5889Z" fill="#676767"/>
<path d="M50.2852 91.4287C50.1901 91.5305 50.081 91.6466 49.958 91.7769C49.8352 91.9098 49.7108 92.0334 49.585 92.1503C49.8025 92.3921 50.0415 92.6136 50.299 92.8123C50.5396 92.5922 50.7546 92.3455 50.9397 92.077C50.6681 91.8235 50.45 91.6074 50.2852 91.4287Z" fill="#676767"/>
<path d="M51.6828 91.271C51.4643 91.525 51.2331 91.7679 50.9902 91.9987C51.2061 92.2398 51.445 92.4592 51.7034 92.6538C51.9416 92.4333 52.1542 92.1866 52.3373 91.9185C52.0795 91.6726 51.8613 91.4568 51.6828 91.271Z" fill="#676767"/>
<path d="M52.1285 87.2118C51.9272 87.3089 51.7461 87.4431 51.5945 87.6073C51.4419 87.7738 51.3657 87.925 51.3657 88.0655C51.3676 88.1493 51.3857 88.2321 51.4191 88.309C51.4615 88.4098 51.5093 88.5082 51.5625 88.6038C51.6212 88.7114 51.6883 88.8328 51.7623 88.9642C51.8363 89.0955 51.9111 89.2444 51.9851 89.407C51.8137 89.4808 51.5325 89.5389 51.1414 89.5811C50.7745 89.6201 50.3916 89.6391 49.9972 89.6422C49.7485 89.6369 49.5563 89.5804 49.4259 89.4696C49.2954 89.3589 49.1322 89.0779 48.956 88.6435C48.7416 88.0871 48.5693 87.5153 48.4403 86.9331C48.2653 86.9816 48.1127 87.0896 48.0086 87.2385C47.9037 87.3966 47.8504 87.5833 47.856 87.773C47.856 87.9542 47.9295 88.2258 48.0765 88.5877C48.2173 88.9369 48.3843 89.2748 48.5761 89.5987C48.2439 89.6753 47.904 89.7138 47.5631 89.7132C47.3396 89.7193 47.1165 89.6936 46.9002 89.6369C46.7258 89.5864 46.5639 89.4997 46.425 89.3826C46.3451 89.4778 46.2826 89.5864 46.2404 89.7033C46.1975 89.8181 46.1753 89.9396 46.1748 90.0622C46.1748 90.4989 46.5506 90.7173 47.3022 90.7173C47.8316 90.7173 48.4151 90.5646 49.0529 90.2592C49.1719 90.379 49.3124 90.4754 49.4671 90.5432C49.6005 90.5947 49.7414 90.6244 49.8843 90.631C49.895 90.638 49.9074 90.6419 49.9202 90.6425C49.943 90.6425 49.9659 90.6425 49.9888 90.6425C50.0117 90.6425 50.0155 90.6425 50.0315 90.6425C50.0475 90.6425 50.0437 90.6379 50.0506 90.6364C50.4274 90.6296 50.8029 90.5898 51.1727 90.5172C51.5907 90.4333 51.9169 90.3205 52.1514 90.179C52.369 89.7422 52.4778 89.4055 52.4778 89.1688C52.4778 88.9901 52.398 88.5221 52.2383 87.7646L52.1285 87.2118Z" fill="#676767"/>
<path d="M55.5753 87.9634C55.3642 87.7471 55.1392 87.6391 54.9002 87.6397C54.7874 87.6436 54.6764 87.6698 54.5736 87.7167C54.4709 87.7636 54.3784 87.8303 54.3014 87.913C54.0975 88.1159 53.9412 88.3616 53.8437 88.6323C53.7299 88.9243 53.6715 89.2351 53.6713 89.5485C53.6713 89.9181 53.7674 90.2029 53.962 90.4037C54.1565 90.6045 54.4196 90.7053 54.7644 90.7053C54.9527 90.7043 55.1382 90.6601 55.3068 90.5763C55.5161 90.4685 55.7057 90.326 55.8674 90.1548V90.1861L55.8743 90.2212C55.7593 90.5827 55.5233 90.8934 55.2061 91.1009C54.8663 91.3226 54.4674 91.4362 54.0619 91.4269C53.7532 91.4268 53.4457 91.3881 53.1465 91.3116L53.0107 91.6598C53.2187 91.8373 53.4429 91.9948 53.6805 92.1301C53.9302 92.2747 54.1107 92.3467 54.2221 92.3462C54.5968 92.3467 54.963 92.2345 55.2732 92.024C55.6012 91.804 55.8645 91.5004 56.036 91.1444C56.2208 90.7758 56.3162 90.3687 56.3144 89.9563C56.3099 89.5795 56.2381 89.2067 56.1024 88.8552C55.9903 88.5246 55.8108 88.2209 55.5753 87.9634ZM54.9277 89.7891C54.6675 89.7891 54.47 89.7448 54.3289 89.657C54.2632 89.6178 54.2092 89.5617 54.1726 89.4946C54.136 89.4274 54.118 89.3517 54.1206 89.2752C54.1192 89.1112 54.1828 88.9533 54.2976 88.8361C54.3554 88.7745 54.4256 88.7259 54.5036 88.6935C54.5816 88.6612 54.6655 88.6457 54.7499 88.6483C54.8534 88.6519 54.9551 88.6768 55.0485 88.7215C55.1419 88.7662 55.2252 88.8296 55.293 88.9079C55.4861 89.1197 55.6331 89.3693 55.7248 89.6409C55.4693 89.7348 55.1998 89.7849 54.9277 89.7891Z" fill="#676767"/>
<path d="M65.9631 91.2007C65.8009 91.387 65.5515 91.6484 65.2148 91.9849C65.4512 92.2394 65.7062 92.476 65.9776 92.6927C66.2369 92.4564 66.4692 92.1922 66.6703 91.9047C66.4214 91.6836 66.1853 91.4486 65.9631 91.2007Z" fill="#676767"/>
<path d="M69.7852 86.8065C69.9993 87.0483 70.2372 87.2677 70.4953 87.4617C70.7347 87.2442 70.9482 86.9998 71.1315 86.7332C70.8162 86.4314 70.597 86.2153 70.474 86.085C70.1673 86.425 69.9377 86.6655 69.7852 86.8065Z" fill="#676767"/>
<path d="M69.339 86.2026C69.4477 86.2971 69.5629 86.3839 69.6838 86.4622C69.8282 86.3696 70.0347 86.1723 70.3032 85.8705C70.0614 85.6773 69.8421 85.4576 69.6494 85.2153C69.4492 85.4477 69.2339 85.6665 69.0049 85.8705C69.1066 85.9905 69.2183 86.1017 69.339 86.2026Z" fill="#676767"/>
<path d="M68.9485 87.6191C69.1872 87.4002 69.4018 87.1562 69.5885 86.8914C69.2986 86.6196 69.0805 86.4035 68.934 86.2432L68.7814 86.4066C68.5974 86.6102 68.414 86.796 68.2314 86.964C68.4508 87.203 68.6907 87.4222 68.9485 87.6191Z" fill="#676767"/>
<path d="M72.419 88.0561L72.3107 87.4987C72.1091 87.5953 71.9279 87.7295 71.7767 87.8942C71.6241 88.0599 71.5479 88.2118 71.5479 88.3523C71.5508 88.4415 71.5696 88.5294 71.6035 88.6119C71.6412 88.7102 71.6895 88.8194 71.7485 88.9395C71.8075 89.0596 71.8746 89.191 71.9499 89.3335C72.0256 89.476 72.1004 89.6287 72.1741 89.7916C71.8877 89.7629 71.603 89.7187 71.3213 89.6595C71.074 89.608 70.8342 89.5249 70.6081 89.4121L70.7019 89.1067C70.7758 88.8437 70.8629 88.5845 70.9628 88.3302C70.8753 88.2684 70.7708 88.2356 70.6638 88.2363C70.5731 88.2333 70.4838 88.2586 70.4082 88.3088C70.3415 88.3524 70.2886 88.4141 70.2557 88.4867L70.1473 88.7723C70.0477 89.0632 69.9293 89.3474 69.7926 89.6229C69.7022 89.6546 69.6096 89.6801 69.5157 89.6992C69.409 89.7127 69.3014 89.7183 69.1938 89.716C69.039 89.7178 68.8843 89.7086 68.7308 89.6885C68.8056 89.5236 68.876 89.3528 68.9421 89.1762C69.0082 88.9996 69.0736 88.8324 69.1382 88.6746C69.0632 88.6202 68.9736 88.5898 68.8811 88.5875C68.8094 88.5868 68.7391 88.6072 68.6789 88.6463C68.6194 88.6857 68.5694 88.7379 68.5325 88.799L68.4005 89.0281C68.3227 89.1752 68.2261 89.3115 68.1129 89.4335C68.023 89.5178 67.9117 89.5757 67.791 89.6007C67.6207 89.6343 67.4474 89.6499 67.2739 89.6473C66.9713 89.6476 66.6732 89.5737 66.4058 89.432C66.4454 89.3511 66.5695 89.0642 66.778 88.5715C66.7086 88.5119 66.6244 88.4722 66.5343 88.4566C66.4442 88.441 66.3516 88.4501 66.2662 88.4829C66.2117 88.5042 66.1638 88.5395 66.1274 88.5852C66.0244 88.7479 65.9314 88.9167 65.8489 89.0907C65.7536 89.2785 65.6666 89.3961 65.5881 89.4526C65.4057 89.5778 65.1441 89.6412 64.8085 89.6458C64.5503 89.6463 64.2934 89.6095 64.0457 89.5366C63.7823 89.4524 63.5346 89.3252 63.3126 89.1602C63.0526 88.9712 62.8054 88.7651 62.5727 88.5432C62.325 88.3091 61.9121 87.8654 61.3339 87.2123C61.9858 86.996 62.5132 86.8107 62.9159 86.6565C63.3187 86.5022 63.737 86.3195 64.1708 86.1082C64.3023 86.0463 64.4152 85.9507 64.498 85.8311C64.5824 85.714 64.6276 85.5731 64.6269 85.4287C64.6282 85.3504 64.613 85.2727 64.5824 85.2006C64.5518 85.1285 64.5064 85.0637 64.4492 85.0103C63.7698 85.2877 63.2053 85.5254 62.7558 85.7234C62.3062 85.9214 61.8323 86.1426 61.3339 86.3869C61.2074 86.4507 61.1046 86.5531 61.0402 86.6794C60.9708 86.8004 60.933 86.9369 60.9304 87.0764C60.9376 87.377 61.0144 87.6718 61.1546 87.9377C61.3484 88.302 61.5889 88.6393 61.8701 88.941C61.9573 89.1175 62.0337 89.299 62.099 89.4847C61.7071 89.5876 61.3042 89.642 60.8991 89.6466C60.5969 89.6453 60.2997 89.5693 60.0341 89.4251L60.0272 88.2195L60.0341 86.6061C59.8647 86.7079 59.7274 86.7952 59.6222 86.868C59.5161 86.9398 59.3636 87.0573 59.1645 87.2192L59.1813 87.3872L59.2057 87.5506C59.0243 87.6384 58.8487 87.7379 58.6801 87.8484C58.5165 87.9555 58.3596 88.0725 58.2102 88.1989C58.0945 88.2931 57.9896 88.3999 57.8975 88.5173C57.7946 88.6843 57.7138 88.8639 57.6572 89.0517C57.5641 89.3144 57.5176 89.4829 57.5176 89.5572C57.5176 89.655 57.6127 89.7715 57.8029 89.9069C57.9969 90.0448 58.2072 90.1579 58.4291 90.2437C58.5497 90.2829 58.6724 90.3148 58.7968 90.3391C58.9736 90.3687 59.1518 90.3891 59.3308 90.4002L59.6649 89.713L59.7412 90.0268C59.7641 90.1271 59.81 90.2207 59.8753 90.3002C59.9405 90.3797 60.0234 90.4429 60.1172 90.4849C60.3461 90.5913 60.5957 90.6453 60.848 90.643C60.848 90.643 60.8541 90.6468 60.8587 90.6468H60.8846H60.9319C60.941 90.6468 60.9456 90.6415 60.9533 90.6399C61.1817 90.6336 61.4081 90.5956 61.6261 90.5269C61.8856 90.4401 62.1347 90.3248 62.369 90.1833C62.4718 90.0197 62.5372 89.8354 62.5605 89.6435C62.7675 89.8436 62.9421 90.0031 63.0845 90.1223C63.2278 90.2423 63.387 90.342 63.5575 90.4185C63.741 90.4998 63.934 90.5578 64.1319 90.5911C64.3425 90.6254 64.5554 90.643 64.7688 90.6438C64.7688 90.6438 64.7734 90.6438 64.778 90.6438H64.8153H64.8512C64.8512 90.6438 64.8558 90.6438 64.8596 90.6438C64.9936 90.642 65.1274 90.6316 65.26 90.6125C65.3957 90.5921 65.5284 90.5551 65.6552 90.5025C65.7617 90.459 65.8556 90.3894 65.9283 90.3002C65.9866 90.227 66.0406 90.1505 66.09 90.0711C66.4409 90.4223 66.8101 90.6056 67.1953 90.6338C67.2061 90.6414 67.2188 90.6456 67.2319 90.646C67.2487 90.646 67.2639 90.646 67.2807 90.646H67.3013C67.3067 90.646 67.3082 90.646 67.3135 90.6422C67.4738 90.6399 67.6335 90.622 67.7903 90.5888C67.9293 90.5606 68.0643 90.5155 68.1923 90.4544C68.5615 90.631 68.8852 90.7193 69.1633 90.7193C69.3886 90.7195 69.6132 90.6967 69.8338 90.6514C70.0528 90.6063 70.1817 90.5521 70.2152 90.4895L70.3159 90.291C70.9473 90.5678 71.6282 90.7135 72.3175 90.7193C72.4184 90.5141 72.5006 90.3002 72.5631 90.0803C72.6228 89.9015 72.6585 89.7156 72.6692 89.5274C72.6621 89.3477 72.5787 88.8573 72.419 88.0561ZM59.0226 89.3396C58.8577 89.3122 58.6954 89.2708 58.5375 89.2159C58.3856 89.1603 58.2425 89.0832 58.1126 88.9868C58.2596 88.8428 58.4245 88.7181 58.603 88.6158C58.8372 88.4862 59.0832 88.3793 59.3376 88.2966C59.4022 88.6285 59.4836 88.9945 59.5817 89.3946C59.393 89.3892 59.205 89.3708 59.0188 89.3396H59.0226Z" fill="#676767"/>
<defs>
<clipPath id="clip0_2892_26933">
<rect width="67" height="77" fill="white" transform="translate(3)"/>
</clipPath>
</defs>
</svg>
