<svg width="156" height="44" viewBox="0 0 156 44" fill="none" xmlns="http://www.w3.org/2000/svg">
<path d="M130.468 24.5969V28.9367H134.265V24.5969H130.468Z" fill="#75B943"/>
<path d="M143.149 4.34082V24.5962C143.149 25.1662 143.037 25.7306 142.819 26.2572C142.601 26.7838 142.281 27.2622 141.878 27.6652C141.475 28.0682 140.996 28.3878 140.469 28.6059C139.943 28.8239 139.378 28.936 138.808 28.9359H134.264V24.5962H135.773C136.557 24.596 137.31 24.2932 137.875 23.7509C138.441 23.2085 138.775 22.4687 138.808 21.6858C138.808 21.6448 138.808 21.6028 138.808 21.5596V7.37843C138.808 6.57271 138.488 5.80008 137.918 5.23045C137.348 4.66082 136.575 4.34082 135.77 4.34082H121.591C120.785 4.34082 120.012 4.66082 119.442 5.23045C118.873 5.80008 118.552 6.57271 118.552 7.37843C118.552 7.37843 118.552 18.3851 118.552 18.4261H114.209V4.34082C114.209 3.18956 114.666 2.08547 115.48 1.27141C116.294 0.45735 117.399 3.34703e-06 118.55 3.34703e-06H138.804C139.374 -0.000705124 139.939 0.111066 140.467 0.328908C140.994 0.546751 141.473 0.866402 141.877 1.26957C142.28 1.67274 142.6 2.15151 142.819 2.67851C143.037 3.2055 143.149 3.77037 143.149 4.34082Z" fill="#59AA47"/>
<path d="M125.009 14.4724C127.007 14.4724 128.627 12.8528 128.627 10.8549C128.627 8.85702 127.007 7.2374 125.009 7.2374C123.011 7.2374 121.392 8.85702 121.392 10.8549C121.392 12.8528 123.011 14.4724 125.009 14.4724Z" fill="#59AA47"/>
<path d="M151.99 17.8873H143.151V21.6837H149.331C150.036 21.684 150.712 21.9643 151.211 22.4629C151.709 22.9616 151.99 23.6378 151.99 24.343V36.7499C151.99 37.455 151.709 38.1311 151.211 38.6296C150.712 39.1281 150.036 39.4081 149.331 39.4081H136.924C136.219 39.4078 135.543 39.1277 135.044 38.6292C134.546 38.1308 134.266 37.4548 134.266 36.7499V24.343C134.266 23.6379 134.546 22.9617 135.044 22.463C135.543 21.9643 136.219 21.684 136.924 21.6837H138.808C138.808 21.6428 138.808 21.6007 138.808 21.5576V17.8927H134.262C133.255 17.8927 132.289 18.2928 131.577 19.0049C130.865 19.7171 130.465 20.683 130.465 21.6902V39.4049C130.465 40.412 130.865 41.378 131.577 42.0901C132.289 42.8023 133.255 43.2024 134.262 43.2024H151.99C152.489 43.2025 152.983 43.1044 153.444 42.9136C153.904 42.7229 154.323 42.4432 154.676 42.0905C155.029 41.7379 155.309 41.3192 155.499 40.8584C155.69 40.3976 155.789 39.9037 155.789 39.4049V21.6848C155.789 21.186 155.69 20.6921 155.499 20.2313C155.309 19.7705 155.029 19.3518 154.676 18.9992C154.323 18.6465 153.904 18.3668 153.444 18.176C152.983 17.9852 152.489 17.8871 151.99 17.8873Z" fill="#1B76FF"/>
<path d="M146.336 36.8731C148.084 36.8731 149.5 35.4562 149.5 33.7083C149.5 31.9605 148.084 30.5435 146.336 30.5435C144.588 30.5435 143.171 31.9605 143.171 33.7083C143.171 35.4562 144.588 36.8731 146.336 36.8731Z" fill="#1B76FF"/>
<path d="M128.61 24.5952V21.6848C128.61 20.8214 128.267 19.9934 127.657 19.3829C127.046 18.7724 126.218 18.4295 125.355 18.4295H110.165C109.301 18.4295 108.473 18.7724 107.863 19.3829C107.252 19.9934 106.909 20.8214 106.909 21.6848V36.8771C106.909 37.7404 107.253 38.5682 107.863 39.1787C108.473 39.7891 109.301 40.1322 110.165 40.1324H125.357C126.22 40.1322 127.048 39.7891 127.658 39.1787C128.269 38.5682 128.612 37.7404 128.612 36.8771V28.9393H125.357V34.5984C125.357 35.2026 125.116 35.7821 124.689 36.2094C124.262 36.6366 123.682 36.8768 123.078 36.8771H112.443C111.839 36.8768 111.26 36.6366 110.832 36.2094C110.405 35.7821 110.165 35.2026 110.165 34.5984V23.9635C110.165 23.3593 110.405 22.7798 110.832 22.3525C111.26 21.9253 111.839 21.6851 112.443 21.6848H123.078C123.682 21.6851 124.262 21.9253 124.689 22.3525C125.116 22.7798 125.357 23.3593 125.357 23.9635V24.5995L128.61 24.5952Z" fill="#FDAC42"/>
<path d="M130.465 24.5967V28.9364H118.553C117.983 28.9365 117.418 28.8244 116.892 28.6064C116.365 28.3883 115.886 28.0687 115.483 27.6657C115.08 27.2627 114.761 26.7843 114.542 26.2577C114.324 25.7311 114.212 25.1667 114.212 24.5967V21.6863H118.555C118.588 22.4693 118.922 23.2093 119.488 23.7517C120.053 24.294 120.807 24.5968 121.59 24.5967H130.465Z" fill="#75B943"/>
<path d="M115.049 34.7437C116.548 34.7437 117.762 33.529 117.762 32.0306C117.762 30.5322 116.548 29.3175 115.049 29.3175C113.551 29.3175 112.336 30.5322 112.336 32.0306C112.336 33.529 113.551 34.7437 115.049 34.7437Z" fill="#FDAC42"/>
<path d="M68.6875 19.6783C68.7653 20.1541 68.7859 20.6376 68.7489 21.1184C68.7141 21.5424 68.6313 21.9612 68.5021 22.3666C68.3854 22.7295 68.2357 23.081 68.0547 23.4165C67.3253 24.7352 66.0807 25.5616 64.3208 25.8958C63.9652 25.9608 63.6044 25.9933 63.2429 25.9928L59.2168 26.0219H59.2115C58.3103 26.0269 57.5367 25.9249 56.8907 25.7157C56.2677 25.5232 55.699 25.1864 55.2307 24.7327C54.9684 24.4792 54.7534 24.1809 54.5958 23.852C54.4534 23.553 54.3422 23.2402 54.2638 22.9185C54.1929 22.6313 54.151 22.3377 54.1388 22.0422C54.1291 21.7641 54.1237 21.5237 54.1215 21.3243V21.0882C54.1215 21.0796 54.1215 20.9276 54.1291 20.6322C54.1366 20.3369 54.1398 19.9381 54.1398 19.4357C54.1398 19.1479 54.0568 7.59688 54.0547 7.25518L56.5102 7.23685L56.5986 19.1954C56.6029 19.7171 56.6029 20.1482 56.5986 20.4889C56.5986 20.8306 56.5986 21.0332 56.5986 21.1V21.3253C56.5906 21.6494 56.6054 21.9735 56.6428 22.2955C56.6712 22.5586 56.7928 22.8029 56.9856 22.9843C57.3628 23.3723 58.0707 23.5663 59.1091 23.5663H59.2168C59.2709 23.5671 59.3249 23.5708 59.3785 23.5771L60.5007 23.5685C60.9994 23.5685 61.5186 23.5588 62.0583 23.5394C62.5783 23.5251 63.0964 23.4714 63.6083 23.3788C64.0723 23.2972 64.5237 23.1559 64.9514 22.9584C65.3377 22.7825 65.6665 22.5012 65.9 22.1467C66.1669 21.7389 66.3281 21.271 66.3689 20.7853C66.4067 20.2479 66.3501 19.7079 66.2018 19.19C66.1084 18.8493 65.8791 18.4182 65.5141 17.8965C65.0971 17.3078 64.645 16.7448 64.1602 16.2106C63.6234 15.6113 63.0248 15.0004 62.3644 14.3781C61.704 13.7558 61.0307 13.1708 60.3444 12.6233C60.1429 12.4681 59.9838 12.2646 59.882 12.0315C59.7802 11.7985 59.739 11.5435 59.7621 11.2903C59.7852 11.037 59.8719 10.7937 60.0143 10.5829C60.1566 10.3722 60.3498 10.2008 60.5761 10.0847L60.616 10.0643L70.8293 5.59949L71.8059 7.86313L62.9087 11.6801C63.3194 12.0261 63.7711 12.413 64.2518 12.8421C64.7575 13.2915 65.2396 13.7668 65.6963 14.266C66.2738 14.8843 66.7994 15.5491 67.2679 16.2537C67.6469 16.8233 67.9689 17.4287 68.2294 18.0614C68.4428 18.5812 68.5965 19.1237 68.6875 19.6783Z" fill="#1B76FF"/>
<path d="M98.3386 15.4362L95.9727 15.4536L95.99 17.8195L98.356 17.8022L98.3386 15.4362Z" fill="#1B76FF"/>
<path d="M96.5906 18.9984L94.2246 19.0158L94.242 21.3818L96.6079 21.3644L96.5906 18.9984Z" fill="#1B76FF"/>
<path d="M100.138 18.9727L97.7725 18.99L97.7898 21.356L100.156 21.3387L100.138 18.9727Z" fill="#1B76FF"/>
<path d="M102.204 23.2044H82.1283C82.1019 22.6422 82.0345 22.0827 81.9267 21.5303C81.81 20.9398 81.649 20.359 81.4449 19.7927C81.2485 19.2535 81.0043 18.733 80.7151 18.2373C80.4461 17.771 80.1285 17.3345 79.7676 16.9351C78.7809 15.8874 77.703 15.3682 76.5338 15.3775C75.9972 15.3842 75.471 15.5266 75.0042 15.7915C74.4795 16.0914 74.0211 16.4948 73.6568 16.9772C73.291 17.466 72.9912 18.0009 72.7654 18.5682C72.5177 19.1804 72.3464 19.8209 72.2555 20.4751C72.1654 21.1126 72.1749 21.7602 72.2836 22.3948C72.3801 22.9989 72.6332 23.5671 73.0176 24.043C73.8799 25.09 75.2051 25.6649 76.993 25.7677C77.4468 25.8054 77.9082 25.8237 78.3814 25.827C78.8546 25.8302 79.2664 25.827 79.6113 25.8119C79.5024 26.4871 79.2483 27.1308 78.8665 27.6982C78.4061 28.3922 77.8368 29.0073 77.1806 29.5199C76.874 29.7674 76.5529 29.9963 76.2191 30.2055L77.9966 31.9571C78.1044 31.8731 78.2186 31.7857 78.3275 31.6984C79.2344 30.9644 80.0192 30.0912 80.6526 29.1114C81.2918 28.1229 81.8513 26.9426 82.0873 25.7246H102.203L102.204 23.2044ZM78.5636 23.3768C78.1324 23.3876 77.656 23.3768 77.1353 23.3499C76.9898 23.3434 76.8119 23.3251 76.6125 23.2971C76.4056 23.2683 76.201 23.2247 76.0003 23.1666C75.7942 23.1057 75.5948 23.0241 75.4052 22.923C75.221 22.8266 75.0599 22.6912 74.9331 22.5264C74.7777 22.3196 74.6819 22.0743 74.6561 21.8171C74.6127 21.4951 74.6127 21.1689 74.6561 20.8469C74.7011 20.4859 74.779 20.1298 74.8889 19.783C74.9931 19.4456 75.1334 19.1203 75.3072 18.8129C75.457 18.5458 75.6488 18.3045 75.8752 18.0982C76.059 17.9242 76.3002 17.8237 76.5532 17.8158C76.6948 17.8145 76.8354 17.8389 76.9682 17.888C77.1033 17.9347 77.2322 17.9977 77.352 18.0756C77.4705 18.1519 77.5826 18.2377 77.6872 18.3321C77.795 18.4259 77.8834 18.5132 77.9664 18.5941C78.1927 18.8582 78.3974 19.1401 78.5787 19.437C78.7884 19.7829 78.966 20.1473 79.109 20.5257C79.2726 20.9512 79.4016 21.3892 79.4949 21.8354C79.6019 22.3249 79.6683 22.8225 79.6932 23.3229C79.3709 23.3434 78.9947 23.3639 78.5636 23.3768Z" fill="#1B76FF"/>
<path d="M2.4666 38.2639C2.83201 37.9302 3.15983 37.5576 3.44425 37.1526C3.09326 36.8402 2.76002 36.5084 2.4461 36.1588C2.21686 36.4203 1.8644 36.7893 1.38867 37.2658C1.72224 37.6253 2.08258 37.9589 2.4666 38.2639Z" fill="#676767"/>
<path d="M5.56428 38.865C5.51469 38.5776 5.46401 38.2865 5.41227 37.9919C5.36053 37.6973 5.31634 37.4098 5.27969 37.1295C4.47915 37.5068 4.07889 38.0264 4.07889 38.6882C4.08583 38.8222 4.11839 38.9535 4.17481 39.0752C4.23841 39.2272 4.32033 39.3986 4.41843 39.584C4.51652 39.7694 4.62539 39.972 4.74181 40.1887C4.85822 40.4054 4.97142 40.6285 5.07705 40.8581C4.71807 41.2024 4.29509 41.473 3.83204 41.6547C3.30897 41.8355 2.75759 41.9205 2.20436 41.9058C1.67617 41.9058 1.28598 41.769 1.03374 41.4952C0.781507 41.2214 0.655028 40.8006 0.65431 40.2329C0.663584 39.9138 0.718394 39.5976 0.817078 39.294L0.289956 39.1658C0.0973665 39.8966 0.000718619 40.4672 0 40.8775C0 41.668 0.185394 42.2723 0.556201 42.6906C0.927009 43.1088 1.46597 43.3161 2.17309 43.3125C2.79521 43.3196 3.41114 43.1886 3.97647 42.9288C4.4938 42.6973 4.94023 42.3323 5.26998 41.8714C5.57607 41.4458 5.74084 40.9349 5.74105 40.4108C5.73934 40.1695 5.72206 39.9286 5.68931 39.6896C5.65481 39.4223 5.61386 39.1474 5.56428 38.865Z" fill="#676767"/>
<path d="M8.08675 32.0316C7.86426 32.0301 7.64394 32.0753 7.43999 32.1642C7.25473 32.2403 7.09373 32.3656 6.97432 32.5264C6.866 32.6809 6.80939 32.8658 6.81263 33.0545L7.12201 37.0882C7.2183 38.243 7.29016 39.2088 7.33759 39.9856L8.09969 39.8875L8.15359 36.0404L8.16327 35.0703V33.8005L8.56642 33.4911C8.38461 33.0175 8.22472 32.531 8.08675 32.0316Z" fill="#676767"/>
<path d="M13.3351 41.1024C13.2008 41.2461 13.0466 41.41 12.8727 41.5939C12.6992 41.7815 12.5235 41.9561 12.3467 42.121C12.6534 42.4626 12.9908 42.7755 13.3545 43.0556C13.695 42.7453 13.9988 42.397 14.26 42.0175C13.8799 41.6597 13.5716 41.3546 13.3351 41.1024Z" fill="#676767"/>
<path d="M15.3069 40.8799C14.9981 41.2385 14.6714 41.5813 14.3281 41.9071C14.6332 42.2475 14.9707 42.5573 15.336 42.832C15.6725 42.5206 15.973 42.1724 16.2318 41.7939C15.8681 41.4469 15.5598 41.1421 15.3069 40.8799Z" fill="#676767"/>
<path d="M15.9335 35.15C15.6491 35.2871 15.3932 35.4765 15.179 35.7084C14.9634 35.9433 14.8556 36.1568 14.8556 36.3551C14.8587 36.4736 14.8847 36.5904 14.9321 36.699C14.9912 36.8415 15.0585 36.9804 15.1337 37.1151C15.2177 37.267 15.3115 37.4384 15.4161 37.6238C15.5207 37.8092 15.6263 38.0194 15.7308 38.249C15.4887 38.3532 15.0913 38.4352 14.5387 38.4948C14.0191 38.5498 13.478 38.5767 12.9218 38.581C12.6274 38.5802 12.3375 38.5085 12.0767 38.3719C11.9674 37.9034 11.831 37.4416 11.6681 36.9889C11.4483 36.353 11.3006 35.8762 11.2251 35.5585C10.9503 35.6889 10.7071 35.8776 10.5126 36.1115C10.3405 36.2999 10.2408 36.5432 10.2313 36.7982C10.2405 37.0224 10.2951 37.2424 10.3919 37.4449C10.5324 37.7506 10.6975 38.0444 10.8856 38.3234C11.1216 38.6899 11.2715 38.9271 11.3329 39.0316C11.3944 39.1362 11.4612 39.2612 11.5302 39.4057C11.3835 39.9101 11.0762 40.3529 10.6549 40.6668C10.2212 40.9687 9.70201 41.1232 9.17384 41.1077C8.76872 41.1036 8.36567 41.049 7.9741 40.9449L7.78223 41.4365C8.07189 41.6878 8.38117 41.9156 8.70709 42.1177C9.01825 42.3096 9.24784 42.4055 9.39588 42.4055C9.72021 42.4088 10.0419 42.3468 10.3417 42.2231C10.6415 42.0993 10.9134 41.9165 11.1411 41.6855C11.634 41.2047 11.9524 40.5612 12.0961 39.7549C12.306 39.8726 12.5379 39.9459 12.7773 39.9705C12.7886 39.977 12.8011 39.981 12.814 39.9823C12.8431 39.9823 12.8722 39.9823 12.9013 39.9823C12.9304 39.9823 12.9477 39.9823 12.9714 39.9823C12.9951 39.9823 12.9897 39.9759 12.9994 39.9737C13.5315 39.9642 14.0617 39.9079 14.5839 39.8056C15.1746 39.687 15.6356 39.5278 15.9669 39.3281C16.2752 38.7115 16.4293 38.2361 16.4293 37.902C16.4293 37.6497 16.3162 36.9889 16.0898 35.9196L15.9335 35.15Z" fill="#676767"/>
<path d="M18.1166 32.1623C17.9318 32.2387 17.7712 32.3639 17.6521 32.5245C17.5437 32.6791 17.4871 32.8639 17.4904 33.0527L17.7997 37.0863C17.8946 38.2411 17.9665 39.2069 18.0153 39.9837L18.7785 39.8856L18.8324 36.0385L18.8421 35.0684V33.7986L19.2452 33.4892C19.0656 33.0135 18.9068 32.5263 18.7688 32.0276C18.5444 32.0263 18.3222 32.0722 18.1166 32.1623Z" fill="#676767"/>
<path d="M33.91 34.4996C34.276 34.1665 34.6039 33.7937 34.8876 33.3882C34.5369 33.0755 34.2037 32.7438 33.8895 32.3944C33.6609 32.6567 33.3085 33.0257 32.832 33.5014C33.1656 33.8609 33.5259 34.1946 33.91 34.4996Z" fill="#676767"/>
<path d="M34.8405 35.15C34.5561 35.2871 34.3001 35.4765 34.0859 35.7084C33.8703 35.9433 33.7625 36.1568 33.7625 36.3551C33.7657 36.4736 33.7916 36.5904 33.8391 36.699C33.8981 36.8415 33.9655 36.9804 34.0407 37.1151C34.1247 37.267 34.2185 37.4384 34.3241 37.6238C34.4298 37.8092 34.5332 38.0194 34.6389 38.249C34.3331 38.3675 34.0143 38.4493 33.6893 38.4926C33.3201 38.5496 32.9471 38.5791 32.5736 38.581C32.3233 38.5834 32.0733 38.5603 31.8277 38.512C31.6126 38.4661 31.407 38.3837 31.2197 38.2684L31.3631 37.806C31.5233 37.2685 31.6545 36.8732 31.7565 36.6203C31.6328 36.5428 31.4897 36.5017 31.3437 36.5017C31.2131 36.4997 31.0849 36.5373 30.9761 36.6095C30.8818 36.671 30.807 36.7581 30.7605 36.8607L30.5988 37.2832C30.3437 38.0184 30.1698 38.461 30.0771 38.6112C29.8033 38.6969 29.5179 38.7401 29.2309 38.7395H29.0887L28.9065 38.7298L29.0736 38.1908C29.2999 37.4492 29.4591 36.9638 29.5511 36.7345C29.4288 36.648 29.2827 36.6016 29.1329 36.602C29.0057 36.5994 28.8806 36.6351 28.7739 36.7044C28.6777 36.7637 28.6024 36.8515 28.5583 36.9555L28.4009 37.3587C28.2576 37.7678 28.0917 38.1687 27.904 38.5595C27.7778 38.6014 27.6489 38.6349 27.5181 38.6597C27.3657 38.6811 27.2118 38.6901 27.0579 38.6867L26.5512 38.6673C26.4169 37.9127 26.3335 37.4029 26.3012 37.1377C25.5006 37.515 25.1003 38.0345 25.1003 38.6964C25.1073 38.8303 25.1399 38.9617 25.1963 39.0833C25.2599 39.2353 25.3418 39.4067 25.4399 39.5921C25.538 39.7775 25.6469 39.9802 25.7633 40.1968C25.8797 40.4135 25.9929 40.6366 26.0985 40.8662C25.7395 41.2105 25.3166 41.4812 24.8535 41.6628C24.3304 41.8436 23.7791 41.9287 23.2258 41.914C22.6977 41.914 22.3074 41.7771 22.0552 41.5033C21.803 41.2295 21.6765 40.8087 21.6758 40.241C21.6851 39.9219 21.7398 39.6058 21.8385 39.3022L21.3114 39.1739C21.1189 39.9047 21.0222 40.4753 21.0215 40.8856C21.0215 41.6761 21.2069 42.2805 21.5777 42.6987C21.9485 43.1169 22.4875 43.3243 23.1946 43.3207C23.8163 43.3279 24.432 43.1968 24.9969 42.9369C25.5145 42.706 25.9611 42.3409 26.2904 41.8795C26.5972 41.4543 26.7624 40.9433 26.7625 40.4189L26.7431 40.0793L26.9943 40.0988C27.2742 40.0989 27.5537 40.0751 27.8296 40.0276C28.0343 40.0031 28.2329 39.9421 28.416 39.8476C28.5797 39.9138 28.7471 39.9707 28.9173 40.0179C29.0654 40.0648 29.2191 40.0919 29.3743 40.0988C29.6609 40.1045 29.947 40.0741 30.2259 40.0082C30.4558 39.9464 30.6017 39.8684 30.6635 39.7743C30.7468 39.6146 30.8206 39.4501 30.8845 39.2817C31.1022 39.5028 31.3641 39.6754 31.653 39.7883C31.924 39.9058 32.2139 39.9737 32.5089 39.9888C32.5165 39.9888 32.5197 39.9953 32.5272 39.9953C32.5348 39.9953 32.5563 39.9953 32.5714 39.9953H32.6264C32.6383 39.9953 32.6426 39.9888 32.6523 39.9866C33.4365 39.9685 34.2024 39.7455 34.8739 39.3399C35.1822 38.7233 35.3363 38.248 35.3363 37.9138C35.3363 37.6616 35.2231 37.0008 34.9968 35.9315L34.8405 35.15Z" fill="#676767"/>
<path d="M37.6814 32.0316C37.459 32.0302 37.2387 32.0754 37.0347 32.1642C36.8495 32.24 36.6888 32.3653 36.5701 32.5264C36.4615 32.6808 36.4045 32.8657 36.4073 33.0545L36.7178 37.0881C36.8126 38.243 36.8845 39.2088 36.9334 39.9856L37.6954 39.8875L37.7493 36.0404L37.7601 35.0703V33.8005L38.1633 33.4911C37.9807 33.0175 37.8201 32.531 37.6814 32.0316Z" fill="#676767"/>
<path d="M44.8102 34.4804C45.1766 34.147 45.5052 33.7744 45.7901 33.3691C45.4388 33.0567 45.1052 32.7249 44.7909 32.3753C44.5609 32.6369 44.2084 33.0055 43.7334 33.4812C44.0665 33.8412 44.4264 34.1752 44.8102 34.4804Z" fill="#676767"/>
<path d="M48.9479 35.9915C49.3149 35.6583 49.6435 35.2852 49.9278 34.8791C49.5762 34.5673 49.2426 34.2359 48.9285 33.8864C48.6986 34.1486 48.3461 34.5173 47.8711 34.9923C48.2042 35.3522 48.5641 35.6863 48.9479 35.9915Z" fill="#676767"/>
<path d="M54.6346 32.4401C54.2185 32.6169 53.8456 32.7818 53.5157 32.9316C53.1859 33.0815 52.4593 33.4372 51.3351 33.9945C51.2919 34.0203 51.2273 34.2359 51.1475 34.6412C51.0826 34.9193 51.0415 35.2024 51.0246 35.4874C51.0245 35.5899 51.0467 35.6912 51.0897 35.7843C51.1327 35.8774 51.1955 35.96 51.2736 36.0264C51.4263 36.1722 51.6295 36.2534 51.8406 36.2527C51.9424 36.2517 52.0436 36.2368 52.1414 36.2085C52.6613 36.4949 53.1514 36.8325 53.6041 37.2164C54.0094 37.5678 54.2843 37.8912 54.4287 38.1865C54.0029 38.3549 53.5541 38.4578 53.0975 38.4916C52.5531 38.5487 51.818 38.5778 50.8996 38.5789C50.4683 38.581 50.0433 38.4766 49.6621 38.2749C49.7182 38.1606 49.8935 37.7557 50.1882 37.0601C50.0902 36.9761 49.9714 36.9201 49.8443 36.8981C49.7171 36.8761 49.5864 36.8889 49.4659 36.935C49.3888 36.9653 49.3209 37.0151 49.2687 37.0795C49.1236 37.3094 48.9922 37.5477 48.8752 37.7931C48.7405 38.0582 48.6176 38.2242 48.5066 38.304C48.2371 38.4883 47.8512 38.58 47.3456 38.58H46.9425L46.4402 38.5703C46.6068 38.3029 46.6971 37.9949 46.701 37.6799C46.6961 37.311 46.6253 36.9459 46.4919 36.602C46.376 36.2666 46.1967 35.9566 45.9637 35.689C45.7481 35.4561 45.5326 35.3397 45.3234 35.3397C44.9667 35.3397 44.6034 35.4777 44.2369 35.7536C43.8684 36.0298 43.5617 36.3801 43.3368 36.782C43.2587 36.9668 43.2089 37.1623 43.1891 37.3619C43.1523 37.5796 43.131 37.7997 43.1256 38.0205C43.1282 38.2185 43.1877 38.4116 43.2969 38.5767L43.0167 38.5821H42.5672C42.2551 38.5874 41.9469 38.5132 41.6714 38.3665C41.5627 37.8979 41.4262 37.4361 41.2629 36.9836C41.043 36.3476 40.8953 35.8708 40.8199 35.5531C40.5452 35.6838 40.3021 35.8725 40.1074 36.1061C39.9363 36.295 39.8371 36.5381 39.8271 36.7928C39.8358 37.0169 39.8901 37.237 39.9866 37.4395C40.1276 37.745 40.2926 38.0388 40.4803 38.318C40.7175 38.6845 40.8662 38.9217 40.9287 39.0262C40.9912 39.1308 41.057 39.2558 41.126 39.4003C40.9785 39.9046 40.6709 40.3473 40.2496 40.6614C39.8163 40.9632 39.2975 41.1178 38.7696 41.1023C38.3641 41.0982 37.9608 41.0435 37.5688 40.9395L37.377 41.4311C37.6666 41.6824 37.9759 41.9102 38.3018 42.1123C38.6137 42.3042 38.8433 42.4001 38.9906 42.4001C39.3151 42.4035 39.637 42.3415 39.937 42.2178C40.237 42.0941 40.509 41.9112 40.7369 41.6801C41.2284 41.1993 41.5464 40.5558 41.6908 39.7495C41.9235 39.8815 42.1836 39.9579 42.4508 39.9726C42.4594 39.9726 42.4626 39.9802 42.4723 39.9802H42.5349H42.5672C42.5672 39.9802 42.5672 39.9802 42.5769 39.9802C43.5707 39.9716 44.3522 39.8454 44.9127 39.5954C45.5595 39.8444 46.3691 39.9705 47.336 39.9802C47.3413 39.9802 47.3424 39.9802 47.3478 39.9802H47.4502C47.4556 39.9802 47.4578 39.9802 47.4631 39.9802C47.6525 39.9777 47.8416 39.963 48.0291 39.936C48.2208 39.9072 48.4083 39.8551 48.5874 39.7808C48.738 39.7194 48.8707 39.6212 48.9733 39.4951C49.0557 39.3919 49.132 39.2839 49.2018 39.1717C49.6977 39.6676 50.2183 39.9263 50.7638 39.9662C50.779 39.9768 50.7969 39.9828 50.8155 39.9834H50.8974H50.9136H50.9211C51.6707 39.9906 52.4188 39.914 53.1514 39.7549C53.7981 39.6004 54.2728 39.3773 54.5753 39.0855C54.7214 38.9542 54.838 38.7934 54.9173 38.6137C54.9967 38.434 55.037 38.2396 55.0356 38.0431C55.0356 37.663 54.884 37.257 54.5807 36.8251C54.2501 36.3679 53.8361 35.9773 53.3605 35.6739C52.8545 35.3399 52.2969 35.0915 51.7102 34.9387C52.265 34.7849 52.7403 34.6383 53.1363 34.4989C53.5322 34.3595 53.9325 34.2014 54.3371 34.0246C54.7403 33.8471 55.0388 33.7077 55.2328 33.6064C55.4199 33.5098 55.5772 33.3641 55.6878 33.1849C55.7944 33.0166 55.8512 32.8215 55.8516 32.6223C55.8566 32.5131 55.8387 32.4042 55.7989 32.3024C55.7592 32.2007 55.6986 32.1084 55.6209 32.0316C55.3802 32.1278 55.0514 32.264 54.6346 32.4401ZM44.8804 38.6188C44.4498 38.4963 44.0638 38.2518 43.7691 37.9149C43.9772 37.6134 44.2219 37.3389 44.4978 37.0978C44.6896 36.9192 44.9388 36.8149 45.2006 36.8035C45.3292 36.8035 45.4794 36.9322 45.6511 37.1894C45.8249 37.4514 45.9552 37.7397 46.037 38.0431C45.6991 38.3186 45.304 38.5152 44.8804 38.6188Z" fill="#676767"/>
<path d="M61.8525 34.8597C62.103 34.7253 62.3606 34.6048 62.6243 34.4986C63 34.3579 63.3828 34.237 63.7712 34.1365L63.8305 33.3894C63.6033 33.4462 63.3704 33.4774 63.1363 33.4822C62.8813 33.4941 62.6314 33.4081 62.4378 33.2418C62.6017 32.9306 62.7935 32.7747 63.0134 32.774C63.037 32.7723 63.0606 32.7762 63.0825 32.7851C63.1044 32.7941 63.1239 32.808 63.1395 32.8257C63.1666 32.8601 63.181 32.9027 63.1805 32.9464V32.996L63.4608 33.0596C63.4942 33.0004 63.5213 32.9379 63.5416 32.8731C63.5686 32.7973 63.5828 32.7175 63.5837 32.6371C63.5886 32.4837 63.535 32.3342 63.4338 32.2188C63.3809 32.1622 63.3162 32.1179 63.2443 32.0891C63.1724 32.0602 63.0951 32.0474 63.0178 32.0518C62.8285 32.0576 62.645 32.1183 62.4896 32.2264C62.3091 32.3406 62.1581 32.4957 62.0487 32.6791C61.9402 32.8539 61.8823 33.0554 61.8816 33.2612C61.8799 33.3837 61.9177 33.5035 61.9894 33.6029C62.0859 33.7211 62.2088 33.8149 62.3483 33.8767C62.1682 33.9658 61.9956 34.0692 61.832 34.186L61.8525 34.8597Z" fill="#676767"/>
<path d="M63.7199 35.15C63.4355 35.2869 63.1794 35.4763 62.9654 35.7084C62.7498 35.9433 62.642 36.1568 62.642 36.3551C62.6451 36.4736 62.6711 36.5904 62.7185 36.699C62.7776 36.8415 62.8449 36.9804 62.9201 37.1151C63.0042 37.267 63.098 37.4384 63.2036 37.6238C63.3092 37.8092 63.4127 38.0194 63.5183 38.249C63.2125 38.3675 62.8938 38.4493 62.5687 38.4926C62.1828 38.5524 61.7929 38.5827 61.4024 38.5832H60.8634C60.8157 38.0466 60.6881 37.5202 60.4851 37.0213C60.3272 36.6024 60.0834 36.2213 59.7693 35.9024C59.5394 35.6611 59.2239 35.5198 58.8908 35.5089C58.6149 35.5089 58.3454 35.634 58.0791 35.8851C57.7906 36.1714 57.5668 36.5162 57.4227 36.8962C57.2514 37.3127 57.1635 37.7588 57.164 38.2092C57.1498 38.5513 57.24 38.8897 57.4227 39.1793C57.6173 39.4498 57.897 39.6471 58.2171 39.7398C58.5764 39.8598 59.1732 39.9378 60.0075 39.9737C59.7732 40.3347 59.4439 40.6242 59.0558 40.8102C58.6373 41.0155 58.1766 41.12 57.7105 41.1152C57.2724 41.1155 56.8361 41.0608 56.4116 40.9525L56.2197 41.444C56.5142 41.6944 56.8314 41.9167 57.1672 42.108C57.5193 42.3121 57.7741 42.4138 57.9315 42.4131C58.5837 42.4151 59.2137 42.1759 59.7003 41.7415C60.231 41.2835 60.6074 40.6729 60.7783 39.9931H61.5016C61.5123 39.9931 61.5177 39.9867 61.5274 39.9845C62.3117 39.9663 63.0776 39.7434 63.749 39.3377C64.0573 38.7212 64.2114 38.2458 64.2114 37.9116C64.2114 37.6594 64.0983 36.9986 63.8719 35.9293L63.7199 35.15ZM58.9663 38.5056C58.1859 38.3999 57.7956 38.1294 57.7956 37.6939C57.7969 37.5916 57.8197 37.4907 57.8626 37.3978C57.9055 37.3049 57.9675 37.2222 58.0446 37.1549C58.1221 37.0787 58.2139 37.0186 58.3148 36.9781C58.4156 36.9376 58.5234 36.9175 58.6321 36.9189C58.9368 36.9189 59.2171 37.0626 59.4729 37.35C59.7287 37.6375 59.9353 38.0449 60.0927 38.5724C59.7163 38.5709 59.3402 38.5486 58.9663 38.5056Z" fill="#676767"/>
<path d="M70.5892 41.1024C70.4548 41.2461 70.3006 41.41 70.1267 41.5939C69.9532 41.7815 69.7775 41.9561 69.5996 42.121C69.907 42.4624 70.2447 42.7752 70.6086 43.0556C70.9487 42.7449 71.2524 42.3967 71.514 42.0175C71.1303 41.6597 70.822 41.3546 70.5892 41.1024Z" fill="#676767"/>
<path d="M72.5647 40.8799C72.2558 41.2385 71.9292 41.5813 71.5859 41.9071C71.891 42.2475 72.2285 42.5573 72.5938 42.832C72.9303 42.5206 73.2308 42.1724 73.4895 41.7939C73.1252 41.4469 72.8169 41.1421 72.5647 40.8799Z" fill="#676767"/>
<path d="M73.1935 35.1494C72.9091 35.2864 72.6531 35.4759 72.4389 35.7077C72.2234 35.9427 72.1156 36.1561 72.1156 36.3545C72.1182 36.4729 72.1439 36.5897 72.191 36.6983C72.2509 36.8406 72.3186 36.9795 72.3937 37.1144C72.4767 37.2664 72.5715 37.4378 72.6761 37.6232C72.7806 37.8086 72.8863 38.0188 72.9908 38.2484C72.7487 38.3526 72.3513 38.4345 71.7987 38.4942C71.2802 38.5491 70.7391 38.5761 70.1818 38.5804C69.8304 38.5729 69.5587 38.4931 69.3744 38.3368C69.1901 38.1805 68.9594 37.7838 68.7104 37.1705C68.4075 36.385 68.1639 35.5779 67.9817 34.7559C67.7344 34.8244 67.5187 34.9769 67.3716 35.1871C67.2233 35.4102 67.148 35.6739 67.156 35.9416C67.156 36.1975 67.2599 36.5809 67.4675 37.0918C67.6665 37.5847 67.9026 38.0617 68.1736 38.519C67.7041 38.6272 67.2239 38.6814 66.7421 38.6807C66.4263 38.6893 66.1109 38.653 65.8054 38.5729C65.5589 38.5016 65.3301 38.3793 65.1338 38.2139C65.0209 38.3483 64.9326 38.5016 64.873 38.6666C64.8124 38.8287 64.781 39.0002 64.7803 39.1733C64.7803 39.7898 65.3113 40.0981 66.3734 40.0981C67.1215 40.0981 67.9461 39.8825 68.8473 39.4514C69.0155 39.6206 69.2141 39.7566 69.4326 39.8524C69.6212 39.9251 69.8203 39.9669 70.0222 39.9763C70.0374 39.9862 70.0549 39.9918 70.0729 39.9925C70.1052 39.9925 70.1376 39.9925 70.1699 39.9925C70.2022 39.9925 70.2076 39.9925 70.2303 39.9925C70.2529 39.9925 70.2475 39.986 70.2572 39.9839C70.7897 39.9743 71.3202 39.9181 71.8428 39.8157C72.4335 39.6971 72.8945 39.538 73.2258 39.3382C73.5334 38.7216 73.6872 38.2462 73.6872 37.9121C73.6872 37.6599 73.5743 36.9991 73.3487 35.9298L73.1935 35.1494Z" fill="#676767"/>
<path d="M78.0654 36.2118C77.7672 35.9064 77.4492 35.754 77.1114 35.7547C76.952 35.7603 76.7951 35.7973 76.6499 35.8635C76.5048 35.9297 76.374 36.0239 76.2652 36.1406C75.9772 36.4271 75.7563 36.7739 75.6185 37.156C75.4577 37.5684 75.3751 38.007 75.3749 38.4496C75.3749 38.9713 75.5107 39.3733 75.7856 39.6568C76.0604 39.9403 76.4323 40.0826 76.9196 40.0826C77.1856 40.0811 77.4477 40.0188 77.6859 39.9004C77.9818 39.7483 78.2497 39.5471 78.4782 39.3054V39.3496L78.4879 39.3992C78.3255 39.9095 77.992 40.3481 77.5437 40.641C77.0635 40.954 76.4998 41.1144 75.9268 41.1013C75.4905 41.1011 75.056 41.0464 74.6333 40.9385L74.4414 41.43C74.7353 41.6807 75.0522 41.903 75.3878 42.094C75.7407 42.2981 75.9958 42.3998 76.1531 42.3991C76.6827 42.3998 77.2002 42.2413 77.6385 41.9442C78.102 41.6337 78.4741 41.205 78.7165 40.7024C78.9776 40.182 79.1124 39.6074 79.1099 39.0252C79.1034 38.4933 79.002 37.9669 78.8102 37.4708C78.6519 37.0041 78.3982 36.5753 78.0654 36.2118ZM77.1502 38.7891C76.7826 38.7891 76.5035 38.7266 76.3041 38.6026C76.2113 38.5473 76.135 38.4682 76.0833 38.3734C76.0315 38.2786 76.0061 38.1716 76.0098 38.0637C76.0077 37.8321 76.0977 37.6092 76.2599 37.4439C76.3415 37.3569 76.4408 37.2883 76.551 37.2425C76.6612 37.1968 76.7798 37.1751 76.8991 37.1787C77.0453 37.1838 77.1889 37.2189 77.321 37.282C77.453 37.345 77.5707 37.4346 77.6666 37.5452C77.9394 37.8441 78.1471 38.1965 78.2767 38.58C77.9156 38.7125 77.5348 38.7832 77.1502 38.7891Z" fill="#676767"/>
<path d="M92.7439 40.7806C92.5147 41.0436 92.1622 41.4126 91.6865 41.8876C92.0205 42.247 92.3808 42.581 92.7644 42.8869C93.1308 42.5533 93.459 42.1803 93.7432 41.7744C93.3916 41.4623 93.0579 41.1305 92.7439 40.7806Z" fill="#676767"/>
<path d="M98.1455 34.5777C98.4481 34.9189 98.7843 35.2288 99.1491 35.5025C99.4873 35.1955 99.789 34.8505 100.048 34.4742C99.6025 34.048 99.2928 33.743 99.1189 33.559C98.6855 34.0391 98.3611 34.3786 98.1455 34.5777Z" fill="#676767"/>
<path d="M97.5141 33.7255C97.6677 33.8589 97.8305 33.9814 98.0013 34.0919C98.2054 33.9612 98.4972 33.6827 98.8766 33.2566C98.5349 32.9839 98.2251 32.6737 97.9528 32.3317C97.6699 32.6597 97.3656 32.9687 97.042 33.2566C97.1857 33.4261 97.3436 33.5829 97.5141 33.7255Z" fill="#676767"/>
<path d="M96.9625 35.7246C97.2998 35.4155 97.603 35.0711 97.8669 34.6973C97.4572 34.3136 97.149 34.0085 96.942 33.7822L96.7264 34.0128C96.4663 34.3003 96.2072 34.5626 95.9492 34.7997C96.2592 35.1372 96.5982 35.4467 96.9625 35.7246Z" fill="#676767"/>
<path d="M101.866 36.3409L101.713 35.554C101.428 35.6904 101.172 35.8799 100.958 36.1124C100.743 36.3463 100.635 36.5608 100.635 36.7591C100.639 36.885 100.666 37.0092 100.714 37.1256C100.767 37.2643 100.835 37.4185 100.918 37.5881C101.002 37.7577 101.097 37.9431 101.203 38.1443C101.31 38.3455 101.416 38.5611 101.52 38.791C101.115 38.7504 100.713 38.6881 100.315 38.6045C99.9653 38.5318 99.6266 38.4144 99.307 38.2553L99.4396 37.8241C99.544 37.4528 99.6671 37.0869 99.8082 36.7279C99.6846 36.6407 99.5369 36.5943 99.3857 36.5953C99.2576 36.5911 99.1313 36.6269 99.0245 36.6977C98.9303 36.7593 98.8556 36.8464 98.809 36.9489L98.6559 37.352C98.5152 37.7628 98.3477 38.1639 98.1547 38.5528C98.0268 38.5975 97.8961 38.6335 97.7634 38.6606C97.6125 38.6796 97.4605 38.6875 97.3085 38.6843C97.0897 38.6868 96.8711 38.6738 96.6542 38.6455C96.7598 38.4127 96.8593 38.1716 96.9528 37.9222C97.0462 37.6729 97.1385 37.4368 97.2298 37.214C97.1239 37.1373 96.9973 37.0944 96.8665 37.0912C96.7652 37.0901 96.6659 37.119 96.5809 37.1742C96.4968 37.2298 96.4261 37.3035 96.3739 37.3897L96.1874 37.7131C96.0775 37.9208 95.9409 38.1132 95.7811 38.2855C95.654 38.4045 95.4966 38.4862 95.3262 38.5216C95.0855 38.5689 94.8406 38.5909 94.5953 38.5873C94.1677 38.5878 93.7465 38.4834 93.3686 38.2833C93.4247 38.1691 93.6 37.7641 93.8947 37.0685C93.7966 36.9844 93.6776 36.9284 93.5503 36.9064C93.4229 36.8844 93.292 36.8972 93.1714 36.9435C93.0944 36.9735 93.0267 37.0233 92.9752 37.0879C92.8297 37.3176 92.6983 37.5559 92.5818 37.8015C92.447 38.0667 92.3241 38.2327 92.2131 38.3124C91.9555 38.4892 91.5857 38.5787 91.1115 38.5852C90.7466 38.5858 90.3836 38.5339 90.0335 38.431C89.6613 38.3121 89.3113 38.1326 88.9977 37.8996C88.6302 37.6328 88.2809 37.3418 87.952 37.0286C87.6021 36.6981 87.0186 36.0718 86.2015 35.1498C87.1228 34.8444 87.868 34.5828 88.4371 34.3651C89.0063 34.1473 89.5973 33.8894 90.2103 33.5911C90.3962 33.5037 90.5557 33.3687 90.6727 33.1998C90.792 33.0345 90.8558 32.8356 90.8549 32.6318C90.8567 32.5212 90.8353 32.4115 90.792 32.3098C90.7488 32.208 90.6846 32.1165 90.6038 32.0411C89.6437 32.4327 88.846 32.7683 88.2108 33.0479C87.5755 33.3274 86.9057 33.6396 86.2015 33.9846C86.0228 34.0746 85.8774 34.2192 85.7865 34.3974C85.6884 34.5682 85.635 34.761 85.6313 34.9579C85.6415 35.3823 85.75 35.7985 85.9482 36.1738C86.2219 36.6881 86.5618 37.1643 86.9593 37.5902C87.0825 37.8393 87.1905 38.0956 87.2826 38.3577C86.7289 38.503 86.1595 38.5797 85.5871 38.5862C85.1601 38.5845 84.7401 38.4771 84.3647 38.2736L84.355 36.5716L84.3647 34.2939C84.1254 34.4377 83.9314 34.5609 83.7826 34.6637C83.6328 34.765 83.4172 34.931 83.1359 35.1595L83.1596 35.3967L83.1941 35.6273C82.9377 35.7513 82.6896 35.8918 82.4514 36.0477C82.2201 36.1989 81.9984 36.3642 81.7874 36.5425C81.6239 36.6755 81.4757 36.8263 81.3454 36.992C81.2001 37.2278 81.0859 37.4814 81.0059 37.7465C80.8744 38.1173 80.8086 38.3552 80.8086 38.4601C80.8086 38.5981 80.943 38.7627 81.2117 38.9538C81.4859 39.1484 81.7832 39.308 82.0967 39.4292C82.267 39.4846 82.4405 39.5296 82.6163 39.5639C82.8661 39.6057 83.118 39.6345 83.3708 39.6501L83.843 38.68L83.9508 39.123C83.9832 39.2646 84.0481 39.3968 84.1403 39.509C84.2325 39.6212 84.3496 39.7105 84.4822 39.7698C84.8056 39.9199 85.1583 39.9961 85.5149 39.9929C85.5149 39.9929 85.5235 39.9983 85.5299 39.9983H85.5666H85.6334C85.6463 39.9983 85.6528 39.9908 85.6636 39.9886C85.9864 39.9797 86.3063 39.926 86.6143 39.8291C86.9811 39.7065 87.3332 39.5438 87.6642 39.344C87.8095 39.113 87.9019 38.8528 87.9348 38.5819C88.2273 38.8643 88.4741 39.0896 88.6753 39.2578C88.8778 39.4273 89.1027 39.568 89.3437 39.676C89.603 39.7908 89.8757 39.8726 90.1553 39.9196C90.4529 39.9681 90.7539 39.9929 91.0554 39.994C91.0554 39.994 91.0619 39.994 91.0684 39.994H91.1212H91.1718C91.1718 39.994 91.1783 39.994 91.1837 39.994C91.3731 39.9915 91.5621 39.9768 91.7496 39.9498C91.9413 39.921 92.1289 39.8689 92.308 39.7946C92.4585 39.7332 92.5912 39.635 92.6939 39.5089C92.7763 39.4057 92.8526 39.2977 92.9224 39.1856C93.4182 39.6814 93.94 39.9401 94.4843 39.98C94.4995 39.9906 94.5175 39.9966 94.536 39.9972C94.5598 39.9972 94.5813 39.9972 94.605 39.9972H94.6341C94.6417 39.9972 94.6438 39.9972 94.6514 39.9918C94.8779 39.9885 95.1035 39.9632 95.3251 39.9164C95.5215 39.8766 95.7123 39.8129 95.8932 39.7267C96.4149 39.976 96.8723 40.1007 97.2654 40.1007C97.5836 40.1009 97.9011 40.0688 98.2129 40.0048C98.5222 39.9412 98.7044 39.8646 98.7518 39.7763L98.8941 39.496C99.7864 39.8867 100.749 40.0925 101.723 40.1007C101.865 39.811 101.981 39.5091 102.07 39.1985C102.154 38.9461 102.204 38.6837 102.22 38.4181C102.209 38.1644 102.092 37.472 101.866 36.3409ZM82.9353 38.1529C82.7023 38.1142 82.473 38.0558 82.2498 37.9783C82.0352 37.8998 81.833 37.7909 81.6494 37.6549C81.8572 37.4515 82.0901 37.2755 82.3425 37.131C82.6733 36.9481 83.021 36.7972 83.3805 36.6805C83.4718 37.149 83.5868 37.6657 83.7255 38.2305C83.4588 38.2229 83.1931 38.197 82.93 38.1529H82.9353Z" fill="#676767"/>
</svg>
