<svg id="e2e63b5f-d695-4742-baaf-9f32000359f9" fill="#a2a1a1" data-name="Layer 1" xmlns="http://www.w3.org/2000/svg" viewBox="0 0 24 24"><path d="M19.1858,15.3218a7.5562,7.5562,0,0,0,.5765-2.9174.8462.8462,0,0,0-1.6509-.272,2.0142,2.0142,0,0,0-.0644.4852,5.7763,5.7763,0,0,1-.3193,1.7384l1.3068,1.3067Q19.1131,15.495,19.1858,15.3218Z"/><path d="M16.9617,12.2839c.01-1.2339.002-2.468.002-3.7021,0-1.2419.0034-2.4838-.0014-3.7256A5.2541,5.2541,0,0,0,16.64,3.0239,4.7153,4.7153,0,0,0,7.5567,4.185l9.2751,9.275A5.5568,5.5568,0,0,0,16.9617,12.2839Z"/><path d="M21.9107,21.1027,18.057,17.249v0l-1.2254-1.2254v0l-.8209-.8209v0l-8.5-8.5012v.0012L2.8973,2.0893a.5713.5713,0,0,0-.808.808L7.5121,8.32q0,1.9854.0035,3.9707A4.8139,4.8139,0,0,0,8.5,15.255a4.71,4.71,0,0,0,6.52.9422c.0739-.0552.13-.115.1975-.1714l.8367.8368a5.9749,5.9749,0,0,1-6.3584,1.0105,5.8446,5.8446,0,0,1-3.58-5.2554,2.3052,2.3052,0,0,0-.0652-.4853.8461.8461,0,0,0-1.6506.272,7.3917,7.3917,0,0,0,.455,2.5888,7.5392,7.5392,0,0,0,5.2334,4.8321c.3716.1061.7564.1656,1.1473.2493v2.232c-.1317,0-.2245,0-.3174,0-.9372.0016-1.8746-.0076-2.8115.009A.823.823,0,0,0,7.34,23.383.9262.9262,0,0,0,7.9562,24h8.25a2.2534,2.2534,0,0,0,.482-.3489.8381.8381,0,0,0-.6557-1.34c-.945-.0048-1.89-.0036-2.8351-.0047h-.2554v-2.25c.0892-.016.1668-.0241.241-.0443a14.8708,14.8708,0,0,0,1.9042-.5375A7.6065,7.6065,0,0,0,17.269,18.077l3.8337,3.8337a.5713.5713,0,0,0,.808-.808Z"/></svg>