<svg id="a252a93a-dc0f-449e-b9be-00eac0b78458" data-name="Layer 1" xmlns="http://www.w3.org/2000/svg" viewBox="0 0 32 32"><rect width="32" height="32" rx="7.4138" fill="#0067d8"/><circle cx="15.9646" cy="16.0065" r="10.6667" fill="#fff"/><path d="M21.9171,19.9638c-.228-.4524-.4586-.9035-.6839-1.3572a6.9366,6.9366,0,0,1-.7029-2.1813,10.2722,10.2722,0,0,1-.0771-1.0972,5.2417,5.2417,0,0,0-10.3613-1.0247c-.0463.2126-.0658.4313-.0983.6467-.0056.0375-.015.0747-.0225.1118v.7268c.03.2033.0545.4079.0925.61A5.2374,5.2374,0,0,0,14.44,20.6089a5.3761,5.3761,0,0,0,.7815.0535c2.0781.0041,4.1561-.0032,6.2341.0077a.4852.4852,0,0,0,.4618-.7063Zm-3.8136-3.3657c-.0032.3409-.19.6134-.4162.6086-.5213.0023-1.0428.0009-1.5642.0009-.5247,0-1.0494.0018-1.5741-.001-.2.0116-.3744-.203-.4067-.5a1.066,1.066,0,0,1-.0042-.1131.5965.5965,0,0,1,.27-.5537.5271.5271,0,0,1,.2149-.0359q1.01-.0015,2.02-.0012c.3366,0,.6732.001,1.01,0a.3811.3811,0,0,1,.3716.2516.8106.8106,0,0,1,.0793.3423Zm0-2.2439a.6173.6173,0,0,1-.626.6085c-.7844.0024-1.5688.0009-2.3532.0009-.7893,0-1.5787.0018-2.368-.0009a.5967.5967,0,0,1-.6118-.5.69.69,0,0,1-.0063-.113.5727.5727,0,0,1,.4065-.5537,1.1514,1.1514,0,0,1,.3233-.0359q1.5189-.0015,3.0381-.0013c.5064,0,1.0127.001,1.5191,0a.63.63,0,0,1,.5591.2516.6.6,0,0,1,.1192.3424Z" fill="#0067d8"/></svg>