<svg width="16" height="21" viewBox="0 0 16 21" fill="none" xmlns="http://www.w3.org/2000/svg">
<path d="M6.49085 2.69617C6.66831 2.48236 6.88838 2.30788 7.13702 2.18385C7.38567 2.05981 7.65743 1.98895 7.93498 1.97578C8.21253 1.96261 8.48978 2.00741 8.74905 2.10734C9.00832 2.20727 9.24393 2.36013 9.44084 2.55617C9.8018 2.93598 9.99929 3.44227 9.99084 3.96617V6.37617C9.99084 6.64138 10.0962 6.89574 10.2837 7.08327C10.4713 7.27081 10.7256 7.37617 10.9908 7.37617C11.2561 7.37617 11.5104 7.27081 11.698 7.08327C11.8855 6.89574 11.9908 6.64138 11.9908 6.37617V3.96617C11.968 3.16351 11.7041 2.38632 11.2334 1.7357C10.7628 1.08509 10.1073 0.591185 9.3521 0.318245C8.59693 0.0453039 7.77709 0.00596596 6.99925 0.205349C6.22142 0.404732 5.5216 0.833605 4.99084 1.43617C4.87444 1.52824 4.78 1.64508 4.71436 1.77819C4.64872 1.9113 4.61353 2.05735 4.61135 2.20575C4.60917 2.35415 4.64005 2.50117 4.70175 2.63616C4.76344 2.77114 4.85441 2.8907 4.96805 2.98616C5.0817 3.08162 5.21516 3.15058 5.35877 3.18806C5.50237 3.22553 5.65252 3.23056 5.79832 3.2028C5.94411 3.17503 6.0819 3.11517 6.20168 3.02754C6.32147 2.93991 6.42024 2.82671 6.49085 2.69617ZM14.7108 11.2362H14.9108C15.1462 11.2404 15.3755 11.1616 15.5585 11.0134C15.7414 10.8652 15.8662 10.6573 15.9108 10.4262C15.9825 9.94302 16.0093 9.45426 15.9908 8.96617C15.9908 8.70095 15.8855 8.4466 15.698 8.25906C15.5104 8.07152 15.2561 7.96617 14.9908 7.96617C14.7256 7.96617 14.4713 8.07152 14.2837 8.25906C14.0962 8.4466 13.9908 8.70095 13.9908 8.96617C13.9909 9.33558 13.9541 9.70409 13.8808 10.0662C13.8565 10.1977 13.8588 10.3328 13.8876 10.4634C13.9165 10.594 13.9712 10.7175 14.0486 10.8266C14.126 10.9357 14.2244 11.0281 14.3382 11.0985C14.452 11.1688 14.5787 11.2157 14.7108 11.2362ZM15.7108 15.2962L1.71084 1.29617C1.61788 1.20244 1.50728 1.12805 1.38542 1.07728C1.26356 1.02651 1.13286 1.00037 1.00084 1.00037C0.868833 1.00037 0.738127 1.02651 0.616268 1.07728C0.494409 1.12805 0.383808 1.20244 0.290845 1.29617C0.104594 1.48353 5.19753e-05 1.73698 5.19753e-05 2.00117C5.19753e-05 2.26535 0.104594 2.51881 0.290845 2.70617L3.99084 6.44617V8.96617C3.99156 9.66797 4.17691 10.3572 4.52828 10.9647C4.87965 11.5722 5.38466 12.0766 5.99262 12.4272C6.60058 12.7778 7.29007 12.9622 7.99187 12.9621C8.69367 12.9619 9.38307 12.7771 9.99084 12.4262L11.4508 13.8862C10.5513 14.5211 9.4943 14.8963 8.3957 14.9706C7.2971 15.0449 6.19924 14.8155 5.22235 14.3074C4.24546 13.7994 3.42722 13.0323 2.85724 12.0902C2.28725 11.1481 1.98752 10.0673 1.99084 8.96617C1.99084 8.70095 1.88549 8.4466 1.69795 8.25906C1.51041 8.07152 1.25606 7.96617 0.990845 7.96617C0.725628 7.96617 0.471274 8.07152 0.283738 8.25906C0.0962018 8.4466 -0.00915527 8.70095 -0.00915527 8.96617C-0.00738948 10.9135 0.704566 12.7933 1.99324 14.2531C3.28192 15.713 5.05883 16.6528 6.99085 16.8962V18.9662H4.99084C4.72563 18.9662 4.47127 19.0715 4.28374 19.2591C4.0962 19.4466 3.99084 19.701 3.99084 19.9662C3.99084 20.2314 4.0962 20.4857 4.28374 20.6733C4.47127 20.8608 4.72563 20.9662 4.99084 20.9662H10.9908C11.2561 20.9662 11.5104 20.8608 11.698 20.6733C11.8855 20.4857 11.9908 20.2314 11.9908 19.9662C11.9908 19.701 11.8855 19.4466 11.698 19.2591C11.5104 19.0715 11.2561 18.9662 10.9908 18.9662H8.99084V16.8962C10.3937 16.7216 11.7236 16.1723 12.8408 15.3062L14.2408 16.7062C14.4278 16.8945 14.6819 17.0008 14.9473 17.0017C15.2127 17.0027 15.4675 16.8981 15.6558 16.7112C15.8441 16.5242 15.9505 16.2701 15.9514 16.0047C15.9523 15.7393 15.8478 15.4845 15.6608 15.2962H15.7108ZM7.99084 10.9662C7.46041 10.9662 6.9517 10.7555 6.57663 10.3804C6.20156 10.0053 5.99084 9.4966 5.99084 8.96617V8.44617L8.44084 10.9062C8.29411 10.9457 8.14282 10.9659 7.99084 10.9662Z" fill="#1B76FF"/>
</svg>
