<svg width="24" height="24" viewBox="0 0 24 24" fill="none" xmlns="http://www.w3.org/2000/svg">
    <g id="icon / 24 / Guest management / microphone-off">
        <path id="Vector" d="M10.4908 3.69617C10.6683 3.48236 10.8884 3.30788 11.137 3.18385C11.3857 3.05981 11.6574 2.98895 11.935 2.97578C12.2125 2.96261 12.4898 3.00741 12.7491 3.10734C13.0083 3.20727 13.2439 3.36013 13.4408 3.55617C13.8018 3.93598 13.9993 4.44227 13.9908 4.96617V7.37617C13.9908 7.64138 14.0962 7.89574 14.2837 8.08327C14.4713 8.27081 14.7256 8.37617 14.9908 8.37617C15.2561 8.37617 15.5104 8.27081 15.698 8.08327C15.8855 7.89574 15.9908 7.64138 15.9908 7.37617V4.96617C15.968 4.16351 15.7041 3.38632 15.2334 2.7357C14.7628 2.08509 14.1073 1.59119 13.3521 1.31824C12.5969 1.0453 11.7771 1.00597 10.9993 1.20535C10.2214 1.40473 9.5216 1.83361 8.99084 2.43617C8.87444 2.52824 8.78 2.64508 8.71436 2.77819C8.64872 2.9113 8.61353 3.05735 8.61135 3.20575C8.60917 3.35415 8.64005 3.50117 8.70175 3.63616C8.76344 3.77114 8.85441 3.8907 8.96805 3.98616C9.0817 4.08162 9.21516 4.15058 9.35877 4.18806C9.50237 4.22553 9.65252 4.23056 9.79832 4.2028C9.94411 4.17503 10.0819 4.11517 10.2017 4.02754C10.3215 3.93991 10.4202 3.82671 10.4908 3.69617ZM18.7108 12.2362H18.9108C19.1462 12.2404 19.3755 12.1616 19.5585 12.0134C19.7414 11.8652 19.8662 11.6573 19.9108 11.4262C19.9825 10.943 20.0093 10.4543 19.9908 9.96617C19.9908 9.70095 19.8855 9.4466 19.698 9.25906C19.5104 9.07152 19.2561 8.96617 18.9908 8.96617C18.7256 8.96617 18.4713 9.07152 18.2837 9.25906C18.0962 9.4466 17.9908 9.70095 17.9908 9.96617C17.9909 10.3356 17.9541 10.7041 17.8808 11.0662C17.8565 11.1977 17.8588 11.3328 17.8876 11.4634C17.9165 11.594 17.9712 11.7175 18.0486 11.8266C18.126 11.9357 18.2244 12.0281 18.3382 12.0985C18.452 12.1688 18.5787 12.2157 18.7108 12.2362ZM19.7108 16.2962L5.71084 2.29617C5.61788 2.20244 5.50728 2.12805 5.38542 2.07728C5.26356 2.02651 5.13286 2.00037 5.00084 2.00037C4.86883 2.00037 4.73813 2.02651 4.61627 2.07728C4.49441 2.12805 4.38381 2.20244 4.29084 2.29617C4.10459 2.48353 4.00005 2.73698 4.00005 3.00117C4.00005 3.26535 4.10459 3.51881 4.29084 3.70617L7.99084 7.44617V9.96617C7.99156 10.668 8.17691 11.3572 8.52828 11.9647C8.87965 12.5722 9.38466 13.0766 9.99262 13.4272C10.6006 13.7778 11.2901 13.9622 11.9919 13.9621C12.6937 13.9619 13.3831 13.7771 13.9908 13.4262L15.4508 14.8862C14.5513 15.5211 13.4943 15.8963 12.3957 15.9706C11.2971 16.0449 10.1992 15.8155 9.22235 15.3074C8.24546 14.7994 7.42722 14.0323 6.85724 13.0902C6.28725 12.1481 5.98752 11.0673 5.99084 9.96617C5.99084 9.70095 5.88549 9.4466 5.69795 9.25906C5.51041 9.07152 5.25606 8.96617 4.99084 8.96617C4.72563 8.96617 4.47127 9.07152 4.28374 9.25906C4.0962 9.4466 3.99084 9.70095 3.99084 9.96617C3.99261 11.9135 4.70457 13.7933 5.99324 15.2531C7.28192 16.713 9.05883 17.6528 10.9908 17.8962V19.9662H8.99084C8.72563 19.9662 8.47127 20.0715 8.28374 20.2591C8.0962 20.4466 7.99084 20.701 7.99084 20.9662C7.99084 21.2314 8.0962 21.4857 8.28374 21.6733C8.47127 21.8608 8.72563 21.9662 8.99084 21.9662H14.9908C15.2561 21.9662 15.5104 21.8608 15.698 21.6733C15.8855 21.4857 15.9908 21.2314 15.9908 20.9662C15.9908 20.701 15.8855 20.4466 15.698 20.2591C15.5104 20.0715 15.2561 19.9662 14.9908 19.9662H12.9908V17.8962C14.3937 17.7216 15.7236 17.1723 16.8408 16.3062L18.2408 17.7062C18.4278 17.8945 18.6819 18.0008 18.9473 18.0017C19.2127 18.0027 19.4675 17.8981 19.6558 17.7112C19.8441 17.5242 19.9505 17.2701 19.9514 17.0047C19.9523 16.7393 19.8478 16.4845 19.6608 16.2962H19.7108ZM11.9908 11.9662C11.4604 11.9662 10.9517 11.7555 10.5766 11.3804C10.2016 11.0053 9.99084 10.4966 9.99084 9.96617V9.44617L12.4408 11.9062C12.2941 11.9457 12.1428 11.9659 11.9908 11.9662Z" fill="#a2a1a1"/>
    </g>
</svg>
