<svg xmlns="http://www.w3.org/2000/svg" xmlns:xlink="http://www.w3.org/1999/xlink" viewBox="0 0 345.1034 261.7421"><defs><clipPath id="b1f36a44-768f-40ea-aa87-12f5d1449d44"><rect x="64.6118" y="91.4712" width="108.4054" height="67.514" fill="none"/></clipPath><clipPath id="a2c10623-ee26-4ffe-b2a7-fd634377e643"><rect x="173.182" y="158.9853" width="108.4054" height="67.514" fill="none"/></clipPath><clipPath id="a3d0ec53-523e-40a2-8baf-f3fe5318ed3f"><path d="M154.1214,151.4628H138.3926a15.4035,15.4035,0,0,1-13.7744,8.52H66.7633v66.5965h87.3581Z" fill="none"/></clipPath><clipPath id="a49cb183-020c-466f-a7c2-533533ba5b47"><rect x="173.182" y="91.0486" width="108.4405" height="67.7317" fill="none"/></clipPath></defs><g style="isolation:isolate"><g id="edc98d98-f54d-4b04-938a-7d306095ef5c" data-name="Layer 1"><path d="M34.3268,202.6711c-15.69-15.1991-27.9647-34.4367-32.5249-55.81-2.869-13.4469-2.5666-27.8465,2.7644-40.5189s16.0931-23.37,29.3873-26.8335c13.51-3.5195,27.7284.5005,41.688.4135,22.0368-.1374,42.5815-10.4468,62.1073-20.6734S177.57,38.3974,199.59,37.5436s46.2509,11.2669,51.638,32.6558c2.1824,8.665,1.2291,18.2648,5.5878,26.0634,7.3374,13.1284,25.3449,14.6823,40.354,13.912s32.4777-1.2838,42.1713,10.2119c8.2689,9.8062,6.955,25.0447.38,36.0606s-10.495,17.8485-25.0812,30.0479c-11.5071,10.3766-22.3043,17.7293-42.745,32.0683-7.1941,5.1307-39.5431,30.8267-104.1409,32.4743C100.6505,252.6582,49.9857,217.12,34.3268,202.6711Z" fill="#75b4fa" opacity="0.5" style="mix-blend-mode:multiply"/><path d="M36.2542,104.6625c-5.7225-13.1386-11.4756-26.3685-14.7078-40.33s-3.83-28.85.7089-42.4429a155.6335,155.6335,0,0,1,25.046,81.5009C43.2412,104.6934,40.5131,104.4557,36.2542,104.6625Z" fill="#4f6b2f"/><path d="M43.28,104.8035a21.6785,21.6785,0,0,1-4.3069.274c-.5658-.0011-1.1614-.0019-1.805.0118l-.3181.0065-.1168-.2956C32.31,93.58,27.7354,81.9775,25.0155,69.8869c-3.0747-13.6688-3.2712-25.9376-.584-36.4653l.2792-1.0937.56.98A159.3979,159.3979,0,0,1,45.5819,103.811l.0158.3409-.3225.1117A14.1555,14.1555,0,0,1,43.28,104.8035Zm-5.8131-.6337c.5311-.0076,1.03-.0069,1.5079-.0058a16.7433,16.7433,0,0,0,5.678-.6557,158.6356,158.6356,0,0,0-19.608-68.7454c-2.3612,10.1361-2.0721,21.8781.8623,34.9234C28.5876,81.6023,33.0926,93.0736,37.4669,104.17Z" fill="#ffe34f"/><path d="M57.7148,91.6313C61.87,77.916,66.0441,64.1066,67.63,49.8639s.4473-29.1-5.6428-42.0722A155.633,155.633,0,0,0,46.5947,91.6534C50.7788,92.475,53.4607,91.9214,57.7148,91.6313Z" fill="#4f6b2f"/><path d="M48.7086,92.2848l-.3333-.0735-.024-.34A159.398,159.398,0,0,1,60.3206,19.4833l.4422-1.0384.4047,1.0536c3.8939,10.1436,5.1263,22.3519,3.6631,36.2856-1.2946,12.325-4.4877,24.3807-7.5756,36.04l-.0816.3073-.3167.0306c-.6409.0611-1.2323.1313-1.7941.1982a21.6715,21.6715,0,0,1-4.3095.229A14.1662,14.1662,0,0,1,48.7086,92.2848ZM63.9217,55.6887c1.3965-13.2982.3173-24.994-3.2073-34.7866a158.6362,158.6362,0,0,0-11.4756,70.56,16.7436,16.7436,0,0,0,5.7158-.01c.4747-.0567.97-.1155,1.4983-.17C59.5064,79.7531,62.6459,67.8356,63.9217,55.6887Z" fill="#ffe34f"/><path d="M41.3451,99.2314c-3.7223-16.53-7.46-33.1723-8.1072-50.1036S35.2079,14.7745,43.5028,0A184.01,184.01,0,0,1,54.4561,100.2119C49.4516,100.8217,46.3367,99.9387,41.3451,99.2314Z" fill="#709343"/><path d="M49.4722,100.9581a25.6329,25.6329,0,0,1-5.0622-.64c-.6568-.1271-1.3481-.2606-2.0986-.3878l-.3708-.0633-.07-.3692c-2.6406-14.0135-5.3712-28.5037-5.84-43.1486-.53-16.5564,1.9714-30.8468,7.4337-42.4741l.5676-1.2078.4324,1.2625a188.46,188.46,0,0,1,7.9016,86.3877l-.0574.3994-.3994.058A16.7306,16.7306,0,0,1,49.4722,100.9581Zm-6.6092-2.029c.6183.1093,1.1972.2211,1.7523.3287a19.7943,19.7943,0,0,0,6.7392.5017,187.56,187.56,0,0,0-7.4763-84.19c-4.9967,11.2451-7.2731,24.9443-6.7676,40.7455C37.5724,70.748,40.2518,85.0709,42.863,98.9291Z" fill="#ffe34f"/><path d="M64.1569,104.4769c4.6706-12.6158,9.3652-25.3186,11.6586-38.5744s2.0691-27.2414-2.9019-39.7419A146.0963,146.0963,0,0,0,53.736,103.8671C57.61,104.8742,60.1542,104.5076,64.1569,104.4769Z" fill="#709343"/><path d="M55.6809,104.5786l-.3082-.0877-.0031-.32a149.6294,149.6294,0,0,1,15.32-67.1493l.4732-.9479.32,1.01c3.0734,9.7255,3.5361,21.2346,1.3749,34.2077-1.9118,11.4753-5.5873,22.59-9.1417,33.34l-.094.2832-.2985.0108c-.604.0209-1.162.0531-1.6923.084a20.3457,20.3457,0,0,1-4.051-.03A13.2968,13.2968,0,0,1,55.6809,104.5786ZM72.0108,71.15c2.0624-12.3813,1.7144-23.4016-1.033-32.7772a148.9164,148.9164,0,0,0-14.7534,65.4649,15.7168,15.7168,0,0,0,5.3562.3152c.4481-.0262.9155-.0532,1.4136-.074C66.5091,93.4486,70.1266,82.46,72.0108,71.15Z" fill="#ffe34f"/><polygon points="71.975 157.714 28.643 157.714 23.347 80.637 77.271 80.637 71.975 157.714" fill="#fff"/><polygon points="71.975 157.714 28.643 157.714 23.347 80.637 77.271 80.637 71.975 157.714" fill="#fff"/><polygon points="63.637 80.637 58.34 157.714 71.975 157.714 77.271 80.637 63.637 80.637" fill="#e3e3e3"/><polygon points="76.026 98.753 76.195 96.293 24.423 96.293 24.592 98.753 76.026 98.753" fill="#e3e3e3" style="mix-blend-mode:multiply"/><path d="M78.1373,85.0475h189.76a19.9493,19.9493,0,0,1,19.9493,19.9493V225.4115a19.9493,19.9493,0,0,1-19.9493,19.9493H78.1373a19.9492,19.9492,0,0,1-19.9492-19.9492V104.9967A19.9492,19.9492,0,0,1,78.1373,85.0475Z" fill="#22505c"/><rect x="69.3257" y="95.3856" width="208.9545" height="131.1138" fill="#b5eeff"/><rect x="251.2151" y="102.8002" width="27.065" height="19.7674" fill="#8ecbdf" opacity="0.67" style="mix-blend-mode:multiply"/><path d="M199.0523,164.1437a7.371,7.371,0,0,0,13.7326-1.9537,5.7814,5.7814,0,0,1-5.3672.9527,2.195,2.195,0,0,1-.9741-.5086,1.0013,1.0013,0,0,1-.2783-1.0147,1.3158,1.3158,0,0,1,.9786-.6975c1.3193-.3309,2.7153.017,4.0666-.1386a5.4761,5.4761,0,0,0,4.6608-6.8664c-1.6623.4766-2.9153,1.7483-4.3186,2.7587a11.4923,11.4923,0,0,1-5.4256,2.0855c-.5629.0621-1.2785-.0084-1.4767-.5389-.1987-.5323.3-1.0558.7707-1.3738,1.7521-1.183,3.8151-1.809,5.6822-2.8006s3.6455-2.5288,4.0472-4.6043c.4256-2.1989-.7853-4.3559-2.0268-6.22a28.4636,28.4636,0,0,1-3.9878,7.6278,11.0924,11.0924,0,0,1-7.0559,4.2655.9659.9659,0,0,1-.7073-.1077.6958.6958,0,0,1-.1319-.8408,2.06,2.06,0,0,1,.6235-.6676,24.9307,24.9307,0,0,0,5.6971-5.7982,10.0457,10.0457,0,0,0,1.5823-7.777,33.5679,33.5679,0,0,0-6.198-2.6872,12.1641,12.1641,0,0,1-3.6584,14.35,1.4111,1.4111,0,0,1-.9029.395,1.0308,1.0308,0,0,1-.8286-1.1324,3.15,3.15,0,0,1,.6041-1.42,18.3449,18.3449,0,0,0,2.9553-7.3295,8.8841,8.8841,0,0,0-2.2006-7.3716c-1.13-.0688-2.4088.0732-3.5386.0044,1.8889,2.7425,2.1516,6.635,1.5611,9.9123a3.7711,3.7711,0,0,1-.773,1.8869,1.5991,1.5991,0,0,1-1.86.4581c-.7547-.4044-.856-1.4263-.8628-2.2825l-.0436-5.4652a10.187,10.187,0,0,0-.4118-3.395,3.452,3.452,0,0,0-2.3536-2.3,4.7362,4.7362,0,0,0-3.221.8559,6.8928,6.8928,0,0,1-3.1387,1.2342,6.742,6.742,0,0,0,2.1266,6.9319c.5516.5121,1.25,1.069,1.1881,1.8191a1.4111,1.4111,0,0,1-1.6647,1.0915,3.1242,3.1242,0,0,1-1.7983-1.2467,8.6462,8.6462,0,0,1-1.84-4.285,7.2862,7.2862,0,0,0-.8163,5.4014,6.5513,6.5513,0,0,0,3.4931,3.8172c1.2615.56,2.7192.7276,3.81,1.5731.3252.2521.6213.7225.3627,1.0425a.84.84,0,0,1-.6761.2159,8.44,8.44,0,0,1-7.6488-5.2265A6.3656,6.3656,0,0,0,181,154.549a8.8291,8.8291,0,0,0,7.4729,2.8451c.4568-.0362,1.008-.06,1.27.3162.275.3954.0164.9419-.3042,1.3012a5.6084,5.6084,0,0,1-5.66,1.2714,16.5034,16.5034,0,0,1-5.2688-3.03,14.807,14.807,0,0,0,1.836,6.51,5.0573,5.0573,0,0,0,1.5642,2.1437,4.3729,4.3729,0,0,0,2.9158.44,15.6662,15.6662,0,0,0,5.368-1.6267,3.9609,3.9609,0,0,1,1.1758-.4708,1.0148,1.0148,0,0,1,.8293,1.8328,3.3407,3.3407,0,0,1-1.4516.6167l-4.374,1.0794a6.7281,6.7281,0,0,0,7.4749,3.299C196.8259,170.3766,198.91,167.2,199.0523,164.1437Z" fill="#8ecbdf" opacity="0.67" style="mix-blend-mode:multiply"/><rect x="224.1502" y="142.4471" width="54.1299" height="21.662" fill="#8ecbdf" opacity="0.67" style="mix-blend-mode:multiply"/><rect x="173.182" y="91.4712" width="108.4054" height="67.514" fill="none"/><path d="M91.2384,218.6453a7.3711,7.3711,0,0,0,13.8683.27,5.7816,5.7816,0,0,1-5.45.0812,2.1955,2.1955,0,0,1-.88-.658,1.0015,1.0015,0,0,1-.1122-1.0461,1.3155,1.3155,0,0,1,1.0777-.5318c1.3552-.1155,2.6775.4514,4.0363.5141a5.4761,5.4761,0,0,0,5.7-6.0318c-1.7171.2044-3.1575,1.2591-4.7045,2.0318a11.4915,11.4915,0,0,1-5.6894,1.19c-.5656-.0288-1.2608-.2129-1.3714-.7683-.111-.5573.4649-.9943.9806-1.2327,1.9189-.8873,4.0555-1.175,6.0573-1.855s4.0033-1.9125,4.7321-3.897c.772-2.1023-.0779-4.4254-1.0051-6.4641a28.4621,28.4621,0,0,1-5.1574,6.8912,11.0926,11.0926,0,0,1-7.6477,3.081.9663.9663,0,0,1-.681-.22.6958.6958,0,0,1,.0045-.851,2.0587,2.0587,0,0,1,.7223-.5592,24.9283,24.9283,0,0,0,6.5518-4.8115,10.0456,10.0456,0,0,0,2.8068-7.4234,33.5821,33.5821,0,0,0-5.6879-3.6448A12.1643,12.1643,0,0,1,93.48,206.29a1.4107,1.4107,0,0,1-.9545.2453,1.0306,1.0306,0,0,1-.6367-1.25,3.15,3.15,0,0,1,.8236-1.3052,18.3419,18.3419,0,0,0,4.0905-6.7619,8.8841,8.8841,0,0,0-.9922-7.6288c-1.1042-.2489-2.3894-.3134-3.4937-.5622,1.4257,3.01,1.0618,6.8939-.0457,10.0344A3.7707,3.7707,0,0,1,91.2065,200.8a1.5991,1.5991,0,0,1-1.91.1545c-.68-.52-.6166-1.545-.4863-2.3913l.8318-5.4016a10.1844,10.1844,0,0,0,.1369-3.4172,3.4517,3.4517,0,0,0-1.9551-2.6466,4.7365,4.7365,0,0,0-3.3164.3292,6.8929,6.8929,0,0,1-3.2958.7159,6.7417,6.7417,0,0,0,.9895,7.1829c.4624.5938,1.0626,1.2554.8816,1.9859a1.411,1.411,0,0,1-1.8179.8109,3.1239,3.1239,0,0,1-1.5757-1.5185,8.6472,8.6472,0,0,1-1.13-4.5242,7.286,7.286,0,0,0-1.67,5.2011,6.5513,6.5513,0,0,0,2.8369,4.3271c1.1556.7551,2.5677,1.1535,3.5094,2.1628.2807.3009.4976.8126.1911,1.0871a.84.84,0,0,1-.7019.1048,8.44,8.44,0,0,1-6.7135-6.3835,6.3657,6.3657,0,0,0-1.0562,7.7056,8.8291,8.8291,0,0,0,6.9211,4.0046c.4567.0374,1.0047.1022,1.2027.5154.2081.4343-.1346.9323-.5086,1.2358a5.6083,5.6083,0,0,1-5.79.3489,16.5013,16.5013,0,0,1-4.7158-3.8344,14.8075,14.8075,0,0,0,.77,6.72,5.0579,5.0579,0,0,0,1.2009,2.3664,4.3723,4.3723,0,0,0,2.8077.9014,15.6646,15.6646,0,0,0,5.5591-.7463,3.9615,3.9615,0,0,1,1.2361-.2766,1.0148,1.0148,0,0,1,.5252,1.9419,3.34,3.34,0,0,1-1.5316.3764l-4.49.3654a6.7283,6.7283,0,0,0,6.85,4.453C88.0431,224.4414,90.609,221.6389,91.2384,218.6453Z" fill="#8ecbdf" opacity="0.67" style="mix-blend-mode:multiply"/><path d="M138.3045,214.4019a8.6182,8.6182,0,0,0,13.6948,8.6874,6.7592,6.7592,0,0,1-5.4959-3.2271,2.5652,2.5652,0,0,1-.48-1.1918,1.1708,1.1708,0,0,1,.5228-1.1136,1.5386,1.5386,0,0,1,1.4.1227c1.4244.7073,2.4017,2.0763,3.7214,2.9638a6.4025,6.4025,0,0,0,9.357-2.5679c-1.84-.838-3.9195-.6583-5.9344-.8251a13.4376,13.4376,0,0,1-6.4078-2.2642c-.5478-.372-1.1306-.978-.9041-1.6.2273-.6242,1.0681-.7113,1.7282-.6366,2.4561.2781,4.7658,1.2874,7.1789,1.823s5.1614.5187,7.0943-1.022c2.0476-1.6322,2.6083-4.47,2.9192-7.07a33.2827,33.2827,0,0,1-9.3367,3.7559,12.97,12.97,0,0,1-9.5125-1.5632,1.13,1.13,0,0,1-.5472-.6328.8137.8137,0,0,1,.521-.8478,2.41,2.41,0,0,1,1.0613-.12,29.1442,29.1442,0,0,0,9.4676-.8313,11.7453,11.7453,0,0,0,7.3108-5.7145,39.2522,39.2522,0,0,0-3.4716-7.0947,14.2224,14.2224,0,0,1-14.1467,9.9837,1.6494,1.6494,0,0,1-1.1027-.3342,1.2049,1.2049,0,0,1,.1227-1.6359,3.6832,3.6832,0,0,1,1.6153-.8045,21.4469,21.4469,0,0,0,8.192-4.2743,10.3873,10.3873,0,0,0,3.6391-8.2257c-.9525-.9189-2.1976-1.7635-3.15-2.6824-.4021,3.8728-3.1235,7.5335-6.1365,10a4.4092,4.4092,0,0,1-2.12,1.0911,1.87,1.87,0,0,1-2.0019-1.0048c-.3643-.9325.3215-1.9181.9654-2.6848q2.055-2.4463,4.11-4.893a11.9087,11.9087,0,0,0,2.2109-3.3316,4.0358,4.0358,0,0,0-.3472-3.8315,5.5379,5.5379,0,0,0-3.514-1.684,8.0587,8.0587,0,0,1-3.728-1.2852,7.8829,7.8829,0,0,0-3.3711,7.7786c.1017.8741.3,1.8994-.3245,2.52a1.65,1.65,0,0,1-2.3088-.2931,3.6535,3.6535,0,0,1-.6529-2.4738,10.1107,10.1107,0,0,1,1.6168-5.207c-1.934.7509-4.062,2.2546-4.8261,4.1835a7.66,7.66,0,0,0,.2085,6.0461c.6964,1.456,1.8657,2.7112,2.1941,4.2914.0979.471.0041,1.1141-.4689,1.2023a.9813.9813,0,0,1-.765-.3213,9.8682,9.8682,0,0,1-2.8341-10.454,7.4429,7.4429,0,0,0-5.7326,7.0591,10.3234,10.3234,0,0,0,4.4855,8.2029c.4337.3145.9419.7118.889,1.245-.0556.56-.7.85-1.2583.9262-2.3615.3225-4.6712-1.186-5.9981-3.1659a19.2952,19.2952,0,0,1-2.385-6.6942,17.3117,17.3117,0,0,0-3.3095,7.1828,5.9131,5.9131,0,0,0-.2363,3.0938,5.1122,5.1122,0,0,0,2.2586,2.605,18.3153,18.3153,0,0,0,6.0083,2.6284,4.63,4.63,0,0,1,1.403.4739,1.1865,1.1865,0,0,1-.6539,2.2593,3.9025,3.9025,0,0,1-1.7589-.5535q-2.3545-1.18-4.709-2.3605a7.8667,7.8667,0,0,0,4.1427,8.6081C131.5932,218.2544,135.8584,217.0114,138.3045,214.4019Z" fill="#8ecbdf" opacity="0.67" style="mix-blend-mode:multiply"/><rect x="75.5734" y="166.5749" width="43.7368" height="15.7005" fill="#8ecbdf" opacity="0.67" style="mix-blend-mode:multiply"/><rect x="64.6118" y="158.9853" width="108.4054" height="67.514" fill="none"/><rect x="69.3257" y="95.3856" width="102.1203" height="63.5996" fill="#8ecbdf"/><g clip-path="url(#b1f36a44-768f-40ea-aa87-12f5d1449d44)"><path d="M143.6169,163.4647a164.22,164.22,0,0,1,19.2958-45.2833c-.2741,16.3765-3.9732,33.2873-11.6636,47.7485C148.7158,165.4429,145.4222,165.3075,143.6169,163.4647Z" fill="#8ecbdf" opacity="0.67" style="mix-blend-mode:multiply"/><path d="M140.0173,170.7922a136.026,136.026,0,0,1,8.3176-39.9156c2.4374,13.3464,2.18,27.683-1.7179,40.6783C144.48,171.5708,141.783,171.9958,140.0173,170.7922Z" fill="#8ecbdf" opacity="0.67" style="mix-blend-mode:multiply"/><path d="M148.6053,168.3268a99.7966,99.7966,0,0,1,14.3074-26.2711,64.7734,64.7734,0,0,1-9.8338,28.2064C151.5748,169.82,149.59,169.5465,148.6053,168.3268Z" fill="#8ecbdf" opacity="0.67" style="mix-blend-mode:multiply"/><rect x="75.9012" y="130.8766" width="54.13" height="31.9428" fill="#8ecbdf" opacity="0.67" style="mix-blend-mode:multiply"/><path d="M90.5586,150.9381a9.4457,9.4457,0,0,1-.6769-2.571c-.0984-.8435.9373-1.5242,1.6182-2.0317a5.2358,5.2358,0,0,0,1.787-1.7763,16.6976,16.6976,0,0,1,3.44-5.1012,1.705,1.705,0,0,0-1.7194-.5864,3.3346,3.3346,0,0,0-1.6347,1.0106c-.4517.4676-.8265,1.0034-1.2576,1.49a1.81,1.81,0,0,1-.6577.5235.7171.7171,0,0,1-.7857-.1354c-1.1553-1.2948-1.27-3.0674-1.51-4.703l-.53-3.6188c-.1361-.93-.0687-2.4218-.6577-3.2-.1837-.2427-.4683-.4783-.761-.3948a.5873.5873,0,0,0-.373.4235,1.7314,1.7314,0,0,0-.0234.5865l.5244,7.0772a.4162.4162,0,0,1-.3775.39.57.57,0,0,1-.5085-.2432,1.6794,1.6794,0,0,1-.24-.5366q-.8084-2.5836-1.6165-5.1674a5.369,5.369,0,0,0-.8155-1.7942.6841.6841,0,0,0-.3777-.2765.5352.5352,0,0,0-.56.425,1.5588,1.5588,0,0,0,.0583.7636l1.7776,7.1775c-.4791.71-1.05-.9444-1.41-1.6141l-2.2671-4.2132a2.3474,2.3474,0,0,0-.5292-.7358.7113.7113,0,0,0-1.2011.6882,2.4756,2.4756,0,0,0,.38.8785,34.49,34.49,0,0,1,2.8569,6.1441c.082.2342-.1872.4269-.4332.3951a.9628.9628,0,0,1-.5757-.4392q-1.1979-1.5541-2.3046-3.1759a2.2742,2.2742,0,0,0-.6835-.74.7617.7617,0,0,0-.9337.0815c-.2955.3409-.083.8653.1462,1.2538a33.6255,33.6255,0,0,0,3.6517,5.0513c.7974.9113.5185,2.3382.8992,3.4878a8.1538,8.1538,0,0,0,1.7447,3.1515c.244,1.3609.5969,2.6307.9419,3.97A7.5628,7.5628,0,0,0,90.5586,150.9381Z" fill="#ffbc98"/><path d="M84.6,149.03a3.8463,3.8463,0,0,0,2.0737-1.1661,4.318,4.318,0,0,0,3.2292.6433c.0114.0865.0257.1727.0395.2588a3.8062,3.8062,0,0,1-3.0275,0,3.8467,3.8467,0,0,1-2.791.6533c-.0222-.11-.0429-.2214-.0639-.3325A3.72,3.72,0,0,0,84.6,149.03Z" fill="#d9d9d9" style="mix-blend-mode:multiply"/><path d="M83.2489,143.0823a8.6924,8.6924,0,0,1,5.8339-1.9474A24.9949,24.9949,0,0,0,86.1,141.91,24.6574,24.6574,0,0,0,83.2489,143.0823Z" fill="#d9d9d9" style="mix-blend-mode:multiply"/><path d="M84.9745,144.1475a8.68,8.68,0,0,1,3.9833-2.0454c-.6467.3991-1.3071.7309-1.9646,1.0755C86.33,143.51,85.6751,143.8537,84.9745,144.1475Z" fill="#d9d9d9" style="mix-blend-mode:multiply"/><path d="M86.4273,145.2257a3.9439,3.9439,0,0,1,2.5317-1.9933c-.4226.3635-.8473.6711-1.26,1.0037C87.278,144.5589,86.8792,144.9,86.4273,145.2257Z" fill="#d9d9d9" style="mix-blend-mode:multiply"/><path d="M98.0753,180.5717l-.1034-1.88c-1.5116-6.258-5.02-22.232-6.5318-28.49a21.3988,21.3988,0,0,1-7.802,2.3354c.1489,6.1942,1.8234,21.8492,2.5309,28.0047a15.46,15.46,0,0,0,.88,4.092,5.7762,5.7762,0,0,0,2.6919,3.0987,5.4168,5.4168,0,0,0,5.6624-.9568C96.953,185.4735,97.6293,182.5457,98.0753,180.5717Z" fill="#fff"/><path d="M113.2012,128.1916a5.512,5.512,0,0,1-5.0982-2.029,11.4538,11.4538,0,0,1-2.2512-5.2314c-.3824-1.8807-.5535-3.8042-1.04-5.6606-.425-1.62-1.0864-3.1718-1.4911-4.7971a8.1026,8.1026,0,0,1,.0855-4.9414,4.17,4.17,0,0,1,3.8251-2.746c.4929-3.3205,3.7234-6.6438,7.0783-6.762,2.9318-.1032,5.594,1.5381,8.3311,2.5936a21.7552,21.7552,0,0,0,10.7368,1.2478c-.423,1.9284-1.157,4.2179-2.5851,5.5812,1.2581,1.5822.8909,3.9131.3615,5.864q-1.5258,5.6236-3.0519,11.2472c-.5946,2.1914-1.4121,4.654-3.4875,5.575-1.8109.8037-3.9307.1041-5.6652-.8533C117.3792,126.4131,114.9574,127.831,113.2012,128.1916Z" fill="#59391a"/><path d="M139.9726,159.379c-1.3728-6.5643-3.5533-13.0712-7.4326-18.2217a22.3154,22.3154,0,0,0-9.3671-7.4052l-.7568-8.41H111.9547l-.7569,8.41a22.3144,22.3144,0,0,0-9.367,7.4052c-3.8793,5.15-6.06,11.6574-7.4327,18.2217a178.4368,178.4368,0,0,0-2.7728,23.2773c8.092,3.0744,17.2124,4.1163,25.56,2.0552,8.3476,2.0611,17.4681,1.0192,25.56-2.0552A178.42,178.42,0,0,0,139.9726,159.379Z" fill="#ffbc98"/><path d="M130.7167,156.2744c1.5538-4.2411,2.8425-8.7262,2.3725-13.2185a11.919,11.919,0,0,0-.2563-1.4924c-.0981-.135-.1926-.2729-.2929-.4062a22.3154,22.3154,0,0,0-9.3671-7.4052l-.0079-.0876a13.7,13.7,0,0,1-11.9637.05l-.0035.038a21.6546,21.6546,0,0,0-8.1328,5.8956c-.0064.0488-.0135.0979-.02.1466a101.9378,101.9378,0,0,0,.596,29.93c.9247,5.4679,2.4472,11.1385,6.325,15.1029.2927.2992.6037.5858.928.8589a36.8394,36.8394,0,0,0,6.2912-.9741,36.4679,36.4679,0,0,0,5.2428.8861,12.8057,12.8057,0,0,0,2.8252-5.35c.9455-3.606.7549-7.4087,1.3467-11.0893C127.3171,164.6989,129.163,160.5155,130.7167,156.2744Z" fill="#00aea1"/><path d="M114.8806,185.1986c.2268-9.6111.276-19.253-1.1911-28.7436-.4628-2.9942-1.0752-5.963-1.6873-8.93q-1.3319-6.4557-2.6636-12.9115a23.1708,23.1708,0,0,0-7.5078,6.5441c-3.8793,5.15-6.06,11.6574-7.4327,18.2217a178.4368,178.4368,0,0,0-2.7728,23.2773A44.4976,44.4976,0,0,0,114.8806,185.1986Z" fill="#fff"/><path d="M109.5309,185.75a38.1981,38.1981,0,0,0,5.35-.5517c.2268-9.6111.276-19.253-1.1911-28.7436-.4628-2.9942-1.0752-5.963-1.6873-8.93q-1.3319-6.4557-2.6636-12.9115a23.1708,23.1708,0,0,0-7.5078,6.5441c-.5609.7447-1.0823,1.5206-1.5748,2.3181q-.4055,1.4922-.8108,2.9842a43.2751,43.2751,0,0,1,7.0072,4.0641,79.5957,79.5957,0,0,1-5.0394,6.2991A85.4934,85.4934,0,0,1,109.5309,185.75Z" opacity="0.05"/><path d="M139.9726,159.379c-1.3728-6.5643-3.5533-13.0712-7.4326-18.2217a23.5893,23.5893,0,0,0-6.5535-6.0027,53.0412,53.0412,0,0,0-3.639,11.9931,140.9234,140.9234,0,0,0-1.802,18.6478c-.3374,6.4846-.8468,12.9042-1.2353,19.3695a44.4283,44.4283,0,0,0,23.4352-2.5087A178.42,178.42,0,0,0,139.9726,159.379Z" fill="#fff"/><path d="M118.4243,137.5567a17.9625,17.9625,0,0,0,7.1841-2.6245,18.662,18.662,0,0,0-2.4355-1.18l-.0079-.0876a13.7,13.7,0,0,1-11.9637.05l-.0035.038a18.432,18.432,0,0,0-2.03.9531A11.53,11.53,0,0,0,118.4243,137.5567Z" fill="#00aea1" opacity="0.59" style="mix-blend-mode:multiply"/><path d="M104.0673,156.2127a85.4938,85.4938,0,0,1,5.5133,29.5356,38.1784,38.1784,0,0,0,5.3-.55c.2268-9.6111.276-19.253-1.1911-28.7436-.4628-2.9942-1.0752-5.963-1.6873-8.93q-1.3319-6.4557-2.6636-12.9115a20.8307,20.8307,0,0,0-2.8933,1.8671l-3.4165,9.2352a43.2789,43.2789,0,0,1,6.6181,4.6712A79.6282,79.6282,0,0,1,104.0673,156.2127Z" fill="#fff"/><path d="M122.3475,147.1477a140.9234,140.9234,0,0,0-1.802,18.6478c-.3374,6.4846-.8468,12.9042-1.2353,19.3695a38.14,38.14,0,0,0,5.487.5834,88.6648,88.6648,0,0,1,8.3161-29.05,82.5881,82.5881,0,0,1-5.2263-6.5328,44.8762,44.8762,0,0,1,7.2673-4.215l-.3588-1.3206a31.3,31.3,0,0,0-2.2555-3.4725,23.5893,23.5893,0,0,0-6.5535-6.0027A53.0412,53.0412,0,0,0,122.3475,147.1477Z" opacity="0.05"/><path d="M128.3434,136.8144a21.58,21.58,0,0,0-2.3569-1.66,53.0412,53.0412,0,0,0-3.639,11.9931,140.9234,140.9234,0,0,0-1.802,18.6478c-.3374,6.4846-.8468,12.9042-1.2353,19.3695a38.0717,38.0717,0,0,0,5.3505.5773,88.6642,88.6642,0,0,1,5.7-29.6769,82.6016,82.6016,0,0,1-5.7866-6.0421,44.8785,44.8785,0,0,1,6.8636-4.8446Z" fill="#fff"/><path d="M111.5754,129.5561a20.1192,20.1192,0,0,0,11.59,4.11l-.749-8.3236H111.9547Z" fill="#c5856c"/><path d="M107.8561,114.7132a4.74,4.74,0,0,0-1.6637-1.9635,1.9726,1.9726,0,0,0-2.3994.2163,2.7238,2.7238,0,0,0-.4593,2.01,7.3843,7.3843,0,0,0,1.2594,4.03,3.7114,3.7114,0,0,0,3.7425,1.5146C108.5334,118.58,108.78,116.431,107.8561,114.7132Z" fill="#ffbc98"/><path d="M107.762,116.2272l.1481.024a8.5907,8.5907,0,0,0-.656-1.3723,2.8805,2.8805,0,0,0-1.08-1.0482,1.7445,1.7445,0,0,0-1.4709-.09,1.2608,1.2608,0,0,0-.7685,1.2025,1.2549,1.2549,0,0,1,1.186-.3344,1.2124,1.2124,0,0,1,.8955.8146.9238.9238,0,0,0-.7013.7641,1.8147,1.8147,0,0,0,.1616,1.0644,1.6708,1.6708,0,0,0,.3336.5369.7943.7943,0,0,0,.5652.2515,1.1731,1.1731,0,0,1-.8321.4711,2.262,2.262,0,0,0,2.2023-.143A9.8464,9.8464,0,0,0,107.762,116.2272Z" fill="#f0a484"/><path d="M126.5147,115.4581a4.7407,4.7407,0,0,1,1.6637-1.9637,1.9728,1.9728,0,0,1,2.3994.2165,2.7239,2.7239,0,0,1,.4592,2.0094,7.3832,7.3832,0,0,1-1.2593,4.03,3.7117,3.7117,0,0,1-3.7425,1.5147C125.8373,119.3247,125.59,117.1758,126.5147,115.4581Z" fill="#ffbc98"/><path d="M126.6087,116.9721l-.1481.0239a8.6079,8.6079,0,0,1,.656-1.3723,2.8813,2.8813,0,0,1,1.08-1.0482,1.7445,1.7445,0,0,1,1.4709-.09,1.2609,1.2609,0,0,1,.7686,1.2025,1.255,1.255,0,0,0-1.186-.3344,1.2125,1.2125,0,0,0-.8956.8147.9241.9241,0,0,1,.7014.764,1.8145,1.8145,0,0,1-.1617,1.0644,1.6691,1.6691,0,0,1-.3336.5369.794.794,0,0,1-.5651.2515,1.1732,1.1732,0,0,0,.8321.4712,2.2622,2.2622,0,0,1-2.2023-.143A9.8527,9.8527,0,0,1,126.6087,116.9721Z" fill="#f0a484"/><ellipse cx="117.2651" cy="116.8101" rx="10.4176" ry="14.01" fill="#ffbc98"/><g style="mix-blend-mode:multiply"><path d="M116.5893,121.7656a2.2727,2.2727,0,0,1-.639-.0861,1.5207,1.5207,0,0,1-1.1441-1.3342,2.1007,2.1007,0,0,1,.5092-1.2589l.05-.0719a7.3046,7.3046,0,0,0,1.2253-5.1742.4061.4061,0,0,1,.8038-.1165,8.1274,8.1274,0,0,1-1.3628,5.7554l-.0523.0745a1.4561,1.4561,0,0,0-.3617.7636.7363.7363,0,0,0,.5592.5822,2.4709,2.4709,0,0,0,1.1586-.043.4062.4062,0,0,1,.1676.7949A4.4521,4.4521,0,0,1,116.5893,121.7656Z" fill="#d9d9d9"/></g><g style="mix-blend-mode:multiply"><path d="M117.3005,124.4373a6.43,6.43,0,0,1-3.23-.8539.406.406,0,1,1,.4083-.7019,5.808,5.808,0,0,0,6.02-.2255.4062.4062,0,0,1,.46.6695A6.4767,6.4767,0,0,1,117.3005,124.4373Z" fill="#d9d9d9"/></g><path d="M112.3608,114.5988a.779.779,0,1,1-.7781-.8168A.7981.7981,0,0,1,112.3608,114.5988Z" fill="#59391a"/><path d="M123.3614,114.5988a.779.779,0,1,1-.7781-.8168A.7981.7981,0,0,1,123.3614,114.5988Z" fill="#59391a"/><path d="M113.081,119.0926c0,.84-.961,1.5219-2.1465,1.5219s-2.1466-.6814-2.1466-1.5219.9611-1.522,2.1466-1.522S113.081,118.2521,113.081,119.0926Z" fill="#ffa978"/><path d="M125.8494,119.0926c0,.84-.9053,1.5219-2.0221,1.5219s-2.0221-.6814-2.0221-1.5219.9053-1.522,2.0221-1.522S125.8494,118.2521,125.8494,119.0926Z" fill="#ffa978"/><path d="M112.8593,110.4485a2.597,2.597,0,0,0-1.8577-.0059,4.6452,4.6452,0,0,0-2.1582,1.8891c-.07.105-.0689.1354-.0668.1422a.1092.1092,0,0,0,.0874.02.661.661,0,0,0,.2306-.1205,4.879,4.879,0,0,1,3.997-.674l.0933.0261a1.6556,1.6556,0,0,0,.4393.0858h.0015a.4019.4019,0,0,0,.3452-.1562.2985.2985,0,0,0,.0173-.2615A2.3269,2.3269,0,0,0,112.8593,110.4485Z" fill="#59391a"/><path d="M124.8623,112.36a.7261.7261,0,0,0,.25.134.1058.1058,0,0,0,.0878-.0206c.0018-.0059.0033-.0363-.0668-.141a4.646,4.646,0,0,0-2.1586-1.8894,2.5968,2.5968,0,0,0-1.8576.0059,2.3265,2.3265,0,0,0-1.1289.9448.2994.2994,0,0,0,.0173.2619.4025.4025,0,0,0,.3452.1558h.0015a1.6563,1.6563,0,0,0,.44-.0859l.0926-.026a4.747,4.747,0,0,1,1.255-.1675A4.8662,4.8662,0,0,1,124.8623,112.36Z" fill="#59391a"/><path d="M105.2294,111.58a66.2494,66.2494,0,0,1,1.65,6.584,66.62,66.62,0,0,0,1.9849-9.3707,4.905,4.905,0,0,0,1.6695-1.97,20.8684,20.8684,0,0,0,14.7828,1.7443,10.5386,10.5386,0,0,0,1.7111,4.2422,15.97,15.97,0,0,0,.5645,6.3108,45.2279,45.2279,0,0,0,2.36-8.5972c.4327-2.5555-.9593-5.1864-2.8365-6.9735a11.4756,11.4756,0,0,0-7.03-2.9506,18.2342,18.2342,0,0,0-7.6191,1.2181,13.28,13.28,0,0,0-5.4778,3.4159C105.545,106.86,104.5935,109.501,105.2294,111.58Z" fill="#59391a"/><path d="M110.3607,103.0775a24.3956,24.3956,0,0,0,14.0316,2.4212,15.2189,15.2189,0,0,1-14.0316-2.4212Z" fill="#fff" opacity="0.1"/><path d="M114.4464,102.0663a40.6688,40.6688,0,0,0,5.2456.7949,41.2392,41.2392,0,0,0,5.3054.025,13.3634,13.3634,0,0,1-10.551-.82Z" fill="#fff" opacity="0.1"/><path d="M117.5855,100.3116a32.9548,32.9548,0,0,0,3.5141.3312,33.7716,33.7716,0,0,0,3.5276-.1216,7.1189,7.1189,0,0,1-7.0417-.21Z" fill="#fff" opacity="0.1"/></g><rect x="173.0172" y="158.9853" width="105.2629" height="65.5569" fill="#8ecbdf"/><rect x="69.3257" y="212.4941" width="208.9545" height="13.9015" fill="#fff" opacity="0.5"/><g clip-path="url(#a2c10623-ee26-4ffe-b2a7-fd634377e643)"><path d="M262.8284,232.2348a155.9762,155.9762,0,0,1,12.3478-45.0922c1.8437,15.447.5327,31.8364-4.8488,46.4327C267.8808,233.4421,264.7639,233.7373,262.8284,232.2348Z" fill="#8ecbdf" opacity="0.67" style="mix-blend-mode:multiply"/><path d="M260.3812,239.5926a129.2017,129.2017,0,0,1,2.7051-38.6318c4.0066,12.2474,5.6039,25.7726,3.6037,38.5025C264.6811,239.7526,262.1973,240.4987,260.3812,239.5926Z" fill="#8ecbdf" opacity="0.67" style="mix-blend-mode:multiply"/><path d="M268.1469,236.17a94.7923,94.7923,0,0,1,10.0931-26.56,61.52,61.52,0,0,1-5.6347,27.8069C271.1331,237.1945,269.23,237.1917,268.1469,236.17Z" fill="#8ecbdf" opacity="0.67" style="mix-blend-mode:multiply"/><path d="M203.5013,228.32a201.2722,201.2722,0,0,0-23.6495-55.5009c.3359,20.0717,4.87,40.7982,14.2952,58.5223C197.2519,230.7446,201.2887,230.5786,203.5013,228.32Z" fill="#8ecbdf" opacity="0.67" style="mix-blend-mode:multiply"/><path d="M207.9131,237.3009a166.7183,166.7183,0,0,0-10.1943-48.922c-2.9874,16.3578-2.6714,33.9293,2.1055,49.8567C202.4433,238.2551,205.7491,238.776,207.9131,237.3009Z" fill="#8ecbdf" opacity="0.67" style="mix-blend-mode:multiply"/><path d="M197.3874,234.2791A122.3208,122.3208,0,0,0,179.8518,202.08c1.3709,12.1226,5.32,24.3971,12.0525,34.5707C193.7479,236.1094,196.18,235.7742,197.3874,234.2791Z" fill="#8ecbdf" opacity="0.67" style="mix-blend-mode:multiply"/><rect x="205.3326" y="198.3906" width="54.13" height="31.9428" fill="#8ecbdf" opacity="0.67" style="mix-blend-mode:multiply"/><path d="M215.0428,184.2679a2.9581,2.9581,0,0,1-2.4573-1.2954,5.8493,5.8493,0,0,1-.9509-2.7044,3.46,3.46,0,0,1,.0521-1.4844,1.347,1.347,0,0,1,1.0059-.9307.934.934,0,0,1-.3392-.9389.7906.7906,0,0,1,.72-.5562,1.4934,1.4934,0,0,1-.8991-1.499,1.2019,1.2019,0,0,1,1.0128-1.1705,2.607,2.607,0,0,1,2.8639-4.0112,5.9566,5.9566,0,0,1,1.1824-4.0589,5.0007,5.0007,0,0,1,3.705-2.25,4.1086,4.1086,0,0,1,3.7991,1.9245,2.672,2.672,0,0,1,2.54-.78,1.9892,1.9892,0,0,1,1.021.35,1.1215,1.1215,0,0,1,.4729.9361,1.1513,1.1513,0,0,1,1.0269-.4139,1.0016,1.0016,0,0,1,.7774.6721,6.6961,6.6961,0,0,1,3.6079-1.3623,4.6031,4.6031,0,0,1,3.515,1.3484,3.5534,3.5534,0,0,1,.7976,3.5958c.7808.0731,1.3073,1.0062,1.56,1.7484a2.097,2.097,0,0,1-.5414,2.1585,2.3174,2.3174,0,0,1,.9075,1.5329,1.6082,1.6082,0,0,1-.7082,1.2908,1.5115,1.5115,0,0,1,.4607,1.2067.9233.9233,0,0,1-.6632.7409,2.99,2.99,0,0,1,.4528,2.7592,4.5518,4.5518,0,0,1-1.6588,2.3014,2.8907,2.8907,0,0,1-.6851,2.7058,6.8287,6.8287,0,0,1-2.5235,1.5165,28.7658,28.7658,0,0,1-6.29,1.545,18.4559,18.4559,0,0,1-8.102-.2389C218.1027,188.1,215.7148,186.9086,215.0428,184.2679Z" fill="#64401c"/><path d="M251.2412,206.3163a9.4413,9.4413,0,0,0,.677-2.571c.0983-.8435-.9373-1.5242-1.6182-2.0317a5.2361,5.2361,0,0,1-1.7871-1.7763,16.694,16.694,0,0,0-3.44-5.1012,1.7051,1.7051,0,0,1,1.72-.5864,3.3347,3.3347,0,0,1,1.6346,1.0106c.4517.4676.8265,1.0034,1.2576,1.49a1.8091,1.8091,0,0,0,.6578.5235.717.717,0,0,0,.7856-.1354c1.1553-1.2948,1.27-3.0674,1.51-4.703q.2649-1.8094.53-3.6188c.1362-.93.0687-2.4218.6578-3.2.1836-.2427.4682-.4783.7609-.3948a.5876.5876,0,0,1,.3731.4235,1.734,1.734,0,0,1,.0234.5865q-.2623,3.5385-.5245,7.0772a.4163.4163,0,0,0,.3775.39.5707.5707,0,0,0,.5086-.2432,1.6816,1.6816,0,0,0,.24-.5366l1.6164-5.1674a5.371,5.371,0,0,1,.8155-1.7942.6841.6841,0,0,1,.3777-.2765.5354.5354,0,0,1,.5605.425,1.5588,1.5588,0,0,1-.0584.7636q-.8888,3.5888-1.7776,7.1775c.4791.71,1.05-.9444,1.41-1.6141l2.2671-4.2132a2.3474,2.3474,0,0,1,.5292-.7358.7113.7113,0,0,1,1.2012.6882,2.4776,2.4776,0,0,1-.38.8785,34.497,34.497,0,0,0-2.8569,6.1441c-.0819.2342.1872.4269.4333.3951a.9629.9629,0,0,0,.5756-.4392q1.198-1.5541,2.3046-3.1759a2.2745,2.2745,0,0,1,.6836-.74.7617.7617,0,0,1,.9337.0815c.2955.3409.083.8653-.1462,1.2538a33.6332,33.6332,0,0,1-3.6518,5.0513c-.7974.9113-.5185,2.3382-.8991,3.4878a8.1564,8.1564,0,0,1-1.7447,3.1515c-.2441,1.3609-.597,2.6306-.9419,3.97A7.5629,7.5629,0,0,1,251.2412,206.3163Z" fill="#ffbc98"/><path d="M257.2,204.4079a3.8463,3.8463,0,0,1-2.0737-1.1661,4.3178,4.3178,0,0,1-3.2292.6433c-.0114.0866-.0257.1727-.04.2588a3.8062,3.8062,0,0,0,3.0275,0,3.8468,3.8468,0,0,0,2.791.6533c.0222-.11.043-.2214.0639-.3325A3.7226,3.7226,0,0,1,257.2,204.4079Z" fill="#d9d9d9" style="mix-blend-mode:multiply"/><path d="M258.5509,198.4605a8.6923,8.6923,0,0,0-5.8338-1.9474,24.9982,24.9982,0,0,1,2.9831.7753A24.6574,24.6574,0,0,1,258.5509,198.4605Z" fill="#d9d9d9" style="mix-blend-mode:multiply"/><path d="M256.8253,199.5257a8.68,8.68,0,0,0-3.9833-2.0454c.6467.3991,1.3071.7309,1.9646,1.0755C255.47,198.8886,256.1247,199.2319,256.8253,199.5257Z" fill="#d9d9d9" style="mix-blend-mode:multiply"/><path d="M255.3725,200.6039a3.9441,3.9441,0,0,0-2.5316-1.9933c.4225.3635.8473.6711,1.26,1.0037C254.5218,199.9371,254.9207,200.2778,255.3725,200.6039Z" fill="#d9d9d9" style="mix-blend-mode:multiply"/><path d="M243.7245,235.95l.1034-1.88c1.5116-6.258,5.02-22.232,6.5318-28.49a21.3968,21.3968,0,0,0,7.8021,2.3354c-.149,6.1942-1.8235,21.8492-2.531,28.0047a15.46,15.46,0,0,1-.88,4.092,5.7758,5.7758,0,0,1-2.6919,3.0987,5.4166,5.4166,0,0,1-5.6623-.9568C244.8468,240.8517,244.1706,237.9239,243.7245,235.95Z" fill="#fff"/><path d="M248.5429,226.893c-1.3728-6.5643-3.5534-13.0711-7.4326-18.2216a22.3136,22.3136,0,0,0-9.3671-7.4051l-.7568-8.41H220.5249l-.7568,8.41a22.3138,22.3138,0,0,0-9.367,7.4052c-3.8793,5.15-6.06,11.6573-7.4327,18.2216a178.4384,178.4384,0,0,0-2.7728,23.2774c8.0919,3.0744,17.2124,4.1163,25.56,2.0552,8.3476,2.0611,17.4681,1.0192,25.56-2.0552A178.4384,178.4384,0,0,0,248.5429,226.893Z" fill="#ffbc98"/><path d="M239.287,223.7885c1.5538-4.2411,2.8424-8.7262,2.3725-13.2185a11.9193,11.9193,0,0,0-.2564-1.4924c-.098-.1351-.1925-.2729-.2928-.4062a22.3136,22.3136,0,0,0-9.3671-7.4051l-.0079-.0877a13.7,13.7,0,0,1-11.9638.05l-.0034.038a21.6546,21.6546,0,0,0-8.1328,5.8956c-.0065.0488-.0135.0979-.02.1466a101.9378,101.9378,0,0,0,.5959,29.9295c.9247,5.468,2.4471,11.1385,6.325,15.1029.2927.2992.6038.5858.928.8588a36.8309,36.8309,0,0,0,6.2912-.974,36.4656,36.4656,0,0,0,5.2428.8861,12.8057,12.8057,0,0,0,2.8252-5.35c.9455-3.606.7549-7.4087,1.3467-11.0894C235.8874,232.213,237.7332,228.03,239.287,223.7885Z" fill="#00aea1"/><path d="M223.4509,252.7127c.2268-9.6111.2759-19.2531-1.1911-28.7436-.4629-2.9943-1.0753-5.9631-1.6874-8.93l-2.6635-12.9114a23.1682,23.1682,0,0,0-7.5078,6.544c-3.8793,5.15-6.06,11.6573-7.4327,18.2216a178.4384,178.4384,0,0,0-2.7728,23.2774A44.5,44.5,0,0,0,223.4509,252.7127Z" fill="#fff"/><path d="M218.1012,253.2644a38.1981,38.1981,0,0,0,5.35-.5517c.2268-9.6111.2759-19.2531-1.1911-28.7436-.4629-2.9943-1.0753-5.9631-1.6874-8.93l-2.6635-12.9114a23.1682,23.1682,0,0,0-7.5078,6.544c-.5609.7447-1.0823,1.5206-1.5749,2.3181q-.4055,1.492-.8107,2.9842a43.2683,43.2683,0,0,1,7.0072,4.0642,79.6521,79.6521,0,0,1-5.0393,6.299A85.4949,85.4949,0,0,1,218.1012,253.2644Z" opacity="0.05"/><path d="M248.5429,226.893c-1.3728-6.5643-3.5534-13.0711-7.4326-18.2216a23.5883,23.5883,0,0,0-6.5536-6.0027,53.0394,53.0394,0,0,0-3.6389,11.9931,140.9556,140.9556,0,0,0-1.8021,18.6478c-.3373,6.4846-.8467,12.9042-1.2352,19.3694a44.4283,44.4283,0,0,0,23.4352-2.5086A178.4384,178.4384,0,0,0,248.5429,226.893Z" fill="#fff"/><path d="M226.9946,205.0707a17.9619,17.9619,0,0,0,7.1841-2.6244,18.6358,18.6358,0,0,0-2.4355-1.18l-.0079-.0877a13.7,13.7,0,0,1-11.9638.05l-.0034.038a18.3954,18.3954,0,0,0-2.03.9531A11.5293,11.5293,0,0,0,226.9946,205.0707Z" fill="#00aea1" opacity="0.59" style="mix-blend-mode:multiply"/><path d="M212.6376,223.7267a85.4971,85.4971,0,0,1,5.5133,29.5357,38.1784,38.1784,0,0,0,5.3-.55c.2268-9.6111.2759-19.2531-1.1911-28.7436-.4629-2.9943-1.0753-5.9631-1.6874-8.93l-2.6635-12.9114a20.7965,20.7965,0,0,0-2.8933,1.867q-1.7083,4.6176-3.4165,9.2352a43.2789,43.2789,0,0,1,6.6181,4.6712A79.6276,79.6276,0,0,1,212.6376,223.7267Z" fill="#fff"/><path d="M230.9178,214.6618a140.9556,140.9556,0,0,0-1.8021,18.6478c-.3373,6.4846-.8467,12.9042-1.2352,19.3694a38.1269,38.1269,0,0,0,5.487.5835,88.6671,88.6671,0,0,1,8.3161-29.05,82.5984,82.5984,0,0,1-5.2264-6.5328,44.8873,44.8873,0,0,1,7.2673-4.2149q-.1794-.66-.3587-1.3206a31.3,31.3,0,0,0-2.2555-3.4725,23.5883,23.5883,0,0,0-6.5536-6.0027A53.0394,53.0394,0,0,0,230.9178,214.6618Z" opacity="0.05"/><path d="M236.9136,204.3285a21.56,21.56,0,0,0-2.3569-1.66,53.0394,53.0394,0,0,0-3.6389,11.9931,140.9556,140.9556,0,0,0-1.8021,18.6478c-.3373,6.4846-.8467,12.9042-1.2352,19.3694a38.0869,38.0869,0,0,0,5.35.5774,88.6691,88.6691,0,0,1,5.7-29.6769,82.625,82.625,0,0,1-5.7866-6.0422,44.8885,44.8885,0,0,1,6.8637-4.8445Z" fill="#fff"/><path d="M220.1458,197.07a20.12,20.12,0,0,0,11.59,4.11l-.7491-8.3237H220.5249Z" fill="#c5856c"/><path d="M216.4264,182.2273a4.74,4.74,0,0,0-1.6637-1.9636,1.9729,1.9729,0,0,0-2.3995.2164,2.724,2.724,0,0,0-.4592,2.01,7.3825,7.3825,0,0,0,1.2594,4.03,3.7114,3.7114,0,0,0,3.7425,1.5146C217.1037,186.0939,217.3507,183.9451,216.4264,182.2273Z" fill="#ffbc98"/><path d="M216.3323,183.7413l.1482.024a8.6,8.6,0,0,0-.6561-1.3723,2.8805,2.8805,0,0,0-1.08-1.0482,1.7439,1.7439,0,0,0-1.4708-.09,1.2608,1.2608,0,0,0-.7686,1.2025,1.2549,1.2549,0,0,1,1.186-.3345,1.213,1.213,0,0,1,.8956.8147.9238.9238,0,0,0-.7014.7641,1.8133,1.8133,0,0,0,.1616,1.0643,1.6687,1.6687,0,0,0,.3336.5369.7948.7948,0,0,0,.5652.2516,1.1738,1.1738,0,0,1-.8321.4711,2.2622,2.2622,0,0,0,2.2023-.1429A9.8537,9.8537,0,0,0,216.3323,183.7413Z" fill="#f0a484"/><path d="M235.0849,182.9721a4.74,4.74,0,0,1,1.6637-1.9635,1.9728,1.9728,0,0,1,2.3995.2164,2.724,2.724,0,0,1,.4592,2.01,7.3824,7.3824,0,0,1-1.2594,4.03,3.7116,3.7116,0,0,1-3.7425,1.5147C234.4076,186.8388,234.1606,184.69,235.0849,182.9721Z" fill="#ffbc98"/><path d="M235.179,184.4861l-.1481.024a8.5907,8.5907,0,0,1,.656-1.3723,2.8813,2.8813,0,0,1,1.08-1.0482,1.7448,1.7448,0,0,1,1.4709-.09,1.2609,1.2609,0,0,1,.7686,1.2025,1.2551,1.2551,0,0,0-1.1861-.3344,1.2127,1.2127,0,0,0-.8955.8146.9239.9239,0,0,1,.7013.7641,1.8138,1.8138,0,0,1-.1616,1.0644,1.6723,1.6723,0,0,1-.3335.5369.7947.7947,0,0,1-.5653.2515,1.1735,1.1735,0,0,0,.8321.4711,2.2619,2.2619,0,0,1-2.2023-.1429A9.8537,9.8537,0,0,1,235.179,184.4861Z" fill="#f0a484"/><ellipse cx="225.8354" cy="184.3242" rx="10.4176" ry="14.01" fill="#ffbc98"/><g style="mix-blend-mode:multiply"><path d="M225.16,189.28a2.2732,2.2732,0,0,1-.6391-.086,1.5207,1.5207,0,0,1-1.144-1.3342,2.1,2.1,0,0,1,.5092-1.2589l.05-.072a7.3042,7.3042,0,0,0,1.2253-5.174.4061.4061,0,1,1,.8037-.1167,8.1266,8.1266,0,0,1-1.3627,5.7554l-.0524.0746a1.4562,1.4562,0,0,0-.3616.7636.7361.7361,0,0,0,.5592.5822,2.4721,2.4721,0,0,0,1.1586-.043.4061.4061,0,1,1,.1676.7948A4.4452,4.4452,0,0,1,225.16,189.28Z" fill="#d9d9d9"/></g><ellipse cx="220.153" cy="182.1129" rx="0.7781" ry="0.8167" fill="#59391a"/><path d="M231.9317,182.1129a.779.779,0,1,1-.7781-.8168A.7982.7982,0,0,1,231.9317,182.1129Z" fill="#59391a"/><ellipse cx="219.5047" cy="186.6066" rx="2.1465" ry="1.5219" fill="#ffa978"/><path d="M234.42,186.6066c0,.8406-.9053,1.5219-2.0221,1.5219s-2.0221-.6813-2.0221-1.5219.9053-1.5219,2.0221-1.5219S234.42,185.7661,234.42,186.6066Z" fill="#ffa978"/><path d="M221.43,177.9626a2.596,2.596,0,0,0-1.8577-.0059,4.6445,4.6445,0,0,0-2.1582,1.8892c-.07.1049-.069.1353-.0667.1421a.11.11,0,0,0,.0874.02.6649.6649,0,0,0,.23-.1207,4.8792,4.8792,0,0,1,3.997-.6739l.0933.0262a1.6665,1.6665,0,0,0,.4393.0857h.0014a.4015.4015,0,0,0,.3452-.1562.2982.2982,0,0,0,.0174-.2615A2.3265,2.3265,0,0,0,221.43,177.9626Z" fill="#59391a"/><path d="M233.4325,179.8737a.7313.7313,0,0,0,.25.1341.1062.1062,0,0,0,.0877-.0207c.0019-.0059.0034-.0363-.0667-.1411a4.6463,4.6463,0,0,0-2.1586-1.8893,2.596,2.596,0,0,0-1.8577.0059,2.3267,2.3267,0,0,0-1.1288.9448.2991.2991,0,0,0,.0173.2619.4022.4022,0,0,0,.3452.1558h.0014a1.6613,1.6613,0,0,0,.44-.086l.0926-.0259a4.7424,4.7424,0,0,1,1.255-.1675A4.8658,4.8658,0,0,1,233.4325,179.8737Z" fill="#59391a"/><path d="M215.9651,182.5236a10.0533,10.0533,0,0,0,3.814,8.0169,6.5688,6.5688,0,0,1,6.3779-.6036,4.9407,4.9407,0,0,1,2.9046-1.0746,4.5684,4.5684,0,0,1,2.84.8855,10.14,10.14,0,0,0,4.2864-5.8428c.1217.1913.357.4627.4787.654-.1961,3.473-.621,7.1365-2.3013,10.1824a10.9359,10.9359,0,0,1-7.0347,5.3915,9.5551,9.5551,0,0,1-8.4917-2.2221,13.4228,13.4228,0,0,1-3.149-5.1162c-1.3194-3.4625-1.9193-7.3577-.7407-10.8706C215.3276,181.9,215.9733,182.1448,215.9651,182.5236Z" fill="#64401c"/><path d="M220.7168,186.0684a4.1923,4.1923,0,1,1,4.1919-4.1919A4.1971,4.1971,0,0,1,220.7168,186.0684Zm0-7.678a3.4858,3.4858,0,1,0,3.4854,3.4861A3.49,3.49,0,0,0,220.7168,178.39Z" fill="#fff"/><path d="M230.1051,186.0684a4.1923,4.1923,0,1,1,4.1926-4.1919A4.1969,4.1969,0,0,1,230.1051,186.0684Zm0-7.678a3.4858,3.4858,0,1,0,3.4861,3.4861A3.49,3.49,0,0,0,230.1051,178.39Z" fill="#fff"/><path d="M224.7638,182.1621l-.4181-.57a1.6746,1.6746,0,0,1,2.1705.0345l-.5.5C225.5186,181.6274,224.7948,182.14,224.7638,182.1621Z" fill="#fff"/><rect x="215.4679" y="181.5232" width="1.4095" height="0.7064" fill="#fff"/><rect x="233.9444" y="181.5232" width="2.8224" height="0.7064" fill="#fff"/><path d="M213.092,179.3264a9.6347,9.6347,0,0,0,2.2215,5.5174,32.6037,32.6037,0,0,0,1.6019-5.8895,4.7629,4.7629,0,0,0,3.1179-3.742,3.5586,3.5586,0,0,0,2.5515,1.0741,2.7617,2.7617,0,0,0,2.1867-1.0541,3.0557,3.0557,0,0,0,3.5773,1.5048,2.9252,2.9252,0,0,0,3.8979,0,2.27,2.27,0,0,0,2.6738,1.8882,2.1987,2.1987,0,0,0-.4083,1.758,2.0975,2.0975,0,0,0,1.0519,1.4123,3.4553,3.4553,0,0,0,.827,4.0176,30.3982,30.3982,0,0,0,1.7006-7.71,10.3005,10.3005,0,0,0-2.2535-7.4055c-1.9535-2.1849-5.0029-3.0666-7.9277-3.2551A13.4832,13.4832,0,0,0,219.78,169.18C216.3142,171.3918,212.8192,175.2241,213.092,179.3264Z" fill="#64401c"/><g style="mix-blend-mode:multiply"><path d="M225.8708,191.9514a6.4288,6.4288,0,0,1-3.23-.8539.406.406,0,1,1,.4082-.702,5.8078,5.8078,0,0,0,6.02-.2253.4061.4061,0,0,1,.46.6694A6.4767,6.4767,0,0,1,225.8708,191.9514Z" fill="#d9d9d9"/></g></g><path d="M300.7576,250.6539H45.2769A34.759,34.759,0,0,1,14.9316,233.31H331.1029A34.7591,34.7591,0,0,1,300.7576,250.6539Z" fill="#dff6ff"/><path d="M174.4,88.4a1.3824,1.3824,0,1,1-1.3824-1.3824A1.3824,1.3824,0,0,1,174.4,88.4Z" fill="#122d35"/><path d="M168.7009,88.4a.9768.9768,0,1,1-.9768-.9767A.9768.9768,0,0,1,168.7009,88.4Z" fill="#122d35"/><path d="M179.2871,88.4a.9768.9768,0,1,1-.9767-.9767A.9767.9767,0,0,1,179.2871,88.4Z" fill="#122d35"/><path d="M182.7475,233.31H163.2869a1.9142,1.9142,0,0,1-1.9141-1.9142h0a1.9141,1.9141,0,0,1,1.9141-1.9141h19.4606a1.9142,1.9142,0,0,1,1.9142,1.9141h0A1.9142,1.9142,0,0,1,182.7475,233.31Z" fill="#122d35"/><path d="M149.1214,236.33v.8091a2.8217,2.8217,0,0,0,2.8217,2.8217h42.1482a2.8216,2.8216,0,0,0,2.8217-2.8217V236.33Z" fill="#b1c3ca" style="mix-blend-mode:multiply"/><g opacity="0.9"><circle cx="181.649" cy="219.4448" r="5.0712" transform="translate(-101.3685 251.903) rotate(-56.9256)" fill="#fff"/><circle cx="164.3855" cy="219.4448" r="5.0712" transform="translate(-71.9403 80.417) rotate(-22.6954)" fill="#fff"/></g><path d="M181.6491,220.486a1.1651,1.1651,0,0,0,1.1651-1.1651v-2.4493a1.1652,1.1652,0,0,0-2.33,0v2.4493A1.1651,1.1651,0,0,0,181.6491,220.486Z" fill="#312841"/><path d="M183.48,219.3862v-2.2357a.2491.2491,0,0,0-.4982,0v2.2357a1.3326,1.3326,0,1,1-2.6652,0v-2.2357a.2492.2492,0,0,0-.4983,0v2.2357a1.8277,1.8277,0,0,0,1.5817,1.8056V222.4h-.9159a.2491.2491,0,0,0,0,.4982h2.33a.2491.2491,0,0,0,0-.4982h-.9161v-1.2078A1.8277,1.8277,0,0,0,183.48,219.3862Z" fill="#312841"/><path d="M166.3312,219.4448a1.9457,1.9457,0,1,1-1.9457-1.9456A1.9457,1.9457,0,0,1,166.3312,219.4448Z" fill="#ff551f"/><g clip-path="url(#a3d0ec53-523e-40a2-8baf-f3fe5318ed3f)"><path d="M113.72,192.72a3.6816,3.6816,0,0,1-5.58-3.7525,1.227,1.227,0,0,1-1.2041-.6045,2.015,2.015,0,0,1-.2072-1.3851,5.3447,5.3447,0,0,1,.4322-1.2775,2.2191,2.2191,0,0,1-1.9817-1.1324,1.8134,1.8134,0,0,1,.13-2.0414,3.6586,3.6586,0,0,1-2.0653-3.4988,3.2673,3.2673,0,0,1,2.4663-2.9145,2.8523,2.8523,0,0,1,.34-2.6409c.2756-.3834.7262-.75,1.1811-.6233a2.6254,2.6254,0,0,1,3.5825-3.0391,9.1757,9.1757,0,0,1,1.883-3.4,4.7467,4.7467,0,0,1,3.3676-1.72,3.2464,3.2464,0,0,1,3.0957,1.9357,2.7026,2.7026,0,0,1,2.168-1.6969,2.319,2.319,0,0,1,2.2507,1.1673,1.9631,1.9631,0,0,1,1.7786-.2076,1.4045,1.4045,0,0,1,.8441,1.238,3.6133,3.6133,0,0,1,3.4573-.3978,3.7817,3.7817,0,0,1,2.1009,2.3831,5.4428,5.4428,0,0,1-.07,3.2311c.5935-.03,1.0971.5682,1.2629,1.1388a4.0212,4.0212,0,0,1-.0258,1.7666,2.238,2.238,0,0,1,1.121,1.5124,2.159,2.159,0,0,1-.6034,1.7483,3.1522,3.1522,0,0,1,1.0222,2.3656,2.9582,2.9582,0,0,1-1.071,2.2512,1.6848,1.6848,0,0,1-.011,1.7012,4.9271,4.9271,0,0,1-1.1064,1.3895,3.8717,3.8717,0,0,1-.26,2.6495,2.9877,2.9877,0,0,1-1.8971,1.3505,4.2908,4.2908,0,0,1-3.1468,2.79,4.1027,4.1027,0,0,1-3.8469-1.4343c-1.01,1.4821-2.7587,1.9222-4.5495,2.0256a5.9766,5.9766,0,0,1-4.7861-2.022C113.7721,191.9391,113.7389,192.356,113.72,192.72Z" fill="#44280b"/><path d="M109.6927,183.2341a4.6439,4.6439,0,0,0-1.63-1.9235,1.9328,1.9328,0,0,0-2.3506.212,2.6687,2.6687,0,0,0-.45,1.9685,7.2325,7.2325,0,0,0,1.2337,3.9481,3.6358,3.6358,0,0,0,3.6661,1.4838C110.3563,187.022,110.5982,184.9169,109.6927,183.2341Z" fill="#8d5728"/><path d="M109.6006,184.7173l.1451.0234a8.4236,8.4236,0,0,0-.6426-1.3443,2.8226,2.8226,0,0,0-1.0582-1.0268,1.7094,1.7094,0,0,0-1.4409-.0886,1.2353,1.2353,0,0,0-.7529,1.178,1.23,1.23,0,0,1,1.1618-.3276,1.188,1.188,0,0,1,.8773.7981.905.905,0,0,0-.687.7485,1.7761,1.7761,0,0,0,.1583,1.0426,1.6357,1.6357,0,0,0,.3268.526.7778.7778,0,0,0,.5537.2464,1.15,1.15,0,0,1-.8152.4615,2.2156,2.2156,0,0,0,2.1574-.14A9.6478,9.6478,0,0,0,109.6006,184.7173Z" fill="#6b411b"/><path d="M127.9709,183.9638a4.6428,4.6428,0,0,1,1.63-1.9235,1.9325,1.9325,0,0,1,2.3505.2119,2.6684,2.6684,0,0,1,.45,1.9686,7.2311,7.2311,0,0,1-1.2337,3.948,3.6355,3.6355,0,0,1-3.6661,1.4838C127.3074,187.7516,127.0655,185.6466,127.9709,183.9638Z" fill="#8d5728"/><path d="M128.063,185.4469l-.1451.0235a8.424,8.424,0,0,1,.6427-1.3443,2.8216,2.8216,0,0,1,1.0581-1.0268,1.7086,1.7086,0,0,1,1.4409-.0886,1.235,1.235,0,0,1,.7529,1.178,1.23,1.23,0,0,0-1.1618-.3277,1.188,1.188,0,0,0-.8773.7981.9051.9051,0,0,1,.687.7486,1.7763,1.7763,0,0,1-.1583,1.0426,1.6383,1.6383,0,0,1-.3267.526.7784.7784,0,0,1-.5537.2463,1.1493,1.1493,0,0,0,.8151.4616,2.2157,2.2157,0,0,1-2.1573-.14A9.6415,9.6415,0,0,1,128.063,185.4469Z" fill="#6b411b"/><path d="M141.0609,210.8672a17.6356,17.6356,0,0,0-9.5914-6.2713c-1.735-.4339-3.5342-.6012-5.2406-1.1364a9.874,9.874,0,0,1-1.4184-.57,31.2645,31.2645,0,0,1-.9782-7.9987h-10.001a31.2592,31.2592,0,0,1-.9781,7.9986,9.8745,9.8745,0,0,1-1.4184.57c-1.7064.5352-3.5057.7025-5.2406,1.1364a17.4793,17.4793,0,0,0-13.2371,17.1356v24.7139l44.6145-.6528a7.2408,7.2408,0,0,0,7.1349-7.24v-16.821A17.6353,17.6353,0,0,0,141.0609,210.8672Z" fill="#8d5728"/><path d="M113.2758,200.9918a31.4624,31.4624,0,0,0,10.5737-4.8747c-.0129-.4085-.0205-.8174-.0171-1.2263H113.8313A31.1985,31.1985,0,0,1,113.2758,200.9918Z" fill="#6b411b"/><ellipse cx="118.9099" cy="184.4812" rx="10.2052" ry="12.9172" fill="#8d5728"/><g style="mix-blend-mode:multiply"><path d="M119.1383,194.1756a4.3977,4.3977,0,0,1-1.4057-.23.4661.4661,0,1,1,.2986-.8831,3.4643,3.4643,0,0,0,1.6782.1335.4662.4662,0,0,1,.1542.9195A4.3672,4.3672,0,0,1,119.1383,194.1756Z" fill="#d9d9d9"/></g><path d="M131.47,204.5959c-1.735-.4339-3.5342-.6012-5.2406-1.1364-.0206-.0065-.0406-.0153-.0611-.0219a12.2124,12.2124,0,0,1-14.937.08c-1.6457.4869-3.37.6611-5.0366,1.0779a17.4793,17.4793,0,0,0-13.2371,17.1356v24.7139l44.6145-.6528a7.2408,7.2408,0,0,0,7.1349-7.24v-16.821a17.4791,17.4791,0,0,0-13.237-17.1356Z" fill="#00b9f0"/><path d="M129.8968,204.2614a31.8785,31.8785,0,0,1-3.6679-.8019c-.0206-.0065-.0406-.0153-.0611-.0219a12.2124,12.2124,0,0,1-14.937.08,27.2316,27.2316,0,0,1-2.8128.621,15.5583,15.5583,0,0,0,9.1646,4.4063c.3573,12.4552.4111,25.0646.1647,37.5374l1.4805-.0217c.2448-12.4358.1915-25.0068-.1626-37.4257A15.4919,15.4919,0,0,0,129.8968,204.2614Z" fill="#008cb7"/><path d="M131.47,204.5959c-.99-.2476-2.0006-.41-3.0032-.6013a153.5211,153.5211,0,0,0-4.4387,41.9961l13.544-.1982a7.2407,7.2407,0,0,0,7.1349-7.24v-16.821a17.4791,17.4791,0,0,0-13.237-17.1356Z" fill="#fff"/><path d="M107.9917,204.218c-.6024.112-1.2038.2294-1.7975.3779a17.4793,17.4793,0,0,0-13.2371,17.1356v24.7139l19.4137-.2841A153.5259,153.5259,0,0,0,107.9917,204.218Z" fill="#fff"/><path d="M107.9917,204.218q-.61.1134-1.2149.246a68.643,68.643,0,0,0-3.4214,11.1948,23.0626,23.0626,0,0,1,5.5267,3.648,71.8432,71.8432,0,0,1-5.7607,7.7217,127.8212,127.8212,0,0,1,5.0388,19.1944l4.2106-.0616A153.5259,153.5259,0,0,0,107.9917,204.218Z" fill="#e0e0e0"/><path d="M133.3506,227.0285a71.8423,71.8423,0,0,1-5.7606-7.7217,23.06,23.06,0,0,1,5.5266-3.648,68.6413,68.6413,0,0,0-3.5244-11.455c-.3755-.0693-.7512-.1375-1.1259-.2092a153.5211,153.5211,0,0,0-4.4387,41.9961l4.3392-.0634A127.9338,127.9338,0,0,1,133.3506,227.0285Z" fill="#e0e0e0"/><path d="M122.7517,218.8172a.9663.9663,0,1,1-.9663-.9662A.9662.9662,0,0,1,122.7517,218.8172Z" fill="#008cb7"/><path d="M122.7517,228.216a.9663.9663,0,1,1-.9663-.9662A.9663.9663,0,0,1,122.7517,228.216Z" fill="#008cb7"/><path d="M122.7517,237.6148a.9663.9663,0,1,1-.9663-.9663A.9663.9663,0,0,1,122.7517,237.6148Z" fill="#008cb7"/><g style="mix-blend-mode:multiply"><path d="M117.8849,189.2333a.4689.4689,0,0,1-.1547-.0264,4.2423,4.2423,0,0,1-1.6029-.8491,1.7629,1.7629,0,0,1-.4583-2.0248,2.3361,2.3361,0,0,1,.7362-.78l.1038-.08a5.4826,5.4826,0,0,0,1.9786-5.1614.4661.4661,0,0,1,.9177-.1639,6.4366,6.4366,0,0,1-2.3233,6.0606l-.1111.0856a1.6072,1.6072,0,0,0-.47.4595.87.87,0,0,0,.2713.93,3.4842,3.4842,0,0,0,1.2679.643.4661.4661,0,0,1-.1548.9059Z" fill="#d9d9d9"/></g><path d="M114.85,185.9174c0,.6916-1.1427,1.2522-2.5523,1.2522s-2.5523-.5606-2.5523-1.2522,1.1427-1.2523,2.5523-1.2523S114.85,185.2257,114.85,185.9174Z" fill="#9f592f"/><path d="M127.9179,185.9174c0,.6916-1.1427,1.2522-2.5523,1.2522s-2.5523-.5606-2.5523-1.2522,1.1427-1.2523,2.5523-1.2523S127.9179,185.2257,127.9179,185.9174Z" fill="#9f592f"/><ellipse cx="113.6376" cy="182.3289" rx="0.9886" ry="1.3141" fill="#44280b"/><path d="M110.6661,179.7288c-.2432.143-.5087.3951-.4092.6591s.4634.2783.7411.2318c.6617-.1108,1.3081-.3033,1.9718-.4012a3.6529,3.6529,0,0,1,1.9791.1709c.3045.1317.5814.3249.8949.4332.5184.179,1.4748-.1345,1.0618-.8312-.2706-.4565-1.3486-.7235-1.8206-.845A5.91,5.91,0,0,0,110.6661,179.7288Z" fill="#44280b"/><ellipse cx="124.2353" cy="182.3289" rx="0.9886" ry="1.3141" fill="#44280b"/><path d="M127.2067,179.7288c.2433.143.5087.3951.4092.6591s-.4633.2783-.741.2318c-.6617-.1108-1.3081-.3033-1.9718-.4012a3.6529,3.6529,0,0,0-1.9791.1709c-.3045.1317-.5814.3249-.8949.4332-.5184.179-1.4748-.1345-1.0619-.8312.2706-.4565,1.3486-.7235,1.8207-.845A5.9094,5.9094,0,0,1,127.2067,179.7288Z" fill="#44280b"/><path d="M106.62,180.333a9.7506,9.7506,0,0,0,2.068,5.9125,12.2791,12.2791,0,0,0,1.1933-4.8221,8.8926,8.8926,0,0,0,1.2556-5.8211,4.283,4.283,0,0,0,2.7282,1.4268,3.9506,3.9506,0,0,0,2.849-.7763c.105.6992.9832.9,1.6895.8677a3.7244,3.7244,0,0,0,1.92-.8278,2.5235,2.5235,0,0,0,1.8934.9,2.9345,2.9345,0,0,0,2.0692-.9334,2.36,2.36,0,0,0,1.024,1.5911,2.0639,2.0639,0,0,0,1.759.13,1.4093,1.4093,0,0,0,.4075,1.1471,1.4659,1.4659,0,0,0,1.1269.5312,3.2246,3.2246,0,0,0,.0764,3.9225,8.6159,8.6159,0,0,0,.34,3.5994,19.3174,19.3174,0,0,0,2.5453-7.0907,10.1113,10.1113,0,0,0-2.7749-8.0651c-1.92-1.9337-4.7786-2.59-7.497-2.7828a19.1389,19.1389,0,0,0-7.02.6532,11.2219,11.2219,0,0,0-5.7656,3.92A10.6154,10.6154,0,0,0,106.62,180.333Z" fill="#44280b"/><path d="M91.4008,211.4043a10.9581,10.9581,0,0,1-.7853-2.9824c-.114-.9785,1.0873-1.7681,1.8772-2.3569a6.0726,6.0726,0,0,0,2.0729-2.06,19.3673,19.3673,0,0,1,3.9906-5.9173,1.9779,1.9779,0,0,0-1.9945-.68,3.8673,3.8673,0,0,0-1.8962,1.1724c-.524.5423-.9588,1.1638-1.4588,1.7283a2.0974,2.0974,0,0,1-.7631.6072.8315.8315,0,0,1-.9113-.157c-1.2483-1.399-1.5276-3.3022-1.713-5.1679s-.1216-3.7565-.4356-5.605a5.8655,5.8655,0,0,0-.9805-2.5922c-.2132-.2815-.5433-.5549-.8828-.458a.6815.6815,0,0,0-.4328.4913,2.0124,2.0124,0,0,0-.0271.68q.3042,4.1047.6083,8.2095a.4829.4829,0,0,1-.4378.4521.6617.6617,0,0,1-.59-.2821,1.9515,1.9515,0,0,1-.2785-.6225q-.9375-2.997-1.8751-5.9941a6.2265,6.2265,0,0,0-.9459-2.0813.7936.7936,0,0,0-.4382-.3207.6207.6207,0,0,0-.65.4929,1.807,1.807,0,0,0,.0677.8859l2.0619,8.3258c-.5557.8236-1.2181-1.0955-1.636-1.8723l-2.63-4.8874a2.7222,2.7222,0,0,0-.6139-.8534.825.825,0,0,0-1.3933.7982,2.8713,2.8713,0,0,0,.4407,1.0191,40.0112,40.0112,0,0,1,3.314,7.1272c.0951.2716-.2171.4951-.5025.4582a1.1166,1.1166,0,0,1-.6678-.5094q-1.39-1.8029-2.6734-3.6841a2.6364,2.6364,0,0,0-.7929-.8581.8833.8833,0,0,0-1.083.0946c-.3428.3953-.0963,1.0037.17,1.4543a39.0064,39.0064,0,0,0,4.2359,5.8594c.925,1.0572.6015,2.7124,1.0431,4.0459a9.4617,9.4617,0,0,0,2.0238,3.6558c.2832,1.5786.6925,3.0514,1.0926,4.6046A8.774,8.774,0,0,0,91.4008,211.4043Z" fill="#8d5728"/><path d="M84.489,209.1905a4.4627,4.4627,0,0,0,2.4055-1.3527,5.0088,5.0088,0,0,0,3.7458.7463c.0132.1.03.2.0458.3a4.4154,4.4154,0,0,1-3.5118,0,4.4618,4.4618,0,0,1-3.2376.7578c-.0258-.1277-.05-.2568-.0741-.3857A4.3182,4.3182,0,0,0,84.489,209.1905Z" fill="#7a4a21"/><path d="M82.3265,202.1965a9.5451,9.5451,0,0,1,7.683-2.058,11.7057,11.7057,0,0,1,1.2385.2663c.0894.12.1826.239.2843.3531l.0036.0032a6.3217,6.3217,0,0,0-2.3622,2.2308,19.8488,19.8488,0,0,0-1.5659,3.4756,3.9117,3.9117,0,0,1-.3385-2.4431,4.2692,4.2692,0,0,1,1.25-2.2557l.023-.0983a16.3037,16.3037,0,0,0-3.8143,1.3448,9.0613,9.0613,0,0,1,3.5939-1.961A10.1623,10.1623,0,0,0,82.3265,202.1965Z" fill="#7a4a21"/><path d="M98.1016,234.7905l-.12-2.1809c-1.7535-7.2592-3.805-14.8-5.5585-22.06a24.8231,24.8231,0,0,1-9.05,2.709c.1728,7.1852.0968,14.3566.9175,21.4969a17.9272,17.9272,0,0,0,1.0213,4.7466,6.7009,6.7009,0,0,0,3.1226,3.5946,6.2837,6.2837,0,0,0,6.5683-1.11C96.8,240.4766,97.5842,237.0805,98.1016,234.7905Z" fill="#fff"/><path d="M119.93,190.8879a1.4059,1.4059,0,1,1-1.3669-1.0767A1.2482,1.2482,0,0,1,119.93,190.8879Z" fill="#d9d9d9" style="mix-blend-mode:multiply"/></g><g clip-path="url(#a49cb183-020c-466f-a7c2-533533ba5b47)"><path d="M219.6743,115.03a4.7565,4.7565,0,0,0-1.6695-1.97,1.98,1.98,0,0,0-2.4079.2171,2.7331,2.7331,0,0,0-.4608,2.0165,7.41,7.41,0,0,0,1.2637,4.0444,3.7244,3.7244,0,0,0,3.7556,1.52C220.354,118.91,220.6018,116.754,219.6743,115.03Z" fill="#ffc681"/><path d="M219.58,116.55l.1486.0241a8.63,8.63,0,0,0-.6583-1.3772,2.8911,2.8911,0,0,0-1.0839-1.0518,1.7508,1.7508,0,0,0-1.4761-.0907,1.265,1.265,0,0,0-.7712,1.2067,1.2592,1.2592,0,0,1,1.19-.3356,1.2168,1.2168,0,0,1,.8987.8175.9269.9269,0,0,0-.7038.7668,1.8194,1.8194,0,0,0,.1622,1.068,1.6761,1.6761,0,0,0,.3347.5388.7969.7969,0,0,0,.5672.2524,1.1775,1.1775,0,0,1-.835.4728,2.27,2.27,0,0,0,2.21-.1435A9.89,9.89,0,0,0,219.58,116.55Z" fill="#d69a65"/><path d="M238.3981,115.7777a4.7554,4.7554,0,0,1,1.6695-1.9705,1.98,1.98,0,0,1,2.4078.2172,2.734,2.734,0,0,1,.4608,2.0165,7.4082,7.4082,0,0,1-1.2638,4.0443,3.7245,3.7245,0,0,1-3.7555,1.52C237.7183,119.6578,237.4705,117.5014,238.3981,115.7777Z" fill="#ffc681"/><path d="M238.4925,117.2969l-.1487.0241a8.6294,8.6294,0,0,1,.6583-1.3771,2.8909,2.8909,0,0,1,1.084-1.0519,1.75,1.75,0,0,1,1.4759-.0907,1.2652,1.2652,0,0,1,.7714,1.2067,1.26,1.26,0,0,0-1.19-.3356,1.217,1.217,0,0,0-.8987.8175.9273.9273,0,0,1,.7038.7668,1.82,1.82,0,0,1-.1622,1.0681,1.6778,1.6778,0,0,1-.3347.5388.7977.7977,0,0,1-.5672.2524,1.177,1.177,0,0,0,.835.4727,2.27,2.27,0,0,1-2.21-.1434A9.8783,9.8783,0,0,1,238.4925,117.2969Z" fill="#d69a65"/><path d="M251.8072,143.337a18.0647,18.0647,0,0,0-9.8253-6.4242c-1.7772-.4445-3.62-.6159-5.3683-1.1641a10.1148,10.1148,0,0,1-1.453-.584,32.0228,32.0228,0,0,1-1.002-8.1936H223.9137a32.0228,32.0228,0,0,1-1.002,8.1936,10.1148,10.1148,0,0,1-1.453.584c-1.748.5482-3.591.72-5.3683,1.1641a17.9055,17.9055,0,0,0-13.56,17.5534v25.3164l45.7022-.6687a7.4174,7.4174,0,0,0,7.3089-7.4166V154.4662A18.0649,18.0649,0,0,0,251.8072,143.337Z" fill="#ffc681"/><path d="M223.3446,133.2208a32.2285,32.2285,0,0,0,10.8316-4.9935c-.0132-.4185-.021-.8373-.0176-1.2562H223.9137A31.9485,31.9485,0,0,1,223.3446,133.2208Z" fill="#936230"/><path d="M219.485,119.7487a15.1342,15.1342,0,0,1-4.3076-12.4149,7.7966,7.7966,0,0,1-.9665-6.69,35.9021,35.9021,0,0,0,7.1632-2.0121,39.27,39.27,0,0,1,7.1472-2.0765,12.7692,12.7692,0,0,1,7.3057.7783,7.7011,7.7011,0,0,1,4.4883,5.573c-.0264,0,.1736.0629.1472.0629a4.5162,4.5162,0,0,1,1.7578,3.1821,13.3211,13.3211,0,0,1-.193,3.7184,33.6716,33.6716,0,0,1-1.2506,5.9807,11.2836,11.2836,0,0,1-3.26,5.0881,12.43,12.43,0,0,0-8.8367-4.3508A12.13,12.13,0,0,0,219.485,119.7487Z" fill="#9e5e1b"/><ellipse cx="229.1162" cy="116.3077" rx="10.454" ry="13.2321" fill="#ffc681"/><g style="mix-blend-mode:multiply"><path d="M229.1515,123.8113a6.5168,6.5168,0,0,1-3.2724-.865.47.47,0,0,1,.4732-.813,5.7629,5.7629,0,0,0,5.9734-.2234.47.47,0,0,1,.5326.775A6.565,6.565,0,0,1,229.1515,123.8113Z" fill="#d9d9d9"/></g><g style="mix-blend-mode:multiply"><path d="M229.0315,126.55a4.4932,4.4932,0,0,1-1.4377-.2354.47.47,0,1,1,.3009-.8907,3.5622,3.5622,0,0,0,1.7227.1372.47.47,0,1,1,.1561.9274A4.5073,4.5073,0,0,1,229.0315,126.55Z" fill="#d9d9d9"/></g><path d="M241.9819,136.9128c-1.7772-.4445-3.62-.6159-5.3683-1.1641-.0211-.0066-.0416-.0156-.0626-.0224a12.51,12.51,0,0,1-15.3012.0823c-1.6858.4989-3.4525.6773-5.1594,1.1042a17.9055,17.9055,0,0,0-13.56,17.5534v25.3164l45.7022-.6687a7.4174,7.4174,0,0,0,7.3089-7.4166V154.4662a17.9052,17.9052,0,0,0-13.56-17.5534Z" fill="#0098f1"/><path d="M240.3709,136.57a32.6523,32.6523,0,0,1-3.7573-.8215c-.0211-.0066-.0416-.0156-.0626-.0224a12.5106,12.5106,0,0,1-15.3013.0823,27.8837,27.8837,0,0,1-2.8813.6361,15.9389,15.9389,0,0,0,9.3881,4.5138c.366,12.7588.4211,25.6757.1687,38.4525l1.5166-.0222c.2508-12.7389.1961-25.6164-.1665-38.3381A15.87,15.87,0,0,0,240.3709,136.57Z" fill="#006eb0"/><path d="M241.9819,136.9128c-1.0141-.2537-2.0493-.4195-3.0764-.616a157.262,157.262,0,0,0-4.5469,43.02l13.8742-.203a7.4174,7.4174,0,0,0,7.3089-7.4166V154.4662a17.9052,17.9052,0,0,0-13.56-17.5534Z" fill="#fff"/><path d="M217.9317,136.5257c-.6171.1148-1.2331.235-1.8413.3871a17.9055,17.9055,0,0,0-13.56,17.5534v25.3164l19.887-.291A157.2682,157.2682,0,0,0,217.9317,136.5257Z" fill="#fff"/><path d="M217.9317,136.5257q-.6246.1161-1.2445.252a70.3188,70.3188,0,0,0-3.5048,11.4677,23.623,23.623,0,0,1,5.6614,3.737,73.601,73.601,0,0,1-5.901,7.91,130.9661,130.9661,0,0,1,5.1616,19.6625l4.3132-.0632A157.2682,157.2682,0,0,0,217.9317,136.5257Z" fill="#e0e0e0"/><path d="M243.9089,159.8923a73.6019,73.6019,0,0,1-5.9011-7.91,23.623,23.623,0,0,1,5.6614-3.737,70.3139,70.3139,0,0,0-3.61-11.7343c-.3846-.071-.7695-.1408-1.1534-.2143a157.262,157.262,0,0,0-4.5469,43.02l4.445-.065A131.05,131.05,0,0,1,243.9089,159.8923Z" fill="#e0e0e0"/><path d="M233.0515,151.4809a.99.99,0,1,1-.99-.99A.99.99,0,0,1,233.0515,151.4809Z" fill="#006eb0"/><circle cx="232.0617" cy="161.1087" r="0.9898" fill="#006eb0"/><circle cx="232.0617" cy="170.7367" r="0.9898" fill="#006eb0"/><g style="mix-blend-mode:multiply"><path d="M228.0661,121.1682a.4708.4708,0,0,1-.1558-.0266,4.3955,4.3955,0,0,1-1.6394-.8681,1.7986,1.7986,0,0,1-.4681-2.0658,2.3948,2.3948,0,0,1,.753-.7962l.1054-.0811a5.6223,5.6223,0,0,0,2.03-5.2942.47.47,0,0,1,.9257-.1653,6.5857,6.5857,0,0,1-2.3775,6.2015l-.1129.0866a1.6559,1.6559,0,0,0-.4846.4741.8973.8973,0,0,0,.2792.9608,3.5676,3.5676,0,0,0,1.3012.6606.47.47,0,0,1-.1558.9137Z" fill="#d9d9d9"/></g><path d="M224.9575,117.7788c0,.7085-1.1705,1.2828-2.6145,1.2828s-2.6145-.5743-2.6145-1.2828,1.1706-1.2827,2.6145-1.2827S224.9575,117.07,224.9575,117.7788Z" fill="#ffa173"/><path d="M238.3438,117.7788c0,.7085-1.1706,1.2828-2.6146,1.2828s-2.6145-.5743-2.6145-1.2828,1.1706-1.2827,2.6145-1.2827S238.3438,117.07,238.3438,117.7788Z" fill="#ffa173"/><path d="M224.728,114.1029c0,.7434-.4534,1.3461-1.0127,1.3461s-1.0128-.6027-1.0128-1.3461.4535-1.3462,1.0128-1.3462S224.728,113.3594,224.728,114.1029Z" fill="#44280b"/><path d="M220.6714,111.4394c-.2491.1465-.5211.4047-.4192.6752s.4746.2851.7591.2374c.6778-.1134,1.34-.3107,2.02-.4109a3.7425,3.7425,0,0,1,2.0273.175c.3119.1349.5956.3329.9168.4437.531.1834,1.5108-.1377,1.0878-.8513-.2773-.4677-1.3816-.7413-1.8651-.8656A6.0527,6.0527,0,0,0,220.6714,111.4394Z" fill="#874f16"/><path d="M233.5587,114.1029c0,.7434.4534,1.3461,1.0127,1.3461s1.0127-.6027,1.0127-1.3461-.4534-1.3462-1.0127-1.3462S233.5587,113.3594,233.5587,114.1029Z" fill="#44280b"/><path d="M237.6152,111.4394c.2492.1465.5212.4047.4192.6752s-.4745.2851-.7591.2374c-.6778-.1134-1.34-.3107-2.02-.4109a3.7426,3.7426,0,0,0-2.0273.175c-.3119.1349-.5956.3329-.9167.4437-.5311.1834-1.5108-.1377-1.0878-.8513.2773-.4677,1.3815-.7413,1.8651-.8656A6.0525,6.0525,0,0,1,237.6152,111.4394Z" fill="#874f16"/><path d="M236.31,106.2334a2.8935,2.8935,0,0,0,.3251,2.1319c.34.654.8149,1.2277,1.2042,1.8538,1.388,2.2324,1.6116,4.9718,1.7986,7.5938.3737-3.3139.9412-6.7687,1.0167-10.1028a5.73,5.73,0,0,0-.4037-2.727,2.0753,2.0753,0,0,0-2.2673-1.2025,1.985,1.985,0,0,0-1.1193.9532A7.6,7.6,0,0,0,236.31,106.2334Z" fill="#9e5e1b"/><path d="M236.67,105.2381c-2.261,1.88-5.3447,2.4127-8.2828,2.5359s-5.9229-.0887-8.7844.5888a30.4643,30.4643,0,0,1-2.1848,8.8807,11.3175,11.3175,0,0,1-1.0809-9.5531,11.9561,11.9561,0,0,1,6.5029-6.73,20.4574,20.4574,0,0,1,7.2506-1.3558,14.2722,14.2722,0,0,1,3.368.1669,5.8326,5.8326,0,0,1,2.9861,1.4789,3.2634,3.2634,0,0,1,1.0125,1.9993A2.3,2.3,0,0,1,236.67,105.2381Z" fill="#9e5e1b"/><path d="M258.2573,141.1119a8.5051,8.5051,0,0,0,.61-2.3146c.0885-.76-.8439-1.3723-1.4569-1.8292a4.7124,4.7124,0,0,1-1.6088-1.5992,15.0331,15.0331,0,0,0-3.0972-4.5925,1.5352,1.5352,0,0,1,1.548-.5279,3.0024,3.0024,0,0,1,1.4717.91c.4066.421.7441.9033,1.1322,1.3415a1.6275,1.6275,0,0,0,.5921.4712.6454.6454,0,0,0,.7073-.1218c1.04-1.1657,1.1438-2.7615,1.36-4.2341l.477-3.2579c.1226-.8371.0618-2.18.5922-2.8809.1653-.2184.4215-.4306.685-.3554a.5287.5287,0,0,1,.3359.3813,1.5628,1.5628,0,0,1,.0211.528l-.4722,6.3715a.3749.3749,0,0,0,.34.3509.5139.5139,0,0,0,.4578-.219,1.5138,1.5138,0,0,0,.2161-.4831q.7276-2.3261,1.4552-4.6522a4.836,4.836,0,0,1,.7342-1.6152.6153.6153,0,0,1,.34-.2489.4817.4817,0,0,1,.5045.3825,1.4029,1.4029,0,0,1-.0525.6875q-.8,3.2308-1.6,6.4618c.4313.6393.9453-.85,1.27-1.4531q1.0206-1.8966,2.041-3.7932a2.1151,2.1151,0,0,1,.4765-.6623.64.64,0,0,1,1.0814.62,2.229,2.229,0,0,1-.3421.7909,31.0532,31.0532,0,0,0-2.572,5.5315c-.0738.2108.1685.3843.39.3557a.8669.8669,0,0,0,.5183-.3954q1.0785-1.3992,2.0748-2.8593a2.0477,2.0477,0,0,1,.6154-.666.6856.6856,0,0,1,.8405.0734c.2661.3069.0748.779-.1316,1.1288a30.2812,30.2812,0,0,1-3.2876,4.5476c-.7179.82-.4668,2.105-.81,3.14a7.3431,7.3431,0,0,1-1.5707,2.8373c-.22,1.2252-.5374,2.3683-.848,3.5737A6.8091,6.8091,0,0,1,258.2573,141.1119Z" fill="#ffbc98"/><path d="M263.6217,139.3938a3.4631,3.4631,0,0,1-1.867-1.05,3.8868,3.8868,0,0,1-2.9071.5791c-.01.0779-.0232.1555-.0356.233a3.4268,3.4268,0,0,0,2.7256,0,3.4631,3.4631,0,0,0,2.5126.5881c.02-.0991.0388-.1993.0576-.2993A3.345,3.345,0,0,1,263.6217,139.3938Z" fill="#d9d9d9" style="mix-blend-mode:multiply"/><path d="M264.8381,134.0394a7.8261,7.8261,0,0,0-5.2521-1.7532,22.5283,22.5283,0,0,1,2.6857.698A22.1964,22.1964,0,0,1,264.8381,134.0394Z" fill="#d9d9d9" style="mix-blend-mode:multiply"/><path d="M263.2846,134.9984a7.813,7.813,0,0,0-3.5861-1.8414c.5822.3593,1.1768.658,1.7687.9682C262.0645,134.4248,262.6538,134.7339,263.2846,134.9984Z" fill="#d9d9d9" style="mix-blend-mode:multiply"/><path d="M261.9767,135.9691a3.5509,3.5509,0,0,0-2.2793-1.7945c.38.3272.7629.6041,1.1346.9036C261.2108,135.3688,261.57,135.6755,261.9767,135.9691Z" fill="#d9d9d9" style="mix-blend-mode:multiply"/><path d="M251.49,167.7906l.0931-1.6926c1.3609-5.634,4.52-20.0152,5.8805-25.6491a19.2632,19.2632,0,0,0,7.0241,2.1025c-.1341,5.5766-1.6416,19.6706-2.2786,25.2123a13.9148,13.9148,0,0,1-.7927,3.6839,5.2,5.2,0,0,1-2.4235,2.79,4.8764,4.8764,0,0,1-5.0977-.8615C252.5005,172.2036,251.8917,169.5678,251.49,167.7906Z" fill="#fff"/></g><path d="M312.8963,220.8009H297.0038V197.559h15.8925a11.621,11.621,0,0,1,0,23.2419Zm-10.49-5.4022h10.49a6.2188,6.2188,0,1,0,0-12.4375h-10.49Z" fill="#e3e3e3"/><polygon points="302.585 261.742 266.883 261.742 262.175 197.559 307.292 197.559 302.585 261.742" fill="#8ecbdf"/><polygon points="296.013 197.559 291.306 261.742 302.585 261.742 307.292 197.559 296.013 197.559" fill="#e3e3e3"/><g opacity="0.3"><path d="M269.1773,197.1147a.6872.6872,0,0,1-.6872-.6872c0-3.0253,1.5677-4.5882,2.9508-5.9671,1.3667-1.3623,2.5469-2.5386,2.5469-4.9935s-1.18-3.6312-2.5469-4.9936c-1.3831-1.3789-2.9508-2.9417-2.9508-5.9671s1.5677-4.5873,2.9508-5.966c1.3667-1.3619,2.5469-2.5384,2.5469-4.9929a.6873.6873,0,0,1,1.3745,0c0,3.0252-1.5678,4.5878-2.9511,5.9665-1.3664,1.3621-2.5467,2.5384-2.5467,4.9924s1.18,3.6312,2.5469,4.9936c1.3831,1.3789,2.9509,2.9417,2.9509,5.9671s-1.5678,4.5882-2.9509,5.9671c-1.3666,1.3624-2.5469,2.5386-2.5469,4.9935A.6872.6872,0,0,1,269.1773,197.1147Z" fill="#6d6d6d"/><path d="M278.4984,197.1147a.6872.6872,0,0,1-.6872-.6872c0-3.0253,1.5678-4.5882,2.9509-5.9671,1.3666-1.3623,2.5469-2.5386,2.5469-4.9935s-1.18-3.6312-2.5469-4.9936c-1.3831-1.3789-2.9509-2.9417-2.9509-5.9671s1.5678-4.5873,2.9509-5.966c1.3666-1.3619,2.5469-2.5384,2.5469-4.9929s-1.18-3.6305-2.5469-4.9924c-1.3831-1.3784-2.9509-2.9411-2.9509-5.966a.6873.6873,0,0,1,1.3745,0c0,2.4542,1.18,3.6305,2.5469,4.9924,1.3831,1.3785,2.9508,2.9411,2.9508,5.966s-1.5677,4.5878-2.9511,5.9665c-1.3664,1.3621-2.5466,2.5384-2.5466,4.9924s1.18,3.6312,2.5469,4.9936c1.3831,1.3789,2.9508,2.9417,2.9508,5.9671s-1.5677,4.5882-2.9508,5.9671c-1.3667,1.3624-2.5469,2.5386-2.5469,4.9935A.6873.6873,0,0,1,278.4984,197.1147Z" fill="#6d6d6d"/><path d="M287.82,197.1147a.6873.6873,0,0,1-.6873-.6872c0-3.0253,1.5678-4.5882,2.9509-5.9671,1.3666-1.3623,2.5469-2.5386,2.5469-4.9935s-1.18-3.6312-2.5469-4.9936c-1.3831-1.3789-2.9509-2.9417-2.9509-5.9671s1.5678-4.5873,2.9509-5.966c1.3666-1.3619,2.5469-2.5384,2.5469-4.9929s-1.18-3.6305-2.5469-4.9924c-1.3831-1.3784-2.9509-2.9411-2.9509-5.966s1.5678-4.5873,2.9509-5.966c1.3666-1.3619,2.5469-2.5382,2.5469-4.9927a.6872.6872,0,1,1,1.3744,0c0,3.0252-1.5677,4.5876-2.951,5.9663-1.3665,1.3619-2.5467,2.5382-2.5467,4.9924s1.18,3.6305,2.5469,4.9924c1.3831,1.3785,2.9508,2.9411,2.9508,5.966s-1.5677,4.5878-2.951,5.9665c-1.3665,1.3621-2.5467,2.5384-2.5467,4.9924s1.18,3.6312,2.5469,4.9936c1.3831,1.3789,2.9508,2.9417,2.9508,5.9671s-1.5677,4.5882-2.9508,5.9671c-1.3667,1.3624-2.5469,2.5386-2.5469,4.9935A.6872.6872,0,0,1,287.82,197.1147Z" fill="#6d6d6d"/><path d="M297.1407,197.1147a.6873.6873,0,0,1-.6873-.6872c0-3.0253,1.5678-4.5882,2.951-5.9671,1.3666-1.3623,2.5469-2.5386,2.5469-4.9935s-1.18-3.6312-2.5469-4.9936c-1.3832-1.3789-2.951-2.9417-2.951-5.9671s1.5678-4.5873,2.951-5.966c1.3666-1.3619,2.5469-2.5384,2.5469-4.9929s-1.18-3.6305-2.5469-4.9924c-1.3832-1.3784-2.951-2.9411-2.951-5.966a.6873.6873,0,0,1,1.3745,0c0,2.4542,1.18,3.6305,2.5469,4.9924,1.3832,1.3785,2.9509,2.9411,2.9509,5.966s-1.5677,4.5878-2.9511,5.9665c-1.3664,1.3621-2.5467,2.5384-2.5467,4.9924s1.18,3.6312,2.5469,4.9936c1.3832,1.3789,2.9509,2.9417,2.9509,5.9671s-1.5677,4.5882-2.9509,5.9671c-1.3666,1.3624-2.5469,2.5386-2.5469,4.9935A.6872.6872,0,0,1,297.1407,197.1147Z" fill="#6d6d6d"/></g></g></g></svg>