<svg xmlns="http://www.w3.org/2000/svg" xmlns:xlink="http://www.w3.org/1999/xlink" version="1.1" width="38" height="38" viewBox="0 0 1000 1000" xml:space="preserve">
<desc>Created with Fabric.js 3.5.0</desc>
<defs>
</defs>
<rect x="0" y="0" width="100%" height="100%" fill="#ffffff"/>
<g transform="matrix(22.7273 0 0 22.7273 500.0005 500.0005)" id="697922">
<g style="" vector-effect="non-scaling-stroke">
		<g transform="matrix(1 0 0 1 0 0)" id="Ellipse_181_7_">
<circle style="stroke: none; stroke-width: 1; stroke-dasharray: none; stroke-linecap: butt; stroke-dashoffset: 0; stroke-linejoin: miter; stroke-miterlimit: 4; is-custom-font: none; font-file-url: none; fill: rgb(244,245,245); fill-rule: nonzero; opacity: 1;" cx="0" cy="0" r="20"/>
</g>
		<g transform="matrix(1 0 0 1 0.0001 -0.0002)" id="Path_566_8_">
<path style="stroke: none; stroke-width: 1; stroke-dasharray: none; stroke-linecap: butt; stroke-dashoffset: 0; stroke-linejoin: miter; stroke-miterlimit: 4; is-custom-font: none; font-file-url: none; fill: rgb(244,245,245); fill-rule: nonzero; opacity: 1;" transform=" translate(-20.0001, -19.9998)" d="M 38.3331871 19.9999847 c 0 10.1251411 -8.2080479 18.3331909 -18.333189 18.3331909 S 1.6668068 30.1251259 1.6668068 19.9999847 S 9.874855 1.6667935 19.9999981 1.6667935 c 10.0687332 -0.0564092 18.2767811 8.0601816 18.333189 18.1289139 C 38.3335686 19.8638 38.3335686 19.9318924 38.3331871 19.9999847 z" stroke-linecap="round"/>
</g>
		<g transform="matrix(1 0 0 1 -0.0023 3.3003)" id="Union_16_9_">
<path style="stroke: none; stroke-width: 1; stroke-dasharray: none; stroke-linecap: butt; stroke-dashoffset: 0; stroke-linejoin: miter; stroke-miterlimit: 4; is-custom-font: none; font-file-url: none; fill: rgb(149,209,204); fill-rule: nonzero; opacity: 1;" transform=" translate(-19.9978, -23.3004)" d="M 15.5410299 37.7831688 c -3.6299362 -0.9064255 -6.8938446 -2.9051208 -9.3511009 -5.726059 c 0.624136 -1.2524681 1.7182393 -2.2070732 3.0440931 -2.6552525 c 0.3809471 -0.168047 0.7912359 -0.3228683 1.2313633 -0.4899063 c 0.0815601 -0.0295429 0.1621265 -0.067215 0.2566175 -0.0957336 c 1.7381315 -0.6065598 3.4230509 -1.35602 5.0373497 -2.2407207 l 0.0079575 0.0285187 l 2.6482267 6.9014282 l 0.6306019 -4.4508858 h -0.0437641 c -0.3724937 -0.3422642 -0.6117039 -0.8050671 -0.6763554 -1.3067532 c 0 -0.5418453 0.9911575 -0.0437965 1.5774975 -0.0437965 c 0.6306019 0 1.7092876 -0.4980488 1.7092876 0.0437965 c -0.0681324 0.4909 -0.2884445 0.948 -0.6306 1.3067532 c -0.0333214 0.0043983 -0.0646515 0.0198002 -0.0885239 0.0437946 L 21.6138 34.048317 l 2.5149441 -7.2456837 v 0.0662041 l 0.0959835 -0.2933235 c 1.6142998 0.8845139 3.2992191 1.6339741 5.0373497 2.2407188 c 0.0875282 0.0285187 0.1760521 0.066206 0.2566185 0.0957336 c 0.4401264 0.1680489 0.8494205 0.3228703 1.2313633 0.4899082 c 1.3318195 0.4464684 2.4308987 1.4043674 3.0555325 2.662384 c -2.4552689 2.8178596 -5.7156963 4.8143959 -9.3416538 5.7199516 c -1.4581413 0.3668213 -2.9555702 0.5518875 -4.4589672 0.5510139 C 18.500082 38.3362846 17.0006618 38.1508598 15.5410299 37.7831688 z M 14.0958185 20.5856247 c -0.1780405 0 -0.3605566 -0.3157368 -0.3605566 -0.6742573 v -0.1344471 c -0.1342764 -0.2734795 -0.2397079 -0.5601997 -0.3148031 -0.855545 c -0.1352711 -0.4960136 -0.5848475 -1.5746231 -0.2252855 -1.9810104 c 0.15765 -0.1862144 0.4366465 -0.2092152 0.6231413 -0.0513477 c 0.0184011 0.0156803 0.0353098 0.0328541 0.0512238 0.0513477 c -0.5848475 -2.7438679 -1.3059616 -6.3453169 2.5219088 -7.4269714 c 0 -2.3425775 8.9119663 -1.305728 9.9926414 2.429142 c 0.4958286 1.4860067 -0.1332817 4.9519978 -0.1332817 4.9519978 c 0.0895176 -0.2250824 0.2700462 -0.3147259 0.4500751 -0.1802769 c 0.4928436 0.3595295 -0.0457535 1.7549 -0.1372604 2.2060928 c -0.0920048 0.3178196 -0.2287674 0.6207333 -0.4073048 0.8993416 v 0.0906506 c 0 0.3585224 -0.1362648 0.6294365 -0.3157978 0.6742573 c -0.8991547 3.3763657 -3.6005936 6.2129211 -5.8057098 6.2129211 C 17.6511574 26.7964935 14.9959669 23.9619904 14.0958185 20.5856247 z" stroke-linecap="round"/>
</g>
		<g transform="matrix(1 0 0 1 14.0039 -14.0039)" id="Path_560_5_">
<path style="stroke: none; stroke-width: 1; stroke-dasharray: none; stroke-linecap: butt; stroke-dashoffset: 0; stroke-linejoin: miter; stroke-miterlimit: 4; is-custom-font: none; font-file-url: none; fill: rgb(244,245,245); fill-rule: nonzero; opacity: 1;" transform=" translate(225.9961, 198.0039)" d="M -225.996109 -204 c -3.311554 0 -5.9960938 2.6845398 -5.9960938 5.996109 c 0 3.311554 2.6845398 5.9960938 5.9960938 5.9960938 c 3.3115692 0 5.996109 -2.6845398 5.996109 -5.9960938 C -220 -201.3154602 -222.6845398 -204 -225.996109 -204 z" stroke-linecap="round"/>
</g>
		<g transform="matrix(1 0 0 1 13.9779 -14.2021)" id="Path_561_5_">
<path style="stroke: none; stroke-width: 1; stroke-dasharray: none; stroke-linecap: butt; stroke-dashoffset: 0; stroke-linejoin: miter; stroke-miterlimit: 4; is-custom-font: none; font-file-url: none; fill: rgb(149,209,204); fill-rule: nonzero; opacity: 1;" transform=" translate(227.5221, 199.7021)" d="M -226.9824371 -203.6092224 l 0.6725616 2.0696411 c 0.0761414 0.2336273 0.2939453 0.3917389 0.5396576 0.3917542 h 2.1765747 c 0.3134918 0.0003204 0.5673828 0.254715 0.5670624 0.5682068 c -0.0001984 0.1811829 -0.086853 0.3513947 -0.2332764 0.4581299 l -1.763855 1.2801666 c -0.197464 0.1464996 -0.2781525 0.4034882 -0.1998749 0.6365814 l 0.6695709 2.0686493 c 0.091217 0.299942 -0.0779724 0.6170197 -0.3778992 0.7082367 c -0.1672211 0.0508575 -0.3485413 0.0218506 -0.4915314 -0.0786438 l -1.7648621 -1.2751617 c -0.1990051 -0.1446838 -0.4685516 -0.1446838 -0.6675568 0 l -1.7648621 1.2751617 c -0.256485 0.1802521 -0.6105347 0.1184387 -0.7907867 -0.1380615 c -0.1004791 -0.1429901 -0.1295013 -0.3243103 -0.0786438 -0.4915314 l 0.6695709 -2.0686493 c 0.0782776 -0.2330933 -0.0024109 -0.4900818 -0.1998749 -0.6365814 l -1.763855 -1.2791748 c -0.2533264 -0.1846619 -0.3090057 -0.5397339 -0.1243439 -0.7930603 c 0.1067352 -0.1464233 0.276947 -0.2330933 0.4581299 -0.2332764 h 2.17659 c 0.2457123 -0.0000153 0.463501 -0.1581268 0.5396423 -0.3917389 l 0.6725616 -2.0706482 c 0.0972137 -0.2980499 0.4176331 -0.4608459 0.7156677 -0.3636322 C -227.1737518 -203.9166565 -227.0386353 -203.7815399 -226.9824371 -203.6092224 z" stroke-linecap="round"/>
</g>
</g>
</g>
</svg>