<svg width="24" height="24" viewBox="0 0 16 14" fill="none" xmlns="http://www.w3.org/2000/svg">
<path d="M13.6124 5.73268C12.2657 2.60602 9.7324 0.666016 6.99907 0.666016C4.26573 0.666016 1.7324 2.60602 0.385735 5.73268C0.349026 5.81679 0.330078 5.90758 0.330078 5.99935C0.330078 6.09112 0.349026 6.1819 0.385735 6.26602C1.7324 9.39268 4.26573 11.3327 6.99907 11.3327C9.7324 11.3327 12.2657 9.39268 13.6124 6.26602C13.6491 6.1819 13.6681 6.09112 13.6681 5.99935C13.6681 5.90758 13.6491 5.81679 13.6124 5.73268ZM6.99907 9.99935C4.88573 9.99935 2.88573 8.47268 1.7324 5.99935C2.88573 3.52602 4.88573 1.99935 6.99907 1.99935C9.1124 1.99935 11.1124 3.52602 12.2657 5.99935C11.1124 8.47268 9.1124 9.99935 6.99907 9.99935ZM6.99907 3.33268C6.47165 3.33268 5.95608 3.48908 5.51755 3.7821C5.07902 4.07511 4.73722 4.49159 4.53539 4.97886C4.33356 5.46613 4.28075 6.00231 4.38364 6.51959C4.48653 7.03687 4.74051 7.51203 5.11345 7.88497C5.48639 8.25791 5.96154 8.51188 6.47883 8.61478C6.99611 8.71767 7.53229 8.66486 8.01956 8.46303C8.50683 8.26119 8.9233 7.9194 9.21632 7.48087C9.50934 7.04234 9.66574 6.52677 9.66574 5.99935C9.66574 5.2921 9.38478 4.61383 8.88469 4.11373C8.38459 3.61363 7.70631 3.33268 6.99907 3.33268ZM6.99907 7.33268C6.73536 7.33268 6.47757 7.25448 6.25831 7.10797C6.03904 6.96147 5.86815 6.75323 5.76723 6.50959C5.66631 6.26596 5.63991 5.99787 5.69135 5.73923C5.7428 5.48059 5.86979 5.24301 6.05626 5.05654C6.24273 4.87007 6.48031 4.74308 6.73895 4.69163C6.99759 4.64019 7.26568 4.66659 7.50931 4.76751C7.75295 4.86843 7.96119 5.03932 8.10769 5.25859C8.2542 5.47785 8.3324 5.73564 8.3324 5.99935C8.3324 6.35297 8.19193 6.69211 7.94188 6.94216C7.69183 7.19221 7.35269 7.33268 6.99907 7.33268Z" fill="#75758F"/>
</svg>
