<svg width="36" height="36" viewBox="0 0 36 36" fill="none" xmlns="http://www.w3.org/2000/svg">
    <rect width="36" height="36" rx="18" fill="#1B76FF"/>
    <path d="M16.5778 18.323C17.3373 17.5303 17.7651 16.4908 17.7776 15.4078C17.7776 14.2388 17.2998 13.1176 16.4492 12.291C15.5987 11.4644 14.4451 11 13.2422 11C12.0394 11 10.8858 11.4644 10.0353 12.291C9.1847 13.1176 8.70687 14.2388 8.70687 15.4078C8.71939 16.4908 9.14724 17.5303 9.90671 18.323C8.84924 18.8347 7.93924 19.5939 7.25857 20.5323C6.5779 21.4706 6.14789 22.5587 6.00724 23.6986C5.97224 24.0079 6.06508 24.318 6.26534 24.5607C6.4656 24.8035 6.75688 24.9589 7.07509 24.993C7.39331 25.027 7.7124 24.9368 7.96216 24.7421C8.21193 24.5475 8.37191 24.2644 8.40691 23.9552C8.55009 22.8254 9.11343 21.7855 9.9908 21.0314C10.8682 20.2773 11.999 19.861 13.1703 19.861C14.3415 19.861 15.4723 20.2773 16.3497 21.0314C17.2271 21.7855 17.7904 22.8254 17.9336 23.9552C17.967 24.2542 18.1179 24.5291 18.3549 24.7225C18.5919 24.9158 18.8966 25.0128 19.2054 24.993H19.3374C19.6519 24.9578 19.9394 24.8032 20.1372 24.563C20.3349 24.3227 20.427 24.0162 20.3933 23.7103C20.263 22.5764 19.8466 21.4913 19.181 20.5514C18.5153 19.6116 17.6211 18.8461 16.5778 18.323ZM13.2063 17.4834C12.7838 17.4834 12.3709 17.3617 12.0197 17.1336C11.6685 16.9055 11.3948 16.5814 11.2331 16.2021C11.0715 15.8228 11.0292 15.4055 11.1116 15.0028C11.194 14.6002 11.3974 14.2304 11.6961 13.9401C11.9948 13.6498 12.3753 13.4521 12.7896 13.372C13.2039 13.292 13.6333 13.3331 14.0236 13.4902C14.4138 13.6473 14.7474 13.9133 14.982 14.2546C15.2167 14.596 15.342 14.9973 15.342 15.4078C15.342 15.9583 15.1169 16.4862 14.7164 16.8755C14.3159 17.2647 13.7727 17.4834 13.2063 17.4834Z" fill="#F2F2F2"/>
    <path d="M26.1777 18.323C26.9372 17.5303 27.365 16.4908 27.3775 15.4078C27.3775 14.2388 26.8997 13.1176 26.0491 12.291C25.1986 11.4644 24.045 11 22.8421 11C21.6393 11 20.4857 11.4644 19.6352 12.291C18.7846 13.1176 18.3068 14.2388 18.3068 15.4078C18.3193 16.4908 18.7471 17.5303 19.5066 18.323C18.4491 18.8347 17.4809 19.395 16.8002 20.3333C16.1196 21.2717 16.0058 18.9631 15.8652 20.1031C15.8302 20.4123 16.532 21.0314 17.3999 22.0833C17.6002 22.3261 17.6817 22.6326 17.9999 22.6667C18.3181 22.7007 18.3502 24.028 18.5999 23.8333C18.8497 23.6387 19.1648 24.0195 19.1998 23.7103C19.3429 22.5805 18.7133 21.7855 19.5907 21.0314C20.4681 20.2773 21.5989 19.861 22.7702 19.861C23.9414 19.861 25.0723 20.2773 25.9496 21.0314C26.827 21.7855 27.3903 22.8254 27.5335 23.9552C27.5669 24.2542 27.7178 24.5291 27.9548 24.7225C28.1918 24.9158 28.4965 25.0128 28.8053 24.993H28.9373C29.2518 24.9578 29.5393 24.8032 29.7371 24.563C29.9348 24.3227 30.0269 24.0162 29.9932 23.7103C29.8629 22.5764 29.4465 21.4913 28.7809 20.5514C28.1152 19.6116 27.221 18.8461 26.1777 18.323ZM22.8062 17.4834C22.3838 17.4834 21.9708 17.3617 21.6196 17.1336C21.2684 16.9055 20.9947 16.5814 20.833 16.2021C20.6714 15.8228 20.6291 15.4055 20.7115 15.0028C20.7939 14.6002 20.9973 14.2304 21.296 13.9401C21.5947 13.6498 21.9752 13.4521 22.3895 13.372C22.8038 13.292 23.2332 13.3331 23.6235 13.4902C24.0137 13.6473 24.3473 13.9133 24.5819 14.2546C24.8166 14.596 24.9419 14.9973 24.9419 15.4078C24.9419 15.9583 24.7168 16.4862 24.3163 16.8755C23.9158 17.2647 23.3726 17.4834 22.8062 17.4834Z" fill="#F2F2F2"/>
</svg>
