<svg id="Layer_1" fill="white" data-name="Layer 1" xmlns="http://www.w3.org/2000/svg" viewBox="0 0 32 32"><defs><style>.cls-1{fill:#924dff;}.cls-2{fill:#fff;}</style></defs><rect class="cls-1" width="32" height="32" rx="7.4138"/><circle class="cls-2" cx="15.9646" cy="16" r="10.6667"/><path class="cls-1" d="M19.3443,10.7551H12.6557a1.9019,1.9019,0,0,0-1.8994,1.9v6.6905a1.9015,1.9015,0,0,0,1.8994,1.8993h6.6886a1.9014,1.9014,0,0,0,1.8994-1.8993V12.655A1.9018,1.9018,0,0,0,19.3443,10.7551Zm-4.8649,1.6982h2.6095a.6482.6482,0,0,1,0,1.2964H14.4794a.6482.6482,0,0,1,0-1.2964Zm0,2.86h1.6267a.6482.6482,0,1,1,0,1.2963H14.4794a.6482.6482,0,0,1,0-1.2963Zm-1.805,4.18a.5949.5949,0,1,1,.5949-.5948A.5947.5947,0,0,1,12.6744,19.4933Zm0-2.937a.5949.5949,0,1,1,.5949-.5948A.5947.5947,0,0,1,12.6744,16.5563Zm0-2.86a.5948.5948,0,1,1,.5949-.5948A.5947.5947,0,0,1,12.6744,13.6963ZM18.2527,19.47H14.4794a.6482.6482,0,0,1,0-1.2963h3.7733a.6482.6482,0,1,1,0,1.2963Zm1.61-4.2021-.885,1.2188a.4415.4415,0,0,1-.6747.0544l-.59-.5258-.0044-.0039-.004-.0042a.4764.4764,0,0,1,0-.6583.4407.4407,0,0,1,.6294-.0082l.21.1761.6745-.8949a.434.434,0,0,1,.624-.0976l.0393.0343C20.08,14.7124,20.012,15.0617,19.8627,15.2674Z"/></svg>