<svg width="18" height="18" viewBox="0 0 18 18" fill="none" xmlns="http://www.w3.org/2000/svg">
<path d="M13.5013 4.00001V4.50001H14.0013H14.8346C15.3651 4.50001 15.8738 4.71072 16.2489 5.08579C16.6239 5.46086 16.8346 5.96957 16.8346 6.50001V11.5C16.8346 12.0304 16.6239 12.5391 16.2489 12.9142C15.8738 13.2893 15.3651 13.5 14.8346 13.5H14.0013H13.5013V14V16.5C13.5013 16.5884 13.4662 16.6732 13.4037 16.7357C13.3412 16.7982 13.2564 16.8333 13.168 16.8333H4.83464C4.74623 16.8333 4.66145 16.7982 4.59893 16.7357C4.53642 16.6732 4.5013 16.5884 4.5013 16.5V14V13.5H4.0013H3.16797C2.63754 13.5 2.12883 13.2893 1.75376 12.9142L1.40806 13.2599L1.75376 12.9142C1.37868 12.5391 1.16797 12.0304 1.16797 11.5V6.50001C1.16797 5.96957 1.37868 5.46086 1.75376 5.08579C2.12883 4.71072 2.63754 4.50001 3.16797 4.50001H4.0013H4.5013V4.00001V1.50001C4.5013 1.4116 4.53642 1.32682 4.59893 1.2643C4.66145 1.20179 4.74623 1.16667 4.83464 1.16667H13.168C13.2564 1.16667 13.3412 1.20179 13.4037 1.2643C13.4662 1.32681 13.5013 1.4116 13.5013 1.50001V4.00001ZM5.66797 1.83334H5.16797V2.33334V4.00001V4.50001H5.66797H12.3346H12.8346V4.00001V2.33334V1.83334H12.3346H5.66797ZM12.3346 16.1667H12.8346V15.6667V12.3333V11.8333H12.3346H5.66797H5.16797V12.3333V15.6667V16.1667H5.66797H12.3346ZM13.5013 12.3333V12.8333H14.0013H14.8346C15.1883 12.8333 15.5274 12.6929 15.7774 12.4428C16.0275 12.1928 16.168 11.8536 16.168 11.5V6.50001C16.168 6.14638 16.0275 5.80724 15.7774 5.5572C15.5274 5.30715 15.1883 5.16667 14.8346 5.16667H3.16797C2.81435 5.16667 2.47521 5.30715 2.22516 5.5572C1.97511 5.80724 1.83464 6.14638 1.83464 6.50001V11.5C1.83464 11.8536 1.97511 12.1928 2.22516 12.4428C2.47521 12.6929 2.81435 12.8333 3.16797 12.8333H4.0013H4.5013V12.3333V11.5C4.5013 11.4116 4.53642 11.3268 4.59893 11.2643C4.66145 11.2018 4.74623 11.1667 4.83464 11.1667H13.168C13.2564 11.1667 13.3412 11.2018 13.4037 11.2643C13.4662 11.3268 13.5013 11.4116 13.5013 11.5V12.3333ZM4.64944 7.88952C4.70426 7.85289 4.76871 7.83334 4.83464 7.83334C4.92304 7.83334 5.00783 7.86846 5.07034 7.93097C5.13285 7.99348 5.16797 8.07827 5.16797 8.16667C5.16797 8.2326 5.14842 8.29705 5.11179 8.35186C5.07516 8.40668 5.02311 8.4494 4.9622 8.47463C4.90129 8.49986 4.83427 8.50646 4.76961 8.4936C4.70494 8.48074 4.64555 8.44899 4.59893 8.40238C4.55232 8.35576 4.52057 8.29636 4.50771 8.2317C4.49485 8.16704 4.50145 8.10002 4.52668 8.03911C4.5519 7.9782 4.59463 7.92614 4.64944 7.88952Z" fill="#1B76FF" stroke="#1B76FF"/>
</svg>
