<svg width="20" height="20" viewBox="0 0 20 20" fill="none" xmlns="http://www.w3.org/2000/svg">
<path fill-rule="evenodd" clip-rule="evenodd" d="M20 10C20 4.47715 15.5228 0 10 0C4.47715 0 0 4.47715 0 10C0 15.5228 4.47715 20 10 20C15.5228 20 20 15.5228 20 10ZM2 10C2 5.58172 5.58172 2 10 2C14.4183 2 18 5.58172 18 10C18 14.4183 14.4183 18 10 18C5.58172 18 2 14.4183 2 10ZM10 13C10.5523 13 11 13.4477 11 14C11 14.5523 10.5523 15 10 15C9.44771 15 9 14.5523 9 14C9 13.4477 9.44771 13 10 13ZM10.9933 5.88338C10.9355 5.38604 10.5128 5 10 5C9.44771 5 9 5.44772 9 6V10L9.00673 10.1166C9.06449 10.614 9.48716 11 10 11C10.5523 11 11 10.5523 11 10V6L10.9933 5.88338Z" fill="#EC3737"/>
</svg>
