<svg width="28" height="28" viewBox="0 0 28 28" fill="none" xmlns="http://www.w3.org/2000/svg">
<path fill-rule="evenodd" clip-rule="evenodd" d="M0.666504 14C0.666504 6.64802 6.64784 0.666687 13.9998 0.666687C21.3518 0.666687 27.3332 6.64802 27.3332 14C27.3332 21.352 21.3518 27.3334 13.9998 27.3334C6.64784 27.3334 0.666504 21.352 0.666504 14ZM13.9998 6.00002C16.9412 6.00002 19.3332 8.39202 19.3332 11.3334C19.3332 14.2747 16.9412 16.6667 13.9998 16.6667C11.0585 16.6667 8.6665 14.2747 8.6665 11.3334C8.6665 8.39202 11.0585 6.00002 13.9998 6.00002ZM13.9998 24.6667C11.0532 24.6667 8.3825 23.4654 6.4505 21.528C7.11317 20.232 8.4465 19.3334 9.99984 19.3334H17.9998C19.5532 19.3334 20.8865 20.232 21.5492 21.528C19.6172 23.4654 16.9465 24.6667 13.9998 24.6667Z" fill="#1B76FF"/>
</svg>
