<svg width="20" height="20" viewBox="0 0 20 20" fill="none" xmlns="http://www.w3.org/2000/svg">
    <path fill-rule="evenodd" clip-rule="evenodd" d="M14 10C14 11.0609 13.5786 12.0782 12.8284 12.8284C12.0783 13.5785 11.0609 14 10 14C8.93913 14 7.92172 13.5785 7.17157 12.8284C6.42142 12.0782 6 11.0609 6 10C6 8.93913 6.42142 7.92178 7.17157 7.17163C7.92172 6.42149 8.93913 6 10 6C11.0609 6 12.0783 6.42149 12.8284 7.17163C13.5786 7.92178 14 8.93913 14 10ZM10 18C5.589 18 2 14.411 2 10C2 5.589 5.589 2 10 2C14.411 2 18 5.589 18 10C18 14.411 14.411 18 10 18ZM10 0C4.477 0 0 4.477 0 10C0 15.523 4.477 20 10 20C15.523 20 20 15.523 20 10C20 4.477 15.523 0 10 0Z" fill="#EC3737"/>
</svg>
