<svg width="25" height="24" viewBox="0 0 25 24" fill="none" xmlns="http://www.w3.org/2000/svg">
<path d="M13.5234 3.14522C13.4526 3.08615 13.3699 3.0435 13.2811 3.02025C13.1923 2.99701 13.0995 2.99373 13.0094 3.01065L3.01029 4.91295C2.86719 4.93966 2.73782 5.01627 2.64462 5.12952C2.55141 5.24276 2.50025 5.38549 2.5 5.53295V19.471C2.49999 19.6187 2.55102 19.7618 2.64423 19.8754C2.73744 19.989 2.86695 20.0659 3.01029 20.0929L13.0094 21.9885C13.0472 21.996 13.0856 21.9999 13.1241 22C13.2899 22 13.4489 21.9333 13.5661 21.8145C13.6833 21.6957 13.7492 21.5345 13.7492 21.3665V3.63257C13.7493 3.5395 13.7291 3.44755 13.6901 3.3633C13.6511 3.27905 13.5942 3.20458 13.5234 3.14522ZM12.5 20.6033L3.75012 18.9413V6.06067L12.5 4.39868V20.6033Z" fill="#5392F2"/>
<path d="M21.8749 5.53285H13.125C12.9593 5.53285 12.8003 5.59959 12.6831 5.71839C12.5659 5.83718 12.5 5.99831 12.5 6.16631C12.5 6.33432 12.5659 6.49544 12.6831 6.61423C12.8003 6.73303 12.9593 6.79977 13.125 6.79977H21.2499V18.2001H13.125C12.9593 18.2001 12.8003 18.2668 12.6831 18.3856C12.5659 18.5044 12.5 18.6656 12.5 18.8336C12.5 19.0016 12.5659 19.1627 12.6831 19.2815C12.8003 19.4003 12.9593 19.467 13.125 19.467H21.8749C22.0407 19.467 22.1997 19.4003 22.3169 19.2815C22.4341 19.1627 22.5 19.0016 22.5 18.8336V6.16631C22.5 5.99831 22.4341 5.83718 22.3169 5.71839C22.1997 5.59959 22.0407 5.53285 21.8749 5.53285Z" fill="#5392F2"/>
<path d="M19.3746 8.0659H18.1245C17.9587 8.0659 17.7998 8.13263 17.6825 8.25143C17.5653 8.37023 17.4994 8.53135 17.4994 8.69936C17.4994 8.86736 17.5653 9.02849 17.6825 9.14728C17.7998 9.26608 17.9587 9.33281 18.1245 9.33281H19.3746C19.5404 9.33281 19.6994 9.26608 19.8166 9.14728C19.9338 9.02849 19.9997 8.86736 19.9997 8.69936C19.9997 8.53135 19.9338 8.37023 19.8166 8.25143C19.6994 8.13263 19.5404 8.0659 19.3746 8.0659Z" fill="#5392F2"/>
<path d="M15.4863 8.0659H14.2362C14.0704 8.0659 13.9114 8.13263 13.7942 8.25143C13.677 8.37023 13.6111 8.53135 13.6111 8.69936C13.6111 8.86736 13.677 9.02849 13.7942 9.14728C13.9114 9.26608 14.0704 9.33281 14.2362 9.33281H15.4863C15.652 9.33281 15.8111 9.26608 15.9283 9.14728C16.0455 9.02849 16.1113 8.86736 16.1113 8.69936C16.1113 8.53135 16.0455 8.37023 15.9283 8.25143C15.8111 8.13263 15.652 8.0659 15.4863 8.0659Z" fill="#5392F2"/>
<path d="M19.3746 10.5998H18.1245C17.9587 10.5998 17.7998 10.6665 17.6825 10.7853C17.5653 10.9041 17.4994 11.0652 17.4994 11.2332C17.4994 11.4012 17.5653 11.5624 17.6825 11.6812C17.7998 11.7999 17.9587 11.8667 18.1245 11.8667H19.3746C19.5404 11.8667 19.6994 11.7999 19.8166 11.6812C19.9338 11.5624 19.9997 11.4012 19.9997 11.2332C19.9997 11.0652 19.9338 10.9041 19.8166 10.7853C19.6994 10.6665 19.5404 10.5998 19.3746 10.5998Z" fill="#5392F2"/>
<path d="M15.4863 10.5998H14.2362C14.0704 10.5998 13.9114 10.6665 13.7942 10.7853C13.677 10.9041 13.6111 11.0652 13.6111 11.2332C13.6111 11.4012 13.677 11.5624 13.7942 11.6812C13.9114 11.7999 14.0704 11.8667 14.2362 11.8667H15.4863C15.652 11.8667 15.8111 11.7999 15.9283 11.6812C16.0455 11.5624 16.1113 11.4012 16.1113 11.2332C16.1113 11.0652 16.0455 10.9041 15.9283 10.7853C15.8111 10.6665 15.652 10.5998 15.4863 10.5998Z" fill="#5392F2"/>
<path d="M19.3746 13.1336H18.1245C17.9587 13.1336 17.7998 13.2004 17.6825 13.3192C17.5653 13.438 17.4994 13.5991 17.4994 13.7671C17.4994 13.9351 17.5653 14.0962 17.6825 14.215C17.7998 14.3338 17.9587 14.4006 18.1245 14.4006H19.3746C19.5404 14.4006 19.6994 14.3338 19.8166 14.215C19.9338 14.0962 19.9997 13.9351 19.9997 13.7671C19.9997 13.5991 19.9338 13.438 19.8166 13.3192C19.6994 13.2004 19.5404 13.1336 19.3746 13.1336Z" fill="#5392F2"/>
<path d="M15.4863 13.1336H14.2362C14.0704 13.1336 13.9114 13.2004 13.7942 13.3192C13.677 13.438 13.6111 13.5991 13.6111 13.7671C13.6111 13.9351 13.677 14.0962 13.7942 14.215C13.9114 14.3338 14.0704 14.4006 14.2362 14.4006H15.4863C15.652 14.4006 15.8111 14.3338 15.9283 14.215C16.0455 14.0962 16.1113 13.9351 16.1113 13.7671C16.1113 13.5991 16.0455 13.438 15.9283 13.3192C15.8111 13.2004 15.652 13.1336 15.4863 13.1336Z" fill="#5392F2"/>
<path d="M19.3746 15.6664H18.1245C17.9587 15.6664 17.7998 15.7331 17.6825 15.8519C17.5653 15.9707 17.4994 16.1318 17.4994 16.2998C17.4994 16.4678 17.5653 16.629 17.6825 16.7478C17.7998 16.8666 17.9587 16.9333 18.1245 16.9333H19.3746C19.5404 16.9333 19.6994 16.8666 19.8166 16.7478C19.9338 16.629 19.9997 16.4678 19.9997 16.2998C19.9997 16.1318 19.9338 15.9707 19.8166 15.8519C19.6994 15.7331 19.5404 15.6664 19.3746 15.6664Z" fill="#5392F2"/>
<path d="M15.4863 15.6664H14.2362C14.0704 15.6664 13.9114 15.7331 13.7942 15.8519C13.677 15.9707 13.6111 16.1318 13.6111 16.2998C13.6111 16.4678 13.677 16.629 13.7942 16.7478C13.9114 16.8666 14.0704 16.9333 14.2362 16.9333H15.4863C15.652 16.9333 15.8111 16.8666 15.9283 16.7478C16.0455 16.629 16.1113 16.4678 16.1113 16.2998C16.1113 16.1318 16.0455 15.9707 15.9283 15.8519C15.8111 15.7331 15.652 15.6664 15.4863 15.6664Z" fill="#5392F2"/>
<path d="M11.6671 15.4114L6.54269 9.47607C6.41326 9.33423 6.23433 9.24914 6.04397 9.23889C5.8536 9.22864 5.6668 9.29404 5.52326 9.42118C5.37972 9.54831 5.29077 9.72717 5.27531 9.91973C5.25985 10.1123 5.3191 10.3034 5.44047 10.4524L10.5649 16.3877C10.6943 16.5296 10.8733 16.6146 11.0636 16.6249C11.254 16.6351 11.4408 16.5697 11.5843 16.4426C11.7279 16.3155 11.8168 16.1366 11.8323 15.9441C11.8478 15.7515 11.7885 15.5604 11.6671 15.4114Z" fill="#5392F2"/>
<path d="M10.106 8.76406C10.0412 8.71292 9.96716 8.6752 9.88801 8.65308C9.80887 8.63096 9.72619 8.62487 9.64472 8.63513C9.56324 8.6454 9.48457 8.67182 9.41317 8.71291C9.34178 8.754 9.27907 8.80894 9.22864 8.87459L4.85417 14.5748C4.75229 14.7073 4.70654 14.8755 4.727 15.0422C4.74746 15.209 4.83243 15.3607 4.96324 15.4639C5.09405 15.5672 5.25998 15.6135 5.42451 15.5928C5.58905 15.5721 5.73872 15.4859 5.8406 15.3534L10.2151 9.65321C10.2655 9.58757 10.3027 9.5125 10.3246 9.43229C10.3464 9.35208 10.3524 9.2683 10.3423 9.18573C10.3322 9.10316 10.3061 9.02342 10.2655 8.95107C10.225 8.87871 10.1708 8.81517 10.106 8.76406Z" fill="#5392F2"/>
<path d="M13.5234 3.14522C13.4526 3.08615 13.3699 3.0435 13.2811 3.02025C13.1923 2.99701 13.0995 2.99373 13.0094 3.01065L3.01029 4.91295C2.86719 4.93966 2.73782 5.01627 2.64462 5.12952C2.55141 5.24276 2.50025 5.38549 2.5 5.53295V19.471C2.49999 19.6187 2.55102 19.7618 2.64423 19.8754C2.73744 19.989 2.86695 20.0659 3.01029 20.0929L13.0094 21.9885C13.0472 21.996 13.0856 21.9999 13.1241 22C13.2899 22 13.4489 21.9333 13.5661 21.8145C13.6833 21.6957 13.7492 21.5345 13.7492 21.3665V3.63257C13.7493 3.5395 13.7291 3.44755 13.6901 3.3633C13.6511 3.27905 13.5942 3.20458 13.5234 3.14522ZM12.5 20.6033L3.75012 18.9413V6.06067L12.5 4.39868V20.6033Z" stroke="#5392F2" stroke-width="0.5"/>
<path d="M21.8749 5.53285H13.125C12.9593 5.53285 12.8003 5.59959 12.6831 5.71839C12.5659 5.83718 12.5 5.99831 12.5 6.16631C12.5 6.33432 12.5659 6.49544 12.6831 6.61423C12.8003 6.73303 12.9593 6.79977 13.125 6.79977H21.2499V18.2001H13.125C12.9593 18.2001 12.8003 18.2668 12.6831 18.3856C12.5659 18.5044 12.5 18.6656 12.5 18.8336C12.5 19.0016 12.5659 19.1627 12.6831 19.2815C12.8003 19.4003 12.9593 19.467 13.125 19.467H21.8749C22.0407 19.467 22.1997 19.4003 22.3169 19.2815C22.4341 19.1627 22.5 19.0016 22.5 18.8336V6.16631C22.5 5.99831 22.4341 5.83718 22.3169 5.71839C22.1997 5.59959 22.0407 5.53285 21.8749 5.53285Z" stroke="#5392F2" stroke-width="0.5"/>
<path d="M19.3746 8.0659H18.1245C17.9587 8.0659 17.7998 8.13263 17.6825 8.25143C17.5653 8.37023 17.4994 8.53135 17.4994 8.69936C17.4994 8.86736 17.5653 9.02849 17.6825 9.14728C17.7998 9.26608 17.9587 9.33281 18.1245 9.33281H19.3746C19.5404 9.33281 19.6994 9.26608 19.8166 9.14728C19.9338 9.02849 19.9997 8.86736 19.9997 8.69936C19.9997 8.53135 19.9338 8.37023 19.8166 8.25143C19.6994 8.13263 19.5404 8.0659 19.3746 8.0659Z" stroke="#5392F2" stroke-width="0.5"/>
<path d="M15.4863 8.0659H14.2362C14.0704 8.0659 13.9114 8.13263 13.7942 8.25143C13.677 8.37023 13.6111 8.53135 13.6111 8.69936C13.6111 8.86736 13.677 9.02849 13.7942 9.14728C13.9114 9.26608 14.0704 9.33281 14.2362 9.33281H15.4863C15.652 9.33281 15.8111 9.26608 15.9283 9.14728C16.0455 9.02849 16.1113 8.86736 16.1113 8.69936C16.1113 8.53135 16.0455 8.37023 15.9283 8.25143C15.8111 8.13263 15.652 8.0659 15.4863 8.0659Z" stroke="#5392F2" stroke-width="0.5"/>
<path d="M19.3746 10.5998H18.1245C17.9587 10.5998 17.7998 10.6665 17.6825 10.7853C17.5653 10.9041 17.4994 11.0652 17.4994 11.2332C17.4994 11.4012 17.5653 11.5624 17.6825 11.6812C17.7998 11.7999 17.9587 11.8667 18.1245 11.8667H19.3746C19.5404 11.8667 19.6994 11.7999 19.8166 11.6812C19.9338 11.5624 19.9997 11.4012 19.9997 11.2332C19.9997 11.0652 19.9338 10.9041 19.8166 10.7853C19.6994 10.6665 19.5404 10.5998 19.3746 10.5998Z" stroke="#5392F2" stroke-width="0.5"/>
<path d="M15.4863 10.5998H14.2362C14.0704 10.5998 13.9114 10.6665 13.7942 10.7853C13.677 10.9041 13.6111 11.0652 13.6111 11.2332C13.6111 11.4012 13.677 11.5624 13.7942 11.6812C13.9114 11.7999 14.0704 11.8667 14.2362 11.8667H15.4863C15.652 11.8667 15.8111 11.7999 15.9283 11.6812C16.0455 11.5624 16.1113 11.4012 16.1113 11.2332C16.1113 11.0652 16.0455 10.9041 15.9283 10.7853C15.8111 10.6665 15.652 10.5998 15.4863 10.5998Z" stroke="#5392F2" stroke-width="0.5"/>
<path d="M19.3746 13.1336H18.1245C17.9587 13.1336 17.7998 13.2004 17.6825 13.3192C17.5653 13.438 17.4994 13.5991 17.4994 13.7671C17.4994 13.9351 17.5653 14.0962 17.6825 14.215C17.7998 14.3338 17.9587 14.4006 18.1245 14.4006H19.3746C19.5404 14.4006 19.6994 14.3338 19.8166 14.215C19.9338 14.0962 19.9997 13.9351 19.9997 13.7671C19.9997 13.5991 19.9338 13.438 19.8166 13.3192C19.6994 13.2004 19.5404 13.1336 19.3746 13.1336Z" stroke="#5392F2" stroke-width="0.5"/>
<path d="M15.4863 13.1336H14.2362C14.0704 13.1336 13.9114 13.2004 13.7942 13.3192C13.677 13.438 13.6111 13.5991 13.6111 13.7671C13.6111 13.9351 13.677 14.0962 13.7942 14.215C13.9114 14.3338 14.0704 14.4006 14.2362 14.4006H15.4863C15.652 14.4006 15.8111 14.3338 15.9283 14.215C16.0455 14.0962 16.1113 13.9351 16.1113 13.7671C16.1113 13.5991 16.0455 13.438 15.9283 13.3192C15.8111 13.2004 15.652 13.1336 15.4863 13.1336Z" stroke="#5392F2" stroke-width="0.5"/>
<path d="M19.3746 15.6664H18.1245C17.9587 15.6664 17.7998 15.7331 17.6825 15.8519C17.5653 15.9707 17.4994 16.1318 17.4994 16.2998C17.4994 16.4678 17.5653 16.629 17.6825 16.7478C17.7998 16.8666 17.9587 16.9333 18.1245 16.9333H19.3746C19.5404 16.9333 19.6994 16.8666 19.8166 16.7478C19.9338 16.629 19.9997 16.4678 19.9997 16.2998C19.9997 16.1318 19.9338 15.9707 19.8166 15.8519C19.6994 15.7331 19.5404 15.6664 19.3746 15.6664Z" stroke="#5392F2" stroke-width="0.5"/>
<path d="M15.4863 15.6664H14.2362C14.0704 15.6664 13.9114 15.7331 13.7942 15.8519C13.677 15.9707 13.6111 16.1318 13.6111 16.2998C13.6111 16.4678 13.677 16.629 13.7942 16.7478C13.9114 16.8666 14.0704 16.9333 14.2362 16.9333H15.4863C15.652 16.9333 15.8111 16.8666 15.9283 16.7478C16.0455 16.629 16.1113 16.4678 16.1113 16.2998C16.1113 16.1318 16.0455 15.9707 15.9283 15.8519C15.8111 15.7331 15.652 15.6664 15.4863 15.6664Z" stroke="#5392F2" stroke-width="0.5"/>
<path d="M11.6671 15.4114L6.54269 9.47607C6.41326 9.33423 6.23433 9.24914 6.04397 9.23889C5.8536 9.22864 5.6668 9.29404 5.52326 9.42118C5.37972 9.54831 5.29077 9.72717 5.27531 9.91973C5.25985 10.1123 5.3191 10.3034 5.44047 10.4524L10.5649 16.3877C10.6943 16.5296 10.8733 16.6146 11.0636 16.6249C11.254 16.6351 11.4408 16.5697 11.5843 16.4426C11.7279 16.3155 11.8168 16.1366 11.8323 15.9441C11.8478 15.7515 11.7885 15.5604 11.6671 15.4114Z" stroke="#5392F2" stroke-width="0.5"/>
<path d="M10.106 8.76406C10.0412 8.71292 9.96716 8.6752 9.88801 8.65308C9.80887 8.63096 9.72619 8.62487 9.64472 8.63513C9.56324 8.6454 9.48457 8.67182 9.41317 8.71291C9.34178 8.754 9.27907 8.80894 9.22864 8.87459L4.85417 14.5748C4.75229 14.7073 4.70654 14.8755 4.727 15.0422C4.74746 15.209 4.83243 15.3607 4.96324 15.4639C5.09405 15.5672 5.25998 15.6135 5.42451 15.5928C5.58905 15.5721 5.73872 15.4859 5.8406 15.3534L10.2151 9.65321C10.2655 9.58757 10.3027 9.5125 10.3246 9.43229C10.3464 9.35208 10.3524 9.2683 10.3423 9.18573C10.3322 9.10316 10.3061 9.02342 10.2655 8.95107C10.225 8.87871 10.1708 8.81517 10.106 8.76406Z" stroke="#5392F2" stroke-width="0.5"/>
</svg>
