<svg width="16" height="16" viewBox="0 0 16 16" fill="none" xmlns="http://www.w3.org/2000/svg">
<path d="M8.00065 9.33331C8.13251 9.33331 8.2614 9.29422 8.37103 9.22096C8.48067 9.14771 8.56611 9.04359 8.61657 8.92177C8.66703 8.79995 8.68023 8.66591 8.65451 8.53659C8.62879 8.40727 8.56529 8.28848 8.47206 8.19524C8.37882 8.10201 8.26003 8.03852 8.13071 8.01279C8.00139 7.98707 7.86735 8.00027 7.74553 8.05073C7.62371 8.10119 7.51959 8.18664 7.44634 8.29627C7.37309 8.4059 7.33399 8.53479 7.33399 8.66665C7.33399 8.84346 7.40422 9.01303 7.52925 9.13805C7.65427 9.26308 7.82384 9.33331 8.00065 9.33331ZM11.334 9.33331C11.4658 9.33331 11.5947 9.29422 11.7044 9.22096C11.814 9.14771 11.8994 9.04359 11.9499 8.92177C12.0004 8.79995 12.0136 8.66591 11.9878 8.53659C11.9621 8.40727 11.8986 8.28848 11.8054 8.19524C11.7122 8.10201 11.5934 8.03852 11.464 8.01279C11.3347 7.98707 11.2007 8.00027 11.0789 8.05073C10.957 8.10119 10.8529 8.18664 10.7797 8.29627C10.7064 8.4059 10.6673 8.53479 10.6673 8.66665C10.6673 8.84346 10.7376 9.01303 10.8626 9.13805C10.9876 9.26308 11.1572 9.33331 11.334 9.33331ZM8.00065 12C8.13251 12 8.2614 11.9609 8.37103 11.8876C8.48067 11.8144 8.56611 11.7103 8.61657 11.5884C8.66703 11.4666 8.68023 11.3326 8.65451 11.2033C8.62879 11.0739 8.56529 10.9551 8.47206 10.8619C8.37882 10.7687 8.26003 10.7052 8.13071 10.6795C8.00139 10.6537 7.86735 10.6669 7.74553 10.7174C7.62371 10.7679 7.51959 10.8533 7.44634 10.9629C7.37309 11.0726 7.33399 11.2015 7.33399 11.3333C7.33399 11.5101 7.40422 11.6797 7.52925 11.8047C7.65427 11.9297 7.82384 12 8.00065 12ZM11.334 12C11.4658 12 11.5947 11.9609 11.7044 11.8876C11.814 11.8144 11.8994 11.7103 11.9499 11.5884C12.0004 11.4666 12.0136 11.3326 11.9878 11.2033C11.9621 11.0739 11.8986 10.9551 11.8054 10.8619C11.7122 10.7687 11.5934 10.7052 11.464 10.6795C11.3347 10.6537 11.2007 10.6669 11.0789 10.7174C10.957 10.7679 10.8529 10.8533 10.7797 10.9629C10.7064 11.0726 10.6673 11.2015 10.6673 11.3333C10.6673 11.5101 10.7376 11.6797 10.8626 11.8047C10.9876 11.9297 11.1572 12 11.334 12ZM4.66732 9.33331C4.79917 9.33331 4.92807 9.29422 5.0377 9.22096C5.14733 9.14771 5.23278 9.04359 5.28324 8.92177C5.3337 8.79995 5.3469 8.66591 5.32118 8.53659C5.29545 8.40727 5.23196 8.28848 5.13872 8.19524C5.04549 8.10201 4.9267 8.03852 4.79738 8.01279C4.66806 7.98707 4.53401 8.00027 4.4122 8.05073C4.29038 8.10119 4.18626 8.18664 4.11301 8.29627C4.03975 8.4059 4.00065 8.53479 4.00065 8.66665C4.00065 8.84346 4.07089 9.01303 4.19591 9.13805C4.32094 9.26308 4.49051 9.33331 4.66732 9.33331ZM12.6673 2.66665H12.0007V1.99998C12.0007 1.82317 11.9304 1.6536 11.8054 1.52858C11.6804 1.40355 11.5108 1.33331 11.334 1.33331C11.1572 1.33331 10.9876 1.40355 10.8626 1.52858C10.7376 1.6536 10.6673 1.82317 10.6673 1.99998V2.66665H5.33399V1.99998C5.33399 1.82317 5.26375 1.6536 5.13872 1.52858C5.0137 1.40355 4.84413 1.33331 4.66732 1.33331C4.49051 1.33331 4.32094 1.40355 4.19591 1.52858C4.07089 1.6536 4.00065 1.82317 4.00065 1.99998V2.66665H3.33398C2.80355 2.66665 2.29484 2.87736 1.91977 3.25243C1.5447 3.62751 1.33398 4.13621 1.33398 4.66665V12.6666C1.33398 13.1971 1.5447 13.7058 1.91977 14.0809C2.29484 14.4559 2.80355 14.6666 3.33398 14.6667H12.6673C13.1978 14.6666 13.7065 14.4559 14.0815 14.0809C14.4566 13.7058 14.6673 13.1971 14.6673 12.6666V4.66665C14.6673 4.13621 14.4566 3.62751 14.0815 3.25243C13.7065 2.87736 13.1978 2.66665 12.6673 2.66665ZM13.334 12.6666C13.334 12.8435 13.2638 13.013 13.1387 13.1381C13.0137 13.2631 12.8441 13.3333 12.6673 13.3333H3.33398C3.15717 13.3333 2.9876 13.2631 2.86258 13.1381C2.73756 13.013 2.66732 12.8435 2.66732 12.6666V6.66665H13.334V12.6666ZM13.334 5.33331H2.66732V4.66665C2.66732 4.48984 2.73756 4.32027 2.86258 4.19524C2.9876 4.07022 3.15717 3.99998 3.33398 3.99998H12.6673C12.8441 3.99998 13.0137 4.07022 13.1387 4.19524C13.2638 4.32027 13.334 4.48984 13.334 4.66665V5.33331ZM4.66732 12C4.79917 12 4.92807 11.9609 5.0377 11.8876C5.14733 11.8144 5.23278 11.7103 5.28324 11.5884C5.3337 11.4666 5.3469 11.3326 5.32118 11.2033C5.29545 11.0739 5.23196 10.9551 5.13872 10.8619C5.04549 10.7687 4.9267 10.7052 4.79738 10.6795C4.66806 10.6537 4.53401 10.6669 4.4122 10.7174C4.29038 10.7679 4.18626 10.8533 4.11301 10.9629C4.03975 11.0726 4.00065 11.2015 4.00065 11.3333C4.00065 11.5101 4.07089 11.6797 4.19591 11.8047C4.32094 11.9297 4.49051 12 4.66732 12Z" fill="#9E9EB2"/>
</svg>
