<svg width="16" height="16" viewBox="0 0 16 16" fill="none" xmlns="http://www.w3.org/2000/svg">
<path d="M12.6673 2H3.33398C2.80355 2 2.29484 2.21071 1.91977 2.58579C1.5447 2.96086 1.33398 3.46957 1.33398 4V9.33333C1.33398 9.86377 1.5447 10.3725 1.91977 10.7475C2.29484 11.1226 2.80355 11.3333 3.33398 11.3333H7.33398V12.6667H4.66732C4.49051 12.6667 4.32094 12.7369 4.19591 12.8619C4.07089 12.987 4.00065 13.1565 4.00065 13.3333C4.00065 13.5101 4.07089 13.6797 4.19591 13.8047C4.32094 13.9298 4.49051 14 4.66732 14H11.334C11.5108 14 11.6804 13.9298 11.8054 13.8047C11.9304 13.6797 12.0007 13.5101 12.0007 13.3333C12.0007 13.1565 11.9304 12.987 11.8054 12.8619C11.6804 12.7369 11.5108 12.6667 11.334 12.6667H8.66732V11.3333H12.6673C13.1978 11.3333 13.7065 11.1226 14.0815 10.7475C14.4566 10.3725 14.6673 9.86377 14.6673 9.33333V4C14.6673 3.46957 14.4566 2.96086 14.0815 2.58579C13.7065 2.21071 13.1978 2 12.6673 2ZM13.334 9.33333C13.334 9.51014 13.2637 9.67971 13.1387 9.80474C13.0137 9.92976 12.8441 10 12.6673 10H3.33398C3.15717 10 2.9876 9.92976 2.86258 9.80474C2.73756 9.67971 2.66732 9.51014 2.66732 9.33333V4C2.66732 3.82319 2.73756 3.65362 2.86258 3.5286C2.9876 3.40357 3.15717 3.33333 3.33398 3.33333H12.6673C12.8441 3.33333 13.0137 3.40357 13.1387 3.5286C13.2637 3.65362 13.334 3.82319 13.334 4V9.33333Z" fill="#75758F"/>
</svg>
