<svg width="23" height="20" viewBox="0 0 23 20" fill="none" xmlns="http://www.w3.org/2000/svg">
<path fill-rule="evenodd" clip-rule="evenodd" d="M9.50154 1.66797C5.39792 1.66797 2.07129 4.65274 2.07129 8.33464C2.07129 12.0166 5.39792 15.0013 9.50154 15.0013C11.2186 15.0013 12.7996 14.4787 14.0578 13.6012L19.0614 18.0906C19.4241 18.416 20.0122 18.416 20.3749 18.0906C20.7376 17.7651 20.7376 17.2375 20.3749 16.9121L15.3713 12.4226C16.3493 11.2938 16.9318 9.87522 16.9318 8.33464C16.9318 4.65274 13.6052 1.66797 9.50154 1.66797ZM3.92871 8.33594C3.92871 5.57451 6.42369 3.33594 9.5014 3.33594C12.5791 3.33594 15.0741 5.57451 15.0741 8.33594C15.0741 11.0974 12.5791 13.3359 9.5014 13.3359C6.42369 13.3359 3.92871 11.0974 3.92871 8.33594Z" fill="#9E9EB2"/>
</svg>
