<svg class="svg-icon" style="width: 1em; height: 1em;vertical-align: middle;fill:white ;overflow: hidden;" viewBox="0 0 1024 1024" version="1.1" xmlns="http://www.w3.org/2000/svg"><path d="M835 320H726c-9.2 0-17.8-4-24-10.8-56.8-63.6-78.2-85.2-101.4-85.2h-171c-23.4 0-46.4 21.6-103.4 85.4-6 6.8-14.8 10.6-23.8 10.6h-8.2v-16c0-8.8-7.2-16-16-16h-52c-8.8 0-16 7.2-16 16v16h-15C159.8 320 128 346.4 128 381.4v352c0 35 31.8 66.6 67 66.6h640c35.2 0 61-31.6 61-66.6v-352c0-35-25.8-61.4-61-61.4zM616.6 681c-1.6 5-5.2 9.2-9.6 12.2-28.2 19.4-61 29.6-95 29.6-42 0-82.4-16.2-114.2-45.4-29.2-27-48.2-62.4-54-100.4h-40.8c-6.4 0-12-5.6-11.2-13.2 0.2-1.4 0.6-2.6 1.4-3.6l63-84.6c2.2-2.8 5.4-4.4 8.8-4.4 3.4 0 6.6 1.6 8.8 4.4l64.4 83.6c4 5.2 3 12.8-3.6 17-1.2 0.8-2.4 1-3.8 1h-41.6c5.4 25.6 19.4 49.6 39.8 68 23.2 21.2 52.6 32.8 82.8 32.8 24.6 0 48.8-8 70.2-23 3.8-2.6 8.4-4.2 13-4.2 6.4 0 12.4 2.6 16.6 7.4 5.8 6 7.8 14.6 5 22.8z m113.2-135l-62.4 85.8c-3.6 5-11 6.4-16.6 1.6-0.4-0.4-0.8-0.8-1-1.2L585 546c-4-5.2-2.8-13 3.8-17 1.2-0.6 2.4-1 3.8-1h42c-5.4-27.2-19.4-52.2-39.8-71.2-23-21.4-52.4-33.2-82.6-33.2-25 0-49.2 7.8-70.4 22.6-3.8 2.6-8.2 4-12.8 4-6.2 0-12.2-2.6-16.4-7.2-5.6-6-7.6-14.8-5-23 1.6-5 5.2-9.2 9.4-12 28.2-19.4 61.2-29.6 95.2-29.6 43.4 0 84.4 15.8 115.6 44.6 26.6 24.6 46.4 64.2 52.4 104.8h42.2c1.2 0 2.6 0.4 3.6 1 6.4 4.2 7.6 12 3.8 17.2z"  /></svg>