<svg width="20" height="20" viewBox="0 0 20 20" fill="none" xmlns="http://www.w3.org/2000/svg">
<path d="M17 0H3C2.20435 0 1.44129 0.316071 0.87868 0.87868C0.316071 1.44129 0 2.20435 0 3V17C0 17.7956 0.316071 18.5587 0.87868 19.1213C1.44129 19.6839 2.20435 20 3 20H17C17.7956 20 18.5587 19.6839 19.1213 19.1213C19.6839 18.5587 20 17.7956 20 17V3C20 2.20435 19.6839 1.44129 19.1213 0.87868C18.5587 0.316071 17.7956 0 17 0ZM18 17C18 17.2652 17.8946 17.5196 17.7071 17.7071C17.5196 17.8946 17.2652 18 17 18H3C2.73478 18 2.48043 17.8946 2.29289 17.7071C2.10536 17.5196 2 17.2652 2 17V3C2 2.73478 2.10536 2.48043 2.29289 2.29289C2.48043 2.10536 2.73478 2 3 2H17C17.2652 2 17.5196 2.10536 17.7071 2.29289C17.8946 2.48043 18 2.73478 18 3V17Z" fill="white"/>
<path d="M9.00409 7.40501L6.71409 9.70501C6.62085 9.79825 6.51016 9.87221 6.38834 9.92267C6.26652 9.97313 6.13595 9.99911 6.00409 9.99911C5.87223 9.99911 5.74166 9.97313 5.61984 9.92267C5.49802 9.87221 5.38733 9.79825 5.29409 9.70501C5.20085 9.61177 5.12689 9.50109 5.07643 9.37926C5.02597 9.25744 5 9.12687 5 8.99501C5 8.86316 5.02597 8.73259 5.07643 8.61076C5.12689 8.48894 5.20085 8.37825 5.29409 8.28501L9.29409 4.28501C9.3892 4.19397 9.50134 4.12261 9.62409 4.07501C9.86755 3.975 10.1406 3.975 10.3841 4.07501C10.5068 4.12261 10.619 4.19397 10.7141 4.28501L14.7141 8.28501C14.8078 8.37798 14.8822 8.48858 14.933 8.61044C14.9838 8.7323 15.0099 8.863 15.0099 8.99501C15.0099 9.12703 14.9838 9.25773 14.933 9.37959C14.8822 9.50145 14.8078 9.61205 14.7141 9.70501C14.6211 9.79874 14.5105 9.87314 14.3887 9.9239C14.2668 9.97467 14.1361 10.0008 14.0041 10.0008C13.8721 10.0008 13.7414 9.97467 13.6195 9.9239C13.4977 9.87314 13.3871 9.79874 13.2941 9.70501L11.0041 7.40501V14.995C11.0041 15.2602 10.8987 15.5146 10.7112 15.7021C10.5237 15.8897 10.2693 15.995 10.0041 15.995C9.73887 15.995 9.48452 15.8897 9.29699 15.7021C9.10945 15.5146 9.00409 15.2602 9.00409 14.995V7.40501Z" fill="white"/>
</svg>
