<svg fill="
#DA0202"  id="a845bb0e-942a-4ec3-8d25-e14d9012d890" data-name="Layer 1" xmlns="http://www.w3.org/2000/svg"
     viewBox="0 0 24 24">
    <path d="M8.6348,5.0306c.6314-.523.7924-.6559,1.4242-1.1784a1.0764,1.0764,0,0,1,1.4234-.0977,1.0083,1.0083,0,0,1,.4224.7183,3.0017,3.0017,0,0,1,.0134.3713c0,1.4437,0,2.0269,0,3.4706Z"/>
    <path d="M14.4753,6.9577a7.2139,7.2139,0,0,1,1.1062,1.4358,6.8382,6.8382,0,0,1,1.1171,3.5185,3.0663,3.0663,0,0,1-.1258,1.0639l1.3815,1.3747a9.0933,9.0933,0,0,0,.3536-2.4167,8.0062,8.0062,0,0,0-1.3287-4.5158,8.6219,8.6219,0,0,0-1.3507-1.7108.85.85,0,0,0-1.153,1.25Zm.0007.0006v0Z"/>
    <path d="M18.2928,4.3732a10.7438,10.7438,0,0,1,1.6466,2.1374,11.4756,11.4756,0,0,1,1.5266,5.27,7.7782,7.7782,0,0,1-1.2084,4.9l1.9376,1.91c1.9358-2.9554,1.8081-4.3593,1.8028-6.81A12.8543,12.8543,0,0,0,22.02,5.0586a12.84,12.84,0,0,0-2.0107-2.5468A1.2659,1.2659,0,0,0,18.293,4.373Z"/>
    <path d="M3.2622,2.0907a.5713.5713,0,0,0-.8079.8079l4.074,4.0741c-.8474.6616-1.0208.6509-2.1038,1.5524a.6289.6289,0,0,1-.4394.1557c-.93-.0068-1.86-.0041-2.7894-.0029A1.0845,1.0845,0,0,0,.0115,9.8591c-.001,1.3559.021,2.7124-.01,4.0677a1.1486,1.1486,0,0,0,1.2247,1.2251c.929-.028,1.8594-.0115,2.7891-.0006a.6448.6448,0,0,1,.3726.1315c.8534.6939,1.6972,1.4,2.5443,2.1014q1.5835,1.312,3.1679,2.6234a1.06,1.06,0,0,0,1.1034.2181,1.1,1.1,0,0,0,.7144-1.1555q.0016-3.3536,0-6.7071l3.3283,3.3283A10.1958,10.1958,0,0,1,14.0579,17.62a.85.85,0,1,0,1.3436,1.043A12.1566,12.1566,0,0,0,16.5156,16.96l2.1233,2.1234a1.2622,1.2622,0,0,0,.2388,1.7461,1.2493,1.2493,0,0,0,1.5118.0044l1.0754,1.0755a.5713.5713,0,0,0,.8079-.8079Z"/>
</svg>