<svg fill="white" id="e144fc0d-cfe4-467c-90d2-fc381cc0b464" data-name="Layer 1" xmlns="http://www.w3.org/2000/svg"
     viewBox="0 0 24 24">
    <path d="M11.9189,12.2745q0,3.58-.0005,7.16a1.1006,1.1006,0,0,1-.7145,1.1557A1.06,1.06,0,0,1,10.1,20.3726Q8.515,19.0621,6.9319,17.7488c-.8471-.7019-1.691-1.4077-2.5445-2.1017a.6453.6453,0,0,0-.3727-.1315c-.93-.0109-1.8605-.0273-2.79.0006A1.1486,1.1486,0,0,1,0,14.2909c.0306-1.3555.0086-2.7122.01-4.0683A1.0848,1.0848,0,0,1,1.1943,9.0413c.93-.0012,1.86-.0039,2.79.0029a.6292.6292,0,0,0,.44-.1557q2.8134-2.342,5.6353-4.6737a1.0766,1.0766,0,0,1,1.4236-.0976,1.0087,1.0087,0,0,1,.4225.7183,3.0033,3.0033,0,0,1,.0134.3714Q11.9195,8.7406,11.9189,12.2745Z"/>
    <path d="M14.4766,7.3214l.0489-.0531-.05.0525.0007.0006.0489-.0531-.05.0525a7.22,7.22,0,0,1,1.1063,1.4361,6.91,6.91,0,0,1,1.0257,3.5408,7.8934,7.8934,0,0,1-1.8893,4.8859.8506.8506,0,0,0,1.3438,1.0432,9.5968,9.5968,0,0,0,2.2466-5.9291A8.6362,8.6362,0,0,0,16.98,7.7813,8.6267,8.6267,0,0,0,15.6292,6.07a.8506.8506,0,1,0-1.1526,1.2512Z"/>
    <path d="M18.2949,4.7369l.0728-.0791-.0738.0782.001.0009.0728-.0791-.0738.0782a10.7431,10.7431,0,0,1,1.6469,2.1377,10.289,10.289,0,0,1,1.5268,5.271,11.75,11.75,0,0,1-2.8124,7.2732,1.2662,1.2662,0,1,0,2,1.5529A14.2868,14.2868,0,0,0,24,12.1447a12.8581,12.8581,0,0,0-1.9783-6.7233,12.8435,12.8435,0,0,0-2.011-2.5471,1.2662,1.2662,0,0,0-1.7158,1.8626Z"/>
</svg>