<svg width="14" height="14" viewBox="0 0 14 14" fill="none" xmlns="http://www.w3.org/2000/svg">
<path fill-rule="evenodd" clip-rule="evenodd" d="M0.333984 7C0.333984 3.33333 3.33398 0.333328 7.00065 0.333328C10.6673 0.333328 13.6673 3.33333 13.6673 7C13.6673 10.6667 10.6673 13.6667 7.00065 13.6667C3.33398 13.6667 0.333984 10.6667 0.333984 7ZM10.0269 4.37346C10.0847 4.39995 10.1372 4.43876 10.1813 4.48767C10.2294 4.53653 10.2678 4.59583 10.2941 4.66183C10.3204 4.72784 10.334 4.79911 10.334 4.87117C10.334 4.94323 10.3204 5.0145 10.2941 5.08051C10.2678 5.14651 10.2294 5.20581 10.1813 5.25467L6.31045 9.51232C6.26635 9.56123 6.21388 9.60004 6.15608 9.62653C6.09827 9.65302 6.03627 9.66666 5.97365 9.66666C5.91103 9.66666 5.84902 9.65302 5.79122 9.62653C5.73341 9.60004 5.68095 9.56123 5.63685 9.51232L3.81528 7.50872C3.7695 7.46007 3.73287 7.40198 3.70749 7.33776C3.68212 7.27354 3.66849 7.20446 3.66739 7.13444C3.66629 7.06443 3.67774 6.99487 3.70108 6.92972C3.72442 6.86458 3.75919 6.80513 3.80342 6.75476C3.84765 6.7044 3.90047 6.66411 3.95885 6.6362C4.01724 6.60829 4.08005 6.5933 4.1437 6.59209C4.20735 6.59088 4.27059 6.60347 4.32982 6.62914C4.38905 6.65482 4.4431 6.69307 4.48888 6.74172L5.97365 8.38008L9.50767 4.48767C9.55177 4.43876 9.60423 4.39995 9.66204 4.37346C9.71985 4.34697 9.78185 4.33333 9.84447 4.33333C9.90709 4.33333 9.9691 4.34697 10.0269 4.37346Z" fill="#2AB459"/>
</svg>
