<svg width="24" height="24" viewBox="0 0 24 24" fill="none" xmlns="http://www.w3.org/2000/svg">
<path fill-rule="evenodd" clip-rule="evenodd" d="M13.859 3.223C12.4745 2.8858 11.033 2.93167 9.66961 3.35614C8.3121 3.77878 7.07785 4.5625 6.08011 5.63241L4.22222 7.5115V5.73913C4.22222 5.0908 3.72476 4.56522 3.11111 4.56522C2.49746 4.56522 2 5.0908 2 5.73913V10.2579V10.2632V10.4348C2 11.0831 2.49746 11.6087 3.11111 11.6087H7.55556C8.16921 11.6087 8.66667 11.0831 8.66667 10.4348C8.66667 9.78645 8.16921 9.26087 7.55556 9.26087H5.70614L7.62896 7.3161C7.63735 7.30761 7.64562 7.29898 7.65375 7.29022C8.39077 6.49653 9.30071 5.91864 10.2978 5.60821C11.2947 5.29782 12.348 5.26438 13.3599 5.51083C14.3719 5.75729 15.3114 6.27615 16.0902 7.02118C16.8691 7.76632 17.4618 8.7136 17.811 9.77579C18.0124 10.3882 18.6455 10.7123 19.2252 10.4995C19.8049 10.2868 20.1116 9.61788 19.9102 9.00544C19.4397 7.57443 18.6394 6.29263 17.5818 5.28082C16.524 4.2689 15.2435 3.56018 13.859 3.223ZM18.2939 14.7391H16.4444C15.8308 14.7391 15.3333 14.2136 15.3333 13.5652C15.3333 12.9169 15.8308 12.3913 16.4444 12.3913H20.8889C21.5025 12.3913 22 12.9169 22 13.5652V13.7384V13.7405V18.2609C22 18.9092 21.5025 19.4348 20.8889 19.4348C20.2752 19.4348 19.7778 18.9092 19.7778 18.2609V16.4885L17.9199 18.3676C16.9222 19.4375 15.6879 20.2212 14.3304 20.6439C12.967 21.0683 11.5255 21.1142 10.141 20.777C8.75648 20.4398 7.47596 19.7311 6.41822 18.7192C5.3606 17.7074 4.56026 16.4256 4.0898 14.9946C3.88845 14.3821 4.19515 13.7132 4.77483 13.5005C5.3545 13.2877 5.98765 13.6118 6.18899 14.2242C6.5382 15.2864 7.13093 16.2337 7.90981 16.9788C8.68857 17.7239 9.62811 18.2427 10.6401 18.4892C11.652 18.7356 12.7053 18.7022 13.7022 18.3918C14.6993 18.0814 15.6092 17.5035 16.3462 16.7098C16.3544 16.701 16.3626 16.6924 16.371 16.6839L18.2939 14.7391Z" fill="#5392F2"/>
</svg>
