<svg width="20" height="18" viewBox="0 0 20 18" fill="none" xmlns="http://www.w3.org/2000/svg">
<path fill-rule="evenodd" clip-rule="evenodd" d="M11.859 0.222999C10.4745 -0.1142 9.03296 -0.0683305 7.66961 0.356136C6.3121 0.778784 5.07785 1.5625 4.08011 2.63241L2.22222 4.5115V2.73913C2.22222 2.0908 1.72476 1.56522 1.11111 1.56522C0.497464 1.56522 2.82419e-06 2.0908 2.82419e-06 2.73913V7.25792V7.26323V7.43478C2.82419e-06 8.08312 0.497464 8.6087 1.11111 8.6087H5.55556C6.16921 8.6087 6.66667 8.08312 6.66667 7.43478C6.66667 6.78645 6.16921 6.26087 5.55556 6.26087H3.70614L5.62896 4.3161C5.63735 4.30761 5.64562 4.29898 5.65375 4.29022C6.39077 3.49653 7.30071 2.91864 8.29776 2.60821C9.29471 2.29782 10.348 2.26438 11.3599 2.51083C12.3719 2.75729 13.3114 3.27615 14.0902 4.02118C14.8691 4.76632 15.4618 5.7136 15.811 6.77579C16.0124 7.38824 16.6455 7.71227 17.2252 7.49954C17.8049 7.28682 18.1116 6.61788 17.9102 6.00544C17.4397 4.57443 16.6394 3.29263 15.5818 2.28082C14.524 1.2689 13.2435 0.560177 11.859 0.222999ZM16.2939 11.7391H14.4444C13.8308 11.7391 13.3333 11.2136 13.3333 10.5652C13.3333 9.91688 13.8308 9.3913 14.4444 9.3913H18.8889C19.5025 9.3913 20 9.91688 20 10.5652V10.7384V10.7405V15.2609C20 15.9092 19.5025 16.4348 18.8889 16.4348C18.2752 16.4348 17.7778 15.9092 17.7778 15.2609V13.4885L15.9199 15.3676C14.9222 16.4375 13.6879 17.2212 12.3304 17.6439C10.967 18.0683 9.52551 18.1142 8.14095 17.777C6.75648 17.4398 5.47596 16.7311 4.41822 15.7192C3.3606 14.7074 2.56026 13.4256 2.0898 11.9946C1.88845 11.3821 2.19515 10.7132 2.77483 10.5005C3.3545 10.2877 3.98765 10.6118 4.18899 11.2242C4.5382 12.2864 5.13093 13.2337 5.90981 13.9788C6.68857 14.7239 7.62811 15.2427 8.64012 15.4892C9.65204 15.7356 10.7053 15.7022 11.7022 15.3918C12.6993 15.0814 13.6092 14.5035 14.3462 13.7098C14.3544 13.701 14.3626 13.6924 14.371 13.6839L16.2939 11.7391Z" fill="white"/>
</svg>
