<svg width="16" height="16" viewBox="0 0 16 16" fill="none" xmlns="http://www.w3.org/2000/svg">
<path d="M7.99971 1.33334C6.70669 1.3358 5.4423 1.71422 4.36053 2.4225C3.27876 3.13079 2.4263 4.13837 1.907 5.32252C1.3877 6.50668 1.22396 7.81629 1.43572 9.09185C1.64749 10.3674 2.22563 11.5539 3.09971 12.5067C3.72399 13.1834 4.48167 13.7234 5.325 14.0928C6.16833 14.4622 7.07903 14.6529 7.99971 14.6529C8.92039 14.6529 9.83108 14.4622 10.6744 14.0928C11.5177 13.7234 12.2754 13.1834 12.8997 12.5067C13.7738 11.5539 14.3519 10.3674 14.5637 9.09185C14.7755 7.81629 14.6117 6.50668 14.0924 5.32252C13.5731 4.13837 12.7207 3.13079 11.6389 2.4225C10.5571 1.71422 9.29272 1.3358 7.99971 1.33334ZM7.99971 13.3333C6.61868 13.3312 5.29232 12.7935 4.29971 11.8333C4.60107 11.0997 5.11373 10.4722 5.77254 10.0306C6.43136 9.589 7.20658 9.35321 7.99971 9.35321C8.79283 9.35321 9.56806 9.589 10.2269 10.0306C10.8857 10.4722 11.3983 11.0997 11.6997 11.8333C10.7071 12.7935 9.38073 13.3312 7.99971 13.3333ZM6.66637 6.66668C6.66637 6.40297 6.74457 6.14518 6.89108 5.92592C7.03759 5.70665 7.24583 5.53575 7.48946 5.43484C7.7331 5.33392 8.00119 5.30752 8.25983 5.35896C8.51847 5.41041 8.75605 5.5374 8.94252 5.72387C9.12899 5.91034 9.25597 6.14792 9.30742 6.40656C9.35887 6.6652 9.33246 6.93329 9.23155 7.17692C9.13063 7.42056 8.95973 7.62879 8.74047 7.7753C8.5212 7.92181 8.26341 8.00001 7.99971 8.00001C7.64608 8.00001 7.30695 7.85953 7.0569 7.60949C6.80685 7.35944 6.66637 7.0203 6.66637 6.66668ZM12.6064 10.6667C12.0107 9.64785 11.094 8.85536 9.99971 8.41334C10.3392 8.02845 10.5603 7.55378 10.6367 7.0463C10.713 6.53882 10.6414 6.02009 10.4302 5.55234C10.2191 5.0846 9.87743 4.68772 9.44631 4.40932C9.01519 4.13093 8.5129 3.98284 7.99971 3.98284C7.48651 3.98284 6.98422 4.13093 6.5531 4.40932C6.12198 4.68772 5.78035 5.0846 5.56921 5.55234C5.35806 6.02009 5.28636 6.53882 5.36273 7.0463C5.43909 7.55378 5.66026 8.02845 5.99971 8.41334C4.90544 8.85536 3.98869 9.64785 3.39304 10.6667C2.91834 9.85808 2.66752 8.93765 2.66637 8.00001C2.66637 6.58552 3.22828 5.22897 4.22847 4.22877C5.22866 3.22858 6.58522 2.66668 7.99971 2.66668C9.41419 2.66668 10.7707 3.22858 11.7709 4.22877C12.7711 5.22897 13.333 6.58552 13.333 8.00001C13.3319 8.93765 13.0811 9.85808 12.6064 10.6667Z" fill="#9E9EB2"/>
</svg>
