<svg width="16" height="14" viewBox="0 0 16 14" fill="none" xmlns="http://www.w3.org/2000/svg">
<path d="M8.0003 9.66669C7.86845 9.66669 7.73956 9.70578 7.62992 9.77904C7.52029 9.85229 7.43484 9.95641 7.38438 10.0782C7.33393 10.2 7.32072 10.3341 7.34645 10.4634C7.37217 10.5927 7.43566 10.7115 7.5289 10.8048C7.62213 10.898 7.74092 10.9615 7.87024 10.9872C7.99956 11.0129 8.13361 10.9997 8.25543 10.9493C8.37724 10.8988 8.48136 10.8134 8.55462 10.7037C8.62787 10.5941 8.66697 10.4652 8.66697 10.3334C8.66697 10.1565 8.59673 9.98697 8.47171 9.86195C8.34668 9.73692 8.17711 9.66669 8.0003 9.66669ZM15.1136 10.6467L9.74697 1.31335C9.57351 1.00236 9.32016 0.743323 9.0131 0.562997C8.70604 0.382672 8.3564 0.287598 8.0003 0.287598C7.64421 0.287598 7.29457 0.382672 6.98751 0.562997C6.68045 0.743323 6.4271 1.00236 6.25364 1.31335L0.920304 10.6467C0.740834 10.9494 0.644399 11.294 0.640734 11.6459C0.637068 11.9978 0.726303 12.3444 0.899428 12.6507C1.07255 12.9571 1.32344 13.2123 1.62676 13.3907C1.93008 13.5691 2.27509 13.6643 2.62697 13.6667H13.3736C13.7283 13.6702 14.0776 13.5793 14.3856 13.4033C14.6936 13.2273 14.9492 12.9726 15.1263 12.6652C15.3034 12.3579 15.3955 12.009 15.3933 11.6542C15.3911 11.2995 15.2946 10.9518 15.1136 10.6467ZM13.9603 11.98C13.9019 12.084 13.8166 12.1704 13.7134 12.2302C13.6102 12.29 13.4929 12.321 13.3736 12.32H2.62697C2.50771 12.321 2.39037 12.29 2.28718 12.2302C2.184 12.1704 2.09874 12.084 2.0403 11.98C1.98179 11.8787 1.95099 11.7637 1.95099 11.6467C1.95099 11.5297 1.98179 11.4147 2.0403 11.3134L7.37364 1.98002C7.42958 1.87082 7.51458 1.77917 7.61927 1.71518C7.72396 1.65119 7.84427 1.61733 7.96697 1.61733C8.08967 1.61733 8.20999 1.65119 8.31467 1.71518C8.41936 1.77917 8.50436 1.87082 8.5603 1.98002L13.927 11.3134C13.9931 11.4132 14.0311 11.5291 14.037 11.6488C14.0429 11.7684 14.0164 11.8875 13.9603 11.9934V11.98ZM8.0003 4.33335C7.82349 4.33335 7.65392 4.40359 7.5289 4.52861C7.40388 4.65364 7.33364 4.82321 7.33364 5.00002V7.66669C7.33364 7.8435 7.40388 8.01307 7.5289 8.13809C7.65392 8.26311 7.82349 8.33335 8.0003 8.33335C8.17711 8.33335 8.34668 8.26311 8.47171 8.13809C8.59673 8.01307 8.66697 7.8435 8.66697 7.66669V5.00002C8.66697 4.82321 8.59673 4.65364 8.47171 4.52861C8.34668 4.40359 8.17711 4.33335 8.0003 4.33335Z" fill="#DA0202"/>
</svg>
