<svg width="20" height="20" viewBox="0 0 13 18" fill="none" xmlns="http://www.w3.org/2000/svg">
<path d="M14.0007 9.33203H13.334V2.66536H14.0007C14.1775 2.66536 14.347 2.59513 14.4721 2.4701C14.5971 2.34508 14.6673 2.17551 14.6673 1.9987C14.6673 1.82189 14.5971 1.65232 14.4721 1.52729C14.347 1.40227 14.1775 1.33203 14.0007 1.33203H2.00065C1.82384 1.33203 1.65427 1.40227 1.52925 1.52729C1.40422 1.65232 1.33398 1.82189 1.33398 1.9987C1.33398 2.17551 1.40422 2.34508 1.52925 2.4701C1.65427 2.59513 1.82384 2.66536 2.00065 2.66536H2.66732V9.33203H2.00065C1.82384 9.33203 1.65427 9.40227 1.52925 9.52729C1.40422 9.65232 1.33398 9.82189 1.33398 9.9987C1.33398 10.1755 1.40422 10.3451 1.52925 10.4701C1.65427 10.5951 1.82384 10.6654 2.00065 10.6654H7.33398V11.432L4.30065 13.432C4.17621 13.5091 4.08057 13.6249 4.0285 13.7617C3.97642 13.8985 3.97081 14.0486 4.01251 14.1889C4.05422 14.3292 4.14093 14.4518 4.25927 14.5379C4.37761 14.624 4.521 14.6688 4.66732 14.6654C4.79838 14.6669 4.92662 14.6272 5.03398 14.552L7.33398 13.032V13.9987C7.33398 14.1755 7.40422 14.3451 7.52925 14.4701C7.65427 14.5951 7.82384 14.6654 8.00065 14.6654C8.17746 14.6654 8.34703 14.5951 8.47206 14.4701C8.59708 14.3451 8.66732 14.1755 8.66732 13.9987V13.032L10.9673 14.552C11.0747 14.6272 11.2029 14.6669 11.334 14.6654C11.4764 14.6643 11.6148 14.6176 11.7287 14.5321C11.8427 14.4467 11.9263 14.327 11.9673 14.1906C12.0083 14.0542 12.0045 13.9082 11.9565 13.7741C11.9086 13.64 11.8189 13.5248 11.7007 13.4454L8.66732 11.4454V10.6654H14.0007C14.1775 10.6654 14.347 10.5951 14.4721 10.4701C14.5971 10.3451 14.6673 10.1755 14.6673 9.9987C14.6673 9.82189 14.5971 9.65232 14.4721 9.52729C14.347 9.40227 14.1775 9.33203 14.0007 9.33203ZM12.0007 9.33203H4.00065V2.66536H12.0007V9.33203ZM6.40732 8.17203C6.585 8.27701 6.7876 8.33239 6.99398 8.33239C7.20037 8.33239 7.40297 8.27701 7.58065 8.17203L9.58065 7.01203C9.75163 6.90709 9.89285 6.76006 9.99081 6.58499C10.0888 6.40991 10.1402 6.21265 10.1402 6.01203C10.1402 5.81141 10.0888 5.61415 9.99081 5.43908C9.89285 5.264 9.75163 5.11697 9.58065 5.01203L7.58065 3.85203C7.40297 3.74705 7.20037 3.69167 6.99398 3.69167C6.7876 3.69167 6.585 3.74705 6.40732 3.85203C6.22827 3.95296 6.07984 4.10043 5.97774 4.27881C5.87564 4.45719 5.82367 4.65986 5.82732 4.86536V7.18536C5.82843 7.38636 5.88267 7.58348 5.98452 7.75676C6.08638 7.93003 6.23224 8.0733 6.40732 8.17203ZM7.16065 5.1187L8.66732 5.9987L7.14732 6.8787L7.16065 5.1187Z" fill="#75758F"/>
</svg>
