<svg width="38" height="40" viewBox="0 0 38 40" fill="none" xmlns="http://www.w3.org/2000/svg">
<path d="M28.9201 11.6C26.9001 6.91 23.1001 4 19.0001 4C14.9001 4 11.1001 6.91 9.08007 11.6C9.025 11.7262 8.99658 11.8623 8.99658 12C8.99658 12.1377 9.025 12.2738 9.08007 12.4C11.1001 17.09 14.9001 20 19.0001 20C23.1001 20 26.9001 17.09 28.9201 12.4C28.9751 12.2738 29.0036 12.1377 29.0036 12C29.0036 11.8623 28.9751 11.7262 28.9201 11.6ZM19.0001 18C15.8301 18 12.8301 15.71 11.1001 12C12.8301 8.29 15.8301 6 19.0001 6C22.1701 6 25.1701 8.29 26.9001 12C25.1701 15.71 22.1701 18 19.0001 18ZM19.0001 8C18.2089 8 17.4356 8.2346 16.7778 8.67412C16.12 9.11365 15.6073 9.73836 15.3045 10.4693C15.0018 11.2002 14.9226 12.0044 15.0769 12.7804C15.2313 13.5563 15.6122 14.269 16.1716 14.8284C16.731 15.3878 17.4438 15.7688 18.2197 15.9231C18.9956 16.0775 19.7999 15.9983 20.5308 15.6955C21.2617 15.3928 21.8864 14.8801 22.3259 14.2223C22.7655 13.5645 23.0001 12.7911 23.0001 12C23.0001 10.9391 22.5786 9.92172 21.8285 9.17157C21.0783 8.42143 20.0609 8 19.0001 8ZM19.0001 14C18.6045 14 18.2178 13.8827 17.8889 13.6629C17.56 13.4432 17.3037 13.1308 17.1523 12.7654C17.0009 12.3999 16.9613 11.9978 17.0385 11.6098C17.1157 11.2219 17.3061 10.8655 17.5859 10.5858C17.8656 10.3061 18.2219 10.1156 18.6099 10.0384C18.9978 9.96126 19.4 10.0009 19.7654 10.1522C20.1309 10.3036 20.4432 10.56 20.663 10.8889C20.8828 11.2178 21.0001 11.6044 21.0001 12C21.0001 12.5304 20.7894 13.0391 20.4143 13.4142C20.0392 13.7893 19.5305 14 19.0001 14Z" fill="#5392F2"/>
<path d="M5.02859 35.01C4.71526 35.01 4.42526 34.9333 4.15859 34.78C3.89859 34.62 3.69193 34.4067 3.53859 34.14C3.38526 33.8667 3.30859 33.5733 3.30859 33.26C3.30859 32.9867 3.37526 32.71 3.50859 32.43C3.64859 32.15 3.83859 31.89 4.07859 31.65L4.78859 30.95L5.30859 31.53L4.63859 32.17C4.43193 32.3767 4.28193 32.5667 4.18859 32.74C4.09526 32.9133 4.04859 33.0867 4.04859 33.26C4.04859 33.4267 4.09193 33.5833 4.17859 33.73C4.26526 33.87 4.38193 33.9833 4.52859 34.07C4.68193 34.15 4.84859 34.19 5.02859 34.19C5.30193 34.19 5.53193 34.1 5.71859 33.92C5.90526 33.74 5.99859 33.52 5.99859 33.26C5.99859 33.0667 5.95193 32.8833 5.85859 32.71C5.77193 32.5367 5.59193 32.3167 5.31859 32.05L4.14859 30.92L4.67859 30.31L5.82859 31.43C6.15526 31.7433 6.38859 32.0433 6.52859 32.33C6.66859 32.61 6.73859 32.92 6.73859 33.26C6.73859 33.5733 6.66193 33.8667 6.50859 34.14C6.35526 34.4067 6.14526 34.62 5.87859 34.78C5.61859 34.9333 5.33526 35.01 5.02859 35.01ZM9.60195 35C9.26862 35 8.98195 34.9567 8.74195 34.87C8.50195 34.7767 8.31195 34.65 8.17195 34.49C8.03862 34.33 7.96195 34.1433 7.94195 33.93C7.90862 33.73 7.89195 33.51 7.89195 33.27H8.59195C8.59195 33.45 8.60529 33.6167 8.63195 33.77C8.65862 33.91 8.73862 34.01 8.87195 34.07C9.01195 34.13 9.21529 34.16 9.48195 34.16H10.092C10.5453 34.16 10.8453 34.08 10.992 33.92C11.1386 33.7533 11.1753 33.5333 11.102 33.26L11.842 33.07C11.9286 33.4233 11.922 33.7467 11.822 34.04C11.722 34.3267 11.5186 34.56 11.212 34.74C10.912 34.9133 10.5053 35 9.99195 35H9.60195ZM12.662 35C12.362 35 12.1086 34.9233 11.902 34.77C11.702 34.6167 11.542 34.42 11.422 34.18C11.302 33.94 11.1953 33.6433 11.102 33.29V33.26L10.352 30.32L11.092 30.12L11.842 33.07L11.852 33.09C11.9053 33.3367 11.962 33.5333 12.022 33.68C12.082 33.8267 12.162 33.9433 12.262 34.03C12.362 34.1167 12.4953 34.16 12.662 34.16H13.152L13.202 34.58L13.152 35H12.662ZM14.5416 34.12C14.2616 33.9933 14.0349 33.8067 13.8616 33.56C13.6949 33.3067 13.5982 33.0267 13.5716 32.72C13.5449 32.4133 13.6016 32.12 13.7416 31.84C13.8749 31.5533 14.0616 31.3267 14.3016 31.16C14.5482 30.9867 14.8182 30.8867 15.1116 30.86C15.4049 30.8333 15.6916 30.8867 15.9716 31.02C16.2449 31.1467 16.4649 31.34 16.6316 31.6C16.8049 31.8533 16.9049 32.1367 16.9316 32.45C16.9582 32.7567 16.9049 33.0533 16.7716 33.34C16.5516 33.84 16.1449 34.2433 15.5516 34.55C14.9649 34.85 14.2949 35 13.5416 35H13.0516V34.16H13.5416C14.0082 34.16 14.3949 34.12 14.7016 34.04C15.0149 33.9533 15.2782 33.8333 15.4916 33.68C15.7649 33.5 15.9649 33.27 16.0916 32.99C16.1982 32.7633 16.2082 32.5333 16.1216 32.3C16.0416 32.0667 15.8916 31.8933 15.6716 31.78C15.5182 31.7067 15.3616 31.6767 15.2016 31.69C15.0416 31.6967 14.8949 31.7433 14.7616 31.83C14.6349 31.9167 14.5349 32.03 14.4616 32.17C14.3482 32.4033 14.3282 32.6333 14.4016 32.86C14.4816 33.0867 14.6416 33.2567 14.8816 33.37L17.0216 34.38C17.2349 34.48 17.4516 34.4933 17.6716 34.42C17.8916 34.34 18.0516 34.1933 18.1516 33.98C18.2449 33.78 18.2516 33.57 18.1716 33.35C18.0982 33.13 17.9482 32.9633 17.7216 32.85L14.1816 31L14.5316 30.25L18.0616 32.11C18.3216 32.25 18.5316 32.4433 18.6916 32.69C18.8516 32.93 18.9449 33.1967 18.9716 33.49C18.9982 33.7767 18.9482 34.05 18.8216 34.31C18.6949 34.5767 18.5149 34.7933 18.2816 34.96C18.0549 35.12 17.8016 35.2133 17.5216 35.24C17.2482 35.2667 16.9782 35.22 16.7116 35.1L14.5416 34.12ZM22.1385 35C21.7052 35 21.3652 34.9367 21.1185 34.81C20.8785 34.6833 20.7018 34.48 20.5885 34.2C20.4752 33.9133 20.4052 33.52 20.3785 33.02L20.1985 28.42L20.9585 28.38L21.1385 33.02L21.1485 33.15C21.1685 33.45 21.2052 33.6667 21.2585 33.8C21.3118 33.9333 21.4018 34.0267 21.5285 34.08C21.6618 34.1333 21.8652 34.16 22.1385 34.16H22.2385L22.2885 34.58L22.2385 35H22.1385ZM27.3634 35C27.03 35 26.7434 34.92 26.5034 34.76C26.2634 34.6 26.08 34.3933 25.9534 34.14C25.8267 33.8867 25.7634 33.6267 25.7634 33.36L26.4534 33.35C26.46 33.57 26.5334 33.7567 26.6734 33.91C26.8134 34.0633 27.0267 34.14 27.3134 34.14C27.5734 34.14 27.7767 34.1 27.9234 34.02C28.07 33.94 28.1667 33.8367 28.2134 33.71C28.26 33.5833 28.26 33.4467 28.2134 33.3L27.8834 32.07L28.5734 31.87L28.9034 33.1C28.99 33.42 28.9834 33.7267 28.8834 34.02C28.79 34.3067 28.61 34.5433 28.3434 34.73C28.0767 34.91 27.75 35 27.3634 35ZM22.1434 34.16H22.3634C22.7234 34.16 22.9634 34.0833 23.0834 33.93C23.21 33.77 23.2734 33.5767 23.2734 33.35V32.11H23.9834V33.35C23.9834 33.6033 23.9267 33.8567 23.8134 34.11C23.7 34.3633 23.52 34.5767 23.2734 34.75C23.0334 34.9167 22.73 35 22.3634 35H22.1434V34.16ZM24.8334 35C24.5134 35 24.2367 34.9233 24.0034 34.77C23.7767 34.61 23.6034 34.4067 23.4834 34.16C23.3634 33.9067 23.3034 33.64 23.3034 33.36L23.9834 33.35C23.9967 33.5833 24.07 33.7767 24.2034 33.93C24.3367 34.0833 24.5467 34.16 24.8334 34.16C25.1934 34.16 25.4334 34.0833 25.5534 33.93C25.68 33.77 25.7434 33.5767 25.7434 33.35V32.11H26.4534V33.35C26.4534 33.61 26.4 33.8667 26.2934 34.12C26.1934 34.3667 26.02 34.5767 25.7734 34.75C25.5267 34.9167 25.2134 35 24.8334 35ZM30.1834 35C29.71 35 29.3 34.8467 28.9534 34.54C28.6067 34.2333 28.3734 33.8367 28.2534 33.35L28.9034 33.1C28.9767 33.4067 29.13 33.66 29.3634 33.86C29.5967 34.06 29.87 34.16 30.1834 34.16L30.2334 34.58L30.1834 35ZM26.5734 28.84V29.66H25.7134V28.84H26.5734ZM25.7234 30.09V31.04H24.7734V30.09H25.7234ZM27.4934 30.09V31.04H26.5434V30.09H27.4934ZM30.0828 34.16H30.1928C30.4061 34.16 30.5995 34.11 30.7728 34.01C30.9461 33.9033 31.0795 33.7633 31.1728 33.59L31.9228 32.15C32.0428 31.91 32.2128 31.7233 32.4328 31.59C32.6595 31.4567 32.8995 31.3833 33.1528 31.37C33.4128 31.3567 33.6595 31.4133 33.8928 31.54C34.2061 31.7067 34.4295 31.9367 34.5628 32.23C34.6961 32.5233 34.7461 32.8567 34.7128 33.23C34.6795 33.6033 34.5661 33.9933 34.3728 34.4C34.2928 34.5867 34.1728 34.7367 34.0128 34.85C33.8528 34.9633 33.6728 35.0267 33.4728 35.04C33.2795 35.06 33.0895 35.0233 32.9028 34.93L31.3528 34.13L31.7128 33.38L33.3428 34.21C33.4295 34.27 33.5195 34.2833 33.6128 34.25C33.7128 34.21 33.7728 34.15 33.7928 34.07L33.8828 33.89C34.0361 33.5367 34.0861 33.2067 34.0328 32.9C33.9861 32.5933 33.8395 32.3767 33.5928 32.25C33.3928 32.1433 33.1861 32.1267 32.9728 32.2C32.7595 32.2733 32.5995 32.4167 32.4928 32.63L31.8228 33.94C31.6561 34.2733 31.4328 34.5333 31.1528 34.72C30.8728 34.9067 30.5528 35 30.1928 35H30.0828V34.16Z" fill="#5392F2"/>
</svg>
