<svg width="20" height="20" viewBox="0 0 20 20" fill="none" xmlns="http://www.w3.org/2000/svg">
<path d="M10.8528 2.62102C10.7938 2.57179 10.7249 2.53625 10.6509 2.51688C10.5769 2.4975 10.4996 2.49477 10.4244 2.50887L2.09187 4.09412C1.97262 4.11638 1.86481 4.18023 1.78714 4.2746C1.70947 4.36897 1.66684 4.4879 1.66663 4.61079V16.2258C1.66662 16.3489 1.70914 16.4682 1.78682 16.5628C1.86449 16.6575 1.97242 16.7216 2.09187 16.7441L10.4244 18.3237C10.4559 18.33 10.4879 18.3333 10.5201 18.3333C10.6582 18.3333 10.7907 18.2777 10.8884 18.1787C10.9861 18.0797 11.0409 17.9455 11.0409 17.8055V3.02714C11.0411 2.94958 11.0242 2.87296 10.9917 2.80275C10.9592 2.73254 10.9118 2.67048 10.8528 2.62102ZM9.99997 17.1694L2.70839 15.7844V5.05056L9.99997 3.66557V17.1694Z" fill="#1B76FF"/>
<path d="M17.8124 4.61071H10.5208C10.3827 4.61071 10.2502 4.66632 10.1525 4.76532C10.0548 4.86432 9.99995 4.99859 9.99995 5.13859C9.99995 5.2786 10.0548 5.41286 10.1525 5.51186C10.2502 5.61086 10.3827 5.66647 10.5208 5.66647H17.2915V15.1668H10.5208C10.3827 15.1668 10.2502 15.2224 10.1525 15.3214C10.0548 15.4204 9.99995 15.5546 9.99995 15.6946C9.99995 15.8346 10.0548 15.9689 10.1525 16.0679C10.2502 16.1669 10.3827 16.2225 10.5208 16.2225H17.8124C17.9506 16.2225 18.083 16.1669 18.1807 16.0679C18.2784 15.9689 18.3333 15.8346 18.3333 15.6946V5.13859C18.3333 4.99859 18.2784 4.86432 18.1807 4.76532C18.083 4.66632 17.9506 4.61071 17.8124 4.61071Z" fill="#1B76FF"/>
<path d="M15.7288 6.72158H14.687C14.5489 6.72158 14.4164 6.77719 14.3187 6.87619C14.221 6.97519 14.1662 7.10946 14.1662 7.24946C14.1662 7.38947 14.221 7.52374 14.3187 7.62274C14.4164 7.72174 14.5489 7.77734 14.687 7.77734H15.7288C15.867 7.77734 15.9995 7.72174 16.0971 7.62274C16.1948 7.52374 16.2497 7.38947 16.2497 7.24946C16.2497 7.10946 16.1948 6.97519 16.0971 6.87619C15.9995 6.77719 15.867 6.72158 15.7288 6.72158Z" fill="#1B76FF"/>
<path d="M12.4885 6.72158H11.4468C11.3086 6.72158 11.1761 6.77719 11.0784 6.87619C10.9808 6.97519 10.9259 7.10946 10.9259 7.24946C10.9259 7.38947 10.9808 7.52374 11.0784 7.62274C11.1761 7.72174 11.3086 7.77734 11.4468 7.77734H12.4885C12.6267 7.77734 12.7592 7.72174 12.8569 7.62274C12.9545 7.52374 13.0094 7.38947 13.0094 7.24946C13.0094 7.10946 12.9545 6.97519 12.8569 6.87619C12.7592 6.77719 12.6267 6.72158 12.4885 6.72158Z" fill="#1B76FF"/>
<path d="M15.7288 8.83314H14.687C14.5489 8.83314 14.4164 8.88875 14.3187 8.98775C14.221 9.08674 14.1662 9.22102 14.1662 9.36102C14.1662 9.50102 14.221 9.6353 14.3187 9.73429C14.4164 9.83329 14.5489 9.8889 14.687 9.8889H15.7288C15.867 9.8889 15.9995 9.83329 16.0971 9.73429C16.1948 9.6353 16.2497 9.50102 16.2497 9.36102C16.2497 9.22102 16.1948 9.08674 16.0971 8.98775C15.9995 8.88875 15.867 8.83314 15.7288 8.83314Z" fill="#1B76FF"/>
<path d="M12.4885 8.83314H11.4468C11.3086 8.83314 11.1761 8.88875 11.0784 8.98775C10.9808 9.08674 10.9259 9.22102 10.9259 9.36102C10.9259 9.50102 10.9808 9.6353 11.0784 9.73429C11.1761 9.83329 11.3086 9.8889 11.4468 9.8889H12.4885C12.6267 9.8889 12.7592 9.83329 12.8569 9.73429C12.9545 9.6353 13.0094 9.50102 13.0094 9.36102C13.0094 9.22102 12.9545 9.08674 12.8569 8.98775C12.7592 8.88875 12.6267 8.83314 12.4885 8.83314Z" fill="#1B76FF"/>
<path d="M15.7288 10.9447H14.687C14.5489 10.9447 14.4164 11.0003 14.3187 11.0993C14.221 11.1983 14.1662 11.3326 14.1662 11.4726C14.1662 11.6126 14.221 11.7469 14.3187 11.8458C14.4164 11.9448 14.5489 12.0005 14.687 12.0005H15.7288C15.867 12.0005 15.9995 11.9448 16.0971 11.8458C16.1948 11.7469 16.2497 11.6126 16.2497 11.4726C16.2497 11.3326 16.1948 11.1983 16.0971 11.0993C15.9995 11.0003 15.867 10.9447 15.7288 10.9447Z" fill="#1B76FF"/>
<path d="M12.4885 10.9447H11.4468C11.3086 10.9447 11.1761 11.0003 11.0784 11.0993C10.9808 11.1983 10.9259 11.3326 10.9259 11.4726C10.9259 11.6126 10.9808 11.7469 11.0784 11.8458C11.1761 11.9448 11.3086 12.0005 11.4468 12.0005H12.4885C12.6267 12.0005 12.7592 11.9448 12.8569 11.8458C12.9545 11.7469 13.0094 11.6126 13.0094 11.4726C13.0094 11.3326 12.9545 11.1983 12.8569 11.0993C12.7592 11.0003 12.6267 10.9447 12.4885 10.9447Z" fill="#1B76FF"/>
<path d="M15.7288 13.0553H14.687C14.5489 13.0553 14.4164 13.1109 14.3187 13.2099C14.221 13.3089 14.1662 13.4432 14.1662 13.5832C14.1662 13.7232 14.221 13.8575 14.3187 13.9565C14.4164 14.0555 14.5489 14.1111 14.687 14.1111H15.7288C15.867 14.1111 15.9995 14.0555 16.0971 13.9565C16.1948 13.8575 16.2497 13.7232 16.2497 13.5832C16.2497 13.4432 16.1948 13.3089 16.0971 13.2099C15.9995 13.1109 15.867 13.0553 15.7288 13.0553Z" fill="#1B76FF"/>
<path d="M12.4885 13.0553H11.4468C11.3086 13.0553 11.1761 13.1109 11.0784 13.2099C10.9808 13.3089 10.9259 13.4432 10.9259 13.5832C10.9259 13.7232 10.9808 13.8575 11.0784 13.9565C11.1761 14.0555 11.3086 14.1111 11.4468 14.1111H12.4885C12.6267 14.1111 12.7592 14.0555 12.8569 13.9565C12.9545 13.8575 13.0094 13.7232 13.0094 13.5832C13.0094 13.4432 12.9545 13.3089 12.8569 13.2099C12.7592 13.1109 12.6267 13.0553 12.4885 13.0553Z" fill="#1B76FF"/>
<path d="M9.3059 12.8429L5.03554 7.89673C4.92767 7.77853 4.77857 7.70762 4.61993 7.69908C4.46129 7.69053 4.30563 7.74503 4.18601 7.85098C4.06639 7.95693 3.99227 8.10597 3.97938 8.26644C3.9665 8.42691 4.01587 8.58614 4.11701 8.7103L8.38738 13.6564C8.49524 13.7746 8.64434 13.8455 8.80298 13.8541C8.96162 13.8626 9.11729 13.8081 9.23691 13.7022C9.35652 13.5962 9.43065 13.4472 9.44354 13.2867C9.45642 13.1262 9.40705 12.967 9.3059 12.8429Z" fill="#1B76FF"/>
<path d="M8.00496 7.30338C7.95099 7.26077 7.88926 7.22934 7.8233 7.2109C7.75735 7.19247 7.68845 7.18739 7.62056 7.19594C7.55266 7.2045 7.4871 7.22652 7.4276 7.26076C7.36811 7.295 7.31585 7.34078 7.27382 7.39549L3.62843 12.1456C3.54353 12.2561 3.50541 12.3962 3.52246 12.5352C3.53951 12.6742 3.61032 12.8006 3.71933 12.8866C3.82833 12.9726 3.96661 13.0113 4.10372 12.994C4.24084 12.9767 4.36556 12.905 4.45046 12.7945L8.09585 8.04434C8.1379 7.98965 8.16891 7.92708 8.1871 7.86024C8.20529 7.7934 8.2103 7.72358 8.20186 7.65478C8.19342 7.58597 8.17169 7.51952 8.1379 7.45922C8.10412 7.39893 8.05894 7.34598 8.00496 7.30338Z" fill="#1B76FF"/>
<path d="M10.8528 2.62102C10.7938 2.57179 10.7249 2.53625 10.6509 2.51688C10.5769 2.4975 10.4996 2.49477 10.4244 2.50887L2.09187 4.09412C1.97262 4.11638 1.86481 4.18023 1.78714 4.2746C1.70947 4.36897 1.66684 4.4879 1.66663 4.61079V16.2258C1.66662 16.3489 1.70914 16.4682 1.78682 16.5628C1.86449 16.6575 1.97242 16.7216 2.09187 16.7441L10.4244 18.3237C10.4559 18.33 10.4879 18.3333 10.5201 18.3333C10.6582 18.3333 10.7907 18.2777 10.8884 18.1787C10.9861 18.0797 11.0409 17.9455 11.0409 17.8055V3.02714C11.0411 2.94958 11.0242 2.87296 10.9917 2.80275C10.9592 2.73254 10.9118 2.67048 10.8528 2.62102ZM9.99997 17.1694L2.70839 15.7844V5.05056L9.99997 3.66557V17.1694Z" stroke="#1B76FF" stroke-width="0.5"/>
<path d="M17.8124 4.61071H10.5208C10.3827 4.61071 10.2502 4.66632 10.1525 4.76532C10.0548 4.86432 9.99995 4.99859 9.99995 5.13859C9.99995 5.2786 10.0548 5.41286 10.1525 5.51186C10.2502 5.61086 10.3827 5.66647 10.5208 5.66647H17.2915V15.1668H10.5208C10.3827 15.1668 10.2502 15.2224 10.1525 15.3214C10.0548 15.4204 9.99995 15.5546 9.99995 15.6946C9.99995 15.8346 10.0548 15.9689 10.1525 16.0679C10.2502 16.1669 10.3827 16.2225 10.5208 16.2225H17.8124C17.9506 16.2225 18.083 16.1669 18.1807 16.0679C18.2784 15.9689 18.3333 15.8346 18.3333 15.6946V5.13859C18.3333 4.99859 18.2784 4.86432 18.1807 4.76532C18.083 4.66632 17.9506 4.61071 17.8124 4.61071Z" stroke="#1B76FF" stroke-width="0.5"/>
<path d="M15.7288 6.72158H14.687C14.5489 6.72158 14.4164 6.77719 14.3187 6.87619C14.221 6.97519 14.1662 7.10946 14.1662 7.24946C14.1662 7.38947 14.221 7.52374 14.3187 7.62274C14.4164 7.72174 14.5489 7.77734 14.687 7.77734H15.7288C15.867 7.77734 15.9995 7.72174 16.0971 7.62274C16.1948 7.52374 16.2497 7.38947 16.2497 7.24946C16.2497 7.10946 16.1948 6.97519 16.0971 6.87619C15.9995 6.77719 15.867 6.72158 15.7288 6.72158Z" stroke="#1B76FF" stroke-width="0.5"/>
<path d="M12.4885 6.72158H11.4468C11.3086 6.72158 11.1761 6.77719 11.0784 6.87619C10.9808 6.97519 10.9259 7.10946 10.9259 7.24946C10.9259 7.38947 10.9808 7.52374 11.0784 7.62274C11.1761 7.72174 11.3086 7.77734 11.4468 7.77734H12.4885C12.6267 7.77734 12.7592 7.72174 12.8569 7.62274C12.9545 7.52374 13.0094 7.38947 13.0094 7.24946C13.0094 7.10946 12.9545 6.97519 12.8569 6.87619C12.7592 6.77719 12.6267 6.72158 12.4885 6.72158Z" stroke="#1B76FF" stroke-width="0.5"/>
<path d="M15.7288 8.83314H14.687C14.5489 8.83314 14.4164 8.88875 14.3187 8.98775C14.221 9.08674 14.1662 9.22102 14.1662 9.36102C14.1662 9.50102 14.221 9.6353 14.3187 9.73429C14.4164 9.83329 14.5489 9.8889 14.687 9.8889H15.7288C15.867 9.8889 15.9995 9.83329 16.0971 9.73429C16.1948 9.6353 16.2497 9.50102 16.2497 9.36102C16.2497 9.22102 16.1948 9.08674 16.0971 8.98775C15.9995 8.88875 15.867 8.83314 15.7288 8.83314Z" stroke="#1B76FF" stroke-width="0.5"/>
<path d="M12.4885 8.83314H11.4468C11.3086 8.83314 11.1761 8.88875 11.0784 8.98775C10.9808 9.08674 10.9259 9.22102 10.9259 9.36102C10.9259 9.50102 10.9808 9.6353 11.0784 9.73429C11.1761 9.83329 11.3086 9.8889 11.4468 9.8889H12.4885C12.6267 9.8889 12.7592 9.83329 12.8569 9.73429C12.9545 9.6353 13.0094 9.50102 13.0094 9.36102C13.0094 9.22102 12.9545 9.08674 12.8569 8.98775C12.7592 8.88875 12.6267 8.83314 12.4885 8.83314Z" stroke="#1B76FF" stroke-width="0.5"/>
<path d="M15.7288 10.9447H14.687C14.5489 10.9447 14.4164 11.0003 14.3187 11.0993C14.221 11.1983 14.1662 11.3326 14.1662 11.4726C14.1662 11.6126 14.221 11.7469 14.3187 11.8458C14.4164 11.9448 14.5489 12.0005 14.687 12.0005H15.7288C15.867 12.0005 15.9995 11.9448 16.0971 11.8458C16.1948 11.7469 16.2497 11.6126 16.2497 11.4726C16.2497 11.3326 16.1948 11.1983 16.0971 11.0993C15.9995 11.0003 15.867 10.9447 15.7288 10.9447Z" stroke="#1B76FF" stroke-width="0.5"/>
<path d="M12.4885 10.9447H11.4468C11.3086 10.9447 11.1761 11.0003 11.0784 11.0993C10.9808 11.1983 10.9259 11.3326 10.9259 11.4726C10.9259 11.6126 10.9808 11.7469 11.0784 11.8458C11.1761 11.9448 11.3086 12.0005 11.4468 12.0005H12.4885C12.6267 12.0005 12.7592 11.9448 12.8569 11.8458C12.9545 11.7469 13.0094 11.6126 13.0094 11.4726C13.0094 11.3326 12.9545 11.1983 12.8569 11.0993C12.7592 11.0003 12.6267 10.9447 12.4885 10.9447Z" stroke="#1B76FF" stroke-width="0.5"/>
<path d="M15.7288 13.0553H14.687C14.5489 13.0553 14.4164 13.1109 14.3187 13.2099C14.221 13.3089 14.1662 13.4432 14.1662 13.5832C14.1662 13.7232 14.221 13.8575 14.3187 13.9565C14.4164 14.0555 14.5489 14.1111 14.687 14.1111H15.7288C15.867 14.1111 15.9995 14.0555 16.0971 13.9565C16.1948 13.8575 16.2497 13.7232 16.2497 13.5832C16.2497 13.4432 16.1948 13.3089 16.0971 13.2099C15.9995 13.1109 15.867 13.0553 15.7288 13.0553Z" stroke="#1B76FF" stroke-width="0.5"/>
<path d="M12.4885 13.0553H11.4468C11.3086 13.0553 11.1761 13.1109 11.0784 13.2099C10.9808 13.3089 10.9259 13.4432 10.9259 13.5832C10.9259 13.7232 10.9808 13.8575 11.0784 13.9565C11.1761 14.0555 11.3086 14.1111 11.4468 14.1111H12.4885C12.6267 14.1111 12.7592 14.0555 12.8569 13.9565C12.9545 13.8575 13.0094 13.7232 13.0094 13.5832C13.0094 13.4432 12.9545 13.3089 12.8569 13.2099C12.7592 13.1109 12.6267 13.0553 12.4885 13.0553Z" stroke="#1B76FF" stroke-width="0.5"/>
<path d="M9.3059 12.8429L5.03554 7.89673C4.92767 7.77853 4.77857 7.70762 4.61993 7.69908C4.46129 7.69053 4.30563 7.74503 4.18601 7.85098C4.06639 7.95693 3.99227 8.10597 3.97938 8.26644C3.9665 8.42691 4.01587 8.58614 4.11701 8.7103L8.38738 13.6564C8.49524 13.7746 8.64434 13.8455 8.80298 13.8541C8.96162 13.8626 9.11729 13.8081 9.23691 13.7022C9.35652 13.5962 9.43065 13.4472 9.44354 13.2867C9.45642 13.1262 9.40705 12.967 9.3059 12.8429Z" stroke="#1B76FF" stroke-width="0.5"/>
<path d="M8.00496 7.30338C7.95099 7.26077 7.88926 7.22934 7.8233 7.2109C7.75735 7.19247 7.68845 7.18739 7.62056 7.19594C7.55266 7.2045 7.4871 7.22652 7.4276 7.26076C7.36811 7.295 7.31585 7.34078 7.27382 7.39549L3.62843 12.1456C3.54353 12.2561 3.50541 12.3962 3.52246 12.5352C3.53951 12.6742 3.61032 12.8006 3.71933 12.8866C3.82833 12.9726 3.96661 13.0113 4.10372 12.994C4.24084 12.9767 4.36556 12.905 4.45046 12.7945L8.09585 8.04434C8.1379 7.98965 8.16891 7.92708 8.1871 7.86024C8.20529 7.7934 8.2103 7.72358 8.20186 7.65478C8.19342 7.58597 8.17169 7.51952 8.1379 7.45922C8.10412 7.39893 8.05894 7.34598 8.00496 7.30338Z" stroke="#1B76FF" stroke-width="0.5"/>
</svg>
