            <svg
              version="1.1"
              xmlns="http://www.w3.org/2000/svg"
              viewBox="0 0 50 50"
              enable-background="new 0 0 50 50"
              fill="#f6f6f6"
            >
              <path
                d="M 22.6875 3 C 22.4375 3 22.2 3.1125 22 3.3125 L 21.28125 4 C 16.883592 4.0701374 13.208065 4.7363549 10.53125 5.96875 C 7.8095652 7.2218029 6 9.2125 6 11.6875 C 6 13.594551 6.8458734 15.2416 8.15625 16.46875 C 8.2514887 16.55794 8.3688667 16.633046 8.46875 16.71875 L 3.1875 22 C 2.3875 22.8 2 23.9 2 25 C 2 26.1 2.3875 27.2 3.1875 28 L 19 43.8125 C 19.8 44.6125 20.8 45 22 45 C 23.1 45 24.2 44.6125 25 43.8125 L 43 25.78125 C 43.964924 26.862719 45 28.300234 45 29.6875 C 45 31.920833 44 36.053086 44 39 C 44 40.645455 45.354545 42 47 42 C 48.645455 42 50 40.645455 50 39 L 50 28.3125 C 50 23.861218 46.447356 20.246043 42.5 17.46875 C 38.721087 14.809971 34.47643 12.893879 31.9375 11.84375 L 23.40625 3.3125 C 23.20625 3.1125 22.9375 3 22.6875 3 z M 22.59375 5.40625 L 30.3125 13.09375 A 1.0001 1.0001 0 0 0 30.5 13.3125 L 41.5 24.3125 L 23.5 42.3125 C 22.7 43.1125 21.20625 43.1125 20.40625 42.3125 L 4.59375 26.5 C 4.19375 26.1 4 25.6 4 25 C 4 24.4 4.19375 23.90625 4.59375 23.40625 L 10.125 17.875 C 11.058823 18.414336 12.080193 18.877207 13.1875 19.25 C 16.567402 20.387901 20.590507 20.827383 24.25 20.9375 C 24.586701 21.567479 25.235772 22 26 22 C 27.104569 22 28 21.104569 28 20 C 28 18.895431 27.104569 18 26 18 C 25.28502 18 24.666099 18.373278 24.3125 18.9375 C 20.778024 18.825135 16.895871 18.381818 13.8125 17.34375 C 12.024453 16.741774 10.533373 15.938475 9.53125 15 C 8.5291266 14.061525 8 13.030449 8 11.6875 C 8 10.1625 9.0466848 8.8531971 11.375 7.78125 C 13.266756 6.910293 15.947786 6.3140894 19.1875 6.09375 L 11.1875 14 C 11.6875 14.4 12.4 14.7 13 15 L 22.59375 5.40625 z M 36.03125 15.9375 C 37.779073 16.835093 39.651465 17.8811 41.375 19.09375 C 45.102644 21.716457 48 24.963782 48 28.3125 L 48 39 C 48 39.554545 47.554545 40 47 40 C 46.445455 40 46 39.554545 46 39 C 46 36.546914 47 32.454167 47 29.6875 C 47 26.836775 44.840177 24.715177 43.71875 23.59375 L 43.6875 23.59375 L 39.84375 19.75 L 36.03125 15.9375 z"
              />
            </svg>